<?xml version="1.0" standalone="no"?>
<svg viewBox="0 0 1024 768" version="1.1" xmlns="http://www.w3.org/2000/svg" xmlns:xlink="http://www.w3.org/1999/xlink" stroke-linecap="round" stroke-linejoin="round" fill-rule="evenodd" xml:space="preserve" style="background-color:rgb(0,0,0);" >
<defs >
<style >g[clip-path] > * {vector-effect: non-scaling-stroke;}</style>
<clipPath id="clipId0" >
<path d="M0,768 1024,768 1024,0 0,0 z" />
</clipPath>
</defs>
<g clip-path="url(#clipId0)" fill="none" stroke="rgb(255,255,255)" stroke-width="1px" />
<g clip-path="url(#clipId0)" fill="none" stroke="rgb(255,255,255)" stroke-width="1px" >
<polyline points="31.8557,747.608 162.755,747.608 " />
<path d="M162.755,747.608  A21.8165,21.8165 0 0,0 166.391,747.303 " />
<path d="M166.391,747.303  A21.8165,21.8165 0 0,0 170.027,747.608 " />
<polyline points="170.027,747.608 300.926,747.608 " />
<path d="M300.926,747.608  A21.8165,21.8165 0 0,0 304.562,747.303 " />
<path d="M304.562,747.303  A21.8165,21.8165 0 0,0 308.198,747.608 " />
<polyline points="308.198,747.608 439.097,747.608 " />
<path d="M439.097,747.608  A21.8165,21.8165 0 0,0 442.733,747.303 " />
<path d="M442.733,747.303  A21.8165,21.8165 0 0,0 446.369,747.608 " />
<polyline points="446.369,747.608 577.268,747.608 " />
<path d="M577.268,747.608  A21.8165,21.8165 0 0,0 580.904,747.303 " />
<path d="M580.904,747.303  A21.8165,21.8165 0 0,0 584.54,747.608 " />
<polyline points="584.54,747.608 715.439,747.608 " />
<path d="M715.439,747.608  A21.8165,21.8165 0 0,0 719.166,747.287 " />
<path d="M719.166,747.287  A21.8165,21.8165 0 0,0 722.893,747.608 " />
<polyline points="722.893,747.608 991.963,747.608 " />
<path d="M991.963,747.608  A21.8165,21.8165 0 0,0 1013.78,725.791 " />
<polyline points="1013.78,725.791 1013.78,594.893 " />
<path d="M1013.78,594.893  A21.8165,21.8165 0 0,0 1013.56,591.794 " />
<path d="M1013.56,591.794  A21.8165,21.8165 0 0,0 1013.96,587.62 " />
<polyline points="1013.96,587.62 1013.96,456.722 " />
<path d="M1013.96,456.722  A21.8165,21.8165 0 0,0 992.144,434.905 " />
<polyline points="992.144,434.905 959.238,434.905 " />
<polyline points="944.693,420.361 944.693,318.551 " />
<path d="M944.693,318.551  A21.8165,21.8165 0 0,0 922.877,296.734 " />
<polyline points="922.877,296.734 910.06,296.734 " />
<polyline points="910.06,296.734 910.06,209.468 " />
<polyline points="924.604,194.924 991.781,194.924 " />
<path d="M991.781,194.924  A21.8165,21.8165 0 0,0 1013.6,173.107 " />
<polyline points="1013.6,173.107 1013.6,42.2085 " />
<path d="M1013.6,42.2085  A21.8165,21.8165 0 0,0 991.781,20.392 " />
<polyline points="991.781,20.392 860.882,20.392 " />
<path d="M860.882,20.392  A21.8165,21.8165 0 0,0 857.246,20.6972 " />
<path d="M857.246,20.6972  A21.8165,21.8165 0 0,0 853.61,20.392 " />
<polyline points="853.61,20.392 722.711,20.392 " />
<path d="M722.711,20.392  A21.8165,21.8165 0 0,0 719.075,20.6972 " />
<path d="M719.075,20.6972  A21.8165,21.8165 0 0,0 715.439,20.392 " />
<polyline points="715.439,20.392 584.54,20.392 " />
<path d="M584.54,20.392  A21.8165,21.8165 0 0,0 580.904,20.6972 " />
<path d="M580.904,20.6972  A21.8165,21.8165 0 0,0 577.268,20.392 " />
<polyline points="577.268,20.392 446.369,20.392 " />
<path d="M446.369,20.392  A21.8165,21.8165 0 0,0 442.733,20.6972 " />
<path d="M442.733,20.6972  A21.8165,21.8165 0 0,0 439.097,20.392 " />
<polyline points="439.097,20.392 308.198,20.392 " />
<path d="M308.198,20.392  A21.8165,21.8165 0 0,0 304.562,20.6972 " />
<path d="M304.562,20.6972  A21.8165,21.8165 0 0,0 300.926,20.392 " />
<polyline points="300.926,20.392 170.027,20.392 " />
<path d="M170.027,20.392  A21.8165,21.8165 0 0,0 166.391,20.6972 " />
<path d="M166.391,20.6972  A21.8165,21.8165 0 0,0 162.755,20.392 " />
<polyline points="162.755,20.392 31.8557,20.392 " />
<path d="M31.8557,20.392  A21.8165,21.8165 0 0,0 10.0392,42.2085 " />
<polyline points="10.0392,42.2085 10.0392,173.107 " />
<path d="M10.0392,173.107  A21.8165,21.8165 0 0,0 10.3675,176.878 " />
<path d="M10.3675,176.878  A21.8165,21.8165 0 0,0 10.0847,180.38 " />
<polyline points="10.0847,180.38 10.0847,311.278 " />
<path d="M10.0847,311.278  A21.8165,21.8165 0 0,0 10.413,315.049 " />
<path d="M10.413,315.049  A21.8165,21.8165 0 0,0 10.1301,318.551 " />
<polyline points="10.1301,318.551 10.1301,449.449 " />
<path d="M10.1301,449.449  A21.8165,21.8165 0 0,0 10.4824,453.354 " />
<path d="M10.4824,453.354  A21.8165,21.8165 0 0,0 10.221,456.722 " />
<polyline points="10.221,456.722 10.221,587.62 " />
<path d="M10.221,587.62  A21.8165,21.8165 0 0,0 10.4422,590.719 " />
<path d="M10.4422,590.719  A21.8165,21.8165 0 0,0 10.0392,594.893 " />
<polyline points="10.0392,594.893 10.0392,725.791 " />
<path d="M10.0392,725.791  A21.8165,21.8165 0 0,0 31.8557,747.608 " />
<path d="M944.693,420.361  A14.5443,14.5443 0 0,0 959.238,434.905 " />
<path d="M924.604,194.924  A14.5443,14.5443 0 0,0 910.06,209.468 " />
<circle cx="60.9443" cy="180.38" r="8.72659" />
<circle cx="889.97" cy="180.38" r="8.72659" />
<circle cx="60.9443" cy="587.62" r="8.72659" />
<circle cx="737.619" cy="594.893" r="8.72659" />
</g>
</svg>
