<?xml version="1.0" standalone="no"?>
<svg viewBox="0 0 1024 768" version="1.1" xmlns="http://www.w3.org/2000/svg" xmlns:xlink="http://www.w3.org/1999/xlink" stroke-linecap="round" stroke-linejoin="round" fill-rule="evenodd" xml:space="preserve" style="background-color:rgb(0,0,0);" >
<defs >
<style >g[clip-path] > * {vector-effect: non-scaling-stroke;}</style>
<clipPath id="clipId0" >
<path d="M0,768 1024,768 1024,0 0,0 z" />
</clipPath>
</defs>
<g clip-path="url(#clipId0)" fill="none" stroke="rgb(255,255,255)" stroke-width="1px" />
<g clip-path="url(#clipId0)" fill="none" stroke="rgb(255,255,255)" stroke-width="1px" >
<polyline points="68.7059,474.353 102.4,474.353 " />
<polyline points="117.459,489.412 117.459,594.824 " />
<path d="M117.459,594.824  A22.5882,22.5882 0 0,0 117.688,598.032 " />
<path d="M117.688,598.032  A22.5882,22.5882 0 0,0 117.271,602.353 " />
<polyline points="117.271,602.353 117.271,737.882 " />
<path d="M117.271,737.882  A22.5882,22.5882 0 0,0 139.859,760.471 " />
<polyline points="139.859,760.471 418.447,760.471 " />
<path d="M418.447,760.471  A22.5882,22.5882 0 0,0 422.306,760.139 " />
<path d="M422.306,760.139  A22.5882,22.5882 0 0,0 426.165,760.471 " />
<polyline points="426.165,760.471 561.694,760.471 " />
<path d="M561.694,760.471  A22.5882,22.5882 0 0,0 565.459,760.155 " />
<path d="M565.459,760.155  A22.5882,22.5882 0 0,0 569.224,760.471 " />
<polyline points="569.224,760.471 704.753,760.471 " />
<path d="M704.753,760.471  A22.5882,22.5882 0 0,0 708.518,760.155 " />
<path d="M708.518,760.155  A22.5882,22.5882 0 0,0 712.282,760.471 " />
<polyline points="712.282,760.471 847.812,760.471 " />
<path d="M847.812,760.471  A22.5882,22.5882 0 0,0 851.576,760.155 " />
<path d="M851.576,760.155  A22.5882,22.5882 0 0,0 855.341,760.471 " />
<polyline points="855.341,760.471 990.871,760.471 " />
<path d="M990.871,760.471  A22.5882,22.5882 0 0,0 1013.46,737.882 " />
<polyline points="1013.46,737.882 1013.46,602.353 " />
<path d="M1013.46,602.353  A22.5882,22.5882 0 0,0 1013.14,598.588 " />
<path d="M1013.14,598.588  A22.5882,22.5882 0 0,0 1013.46,594.824 " />
<polyline points="1013.46,594.824 1013.46,459.294 " />
<path d="M1013.46,459.294  A22.5882,22.5882 0 0,0 1013.27,456.364 " />
<path d="M1013.27,456.364  A22.5882,22.5882 0 0,0 1013.74,451.765 " />
<polyline points="1013.74,451.765 1013.74,316.235 " />
<path d="M1013.74,316.235  A22.5882,22.5882 0 0,0 1013.4,312.331 " />
<path d="M1013.4,312.331  A22.5882,22.5882 0 0,0 1013.69,308.706 " />
<polyline points="1013.69,308.706 1013.69,173.176 " />
<path d="M1013.69,173.176  A22.5882,22.5882 0 0,0 1013.25,168.716 " />
<path d="M1013.25,168.716  A22.5882,22.5882 0 0,0 1013.46,165.647 " />
<polyline points="1013.46,165.647 1013.46,30.1176 " />
<path d="M1013.46,30.1176  A22.5882,22.5882 0 0,0 990.871,7.52941 " />
<polyline points="990.871,7.52941 855.341,7.52941 " />
<path d="M855.341,7.52941  A22.5882,22.5882 0 0,0 851.576,7.84535 " />
<path d="M851.576,7.84535  A22.5882,22.5882 0 0,0 847.812,7.52941 " />
<polyline points="847.812,7.52941 712.282,7.52941 " />
<path d="M712.282,7.52941  A22.5882,22.5882 0 0,0 708.518,7.84535 " />
<path d="M708.518,7.84535  A22.5882,22.5882 0 0,0 704.753,7.52941 " />
<polyline points="704.753,7.52941 569.224,7.52941 " />
<path d="M569.224,7.52941  A22.5882,22.5882 0 0,0 565.459,7.84535 " />
<path d="M565.459,7.84535  A22.5882,22.5882 0 0,0 561.694,7.52941 " />
<polyline points="561.694,7.52941 426.165,7.52941 " />
<path d="M426.165,7.52941  A22.5882,22.5882 0 0,0 422.4,7.84535 " />
<path d="M422.4,7.84535  A22.5882,22.5882 0 0,0 418.635,7.52941 " />
<polyline points="418.635,7.52941 283.106,7.52941 " />
<path d="M283.106,7.52941  A22.5882,22.5882 0 0,0 279.341,7.84535 " />
<path d="M279.341,7.84535  A22.5882,22.5882 0 0,0 275.576,7.52941 " />
<polyline points="275.576,7.52941 140.047,7.52941 " />
<path d="M140.047,7.52941  A22.5882,22.5882 0 0,0 117.459,30.1176 " />
<polyline points="117.459,30.1176 117.459,135.529 " />
<polyline points="102.4,150.588 32.8471,150.588 " />
<path d="M32.8471,150.588  A22.5882,22.5882 0 0,0 10.2588,173.176 " />
<polyline points="10.2588,173.176 10.2588,308.706 " />
<path d="M10.2588,308.706  A22.5882,22.5882 0 0,0 32.8471,331.294 " />
<polyline points="32.8471,331.294 46.1176,331.294 " />
<polyline points="46.1176,331.294 46.1176,451.765 " />
<path d="M46.1176,451.765  A22.5882,22.5882 0 0,0 68.7059,474.353 " />
<path d="M117.459,489.412  A15.0588,15.0588 0 0,0 102.4,474.353 " />
<path d="M102.4,150.588  A15.0588,15.0588 0 0,0 117.459,135.529 " />
<circle cx="170.165" cy="173.176" r="9.03529" />
<circle cx="960.753" cy="173.176" r="9.03529" />
<circle cx="403.576" cy="602.353" r="9.03529" />
<circle cx="923.106" cy="602.353" r="9.03529" />
</g>
</svg>
