%TF.GenerationSoftware,KiCad,Pcbnew,9.0.7*%
%TF.CreationDate,2026-01-20T23:15:53-08:00*%
%TF.ProjectId,left,6c656674-2e6b-4696-9361-645f70636258,v1.0.0*%
%TF.SameCoordinates,Original*%
%TF.FileFunction,Copper,L2,Bot*%
%TF.FilePolarity,Positive*%
%FSLAX46Y46*%
G04 Gerber Fmt 4.6, Leading zero omitted, Abs format (unit mm)*
G04 Created by KiCad (PCBNEW 9.0.7) date 2026-01-20 23:15:53*
%MOMM*%
%LPD*%
G01*
G04 APERTURE LIST*
%TA.AperFunction,SMDPad,CuDef*%
%ADD10R,0.900000X0.900000*%
%TD*%
%TA.AperFunction,WasherPad*%
%ADD11C,1.000000*%
%TD*%
%TA.AperFunction,SMDPad,CuDef*%
%ADD12R,0.900000X1.250000*%
%TD*%
%TA.AperFunction,SMDPad,CuDef*%
%ADD13R,2.550000X2.500000*%
%TD*%
%TA.AperFunction,ComponentPad*%
%ADD14R,1.778000X1.778000*%
%TD*%
%TA.AperFunction,SMDPad,CuDef*%
%ADD15R,0.900000X1.200000*%
%TD*%
%TA.AperFunction,ComponentPad*%
%ADD16C,1.905000*%
%TD*%
%TA.AperFunction,ComponentPad*%
%ADD17C,3.800000*%
%TD*%
%TA.AperFunction,ComponentPad*%
%ADD18R,1.700000X1.200000*%
%TD*%
%TA.AperFunction,ComponentPad*%
%ADD19O,1.700000X1.200000*%
%TD*%
%TA.AperFunction,SMDPad,CuDef*%
%ADD20R,1.550000X1.000000*%
%TD*%
%TA.AperFunction,ComponentPad*%
%ADD21C,1.752600*%
%TD*%
%TA.AperFunction,ViaPad*%
%ADD22C,0.600000*%
%TD*%
%TA.AperFunction,Conductor*%
%ADD23C,0.200000*%
%TD*%
G04 APERTURE END LIST*
D10*
%TO.P,T1,*%
%TO.N,*%
X210300000Y-63400000D03*
X210300000Y-65600000D03*
D11*
X212500000Y-64500000D03*
X215500000Y-64500000D03*
D10*
X217700000Y-63400000D03*
X217700000Y-65600000D03*
D12*
%TO.P,T1,1*%
%TO.N,pos*%
X211750000Y-66575000D03*
%TO.P,T1,2*%
%TO.N,RAW*%
X214750000Y-66575000D03*
%TO.P,T1,3*%
%TO.N,N/C*%
X216250000Y-66575000D03*
%TD*%
D13*
%TO.P,S5,1*%
%TO.N,P106*%
X107085000Y-76540000D03*
%TO.P,S5,2*%
%TO.N,c1_num*%
X94158000Y-79080000D03*
%TD*%
D14*
%TO.P,D28,1*%
%TO.N,P115*%
X200715000Y-108500000D03*
D15*
X202875000Y-108500000D03*
%TO.P,D28,2*%
%TO.N,c6_home*%
X206175000Y-108500000D03*
D16*
X208335000Y-108500000D03*
%TD*%
D17*
%TO.P,H4,*%
%TO.N,*%
X188050000Y-141000000D03*
%TD*%
D13*
%TO.P,S12,1*%
%TO.N,P009*%
X164135000Y-133540000D03*
%TO.P,S12,2*%
%TO.N,c3_bottom*%
X151208000Y-136080000D03*
%TD*%
D18*
%TO.P,JST1,1*%
%TO.N,pos*%
X143525000Y-104000000D03*
D19*
%TO.P,JST1,2*%
%TO.N,GND*%
X143525000Y-102000000D03*
%TD*%
D14*
%TO.P,D15,1*%
%TO.N,P029*%
X134190000Y-70500000D03*
D15*
X136350000Y-70500000D03*
%TO.P,D15,2*%
%TO.N,c3_num*%
X139650000Y-70500000D03*
D16*
X141810000Y-70500000D03*
%TD*%
D20*
%TO.P,B1,1*%
%TO.N,GND*%
X197375000Y-63150000D03*
X202625000Y-63150000D03*
%TO.P,B1,2*%
%TO.N,RST*%
X197375000Y-64850000D03*
X202625000Y-64850000D03*
%TD*%
D14*
%TO.P,D24,1*%
%TO.N,P031*%
X176952500Y-89500000D03*
D15*
X179112500Y-89500000D03*
%TO.P,D24,2*%
%TO.N,c5_top*%
X182412500Y-89500000D03*
D16*
X184572500Y-89500000D03*
%TD*%
D13*
%TO.P,S4,1*%
%TO.N,P106*%
X109466250Y-95540000D03*
%TO.P,S4,2*%
%TO.N,c1_top*%
X96539250Y-98080000D03*
%TD*%
D14*
%TO.P,D27,1*%
%TO.N,P010*%
X210240000Y-127500000D03*
D15*
X212400000Y-127500000D03*
%TO.P,D27,2*%
%TO.N,c6_bottom*%
X215700000Y-127500000D03*
D16*
X217860000Y-127500000D03*
%TD*%
D14*
%TO.P,D29,1*%
%TO.N,P031*%
X195952500Y-89500000D03*
D15*
X198112500Y-89500000D03*
%TO.P,D29,2*%
%TO.N,c6_top*%
X201412500Y-89500000D03*
D16*
X203572500Y-89500000D03*
%TD*%
D14*
%TO.P,D13,1*%
%TO.N,P115*%
X143715000Y-108500000D03*
D15*
X145875000Y-108500000D03*
%TO.P,D13,2*%
%TO.N,c3_home*%
X149175000Y-108500000D03*
D16*
X151335000Y-108500000D03*
%TD*%
D13*
%TO.P,S17,1*%
%TO.N,P020*%
X183135000Y-133540000D03*
%TO.P,S17,2*%
%TO.N,c4_bottom*%
X170208000Y-136080000D03*
%TD*%
%TO.P,S14,1*%
%TO.N,P009*%
X149847500Y-95540000D03*
%TO.P,S14,2*%
%TO.N,c3_top*%
X136920500Y-98080000D03*
%TD*%
%TO.P,S15,1*%
%TO.N,P009*%
X145085000Y-76540000D03*
%TO.P,S15,2*%
%TO.N,c3_num*%
X132158000Y-79080000D03*
%TD*%
%TO.P,S26,1*%
%TO.N,P024*%
X211610000Y-152540000D03*
%TO.P,S26,2*%
%TO.N,c6_mod*%
X198683000Y-155080000D03*
%TD*%
%TO.P,S19,1*%
%TO.N,P020*%
X168847500Y-95540000D03*
%TO.P,S19,2*%
%TO.N,c4_top*%
X155920500Y-98080000D03*
%TD*%
%TO.P,S23,1*%
%TO.N,P111*%
X192610000Y-114540000D03*
%TO.P,S23,2*%
%TO.N,c5_home*%
X179683000Y-117080000D03*
%TD*%
%TO.P,S25,1*%
%TO.N,P111*%
X183085000Y-76540000D03*
%TO.P,S25,2*%
%TO.N,c5_num*%
X170158000Y-79080000D03*
%TD*%
D14*
%TO.P,D23,1*%
%TO.N,P115*%
X181715000Y-108500000D03*
D15*
X183875000Y-108500000D03*
%TO.P,D23,2*%
%TO.N,c5_home*%
X187175000Y-108500000D03*
D16*
X189335000Y-108500000D03*
%TD*%
D14*
%TO.P,D14,1*%
%TO.N,P031*%
X138952500Y-89500000D03*
D15*
X141112500Y-89500000D03*
%TO.P,D14,2*%
%TO.N,c3_top*%
X144412500Y-89500000D03*
D16*
X146572500Y-89500000D03*
%TD*%
D17*
%TO.P,H3,*%
%TO.N,*%
X95000000Y-140000000D03*
%TD*%
D13*
%TO.P,S13,1*%
%TO.N,P009*%
X154610000Y-114540000D03*
%TO.P,S13,2*%
%TO.N,c3_home*%
X141683000Y-117080000D03*
%TD*%
D14*
%TO.P,D31,1*%
%TO.N,P029*%
X210190000Y-70500000D03*
D15*
X212350000Y-70500000D03*
%TO.P,D31,2*%
%TO.N,c7_num*%
X215650000Y-70500000D03*
D16*
X217810000Y-70500000D03*
%TD*%
D13*
%TO.P,S31,1*%
%TO.N,P100*%
X221085000Y-76540000D03*
%TO.P,S31,2*%
%TO.N,c7_num*%
X208158000Y-79080000D03*
%TD*%
D14*
%TO.P,D10,1*%
%TO.N,P029*%
X115190000Y-70500000D03*
D15*
X117350000Y-70500000D03*
%TO.P,D10,2*%
%TO.N,c2_num*%
X120650000Y-70500000D03*
D16*
X122810000Y-70500000D03*
%TD*%
D13*
%TO.P,S28,1*%
%TO.N,P024*%
X211610000Y-114540000D03*
%TO.P,S28,2*%
%TO.N,c6_home*%
X198683000Y-117080000D03*
%TD*%
%TO.P,S27,1*%
%TO.N,P024*%
X221135000Y-133540000D03*
%TO.P,S27,2*%
%TO.N,c6_bottom*%
X208208000Y-136080000D03*
%TD*%
%TO.P,S24,1*%
%TO.N,P111*%
X187847500Y-95540000D03*
%TO.P,S24,2*%
%TO.N,c5_top*%
X174920500Y-98080000D03*
%TD*%
D17*
%TO.P,H2,*%
%TO.N,*%
X209000000Y-84000000D03*
%TD*%
D13*
%TO.P,S20,1*%
%TO.N,P020*%
X164085000Y-76540000D03*
%TO.P,S20,2*%
%TO.N,c4_num*%
X151158000Y-79080000D03*
%TD*%
D14*
%TO.P,D30,1*%
%TO.N,P029*%
X191190000Y-70500000D03*
D15*
X193350000Y-70500000D03*
%TO.P,D30,2*%
%TO.N,c6_num*%
X196650000Y-70500000D03*
D16*
X198810000Y-70500000D03*
%TD*%
D13*
%TO.P,S3,1*%
%TO.N,P106*%
X111847500Y-114540000D03*
%TO.P,S3,2*%
%TO.N,c1_home*%
X98920500Y-117080000D03*
%TD*%
%TO.P,S30,1*%
%TO.N,P024*%
X202085000Y-76540000D03*
%TO.P,S30,2*%
%TO.N,c6_num*%
X189158000Y-79080000D03*
%TD*%
%TO.P,S10,1*%
%TO.N,P008*%
X126085000Y-76540000D03*
%TO.P,S10,2*%
%TO.N,c2_num*%
X113158000Y-79080000D03*
%TD*%
D14*
%TO.P,D22,1*%
%TO.N,P010*%
X191240000Y-127500000D03*
D15*
X193400000Y-127500000D03*
%TO.P,D22,2*%
%TO.N,c5_bottom*%
X196700000Y-127500000D03*
D16*
X198860000Y-127500000D03*
%TD*%
D14*
%TO.P,D3,1*%
%TO.N,P115*%
X100952500Y-108500000D03*
D15*
X103112500Y-108500000D03*
%TO.P,D3,2*%
%TO.N,c1_home*%
X106412500Y-108500000D03*
D16*
X108572500Y-108500000D03*
%TD*%
D14*
%TO.P,D5,1*%
%TO.N,P029*%
X96190000Y-70500000D03*
D15*
X98350000Y-70500000D03*
%TO.P,D5,2*%
%TO.N,c1_num*%
X101650000Y-70500000D03*
D16*
X103810000Y-70500000D03*
%TD*%
D14*
%TO.P,D2,1*%
%TO.N,P010*%
X105715000Y-127500000D03*
D15*
X107875000Y-127500000D03*
%TO.P,D2,2*%
%TO.N,c1_bottom*%
X111175000Y-127500000D03*
D16*
X113335000Y-127500000D03*
%TD*%
D14*
%TO.P,D17,1*%
%TO.N,P010*%
X172240000Y-127500000D03*
D15*
X174400000Y-127500000D03*
%TO.P,D17,2*%
%TO.N,c4_bottom*%
X177700000Y-127500000D03*
D16*
X179860000Y-127500000D03*
%TD*%
D14*
%TO.P,D11,1*%
%TO.N,P011*%
X134190000Y-146500000D03*
D15*
X136350000Y-146500000D03*
%TO.P,D11,2*%
%TO.N,c3_mod*%
X139650000Y-146500000D03*
D16*
X141810000Y-146500000D03*
%TD*%
D14*
%TO.P,D18,1*%
%TO.N,P115*%
X162715000Y-108500000D03*
D15*
X164875000Y-108500000D03*
%TO.P,D18,2*%
%TO.N,c4_home*%
X168175000Y-108500000D03*
D16*
X170335000Y-108500000D03*
%TD*%
D14*
%TO.P,D12,1*%
%TO.N,P010*%
X153240000Y-127500000D03*
D15*
X155400000Y-127500000D03*
%TO.P,D12,2*%
%TO.N,c3_bottom*%
X158700000Y-127500000D03*
D16*
X160860000Y-127500000D03*
%TD*%
D14*
%TO.P,D20,1*%
%TO.N,P029*%
X153190000Y-70500000D03*
D15*
X155350000Y-70500000D03*
%TO.P,D20,2*%
%TO.N,c4_num*%
X158650000Y-70500000D03*
D16*
X160810000Y-70500000D03*
%TD*%
D14*
%TO.P,D16,1*%
%TO.N,P011*%
X153190000Y-146500000D03*
D15*
X155350000Y-146500000D03*
%TO.P,D16,2*%
%TO.N,c4_mod*%
X158650000Y-146500000D03*
D16*
X160810000Y-146500000D03*
%TD*%
D14*
%TO.P,D21,1*%
%TO.N,P011*%
X172190000Y-146500000D03*
D15*
X174350000Y-146500000D03*
%TO.P,D21,2*%
%TO.N,c5_mod*%
X177650000Y-146500000D03*
D16*
X179810000Y-146500000D03*
%TD*%
D13*
%TO.P,S18,1*%
%TO.N,P020*%
X173610000Y-114540000D03*
%TO.P,S18,2*%
%TO.N,c4_home*%
X160683000Y-117080000D03*
%TD*%
%TO.P,S11,1*%
%TO.N,P009*%
X145085000Y-152540000D03*
%TO.P,S11,2*%
%TO.N,c3_mod*%
X132158000Y-155080000D03*
%TD*%
D14*
%TO.P,D8,1*%
%TO.N,P115*%
X124715000Y-108500000D03*
D15*
X126875000Y-108500000D03*
%TO.P,D8,2*%
%TO.N,c2_home*%
X130175000Y-108500000D03*
D16*
X132335000Y-108500000D03*
%TD*%
D14*
%TO.P,D26,1*%
%TO.N,P011*%
X200715000Y-146500000D03*
D15*
X202875000Y-146500000D03*
%TO.P,D26,2*%
%TO.N,c6_mod*%
X206175000Y-146500000D03*
D16*
X208335000Y-146500000D03*
%TD*%
D14*
%TO.P,D7,1*%
%TO.N,P010*%
X134240000Y-127500000D03*
D15*
X136400000Y-127500000D03*
%TO.P,D7,2*%
%TO.N,c2_bottom*%
X139700000Y-127500000D03*
D16*
X141860000Y-127500000D03*
%TD*%
D13*
%TO.P,S6,1*%
%TO.N,P008*%
X126085000Y-152540000D03*
%TO.P,S6,2*%
%TO.N,c2_mod*%
X113158000Y-155080000D03*
%TD*%
D14*
%TO.P,D6,1*%
%TO.N,P011*%
X115190000Y-146500000D03*
D15*
X117350000Y-146500000D03*
%TO.P,D6,2*%
%TO.N,c2_mod*%
X120650000Y-146500000D03*
D16*
X122810000Y-146500000D03*
%TD*%
D13*
%TO.P,S9,1*%
%TO.N,P008*%
X130847500Y-95540000D03*
%TO.P,S9,2*%
%TO.N,c2_top*%
X117920500Y-98080000D03*
%TD*%
%TO.P,S1,1*%
%TO.N,P106*%
X107085000Y-152540000D03*
%TO.P,S1,2*%
%TO.N,c1_mod*%
X94158000Y-155080000D03*
%TD*%
D14*
%TO.P,D19,1*%
%TO.N,P031*%
X157952500Y-89500000D03*
D15*
X160112500Y-89500000D03*
%TO.P,D19,2*%
%TO.N,c4_top*%
X163412500Y-89500000D03*
D16*
X165572500Y-89500000D03*
%TD*%
D13*
%TO.P,S16,1*%
%TO.N,P020*%
X164085000Y-152540000D03*
%TO.P,S16,2*%
%TO.N,c4_mod*%
X151158000Y-155080000D03*
%TD*%
D14*
%TO.P,D9,1*%
%TO.N,P031*%
X119952500Y-89500000D03*
D15*
X122112500Y-89500000D03*
%TO.P,D9,2*%
%TO.N,c2_top*%
X125412500Y-89500000D03*
D16*
X127572500Y-89500000D03*
%TD*%
D13*
%TO.P,S8,1*%
%TO.N,P008*%
X135610000Y-114540000D03*
%TO.P,S8,2*%
%TO.N,c2_home*%
X122683000Y-117080000D03*
%TD*%
D14*
%TO.P,D1,1*%
%TO.N,P011*%
X96190000Y-146500000D03*
D15*
X98350000Y-146500000D03*
%TO.P,D1,2*%
%TO.N,c1_mod*%
X101650000Y-146500000D03*
D16*
X103810000Y-146500000D03*
%TD*%
D14*
%TO.P,D4,1*%
%TO.N,P031*%
X98571250Y-89500000D03*
D15*
X100731250Y-89500000D03*
%TO.P,D4,2*%
%TO.N,c1_top*%
X104031250Y-89500000D03*
D16*
X106191250Y-89500000D03*
%TD*%
D17*
%TO.P,H1,*%
%TO.N,*%
X95000000Y-84000000D03*
%TD*%
D13*
%TO.P,S21,1*%
%TO.N,P111*%
X183085000Y-152540000D03*
%TO.P,S21,2*%
%TO.N,c5_mod*%
X170158000Y-155080000D03*
%TD*%
%TO.P,S29,1*%
%TO.N,P024*%
X206847500Y-95540000D03*
%TO.P,S29,2*%
%TO.N,c6_top*%
X193920500Y-98080000D03*
%TD*%
%TO.P,S22,1*%
%TO.N,P111*%
X202135000Y-133540000D03*
%TO.P,S22,2*%
%TO.N,c5_bottom*%
X189208000Y-136080000D03*
%TD*%
D14*
%TO.P,D25,1*%
%TO.N,P029*%
X172190000Y-70500000D03*
D15*
X174350000Y-70500000D03*
%TO.P,D25,2*%
%TO.N,c5_num*%
X177650000Y-70500000D03*
D16*
X179810000Y-70500000D03*
%TD*%
D13*
%TO.P,S7,1*%
%TO.N,P008*%
X145135000Y-133540000D03*
%TO.P,S7,2*%
%TO.N,c2_bottom*%
X132208000Y-136080000D03*
%TD*%
%TO.P,S2,1*%
%TO.N,P106*%
X116610000Y-133540000D03*
%TO.P,S2,2*%
%TO.N,c1_bottom*%
X103683000Y-136080000D03*
%TD*%
D21*
%TO.P,MCU1,1*%
%TO.N,P006*%
X220495000Y-158620000D03*
%TO.P,MCU1,2*%
%TO.N,P008*%
X217955000Y-158620000D03*
%TO.P,MCU1,3*%
%TO.N,GND*%
X215415000Y-158620000D03*
%TO.P,MCU1,4*%
X212875000Y-158620000D03*
%TO.P,MCU1,5*%
%TO.N,P017*%
X210335000Y-158620000D03*
%TO.P,MCU1,6*%
%TO.N,P020*%
X207795000Y-158620000D03*
%TO.P,MCU1,7*%
%TO.N,P022*%
X205255000Y-158620000D03*
%TO.P,MCU1,8*%
%TO.N,P024*%
X202715000Y-158620000D03*
%TO.P,MCU1,9*%
%TO.N,P100*%
X200175000Y-158620000D03*
%TO.P,MCU1,10*%
%TO.N,P011*%
X197635000Y-158620000D03*
%TO.P,MCU1,11*%
%TO.N,P104*%
X195095000Y-158620000D03*
%TO.P,MCU1,12*%
%TO.N,P106*%
X192555000Y-158620000D03*
%TO.P,MCU1,13*%
%TO.N,P009*%
X192555000Y-143380000D03*
%TO.P,MCU1,14*%
%TO.N,P010*%
X195095000Y-143380000D03*
%TO.P,MCU1,15*%
%TO.N,P111*%
X197635000Y-143380000D03*
%TO.P,MCU1,16*%
%TO.N,P113*%
X200175000Y-143380000D03*
%TO.P,MCU1,17*%
%TO.N,P115*%
X202715000Y-143380000D03*
%TO.P,MCU1,18*%
%TO.N,P002*%
X205255000Y-143380000D03*
%TO.P,MCU1,19*%
%TO.N,P029*%
X207795000Y-143380000D03*
%TO.P,MCU1,20*%
%TO.N,P031*%
X210335000Y-143380000D03*
%TO.P,MCU1,21*%
%TO.N,VCC*%
X212875000Y-143380000D03*
%TO.P,MCU1,22*%
%TO.N,RST*%
X215415000Y-143380000D03*
%TO.P,MCU1,23*%
%TO.N,GND*%
X217955000Y-143380000D03*
%TO.P,MCU1,24*%
%TO.N,RAW*%
X220495000Y-143380000D03*
%TD*%
D22*
%TO.N,P106*%
X129600000Y-159400000D03*
%TO.N,P008*%
X198800000Y-160800000D03*
%TO.N,P020*%
X188800000Y-149400000D03*
%TO.N,GND*%
X224800000Y-141200000D03*
%TD*%
D23*
%TO.N,P106*%
X116610000Y-119302500D02*
X116610000Y-133540000D01*
X111847500Y-114540000D02*
X116610000Y-119302500D01*
X109466250Y-95540000D02*
X111847500Y-97921250D01*
X107085000Y-143065000D02*
X116610000Y-133540000D01*
X114351000Y-159400000D02*
X129600000Y-159400000D01*
X109466250Y-78921250D02*
X109466250Y-95540000D01*
X107085000Y-152540000D02*
X107085000Y-143065000D01*
X111847500Y-97921250D02*
X111847500Y-114540000D01*
X111582000Y-138568000D02*
X111582000Y-156631000D01*
X107085000Y-76540000D02*
X109466250Y-78921250D01*
X116610000Y-133540000D02*
X111582000Y-138568000D01*
X111582000Y-156631000D02*
X114351000Y-159400000D01*
%TO.N,c1_mod*%
X101650000Y-146500000D02*
X103810000Y-146500000D01*
X103810000Y-146500000D02*
X103810000Y-149506189D01*
X100087189Y-153229000D02*
X96009000Y-153229000D01*
X103810000Y-149506189D02*
X100087189Y-153229000D01*
X96009000Y-153229000D02*
X94158000Y-155080000D01*
%TO.N,c1_bottom*%
X113335000Y-127500000D02*
X113335000Y-130506189D01*
X111175000Y-127500000D02*
X113335000Y-127500000D01*
X113335000Y-130506189D02*
X109612189Y-134229000D01*
X109612189Y-134229000D02*
X105534000Y-134229000D01*
X105534000Y-134229000D02*
X103683000Y-136080000D01*
%TO.N,c1_home*%
X108572500Y-111506189D02*
X104849689Y-115229000D01*
X106412500Y-108500000D02*
X108572500Y-108500000D01*
X104849689Y-115229000D02*
X100771500Y-115229000D01*
X108572500Y-108500000D02*
X108572500Y-111506189D01*
X100771500Y-115229000D02*
X98920500Y-117080000D01*
%TO.N,c1_top*%
X98390250Y-96229000D02*
X102468439Y-96229000D01*
X106191250Y-89500000D02*
X104031250Y-89500000D01*
X96539250Y-98080000D02*
X98390250Y-96229000D01*
X102468439Y-96229000D02*
X106191250Y-92506189D01*
X106191250Y-92506189D02*
X106191250Y-89500000D01*
%TO.N,c1_num*%
X94158000Y-79080000D02*
X96893100Y-76344900D01*
X103810000Y-70500000D02*
X101650000Y-70500000D01*
X100971289Y-76344900D02*
X103810000Y-73506189D01*
X96893100Y-76344900D02*
X100971289Y-76344900D01*
X103810000Y-73506189D02*
X103810000Y-70500000D01*
%TO.N,P008*%
X145135000Y-133540000D02*
X145135000Y-124065000D01*
X126085000Y-83885000D02*
X130847500Y-88647500D01*
X126085000Y-152540000D02*
X126085000Y-152225000D01*
X126085000Y-152540000D02*
X134345000Y-160800000D01*
X144770000Y-133540000D02*
X145135000Y-133540000D01*
X145135000Y-124065000D02*
X135610000Y-114540000D01*
X126085000Y-76540000D02*
X126085000Y-83885000D01*
X134345000Y-160800000D02*
X198800000Y-160800000D01*
X130847500Y-102847500D02*
X135610000Y-107610000D01*
X126085000Y-152225000D02*
X144770000Y-133540000D01*
X130847500Y-95540000D02*
X130847500Y-102847500D01*
X130847500Y-88647500D02*
X130847500Y-95540000D01*
X135610000Y-107610000D02*
X135610000Y-114540000D01*
%TO.N,c2_mod*%
X113158000Y-155080000D02*
X115893100Y-152344900D01*
X122810000Y-146500000D02*
X120650000Y-146500000D01*
X122810000Y-149506189D02*
X122810000Y-146500000D01*
X119971289Y-152344900D02*
X122810000Y-149506189D01*
X115893100Y-152344900D02*
X119971289Y-152344900D01*
%TO.N,c2_bottom*%
X139021289Y-133344900D02*
X141860000Y-130506189D01*
X141860000Y-130506189D02*
X141860000Y-127500000D01*
X141860000Y-127500000D02*
X139700000Y-127500000D01*
X132208000Y-136080000D02*
X134943100Y-133344900D01*
X134943100Y-133344900D02*
X139021289Y-133344900D01*
%TO.N,c2_home*%
X132335000Y-111506189D02*
X128612189Y-115229000D01*
X132335000Y-108500000D02*
X132335000Y-111506189D01*
X124534000Y-115229000D02*
X122683000Y-117080000D01*
X130175000Y-108500000D02*
X132335000Y-108500000D01*
X128612189Y-115229000D02*
X124534000Y-115229000D01*
%TO.N,c2_top*%
X127572500Y-89500000D02*
X125412500Y-89500000D01*
X117920500Y-98080000D02*
X120655600Y-95344900D01*
X124733789Y-95344900D02*
X127572500Y-92506189D01*
X127572500Y-92506189D02*
X127572500Y-89500000D01*
X120655600Y-95344900D02*
X124733789Y-95344900D01*
%TO.N,c2_num*%
X122810000Y-70500000D02*
X120650000Y-70500000D01*
X119971289Y-76344900D02*
X122810000Y-73506189D01*
X115893100Y-76344900D02*
X119971289Y-76344900D01*
X122810000Y-73506189D02*
X122810000Y-70500000D01*
X113158000Y-79080000D02*
X115893100Y-76344900D01*
%TO.N,P009*%
X149882000Y-156931000D02*
X165180000Y-156931000D01*
X164135000Y-133540000D02*
X157899000Y-139776000D01*
X154610000Y-117210000D02*
X164135000Y-126735000D01*
X145085000Y-76540000D02*
X145085000Y-82885000D01*
X154610000Y-106210000D02*
X154610000Y-114540000D01*
X179118000Y-143380000D02*
X192555000Y-143380000D01*
X149847500Y-87647500D02*
X149847500Y-95540000D01*
X149582000Y-156631000D02*
X149882000Y-156931000D01*
X156275000Y-141400000D02*
X164135000Y-133540000D01*
X157899000Y-139776000D02*
X157899000Y-145784811D01*
X168582000Y-153529000D02*
X169154811Y-153529000D01*
X165180000Y-156931000D02*
X168582000Y-153529000D01*
X169154811Y-153529000D02*
X175028711Y-147655100D01*
X145085000Y-82885000D02*
X149847500Y-87647500D01*
X154610000Y-114540000D02*
X154610000Y-117210000D01*
X145085000Y-149515000D02*
X153200000Y-141400000D01*
X153200000Y-141400000D02*
X156275000Y-141400000D01*
X157899000Y-145784811D02*
X150154811Y-153529000D01*
X175028711Y-147469289D02*
X179118000Y-143380000D01*
X145085000Y-152540000D02*
X145085000Y-149515000D01*
X150154811Y-153529000D02*
X149582000Y-153529000D01*
X149847500Y-95540000D02*
X149847500Y-101447500D01*
X149847500Y-101447500D02*
X154610000Y-106210000D01*
X149582000Y-153529000D02*
X149582000Y-156631000D01*
X164135000Y-126735000D02*
X164135000Y-133540000D01*
X175028711Y-147655100D02*
X175028711Y-147469289D01*
%TO.N,c3_mod*%
X134009000Y-153229000D02*
X132158000Y-155080000D01*
X141810000Y-146500000D02*
X141810000Y-149506189D01*
X139650000Y-146500000D02*
X141810000Y-146500000D01*
X141810000Y-149506189D02*
X138087189Y-153229000D01*
X138087189Y-153229000D02*
X134009000Y-153229000D01*
%TO.N,c3_bottom*%
X158700000Y-127500000D02*
X160860000Y-127500000D01*
X160860000Y-127500000D02*
X160860000Y-130506189D01*
X160860000Y-130506189D02*
X157137189Y-134229000D01*
X157137189Y-134229000D02*
X153059000Y-134229000D01*
X153059000Y-134229000D02*
X151208000Y-136080000D01*
%TO.N,c3_home*%
X147612189Y-115229000D02*
X143534000Y-115229000D01*
X151335000Y-111506189D02*
X147612189Y-115229000D01*
X149175000Y-108500000D02*
X151335000Y-108500000D01*
X151335000Y-108500000D02*
X151335000Y-111506189D01*
X143534000Y-115229000D02*
X141683000Y-117080000D01*
%TO.N,c3_top*%
X146572500Y-89500000D02*
X144412500Y-89500000D01*
X146572500Y-92570257D02*
X146572500Y-89500000D01*
X136920500Y-98080000D02*
X139655600Y-95344900D01*
X143797857Y-95344900D02*
X146572500Y-92570257D01*
X139655600Y-95344900D02*
X143797857Y-95344900D01*
%TO.N,c3_num*%
X141810000Y-73506189D02*
X138087189Y-77229000D01*
X134009000Y-77229000D02*
X132158000Y-79080000D01*
X141810000Y-70500000D02*
X141810000Y-73506189D01*
X138087189Y-77229000D02*
X134009000Y-77229000D01*
X139650000Y-70500000D02*
X141810000Y-70500000D01*
%TO.N,P020*%
X189638954Y-138799000D02*
X193732300Y-142892346D01*
X164085000Y-82685000D02*
X168847500Y-87447500D01*
X173610000Y-114540000D02*
X173610000Y-107010000D01*
X168847500Y-87447500D02*
X168847500Y-95540000D01*
X183135000Y-126535000D02*
X173610000Y-117010000D01*
X193732300Y-144467700D02*
X188800000Y-149400000D01*
X193732300Y-142892346D02*
X193732300Y-144467700D01*
X173610000Y-107010000D02*
X168847500Y-102247500D01*
X183135000Y-133540000D02*
X183135000Y-126535000D01*
X164085000Y-152540000D02*
X164085000Y-151090000D01*
X175275000Y-141400000D02*
X183135000Y-133540000D01*
X173610000Y-117010000D02*
X173610000Y-114540000D01*
X168847500Y-102247500D02*
X168847500Y-95540000D01*
X164085000Y-151090000D02*
X173775000Y-141400000D01*
X188394000Y-138799000D02*
X189638954Y-138799000D01*
X173775000Y-141400000D02*
X175275000Y-141400000D01*
X183135000Y-133540000D02*
X188394000Y-138799000D01*
X164085000Y-76540000D02*
X164085000Y-82685000D01*
%TO.N,c4_mod*%
X151158000Y-155080000D02*
X153893100Y-152344900D01*
X160810000Y-149506189D02*
X160810000Y-146500000D01*
X157971289Y-152344900D02*
X160810000Y-149506189D01*
X160810000Y-146500000D02*
X158650000Y-146500000D01*
X153893100Y-152344900D02*
X157971289Y-152344900D01*
%TO.N,c4_bottom*%
X177021289Y-133344900D02*
X179860000Y-130506189D01*
X179860000Y-127500000D02*
X177700000Y-127500000D01*
X179860000Y-130506189D02*
X179860000Y-127500000D01*
X170208000Y-136080000D02*
X172943100Y-133344900D01*
X172943100Y-133344900D02*
X177021289Y-133344900D01*
%TO.N,c4_home*%
X166612189Y-115229000D02*
X162534000Y-115229000D01*
X162534000Y-115229000D02*
X160683000Y-117080000D01*
X168175000Y-108500000D02*
X170335000Y-108500000D01*
X170335000Y-111506189D02*
X166612189Y-115229000D01*
X170335000Y-108500000D02*
X170335000Y-111506189D01*
%TO.N,c4_top*%
X165572500Y-92570257D02*
X165572500Y-89500000D01*
X158474689Y-95525811D02*
X162616946Y-95525811D01*
X155920500Y-98080000D02*
X158474689Y-95525811D01*
X162616946Y-95525811D02*
X165572500Y-92570257D01*
X165572500Y-89500000D02*
X163412500Y-89500000D01*
%TO.N,c4_num*%
X160810000Y-70500000D02*
X160810000Y-73570257D01*
X153009000Y-77229000D02*
X151158000Y-79080000D01*
X158650000Y-70500000D02*
X160810000Y-70500000D01*
X160810000Y-73570257D02*
X157151257Y-77229000D01*
X157151257Y-77229000D02*
X153009000Y-77229000D01*
%TO.N,P111*%
X202135000Y-138880000D02*
X197635000Y-143380000D01*
X202135000Y-133540000D02*
X202135000Y-138880000D01*
X188475000Y-152540000D02*
X197635000Y-143380000D01*
X187847500Y-101847500D02*
X192610000Y-106610000D01*
X192610000Y-114540000D02*
X192610000Y-119210000D01*
X202135000Y-128735000D02*
X202135000Y-133540000D01*
X187847500Y-95540000D02*
X187847500Y-101847500D01*
X192610000Y-119210000D02*
X202135000Y-128735000D01*
X183085000Y-152540000D02*
X188475000Y-152540000D01*
X183085000Y-76540000D02*
X183085000Y-83085000D01*
X183085000Y-83085000D02*
X187847500Y-87847500D01*
X187847500Y-87847500D02*
X187847500Y-95540000D01*
X192610000Y-106610000D02*
X192610000Y-114540000D01*
%TO.N,c5_mod*%
X170158000Y-155080000D02*
X172893100Y-152344900D01*
X179810000Y-149506189D02*
X179810000Y-146500000D01*
X176971289Y-152344900D02*
X179810000Y-149506189D01*
X172893100Y-152344900D02*
X176971289Y-152344900D01*
X179810000Y-146500000D02*
X177650000Y-146500000D01*
%TO.N,c5_bottom*%
X191059000Y-134229000D02*
X189208000Y-136080000D01*
X195201257Y-134229000D02*
X191059000Y-134229000D01*
X198860000Y-130570257D02*
X195201257Y-134229000D01*
X198860000Y-127500000D02*
X198860000Y-130570257D01*
X196700000Y-127500000D02*
X198860000Y-127500000D01*
%TO.N,c5_home*%
X189335000Y-108500000D02*
X187175000Y-108500000D01*
X182418100Y-114344900D02*
X186496289Y-114344900D01*
X186496289Y-114344900D02*
X189335000Y-111506189D01*
X179683000Y-117080000D02*
X182418100Y-114344900D01*
X189335000Y-111506189D02*
X189335000Y-108500000D01*
%TO.N,c5_top*%
X174920500Y-98080000D02*
X177655600Y-95344900D01*
X177655600Y-95344900D02*
X181733789Y-95344900D01*
X181733789Y-95344900D02*
X184572500Y-92506189D01*
X184572500Y-89500000D02*
X182412500Y-89500000D01*
X184572500Y-92506189D02*
X184572500Y-89500000D01*
%TO.N,c5_num*%
X179810000Y-70500000D02*
X177650000Y-70500000D01*
X172893100Y-76344900D02*
X176971289Y-76344900D01*
X176971289Y-76344900D02*
X179810000Y-73506189D01*
X170158000Y-79080000D02*
X172893100Y-76344900D01*
X179810000Y-73506189D02*
X179810000Y-70500000D01*
%TO.N,P024*%
X211610000Y-107010000D02*
X211610000Y-114540000D01*
X211610000Y-114540000D02*
X211610000Y-118410000D01*
X205335000Y-156000000D02*
X208150000Y-156000000D01*
X211610000Y-118410000D02*
X221135000Y-127935000D01*
X206847500Y-102247500D02*
X211610000Y-107010000D01*
X223200000Y-149000000D02*
X219660000Y-152540000D01*
X206847500Y-95540000D02*
X206847500Y-102247500D01*
X221135000Y-133540000D02*
X223200000Y-135605000D01*
X219660000Y-152540000D02*
X211610000Y-152540000D01*
X223200000Y-135605000D02*
X223200000Y-149000000D01*
X221135000Y-127935000D02*
X221135000Y-133540000D01*
X202715000Y-158620000D02*
X205335000Y-156000000D01*
X208150000Y-156000000D02*
X211610000Y-152540000D01*
X202085000Y-84485000D02*
X206847500Y-89247500D01*
X202085000Y-76540000D02*
X202085000Y-84485000D01*
X206847500Y-89247500D02*
X206847500Y-95540000D01*
%TO.N,c6_mod*%
X200534000Y-153229000D02*
X198683000Y-155080000D01*
X206175000Y-146500000D02*
X208335000Y-146500000D01*
X208335000Y-146500000D02*
X208335000Y-149570257D01*
X204676257Y-153229000D02*
X200534000Y-153229000D01*
X208335000Y-149570257D02*
X204676257Y-153229000D01*
%TO.N,c6_bottom*%
X210059000Y-134229000D02*
X208208000Y-136080000D01*
X214137189Y-134229000D02*
X210059000Y-134229000D01*
X215700000Y-127500000D02*
X217860000Y-127500000D01*
X217860000Y-130506189D02*
X214137189Y-134229000D01*
X217860000Y-127500000D02*
X217860000Y-130506189D01*
%TO.N,c6_home*%
X200534000Y-115229000D02*
X198683000Y-117080000D01*
X206175000Y-108500000D02*
X208335000Y-108500000D01*
X208335000Y-111506189D02*
X204612189Y-115229000D01*
X204612189Y-115229000D02*
X200534000Y-115229000D01*
X208335000Y-108500000D02*
X208335000Y-111506189D01*
%TO.N,c6_top*%
X193920500Y-98080000D02*
X196655600Y-95344900D01*
X203572500Y-92506189D02*
X203572500Y-89500000D01*
X200733789Y-95344900D02*
X203572500Y-92506189D01*
X203572500Y-89500000D02*
X201412500Y-89500000D01*
X196655600Y-95344900D02*
X200733789Y-95344900D01*
%TO.N,c6_num*%
X198810000Y-73506189D02*
X195087189Y-77229000D01*
X198810000Y-70500000D02*
X198810000Y-73506189D01*
X195087189Y-77229000D02*
X191009000Y-77229000D01*
X191009000Y-77229000D02*
X189158000Y-79080000D01*
X196650000Y-70500000D02*
X198810000Y-70500000D01*
%TO.N,P100*%
X221085000Y-76540000D02*
X220060000Y-76540000D01*
X223601000Y-149166100D02*
X215324400Y-157442700D01*
X209600000Y-103000000D02*
X213400000Y-103000000D01*
X222711000Y-131989000D02*
X222711000Y-134548900D01*
X222600000Y-131989000D02*
X222711000Y-131989000D01*
X223601000Y-135438900D02*
X223601000Y-149166100D01*
X218576709Y-78391000D02*
X218209000Y-78391000D01*
X213400000Y-118400000D02*
X217400000Y-122400000D01*
X201352300Y-159797300D02*
X200175000Y-158620000D01*
X218209000Y-78391000D02*
X208800000Y-87800000D01*
X222600000Y-122400000D02*
X222600000Y-131989000D01*
X215324400Y-157442700D02*
X214741946Y-157442700D01*
X217400000Y-122400000D02*
X222600000Y-122400000D01*
X220060000Y-76540000D02*
X219661000Y-76939000D01*
X214741946Y-157442700D02*
X214052300Y-158132346D01*
X219661000Y-77306709D02*
X218576709Y-78391000D01*
X222711000Y-134548900D02*
X223601000Y-135438900D01*
X213362654Y-159797300D02*
X201352300Y-159797300D01*
X213400000Y-103000000D02*
X213400000Y-118400000D01*
X208800000Y-87800000D02*
X208800000Y-102200000D01*
X214052300Y-159107654D02*
X213362654Y-159797300D01*
X208800000Y-102200000D02*
X209600000Y-103000000D01*
X219661000Y-76939000D02*
X219661000Y-77306709D01*
X214052300Y-158132346D02*
X214052300Y-159107654D01*
%TO.N,c7_num*%
X214971289Y-76344900D02*
X217810000Y-73506189D01*
X208158000Y-79080000D02*
X210893100Y-76344900D01*
X217810000Y-70500000D02*
X215650000Y-70500000D01*
X210893100Y-76344900D02*
X214971289Y-76344900D01*
X217810000Y-73506189D02*
X217810000Y-70500000D01*
%TO.N,RAW*%
X209200000Y-101400000D02*
X209200000Y-88200000D01*
X214000000Y-118400000D02*
X214000000Y-102600000D01*
X214000000Y-102600000D02*
X210400000Y-102600000D01*
X209200000Y-88200000D02*
X218200000Y-79200000D01*
X217600000Y-122000000D02*
X214000000Y-118400000D01*
X223400000Y-77352000D02*
X223400000Y-74317283D01*
X216882717Y-67800000D02*
X215975000Y-67800000D01*
X223400000Y-157379954D02*
X223400000Y-151200000D01*
X199666900Y-153529000D02*
X197107000Y-153529000D01*
X215975000Y-67800000D02*
X214750000Y-66575000D01*
X198997700Y-159107654D02*
X201289046Y-161399000D01*
X218200000Y-79200000D02*
X221552000Y-79200000D01*
X224002000Y-150598000D02*
X224002000Y-123002000D01*
X201289046Y-161399000D02*
X219380954Y-161399000D01*
X224002000Y-123002000D02*
X223000000Y-122000000D01*
X197107000Y-153529000D02*
X197107000Y-156631000D01*
X210400000Y-102600000D02*
X209200000Y-101400000D01*
X223000000Y-122000000D02*
X217600000Y-122000000D01*
X220495000Y-143380000D02*
X218628500Y-145246500D01*
X223400000Y-151200000D02*
X224002000Y-150598000D01*
X223400000Y-74317283D02*
X216882717Y-67800000D01*
X197107000Y-156631000D02*
X197918700Y-157442700D01*
X221552000Y-79200000D02*
X223400000Y-77352000D01*
X198997700Y-158132346D02*
X198997700Y-159107654D01*
X202180100Y-148842900D02*
X202180100Y-151015800D01*
X218628500Y-145246500D02*
X205776500Y-145246500D01*
X219380954Y-161399000D02*
X223400000Y-157379954D01*
X205776500Y-145246500D02*
X202180100Y-148842900D01*
X198308054Y-157442700D02*
X198997700Y-158132346D01*
X202180100Y-151015800D02*
X199666900Y-153529000D01*
X197918700Y-157442700D02*
X198308054Y-157442700D01*
%TO.N,GND*%
X223801000Y-77799000D02*
X221800000Y-79800000D01*
X217400000Y-120600000D02*
X222167100Y-120600000D01*
X221800000Y-79800000D02*
X218400000Y-79800000D01*
X134200000Y-102000000D02*
X143525000Y-102000000D01*
X212183550Y-85783550D02*
X210400000Y-87567100D01*
X223801000Y-70199000D02*
X223801000Y-77799000D01*
X216949000Y-64849000D02*
X218451000Y-64849000D01*
X215000000Y-118200000D02*
X217400000Y-120600000D01*
X210400000Y-101200000D02*
X213167100Y-101200000D01*
X203626000Y-64151000D02*
X211716215Y-64151000D01*
X215000000Y-103400000D02*
X215000000Y-118200000D01*
X216149000Y-65649000D02*
X216949000Y-64849000D01*
X133200000Y-90432900D02*
X133200000Y-101000000D01*
X218400000Y-79800000D02*
X218167100Y-79800000D01*
X129200000Y-71000000D02*
X129200000Y-86432900D01*
X212168215Y-63699000D02*
X212831785Y-63699000D01*
X218167100Y-79800000D02*
X212183550Y-85783550D01*
X218451000Y-64849000D02*
X223801000Y-70199000D01*
X197375000Y-63150000D02*
X137050000Y-63150000D01*
X214781785Y-65649000D02*
X216149000Y-65649000D01*
X137050000Y-63150000D02*
X129200000Y-71000000D01*
X210400000Y-87567100D02*
X210400000Y-101200000D01*
X215000000Y-103032900D02*
X215000000Y-103400000D01*
X212831785Y-63699000D02*
X214781785Y-65649000D01*
X222167100Y-120600000D02*
X224800000Y-123232900D01*
X211716215Y-64151000D02*
X212168215Y-63699000D01*
X202424000Y-63351000D02*
X202625000Y-63150000D01*
X197576000Y-63351000D02*
X202424000Y-63351000D01*
X129200000Y-86432900D02*
X133200000Y-90432900D01*
X133200000Y-101000000D02*
X134200000Y-102000000D01*
X213167100Y-101200000D02*
X215000000Y-103032900D01*
X202625000Y-63150000D02*
X203626000Y-64151000D01*
X224800000Y-123232900D02*
X224800000Y-141200000D01*
X197375000Y-63150000D02*
X197576000Y-63351000D01*
%TO.N,RST*%
X211702000Y-64850000D02*
X202625000Y-64850000D01*
X202424000Y-64649000D02*
X202625000Y-64850000D01*
X215415000Y-143380000D02*
X214237700Y-144557300D01*
X212501000Y-65649000D02*
X211702000Y-64850000D01*
X187885743Y-68894000D02*
X212501000Y-68894000D01*
X184661000Y-78091000D02*
X184661000Y-72118743D01*
X201537700Y-143867654D02*
X201537700Y-140044400D01*
X214237700Y-144557300D02*
X202227346Y-144557300D01*
X202227346Y-144557300D02*
X201537700Y-143867654D01*
X197375000Y-64850000D02*
X197576000Y-64649000D01*
X195600000Y-105765000D02*
X189423500Y-99588500D01*
X197576000Y-64649000D02*
X202424000Y-64649000D01*
X184661000Y-72118743D02*
X187885743Y-68894000D01*
X195600000Y-120167100D02*
X195600000Y-105765000D01*
X189423500Y-99588500D02*
X189423500Y-82853500D01*
X189423500Y-82853500D02*
X184661000Y-78091000D01*
X203711000Y-137871100D02*
X203711000Y-128278100D01*
X212501000Y-68894000D02*
X212501000Y-65649000D01*
X201537700Y-140044400D02*
X203711000Y-137871100D01*
X203711000Y-128278100D02*
X195600000Y-120167100D01*
%TO.N,P031*%
X160112500Y-89500000D02*
X157952500Y-89500000D01*
X141112500Y-89500000D02*
X138952500Y-89500000D01*
X122112500Y-89500000D02*
X119952500Y-89500000D01*
X198112500Y-89500000D02*
X195952500Y-89500000D01*
X100731250Y-89500000D02*
X98571250Y-89500000D01*
X179112500Y-89500000D02*
X176952500Y-89500000D01*
%TO.N,P029*%
X134190000Y-70500000D02*
X136350000Y-70500000D01*
X153190000Y-70500000D02*
X155350000Y-70500000D01*
X98350000Y-70500000D02*
X96190000Y-70500000D01*
X212350000Y-70500000D02*
X210190000Y-70500000D01*
X191190000Y-70500000D02*
X193350000Y-70500000D01*
X115190000Y-70500000D02*
X117350000Y-70500000D01*
X174350000Y-70500000D02*
X172190000Y-70500000D01*
%TO.N,P115*%
X204800000Y-141295000D02*
X202715000Y-143380000D01*
X204800000Y-128800000D02*
X204800000Y-141295000D01*
X162715000Y-108500000D02*
X164875000Y-108500000D01*
X143715000Y-108500000D02*
X145875000Y-108500000D01*
X200715000Y-108500000D02*
X202875000Y-108500000D01*
X197107000Y-121107000D02*
X204800000Y-128800000D01*
X202875000Y-108500000D02*
X202875000Y-110269743D01*
X124715000Y-108500000D02*
X126875000Y-108500000D01*
X202875000Y-110269743D02*
X197615743Y-115529000D01*
X197107000Y-115529000D02*
X197107000Y-121107000D01*
X197615743Y-115529000D02*
X197107000Y-115529000D01*
X100952500Y-108500000D02*
X103112500Y-108500000D01*
X183875000Y-108500000D02*
X181715000Y-108500000D01*
%TO.N,P010*%
X153240000Y-127500000D02*
X155400000Y-127500000D01*
X105715000Y-127500000D02*
X107875000Y-127500000D01*
X136400000Y-127500000D02*
X134240000Y-127500000D01*
X191240000Y-127500000D02*
X193400000Y-127500000D01*
X174400000Y-127500000D02*
X172240000Y-127500000D01*
X210240000Y-127500000D02*
X212400000Y-127500000D01*
%TO.N,P011*%
X200715000Y-146500000D02*
X202875000Y-146500000D01*
X96190000Y-146500000D02*
X98350000Y-146500000D01*
X174350000Y-146500000D02*
X172190000Y-146500000D01*
X155350000Y-146500000D02*
X153190000Y-146500000D01*
X134190000Y-146500000D02*
X136350000Y-146500000D01*
X117350000Y-146500000D02*
X115190000Y-146500000D01*
%TO.N,pos*%
X144676000Y-101626794D02*
X144676000Y-102849000D01*
X134200000Y-88800000D02*
X134200000Y-100000000D01*
X134200000Y-100000000D02*
X143049206Y-100000000D01*
X135225000Y-66575000D02*
X129800000Y-72000000D01*
X144676000Y-102849000D02*
X143525000Y-104000000D01*
X129800000Y-72000000D02*
X129800000Y-84400000D01*
X211750000Y-66575000D02*
X135225000Y-66575000D01*
X143049206Y-100000000D02*
X144676000Y-101626794D01*
X129800000Y-84400000D02*
X134200000Y-88800000D01*
%TD*%
M02*
