M48
; DRILL file {KiCad 9.0.7} date 2026-01-20T23:16:23-0800
; FORMAT={-:-/ absolute / metric / decimal}
; #@! TF.CreationDate,2026-01-20T23:16:23-08:00
; #@! TF.GenerationSoftware,Kicad,Pcbnew,9.0.7
; #@! TF.FileFunction,Plated,1,2,PTH
FMAT,2
METRIC
; #@! TA.AperFunction,Plated,PTH,ViaDrill
T1C0.300
; #@! TA.AperFunction,Plated,PTH,ComponentDrill
T2C0.750
; #@! TA.AperFunction,Plated,PTH,ComponentDrill
T3C0.991
; #@! TA.AperFunction,Plated,PTH,ComponentDrill
T4C1.092
; #@! TA.AperFunction,Plated,PTH,ComponentDrill
T5C2.200
%
G90
G05
T1
X129.6Y-159.4
X188.8Y-149.4
X198.8Y-160.8
X224.8Y-141.2
T2
X143.525Y-102.0
X143.525Y-104.0
T3
X96.19Y-70.5
X96.19Y-146.5
X98.571Y-89.5
X100.953Y-108.5
X103.81Y-70.5
X103.81Y-146.5
X105.715Y-127.5
X106.191Y-89.5
X108.572Y-108.5
X113.335Y-127.5
X115.19Y-70.5
X115.19Y-146.5
X119.953Y-89.5
X122.81Y-70.5
X122.81Y-146.5
X124.715Y-108.5
X127.572Y-89.5
X132.335Y-108.5
X134.19Y-70.5
X134.19Y-146.5
X134.24Y-127.5
X138.952Y-89.5
X141.81Y-70.5
X141.81Y-146.5
X141.86Y-127.5
X143.715Y-108.5
X146.572Y-89.5
X151.335Y-108.5
X153.19Y-70.5
X153.19Y-146.5
X153.24Y-127.5
X157.952Y-89.5
X160.81Y-70.5
X160.81Y-146.5
X160.86Y-127.5
X162.715Y-108.5
X165.572Y-89.5
X170.335Y-108.5
X172.19Y-70.5
X172.19Y-146.5
X172.24Y-127.5
X176.952Y-89.5
X179.81Y-70.5
X179.81Y-146.5
X179.86Y-127.5
X181.715Y-108.5
X184.572Y-89.5
X189.335Y-108.5
X191.19Y-70.5
X191.24Y-127.5
X195.952Y-89.5
X198.81Y-70.5
X198.86Y-127.5
X200.715Y-108.5
X200.715Y-146.5
X203.572Y-89.5
X208.335Y-108.5
X208.335Y-146.5
X210.19Y-70.5
X210.24Y-127.5
X217.81Y-70.5
X217.86Y-127.5
T4
X192.555Y-143.38
X192.555Y-158.62
X195.095Y-143.38
X195.095Y-158.62
X197.635Y-143.38
X197.635Y-158.62
X200.175Y-143.38
X200.175Y-158.62
X202.715Y-143.38
X202.715Y-158.62
X205.255Y-143.38
X205.255Y-158.62
X207.795Y-143.38
X207.795Y-158.62
X210.335Y-143.38
X210.335Y-158.62
X212.875Y-143.38
X212.875Y-158.62
X215.415Y-143.38
X215.415Y-158.62
X217.955Y-143.38
X217.955Y-158.62
X220.495Y-143.38
X220.495Y-158.62
T5
X95.0Y-84.0
X95.0Y-140.0
X188.05Y-141.0
X209.0Y-84.0
M30
