M48
; DRILL file {KiCad 9.0.7} date 2026-01-20T23:16:23-0800
; FORMAT={-:-/ absolute / metric / decimal}
; #@! TF.CreationDate,2026-01-20T23:16:23-08:00
; #@! TF.GenerationSoftware,Kicad,Pcbnew,9.0.7
; #@! TF.FileFunction,NonPlated,1,2,NPTH
FMAT,2
METRIC
; #@! TA.AperFunction,NonPlated,NPTH,ComponentDrill
T1C0.750
; #@! TA.AperFunction,NonPlated,NPTH,ComponentDrill
T2C0.900
; #@! TA.AperFunction,NonPlated,NPTH,ComponentDrill
T3C1.702
; #@! TA.AperFunction,NonPlated,NPTH,ComponentDrill
T4C3.000
; #@! TA.AperFunction,NonPlated,NPTH,ComponentDrill
T5C3.988
%
G90
G05
T1
X200.0Y-62.625
X200.0Y-65.375
T2
X212.5Y-64.5
X215.5Y-64.5
T3
X94.92Y-74.0
X94.92Y-150.0
X97.301Y-93.0
X99.682Y-112.0
X104.445Y-131.0
X105.08Y-74.0
X105.08Y-150.0
X107.461Y-93.0
X109.843Y-112.0
X113.92Y-74.0
X113.92Y-150.0
X114.605Y-131.0
X118.682Y-93.0
X123.445Y-112.0
X124.08Y-74.0
X124.08Y-150.0
X128.843Y-93.0
X132.92Y-74.0
X132.92Y-150.0
X132.97Y-131.0
X133.605Y-112.0
X137.683Y-93.0
X142.445Y-112.0
X143.08Y-74.0
X143.08Y-150.0
X143.13Y-131.0
X147.843Y-93.0
X151.92Y-74.0
X151.92Y-150.0
X151.97Y-131.0
X152.605Y-112.0
X156.683Y-93.0
X161.445Y-112.0
X162.08Y-74.0
X162.08Y-150.0
X162.13Y-131.0
X166.843Y-93.0
X170.92Y-74.0
X170.92Y-150.0
X170.97Y-131.0
X171.605Y-112.0
X175.683Y-93.0
X180.445Y-112.0
X181.08Y-74.0
X181.08Y-150.0
X181.13Y-131.0
X185.843Y-93.0
X189.92Y-74.0
X189.97Y-131.0
X190.605Y-112.0
X194.683Y-93.0
X199.445Y-112.0
X199.445Y-150.0
X200.08Y-74.0
X200.13Y-131.0
X204.843Y-93.0
X208.92Y-74.0
X208.97Y-131.0
X209.605Y-112.0
X209.605Y-150.0
X219.08Y-74.0
X219.13Y-131.0
T4
X97.46Y-79.08
X97.46Y-155.08
X99.841Y-98.08
X102.222Y-117.08
X103.81Y-76.54
X103.81Y-152.54
X106.191Y-95.54
X106.985Y-136.08
X108.572Y-114.54
X113.335Y-133.54
X116.46Y-79.08
X116.46Y-155.08
X121.222Y-98.08
X122.81Y-76.54
X122.81Y-152.54
X125.985Y-117.08
X127.572Y-95.54
X132.335Y-114.54
X135.46Y-79.08
X135.46Y-155.08
X135.51Y-136.08
X140.222Y-98.08
X141.81Y-76.54
X141.81Y-152.54
X141.86Y-133.54
X144.985Y-117.08
X146.572Y-95.54
X151.335Y-114.54
X154.46Y-79.08
X154.46Y-155.08
X154.51Y-136.08
X159.222Y-98.08
X160.81Y-76.54
X160.81Y-152.54
X160.86Y-133.54
X163.985Y-117.08
X165.572Y-95.54
X170.335Y-114.54
X173.46Y-79.08
X173.46Y-155.08
X173.51Y-136.08
X178.222Y-98.08
X179.81Y-76.54
X179.81Y-152.54
X179.86Y-133.54
X182.985Y-117.08
X184.572Y-95.54
X189.335Y-114.54
X192.46Y-79.08
X192.51Y-136.08
X197.222Y-98.08
X198.81Y-76.54
X198.86Y-133.54
X201.985Y-117.08
X201.985Y-155.08
X203.572Y-95.54
X208.335Y-114.54
X208.335Y-152.54
X211.46Y-79.08
X211.51Y-136.08
X217.81Y-76.54
X217.86Y-133.54
T5
X100.0Y-74.0
X100.0Y-150.0
X102.381Y-93.0
X104.762Y-112.0
X109.525Y-131.0
X119.0Y-74.0
X119.0Y-150.0
X123.762Y-93.0
X128.525Y-112.0
X138.0Y-74.0
X138.0Y-150.0
X138.05Y-131.0
X142.762Y-93.0
X147.525Y-112.0
X157.0Y-74.0
X157.0Y-150.0
X157.05Y-131.0
X161.762Y-93.0
X166.525Y-112.0
X176.0Y-74.0
X176.0Y-150.0
X176.05Y-131.0
X180.762Y-93.0
X185.525Y-112.0
X195.0Y-74.0
X195.05Y-131.0
X199.762Y-93.0
X204.525Y-112.0
X204.525Y-150.0
X214.0Y-74.0
X214.05Y-131.0
M30
