%TF.GenerationSoftware,KiCad,Pcbnew,9.0.7*%
%TF.CreationDate,2026-01-20T23:15:53-08:00*%
%TF.ProjectId,left,6c656674-2e6b-4696-9361-645f70636258,v1.0.0*%
%TF.SameCoordinates,Original*%
%TF.FileFunction,Paste,Top*%
%TF.FilePolarity,Positive*%
%FSLAX46Y46*%
G04 Gerber Fmt 4.6, Leading zero omitted, Abs format (unit mm)*
G04 Created by KiCad (PCBNEW 9.0.7) date 2026-01-20 23:15:53*
%MOMM*%
%LPD*%
G01*
G04 APERTURE LIST*
%ADD10R,0.900000X1.200000*%
G04 APERTURE END LIST*
D10*
%TO.C,D28*%
X202875000Y-108500000D03*
X206175000Y-108500000D03*
%TD*%
%TO.C,D15*%
X136350000Y-70500000D03*
X139650000Y-70500000D03*
%TD*%
%TO.C,D24*%
X179112500Y-89500000D03*
X182412500Y-89500000D03*
%TD*%
%TO.C,D27*%
X212400000Y-127500000D03*
X215700000Y-127500000D03*
%TD*%
%TO.C,D29*%
X198112500Y-89500000D03*
X201412500Y-89500000D03*
%TD*%
%TO.C,D13*%
X145875000Y-108500000D03*
X149175000Y-108500000D03*
%TD*%
%TO.C,D23*%
X183875000Y-108500000D03*
X187175000Y-108500000D03*
%TD*%
%TO.C,D14*%
X141112500Y-89500000D03*
X144412500Y-89500000D03*
%TD*%
%TO.C,D31*%
X212350000Y-70500000D03*
X215650000Y-70500000D03*
%TD*%
%TO.C,D10*%
X117350000Y-70500000D03*
X120650000Y-70500000D03*
%TD*%
%TO.C,D30*%
X193350000Y-70500000D03*
X196650000Y-70500000D03*
%TD*%
%TO.C,D22*%
X193400000Y-127500000D03*
X196700000Y-127500000D03*
%TD*%
%TO.C,D3*%
X103112500Y-108500000D03*
X106412500Y-108500000D03*
%TD*%
%TO.C,D5*%
X98350000Y-70500000D03*
X101650000Y-70500000D03*
%TD*%
%TO.C,D2*%
X107875000Y-127500000D03*
X111175000Y-127500000D03*
%TD*%
%TO.C,D17*%
X174400000Y-127500000D03*
X177700000Y-127500000D03*
%TD*%
%TO.C,D11*%
X136350000Y-146500000D03*
X139650000Y-146500000D03*
%TD*%
%TO.C,D18*%
X164875000Y-108500000D03*
X168175000Y-108500000D03*
%TD*%
%TO.C,D12*%
X155400000Y-127500000D03*
X158700000Y-127500000D03*
%TD*%
%TO.C,D20*%
X155350000Y-70500000D03*
X158650000Y-70500000D03*
%TD*%
%TO.C,D16*%
X155350000Y-146500000D03*
X158650000Y-146500000D03*
%TD*%
%TO.C,D21*%
X174350000Y-146500000D03*
X177650000Y-146500000D03*
%TD*%
%TO.C,D8*%
X126875000Y-108500000D03*
X130175000Y-108500000D03*
%TD*%
%TO.C,D26*%
X202875000Y-146500000D03*
X206175000Y-146500000D03*
%TD*%
%TO.C,D7*%
X136400000Y-127500000D03*
X139700000Y-127500000D03*
%TD*%
%TO.C,D6*%
X117350000Y-146500000D03*
X120650000Y-146500000D03*
%TD*%
%TO.C,D19*%
X160112500Y-89500000D03*
X163412500Y-89500000D03*
%TD*%
%TO.C,D9*%
X122112500Y-89500000D03*
X125412500Y-89500000D03*
%TD*%
%TO.C,D1*%
X98350000Y-146500000D03*
X101650000Y-146500000D03*
%TD*%
%TO.C,D4*%
X100731250Y-89500000D03*
X104031250Y-89500000D03*
%TD*%
%TO.C,D25*%
X174350000Y-70500000D03*
X177650000Y-70500000D03*
%TD*%
M02*
