%TF.GenerationSoftware,KiCad,Pcbnew,9.0.7*%
%TF.CreationDate,2026-01-20T23:15:53-08:00*%
%TF.ProjectId,left,6c656674-2e6b-4696-9361-645f70636258,v1.0.0*%
%TF.SameCoordinates,Original*%
%TF.FileFunction,Legend,Bot*%
%TF.FilePolarity,Positive*%
%FSLAX46Y46*%
G04 Gerber Fmt 4.6, Leading zero omitted, Abs format (unit mm)*
G04 Created by KiCad (PCBNEW 9.0.7) date 2026-01-20 23:15:53*
%MOMM*%
%LPD*%
G01*
G04 APERTURE LIST*
%ADD10C,0.150000*%
%ADD11C,0.100000*%
%ADD12C,0.120000*%
%ADD13C,0.381000*%
%ADD14C,1.752600*%
G04 APERTURE END LIST*
D10*
X204787295Y-155737190D02*
X204787295Y-155813380D01*
X204787295Y-155813380D02*
X204825390Y-155889571D01*
X204825390Y-155889571D02*
X204863485Y-155927666D01*
X204863485Y-155927666D02*
X204939676Y-155965761D01*
X204939676Y-155965761D02*
X205092057Y-156003856D01*
X205092057Y-156003856D02*
X205282533Y-156003856D01*
X205282533Y-156003856D02*
X205434914Y-155965761D01*
X205434914Y-155965761D02*
X205511104Y-155927666D01*
X205511104Y-155927666D02*
X205549200Y-155889571D01*
X205549200Y-155889571D02*
X205587295Y-155813380D01*
X205587295Y-155813380D02*
X205587295Y-155737190D01*
X205587295Y-155737190D02*
X205549200Y-155660999D01*
X205549200Y-155660999D02*
X205511104Y-155622904D01*
X205511104Y-155622904D02*
X205434914Y-155584809D01*
X205434914Y-155584809D02*
X205282533Y-155546713D01*
X205282533Y-155546713D02*
X205092057Y-155546713D01*
X205092057Y-155546713D02*
X204939676Y-155584809D01*
X204939676Y-155584809D02*
X204863485Y-155622904D01*
X204863485Y-155622904D02*
X204825390Y-155660999D01*
X204825390Y-155660999D02*
X204787295Y-155737190D01*
X204863485Y-156308618D02*
X204825390Y-156346714D01*
X204825390Y-156346714D02*
X204787295Y-156422904D01*
X204787295Y-156422904D02*
X204787295Y-156613380D01*
X204787295Y-156613380D02*
X204825390Y-156689571D01*
X204825390Y-156689571D02*
X204863485Y-156727666D01*
X204863485Y-156727666D02*
X204939676Y-156765761D01*
X204939676Y-156765761D02*
X205015866Y-156765761D01*
X205015866Y-156765761D02*
X205130152Y-156727666D01*
X205130152Y-156727666D02*
X205587295Y-156270523D01*
X205587295Y-156270523D02*
X205587295Y-156765761D01*
X204863485Y-157070523D02*
X204825390Y-157108619D01*
X204825390Y-157108619D02*
X204787295Y-157184809D01*
X204787295Y-157184809D02*
X204787295Y-157375285D01*
X204787295Y-157375285D02*
X204825390Y-157451476D01*
X204825390Y-157451476D02*
X204863485Y-157489571D01*
X204863485Y-157489571D02*
X204939676Y-157527666D01*
X204939676Y-157527666D02*
X205015866Y-157527666D01*
X205015866Y-157527666D02*
X205130152Y-157489571D01*
X205130152Y-157489571D02*
X205587295Y-157032428D01*
X205587295Y-157032428D02*
X205587295Y-157527666D01*
X217587295Y-155737190D02*
X217587295Y-155813380D01*
X217587295Y-155813380D02*
X217625390Y-155889571D01*
X217625390Y-155889571D02*
X217663485Y-155927666D01*
X217663485Y-155927666D02*
X217739676Y-155965761D01*
X217739676Y-155965761D02*
X217892057Y-156003856D01*
X217892057Y-156003856D02*
X218082533Y-156003856D01*
X218082533Y-156003856D02*
X218234914Y-155965761D01*
X218234914Y-155965761D02*
X218311104Y-155927666D01*
X218311104Y-155927666D02*
X218349200Y-155889571D01*
X218349200Y-155889571D02*
X218387295Y-155813380D01*
X218387295Y-155813380D02*
X218387295Y-155737190D01*
X218387295Y-155737190D02*
X218349200Y-155660999D01*
X218349200Y-155660999D02*
X218311104Y-155622904D01*
X218311104Y-155622904D02*
X218234914Y-155584809D01*
X218234914Y-155584809D02*
X218082533Y-155546713D01*
X218082533Y-155546713D02*
X217892057Y-155546713D01*
X217892057Y-155546713D02*
X217739676Y-155584809D01*
X217739676Y-155584809D02*
X217663485Y-155622904D01*
X217663485Y-155622904D02*
X217625390Y-155660999D01*
X217625390Y-155660999D02*
X217587295Y-155737190D01*
X217587295Y-156499095D02*
X217587295Y-156575285D01*
X217587295Y-156575285D02*
X217625390Y-156651476D01*
X217625390Y-156651476D02*
X217663485Y-156689571D01*
X217663485Y-156689571D02*
X217739676Y-156727666D01*
X217739676Y-156727666D02*
X217892057Y-156765761D01*
X217892057Y-156765761D02*
X218082533Y-156765761D01*
X218082533Y-156765761D02*
X218234914Y-156727666D01*
X218234914Y-156727666D02*
X218311104Y-156689571D01*
X218311104Y-156689571D02*
X218349200Y-156651476D01*
X218349200Y-156651476D02*
X218387295Y-156575285D01*
X218387295Y-156575285D02*
X218387295Y-156499095D01*
X218387295Y-156499095D02*
X218349200Y-156422904D01*
X218349200Y-156422904D02*
X218311104Y-156384809D01*
X218311104Y-156384809D02*
X218234914Y-156346714D01*
X218234914Y-156346714D02*
X218082533Y-156308618D01*
X218082533Y-156308618D02*
X217892057Y-156308618D01*
X217892057Y-156308618D02*
X217739676Y-156346714D01*
X217739676Y-156346714D02*
X217663485Y-156384809D01*
X217663485Y-156384809D02*
X217625390Y-156422904D01*
X217625390Y-156422904D02*
X217587295Y-156499095D01*
X217930152Y-157222904D02*
X217892057Y-157146714D01*
X217892057Y-157146714D02*
X217853961Y-157108619D01*
X217853961Y-157108619D02*
X217777771Y-157070523D01*
X217777771Y-157070523D02*
X217739676Y-157070523D01*
X217739676Y-157070523D02*
X217663485Y-157108619D01*
X217663485Y-157108619D02*
X217625390Y-157146714D01*
X217625390Y-157146714D02*
X217587295Y-157222904D01*
X217587295Y-157222904D02*
X217587295Y-157375285D01*
X217587295Y-157375285D02*
X217625390Y-157451476D01*
X217625390Y-157451476D02*
X217663485Y-157489571D01*
X217663485Y-157489571D02*
X217739676Y-157527666D01*
X217739676Y-157527666D02*
X217777771Y-157527666D01*
X217777771Y-157527666D02*
X217853961Y-157489571D01*
X217853961Y-157489571D02*
X217892057Y-157451476D01*
X217892057Y-157451476D02*
X217930152Y-157375285D01*
X217930152Y-157375285D02*
X217930152Y-157222904D01*
X217930152Y-157222904D02*
X217968247Y-157146714D01*
X217968247Y-157146714D02*
X218006342Y-157108619D01*
X218006342Y-157108619D02*
X218082533Y-157070523D01*
X218082533Y-157070523D02*
X218234914Y-157070523D01*
X218234914Y-157070523D02*
X218311104Y-157108619D01*
X218311104Y-157108619D02*
X218349200Y-157146714D01*
X218349200Y-157146714D02*
X218387295Y-157222904D01*
X218387295Y-157222904D02*
X218387295Y-157375285D01*
X218387295Y-157375285D02*
X218349200Y-157451476D01*
X218349200Y-157451476D02*
X218311104Y-157489571D01*
X218311104Y-157489571D02*
X218234914Y-157527666D01*
X218234914Y-157527666D02*
X218082533Y-157527666D01*
X218082533Y-157527666D02*
X218006342Y-157489571D01*
X218006342Y-157489571D02*
X217968247Y-157451476D01*
X217968247Y-157451476D02*
X217930152Y-157375285D01*
X212437295Y-144396142D02*
X213237295Y-144662809D01*
X213237295Y-144662809D02*
X212437295Y-144929475D01*
X213161104Y-145653285D02*
X213199200Y-145615189D01*
X213199200Y-145615189D02*
X213237295Y-145500904D01*
X213237295Y-145500904D02*
X213237295Y-145424713D01*
X213237295Y-145424713D02*
X213199200Y-145310427D01*
X213199200Y-145310427D02*
X213123009Y-145234237D01*
X213123009Y-145234237D02*
X213046819Y-145196142D01*
X213046819Y-145196142D02*
X212894438Y-145158046D01*
X212894438Y-145158046D02*
X212780152Y-145158046D01*
X212780152Y-145158046D02*
X212627771Y-145196142D01*
X212627771Y-145196142D02*
X212551580Y-145234237D01*
X212551580Y-145234237D02*
X212475390Y-145310427D01*
X212475390Y-145310427D02*
X212437295Y-145424713D01*
X212437295Y-145424713D02*
X212437295Y-145500904D01*
X212437295Y-145500904D02*
X212475390Y-145615189D01*
X212475390Y-145615189D02*
X212513485Y-145653285D01*
X213161104Y-146453285D02*
X213199200Y-146415189D01*
X213199200Y-146415189D02*
X213237295Y-146300904D01*
X213237295Y-146300904D02*
X213237295Y-146224713D01*
X213237295Y-146224713D02*
X213199200Y-146110427D01*
X213199200Y-146110427D02*
X213123009Y-146034237D01*
X213123009Y-146034237D02*
X213046819Y-145996142D01*
X213046819Y-145996142D02*
X212894438Y-145958046D01*
X212894438Y-145958046D02*
X212780152Y-145958046D01*
X212780152Y-145958046D02*
X212627771Y-145996142D01*
X212627771Y-145996142D02*
X212551580Y-146034237D01*
X212551580Y-146034237D02*
X212475390Y-146110427D01*
X212475390Y-146110427D02*
X212437295Y-146224713D01*
X212437295Y-146224713D02*
X212437295Y-146300904D01*
X212437295Y-146300904D02*
X212475390Y-146415189D01*
X212475390Y-146415189D02*
X212513485Y-146453285D01*
X194657295Y-144662809D02*
X194657295Y-144738999D01*
X194657295Y-144738999D02*
X194695390Y-144815190D01*
X194695390Y-144815190D02*
X194733485Y-144853285D01*
X194733485Y-144853285D02*
X194809676Y-144891380D01*
X194809676Y-144891380D02*
X194962057Y-144929475D01*
X194962057Y-144929475D02*
X195152533Y-144929475D01*
X195152533Y-144929475D02*
X195304914Y-144891380D01*
X195304914Y-144891380D02*
X195381104Y-144853285D01*
X195381104Y-144853285D02*
X195419200Y-144815190D01*
X195419200Y-144815190D02*
X195457295Y-144738999D01*
X195457295Y-144738999D02*
X195457295Y-144662809D01*
X195457295Y-144662809D02*
X195419200Y-144586618D01*
X195419200Y-144586618D02*
X195381104Y-144548523D01*
X195381104Y-144548523D02*
X195304914Y-144510428D01*
X195304914Y-144510428D02*
X195152533Y-144472332D01*
X195152533Y-144472332D02*
X194962057Y-144472332D01*
X194962057Y-144472332D02*
X194809676Y-144510428D01*
X194809676Y-144510428D02*
X194733485Y-144548523D01*
X194733485Y-144548523D02*
X194695390Y-144586618D01*
X194695390Y-144586618D02*
X194657295Y-144662809D01*
X195457295Y-145691380D02*
X195457295Y-145234237D01*
X195457295Y-145462809D02*
X194657295Y-145462809D01*
X194657295Y-145462809D02*
X194771580Y-145386618D01*
X194771580Y-145386618D02*
X194847771Y-145310428D01*
X194847771Y-145310428D02*
X194885866Y-145234237D01*
X194657295Y-146186619D02*
X194657295Y-146262809D01*
X194657295Y-146262809D02*
X194695390Y-146339000D01*
X194695390Y-146339000D02*
X194733485Y-146377095D01*
X194733485Y-146377095D02*
X194809676Y-146415190D01*
X194809676Y-146415190D02*
X194962057Y-146453285D01*
X194962057Y-146453285D02*
X195152533Y-146453285D01*
X195152533Y-146453285D02*
X195304914Y-146415190D01*
X195304914Y-146415190D02*
X195381104Y-146377095D01*
X195381104Y-146377095D02*
X195419200Y-146339000D01*
X195419200Y-146339000D02*
X195457295Y-146262809D01*
X195457295Y-146262809D02*
X195457295Y-146186619D01*
X195457295Y-146186619D02*
X195419200Y-146110428D01*
X195419200Y-146110428D02*
X195381104Y-146072333D01*
X195381104Y-146072333D02*
X195304914Y-146034238D01*
X195304914Y-146034238D02*
X195152533Y-145996142D01*
X195152533Y-145996142D02*
X194962057Y-145996142D01*
X194962057Y-145996142D02*
X194809676Y-146034238D01*
X194809676Y-146034238D02*
X194733485Y-146072333D01*
X194733485Y-146072333D02*
X194695390Y-146110428D01*
X194695390Y-146110428D02*
X194657295Y-146186619D01*
X202277295Y-155737190D02*
X202277295Y-155813380D01*
X202277295Y-155813380D02*
X202315390Y-155889571D01*
X202315390Y-155889571D02*
X202353485Y-155927666D01*
X202353485Y-155927666D02*
X202429676Y-155965761D01*
X202429676Y-155965761D02*
X202582057Y-156003856D01*
X202582057Y-156003856D02*
X202772533Y-156003856D01*
X202772533Y-156003856D02*
X202924914Y-155965761D01*
X202924914Y-155965761D02*
X203001104Y-155927666D01*
X203001104Y-155927666D02*
X203039200Y-155889571D01*
X203039200Y-155889571D02*
X203077295Y-155813380D01*
X203077295Y-155813380D02*
X203077295Y-155737190D01*
X203077295Y-155737190D02*
X203039200Y-155660999D01*
X203039200Y-155660999D02*
X203001104Y-155622904D01*
X203001104Y-155622904D02*
X202924914Y-155584809D01*
X202924914Y-155584809D02*
X202772533Y-155546713D01*
X202772533Y-155546713D02*
X202582057Y-155546713D01*
X202582057Y-155546713D02*
X202429676Y-155584809D01*
X202429676Y-155584809D02*
X202353485Y-155622904D01*
X202353485Y-155622904D02*
X202315390Y-155660999D01*
X202315390Y-155660999D02*
X202277295Y-155737190D01*
X202353485Y-156308618D02*
X202315390Y-156346714D01*
X202315390Y-156346714D02*
X202277295Y-156422904D01*
X202277295Y-156422904D02*
X202277295Y-156613380D01*
X202277295Y-156613380D02*
X202315390Y-156689571D01*
X202315390Y-156689571D02*
X202353485Y-156727666D01*
X202353485Y-156727666D02*
X202429676Y-156765761D01*
X202429676Y-156765761D02*
X202505866Y-156765761D01*
X202505866Y-156765761D02*
X202620152Y-156727666D01*
X202620152Y-156727666D02*
X203077295Y-156270523D01*
X203077295Y-156270523D02*
X203077295Y-156765761D01*
X202543961Y-157451476D02*
X203077295Y-157451476D01*
X202239200Y-157261000D02*
X202810628Y-157070523D01*
X202810628Y-157070523D02*
X202810628Y-157565762D01*
X197997295Y-144929475D02*
X197997295Y-144472332D01*
X197997295Y-144700904D02*
X197197295Y-144700904D01*
X197197295Y-144700904D02*
X197311580Y-144624713D01*
X197311580Y-144624713D02*
X197387771Y-144548523D01*
X197387771Y-144548523D02*
X197425866Y-144472332D01*
X197997295Y-145691380D02*
X197997295Y-145234237D01*
X197997295Y-145462809D02*
X197197295Y-145462809D01*
X197197295Y-145462809D02*
X197311580Y-145386618D01*
X197311580Y-145386618D02*
X197387771Y-145310428D01*
X197387771Y-145310428D02*
X197425866Y-145234237D01*
X197997295Y-146453285D02*
X197997295Y-145996142D01*
X197997295Y-146224714D02*
X197197295Y-146224714D01*
X197197295Y-146224714D02*
X197311580Y-146148523D01*
X197311580Y-146148523D02*
X197387771Y-146072333D01*
X197387771Y-146072333D02*
X197425866Y-145996142D01*
X209897295Y-144662809D02*
X209897295Y-144738999D01*
X209897295Y-144738999D02*
X209935390Y-144815190D01*
X209935390Y-144815190D02*
X209973485Y-144853285D01*
X209973485Y-144853285D02*
X210049676Y-144891380D01*
X210049676Y-144891380D02*
X210202057Y-144929475D01*
X210202057Y-144929475D02*
X210392533Y-144929475D01*
X210392533Y-144929475D02*
X210544914Y-144891380D01*
X210544914Y-144891380D02*
X210621104Y-144853285D01*
X210621104Y-144853285D02*
X210659200Y-144815190D01*
X210659200Y-144815190D02*
X210697295Y-144738999D01*
X210697295Y-144738999D02*
X210697295Y-144662809D01*
X210697295Y-144662809D02*
X210659200Y-144586618D01*
X210659200Y-144586618D02*
X210621104Y-144548523D01*
X210621104Y-144548523D02*
X210544914Y-144510428D01*
X210544914Y-144510428D02*
X210392533Y-144472332D01*
X210392533Y-144472332D02*
X210202057Y-144472332D01*
X210202057Y-144472332D02*
X210049676Y-144510428D01*
X210049676Y-144510428D02*
X209973485Y-144548523D01*
X209973485Y-144548523D02*
X209935390Y-144586618D01*
X209935390Y-144586618D02*
X209897295Y-144662809D01*
X209897295Y-145196142D02*
X209897295Y-145691380D01*
X209897295Y-145691380D02*
X210202057Y-145424714D01*
X210202057Y-145424714D02*
X210202057Y-145538999D01*
X210202057Y-145538999D02*
X210240152Y-145615190D01*
X210240152Y-145615190D02*
X210278247Y-145653285D01*
X210278247Y-145653285D02*
X210354438Y-145691380D01*
X210354438Y-145691380D02*
X210544914Y-145691380D01*
X210544914Y-145691380D02*
X210621104Y-145653285D01*
X210621104Y-145653285D02*
X210659200Y-145615190D01*
X210659200Y-145615190D02*
X210697295Y-145538999D01*
X210697295Y-145538999D02*
X210697295Y-145310428D01*
X210697295Y-145310428D02*
X210659200Y-145234237D01*
X210659200Y-145234237D02*
X210621104Y-145196142D01*
X210697295Y-146453285D02*
X210697295Y-145996142D01*
X210697295Y-146224714D02*
X209897295Y-146224714D01*
X209897295Y-146224714D02*
X210011580Y-146148523D01*
X210011580Y-146148523D02*
X210087771Y-146072333D01*
X210087771Y-146072333D02*
X210125866Y-145996142D01*
X207287295Y-155737190D02*
X207287295Y-155813380D01*
X207287295Y-155813380D02*
X207325390Y-155889571D01*
X207325390Y-155889571D02*
X207363485Y-155927666D01*
X207363485Y-155927666D02*
X207439676Y-155965761D01*
X207439676Y-155965761D02*
X207592057Y-156003856D01*
X207592057Y-156003856D02*
X207782533Y-156003856D01*
X207782533Y-156003856D02*
X207934914Y-155965761D01*
X207934914Y-155965761D02*
X208011104Y-155927666D01*
X208011104Y-155927666D02*
X208049200Y-155889571D01*
X208049200Y-155889571D02*
X208087295Y-155813380D01*
X208087295Y-155813380D02*
X208087295Y-155737190D01*
X208087295Y-155737190D02*
X208049200Y-155660999D01*
X208049200Y-155660999D02*
X208011104Y-155622904D01*
X208011104Y-155622904D02*
X207934914Y-155584809D01*
X207934914Y-155584809D02*
X207782533Y-155546713D01*
X207782533Y-155546713D02*
X207592057Y-155546713D01*
X207592057Y-155546713D02*
X207439676Y-155584809D01*
X207439676Y-155584809D02*
X207363485Y-155622904D01*
X207363485Y-155622904D02*
X207325390Y-155660999D01*
X207325390Y-155660999D02*
X207287295Y-155737190D01*
X207363485Y-156308618D02*
X207325390Y-156346714D01*
X207325390Y-156346714D02*
X207287295Y-156422904D01*
X207287295Y-156422904D02*
X207287295Y-156613380D01*
X207287295Y-156613380D02*
X207325390Y-156689571D01*
X207325390Y-156689571D02*
X207363485Y-156727666D01*
X207363485Y-156727666D02*
X207439676Y-156765761D01*
X207439676Y-156765761D02*
X207515866Y-156765761D01*
X207515866Y-156765761D02*
X207630152Y-156727666D01*
X207630152Y-156727666D02*
X208087295Y-156270523D01*
X208087295Y-156270523D02*
X208087295Y-156765761D01*
X207287295Y-157261000D02*
X207287295Y-157337190D01*
X207287295Y-157337190D02*
X207325390Y-157413381D01*
X207325390Y-157413381D02*
X207363485Y-157451476D01*
X207363485Y-157451476D02*
X207439676Y-157489571D01*
X207439676Y-157489571D02*
X207592057Y-157527666D01*
X207592057Y-157527666D02*
X207782533Y-157527666D01*
X207782533Y-157527666D02*
X207934914Y-157489571D01*
X207934914Y-157489571D02*
X208011104Y-157451476D01*
X208011104Y-157451476D02*
X208049200Y-157413381D01*
X208049200Y-157413381D02*
X208087295Y-157337190D01*
X208087295Y-157337190D02*
X208087295Y-157261000D01*
X208087295Y-157261000D02*
X208049200Y-157184809D01*
X208049200Y-157184809D02*
X208011104Y-157146714D01*
X208011104Y-157146714D02*
X207934914Y-157108619D01*
X207934914Y-157108619D02*
X207782533Y-157070523D01*
X207782533Y-157070523D02*
X207592057Y-157070523D01*
X207592057Y-157070523D02*
X207439676Y-157108619D01*
X207439676Y-157108619D02*
X207363485Y-157146714D01*
X207363485Y-157146714D02*
X207325390Y-157184809D01*
X207325390Y-157184809D02*
X207287295Y-157261000D01*
X200537295Y-144929475D02*
X200537295Y-144472332D01*
X200537295Y-144700904D02*
X199737295Y-144700904D01*
X199737295Y-144700904D02*
X199851580Y-144624713D01*
X199851580Y-144624713D02*
X199927771Y-144548523D01*
X199927771Y-144548523D02*
X199965866Y-144472332D01*
X200537295Y-145691380D02*
X200537295Y-145234237D01*
X200537295Y-145462809D02*
X199737295Y-145462809D01*
X199737295Y-145462809D02*
X199851580Y-145386618D01*
X199851580Y-145386618D02*
X199927771Y-145310428D01*
X199927771Y-145310428D02*
X199965866Y-145234237D01*
X199737295Y-145958047D02*
X199737295Y-146453285D01*
X199737295Y-146453285D02*
X200042057Y-146186619D01*
X200042057Y-146186619D02*
X200042057Y-146300904D01*
X200042057Y-146300904D02*
X200080152Y-146377095D01*
X200080152Y-146377095D02*
X200118247Y-146415190D01*
X200118247Y-146415190D02*
X200194438Y-146453285D01*
X200194438Y-146453285D02*
X200384914Y-146453285D01*
X200384914Y-146453285D02*
X200461104Y-146415190D01*
X200461104Y-146415190D02*
X200499200Y-146377095D01*
X200499200Y-146377095D02*
X200537295Y-146300904D01*
X200537295Y-146300904D02*
X200537295Y-146072333D01*
X200537295Y-146072333D02*
X200499200Y-145996142D01*
X200499200Y-145996142D02*
X200461104Y-145958047D01*
X209887295Y-155737190D02*
X209887295Y-155813380D01*
X209887295Y-155813380D02*
X209925390Y-155889571D01*
X209925390Y-155889571D02*
X209963485Y-155927666D01*
X209963485Y-155927666D02*
X210039676Y-155965761D01*
X210039676Y-155965761D02*
X210192057Y-156003856D01*
X210192057Y-156003856D02*
X210382533Y-156003856D01*
X210382533Y-156003856D02*
X210534914Y-155965761D01*
X210534914Y-155965761D02*
X210611104Y-155927666D01*
X210611104Y-155927666D02*
X210649200Y-155889571D01*
X210649200Y-155889571D02*
X210687295Y-155813380D01*
X210687295Y-155813380D02*
X210687295Y-155737190D01*
X210687295Y-155737190D02*
X210649200Y-155660999D01*
X210649200Y-155660999D02*
X210611104Y-155622904D01*
X210611104Y-155622904D02*
X210534914Y-155584809D01*
X210534914Y-155584809D02*
X210382533Y-155546713D01*
X210382533Y-155546713D02*
X210192057Y-155546713D01*
X210192057Y-155546713D02*
X210039676Y-155584809D01*
X210039676Y-155584809D02*
X209963485Y-155622904D01*
X209963485Y-155622904D02*
X209925390Y-155660999D01*
X209925390Y-155660999D02*
X209887295Y-155737190D01*
X210687295Y-156765761D02*
X210687295Y-156308618D01*
X210687295Y-156537190D02*
X209887295Y-156537190D01*
X209887295Y-156537190D02*
X210001580Y-156460999D01*
X210001580Y-156460999D02*
X210077771Y-156384809D01*
X210077771Y-156384809D02*
X210115866Y-156308618D01*
X209887295Y-157032428D02*
X209887295Y-157565762D01*
X209887295Y-157565762D02*
X210687295Y-157222904D01*
X195457295Y-156003856D02*
X195457295Y-155546713D01*
X195457295Y-155775285D02*
X194657295Y-155775285D01*
X194657295Y-155775285D02*
X194771580Y-155699094D01*
X194771580Y-155699094D02*
X194847771Y-155622904D01*
X194847771Y-155622904D02*
X194885866Y-155546713D01*
X194657295Y-156499095D02*
X194657295Y-156575285D01*
X194657295Y-156575285D02*
X194695390Y-156651476D01*
X194695390Y-156651476D02*
X194733485Y-156689571D01*
X194733485Y-156689571D02*
X194809676Y-156727666D01*
X194809676Y-156727666D02*
X194962057Y-156765761D01*
X194962057Y-156765761D02*
X195152533Y-156765761D01*
X195152533Y-156765761D02*
X195304914Y-156727666D01*
X195304914Y-156727666D02*
X195381104Y-156689571D01*
X195381104Y-156689571D02*
X195419200Y-156651476D01*
X195419200Y-156651476D02*
X195457295Y-156575285D01*
X195457295Y-156575285D02*
X195457295Y-156499095D01*
X195457295Y-156499095D02*
X195419200Y-156422904D01*
X195419200Y-156422904D02*
X195381104Y-156384809D01*
X195381104Y-156384809D02*
X195304914Y-156346714D01*
X195304914Y-156346714D02*
X195152533Y-156308618D01*
X195152533Y-156308618D02*
X194962057Y-156308618D01*
X194962057Y-156308618D02*
X194809676Y-156346714D01*
X194809676Y-156346714D02*
X194733485Y-156384809D01*
X194733485Y-156384809D02*
X194695390Y-156422904D01*
X194695390Y-156422904D02*
X194657295Y-156499095D01*
X194923961Y-157451476D02*
X195457295Y-157451476D01*
X194619200Y-157261000D02*
X195190628Y-157070523D01*
X195190628Y-157070523D02*
X195190628Y-157565762D01*
X215015390Y-155851476D02*
X214977295Y-155775286D01*
X214977295Y-155775286D02*
X214977295Y-155661000D01*
X214977295Y-155661000D02*
X215015390Y-155546714D01*
X215015390Y-155546714D02*
X215091580Y-155470524D01*
X215091580Y-155470524D02*
X215167771Y-155432429D01*
X215167771Y-155432429D02*
X215320152Y-155394333D01*
X215320152Y-155394333D02*
X215434438Y-155394333D01*
X215434438Y-155394333D02*
X215586819Y-155432429D01*
X215586819Y-155432429D02*
X215663009Y-155470524D01*
X215663009Y-155470524D02*
X215739200Y-155546714D01*
X215739200Y-155546714D02*
X215777295Y-155661000D01*
X215777295Y-155661000D02*
X215777295Y-155737191D01*
X215777295Y-155737191D02*
X215739200Y-155851476D01*
X215739200Y-155851476D02*
X215701104Y-155889572D01*
X215701104Y-155889572D02*
X215434438Y-155889572D01*
X215434438Y-155889572D02*
X215434438Y-155737191D01*
X215777295Y-156232429D02*
X214977295Y-156232429D01*
X214977295Y-156232429D02*
X215777295Y-156689572D01*
X215777295Y-156689572D02*
X214977295Y-156689572D01*
X215777295Y-157070524D02*
X214977295Y-157070524D01*
X214977295Y-157070524D02*
X214977295Y-157261000D01*
X214977295Y-157261000D02*
X215015390Y-157375286D01*
X215015390Y-157375286D02*
X215091580Y-157451476D01*
X215091580Y-157451476D02*
X215167771Y-157489571D01*
X215167771Y-157489571D02*
X215320152Y-157527667D01*
X215320152Y-157527667D02*
X215434438Y-157527667D01*
X215434438Y-157527667D02*
X215586819Y-157489571D01*
X215586819Y-157489571D02*
X215663009Y-157451476D01*
X215663009Y-157451476D02*
X215739200Y-157375286D01*
X215739200Y-157375286D02*
X215777295Y-157261000D01*
X215777295Y-157261000D02*
X215777295Y-157070524D01*
X203077295Y-144929475D02*
X203077295Y-144472332D01*
X203077295Y-144700904D02*
X202277295Y-144700904D01*
X202277295Y-144700904D02*
X202391580Y-144624713D01*
X202391580Y-144624713D02*
X202467771Y-144548523D01*
X202467771Y-144548523D02*
X202505866Y-144472332D01*
X203077295Y-145691380D02*
X203077295Y-145234237D01*
X203077295Y-145462809D02*
X202277295Y-145462809D01*
X202277295Y-145462809D02*
X202391580Y-145386618D01*
X202391580Y-145386618D02*
X202467771Y-145310428D01*
X202467771Y-145310428D02*
X202505866Y-145234237D01*
X202277295Y-146415190D02*
X202277295Y-146034238D01*
X202277295Y-146034238D02*
X202658247Y-145996142D01*
X202658247Y-145996142D02*
X202620152Y-146034238D01*
X202620152Y-146034238D02*
X202582057Y-146110428D01*
X202582057Y-146110428D02*
X202582057Y-146300904D01*
X202582057Y-146300904D02*
X202620152Y-146377095D01*
X202620152Y-146377095D02*
X202658247Y-146415190D01*
X202658247Y-146415190D02*
X202734438Y-146453285D01*
X202734438Y-146453285D02*
X202924914Y-146453285D01*
X202924914Y-146453285D02*
X203001104Y-146415190D01*
X203001104Y-146415190D02*
X203039200Y-146377095D01*
X203039200Y-146377095D02*
X203077295Y-146300904D01*
X203077295Y-146300904D02*
X203077295Y-146110428D01*
X203077295Y-146110428D02*
X203039200Y-146034238D01*
X203039200Y-146034238D02*
X203001104Y-145996142D01*
X220857295Y-144973904D02*
X220476342Y-144707237D01*
X220857295Y-144516761D02*
X220057295Y-144516761D01*
X220057295Y-144516761D02*
X220057295Y-144821523D01*
X220057295Y-144821523D02*
X220095390Y-144897713D01*
X220095390Y-144897713D02*
X220133485Y-144935808D01*
X220133485Y-144935808D02*
X220209676Y-144973904D01*
X220209676Y-144973904D02*
X220323961Y-144973904D01*
X220323961Y-144973904D02*
X220400152Y-144935808D01*
X220400152Y-144935808D02*
X220438247Y-144897713D01*
X220438247Y-144897713D02*
X220476342Y-144821523D01*
X220476342Y-144821523D02*
X220476342Y-144516761D01*
X220628723Y-145278665D02*
X220628723Y-145659618D01*
X220857295Y-145202475D02*
X220057295Y-145469142D01*
X220057295Y-145469142D02*
X220857295Y-145735808D01*
X220057295Y-145926284D02*
X220857295Y-146116760D01*
X220857295Y-146116760D02*
X220285866Y-146269141D01*
X220285866Y-146269141D02*
X220857295Y-146421522D01*
X220857295Y-146421522D02*
X220057295Y-146611999D01*
X215777295Y-144973905D02*
X215396342Y-144707238D01*
X215777295Y-144516762D02*
X214977295Y-144516762D01*
X214977295Y-144516762D02*
X214977295Y-144821524D01*
X214977295Y-144821524D02*
X215015390Y-144897714D01*
X215015390Y-144897714D02*
X215053485Y-144935809D01*
X215053485Y-144935809D02*
X215129676Y-144973905D01*
X215129676Y-144973905D02*
X215243961Y-144973905D01*
X215243961Y-144973905D02*
X215320152Y-144935809D01*
X215320152Y-144935809D02*
X215358247Y-144897714D01*
X215358247Y-144897714D02*
X215396342Y-144821524D01*
X215396342Y-144821524D02*
X215396342Y-144516762D01*
X215739200Y-145278666D02*
X215777295Y-145392952D01*
X215777295Y-145392952D02*
X215777295Y-145583428D01*
X215777295Y-145583428D02*
X215739200Y-145659619D01*
X215739200Y-145659619D02*
X215701104Y-145697714D01*
X215701104Y-145697714D02*
X215624914Y-145735809D01*
X215624914Y-145735809D02*
X215548723Y-145735809D01*
X215548723Y-145735809D02*
X215472533Y-145697714D01*
X215472533Y-145697714D02*
X215434438Y-145659619D01*
X215434438Y-145659619D02*
X215396342Y-145583428D01*
X215396342Y-145583428D02*
X215358247Y-145431047D01*
X215358247Y-145431047D02*
X215320152Y-145354857D01*
X215320152Y-145354857D02*
X215282057Y-145316762D01*
X215282057Y-145316762D02*
X215205866Y-145278666D01*
X215205866Y-145278666D02*
X215129676Y-145278666D01*
X215129676Y-145278666D02*
X215053485Y-145316762D01*
X215053485Y-145316762D02*
X215015390Y-145354857D01*
X215015390Y-145354857D02*
X214977295Y-145431047D01*
X214977295Y-145431047D02*
X214977295Y-145621524D01*
X214977295Y-145621524D02*
X215015390Y-145735809D01*
X214977295Y-145964381D02*
X214977295Y-146421524D01*
X215777295Y-146192952D02*
X214977295Y-146192952D01*
X217555390Y-144935809D02*
X217517295Y-144859619D01*
X217517295Y-144859619D02*
X217517295Y-144745333D01*
X217517295Y-144745333D02*
X217555390Y-144631047D01*
X217555390Y-144631047D02*
X217631580Y-144554857D01*
X217631580Y-144554857D02*
X217707771Y-144516762D01*
X217707771Y-144516762D02*
X217860152Y-144478666D01*
X217860152Y-144478666D02*
X217974438Y-144478666D01*
X217974438Y-144478666D02*
X218126819Y-144516762D01*
X218126819Y-144516762D02*
X218203009Y-144554857D01*
X218203009Y-144554857D02*
X218279200Y-144631047D01*
X218279200Y-144631047D02*
X218317295Y-144745333D01*
X218317295Y-144745333D02*
X218317295Y-144821524D01*
X218317295Y-144821524D02*
X218279200Y-144935809D01*
X218279200Y-144935809D02*
X218241104Y-144973905D01*
X218241104Y-144973905D02*
X217974438Y-144973905D01*
X217974438Y-144973905D02*
X217974438Y-144821524D01*
X218317295Y-145316762D02*
X217517295Y-145316762D01*
X217517295Y-145316762D02*
X218317295Y-145773905D01*
X218317295Y-145773905D02*
X217517295Y-145773905D01*
X218317295Y-146154857D02*
X217517295Y-146154857D01*
X217517295Y-146154857D02*
X217517295Y-146345333D01*
X217517295Y-146345333D02*
X217555390Y-146459619D01*
X217555390Y-146459619D02*
X217631580Y-146535809D01*
X217631580Y-146535809D02*
X217707771Y-146573904D01*
X217707771Y-146573904D02*
X217860152Y-146612000D01*
X217860152Y-146612000D02*
X217974438Y-146612000D01*
X217974438Y-146612000D02*
X218126819Y-146573904D01*
X218126819Y-146573904D02*
X218203009Y-146535809D01*
X218203009Y-146535809D02*
X218279200Y-146459619D01*
X218279200Y-146459619D02*
X218317295Y-146345333D01*
X218317295Y-146345333D02*
X218317295Y-146154857D01*
X200537295Y-156003856D02*
X200537295Y-155546713D01*
X200537295Y-155775285D02*
X199737295Y-155775285D01*
X199737295Y-155775285D02*
X199851580Y-155699094D01*
X199851580Y-155699094D02*
X199927771Y-155622904D01*
X199927771Y-155622904D02*
X199965866Y-155546713D01*
X199737295Y-156499095D02*
X199737295Y-156575285D01*
X199737295Y-156575285D02*
X199775390Y-156651476D01*
X199775390Y-156651476D02*
X199813485Y-156689571D01*
X199813485Y-156689571D02*
X199889676Y-156727666D01*
X199889676Y-156727666D02*
X200042057Y-156765761D01*
X200042057Y-156765761D02*
X200232533Y-156765761D01*
X200232533Y-156765761D02*
X200384914Y-156727666D01*
X200384914Y-156727666D02*
X200461104Y-156689571D01*
X200461104Y-156689571D02*
X200499200Y-156651476D01*
X200499200Y-156651476D02*
X200537295Y-156575285D01*
X200537295Y-156575285D02*
X200537295Y-156499095D01*
X200537295Y-156499095D02*
X200499200Y-156422904D01*
X200499200Y-156422904D02*
X200461104Y-156384809D01*
X200461104Y-156384809D02*
X200384914Y-156346714D01*
X200384914Y-156346714D02*
X200232533Y-156308618D01*
X200232533Y-156308618D02*
X200042057Y-156308618D01*
X200042057Y-156308618D02*
X199889676Y-156346714D01*
X199889676Y-156346714D02*
X199813485Y-156384809D01*
X199813485Y-156384809D02*
X199775390Y-156422904D01*
X199775390Y-156422904D02*
X199737295Y-156499095D01*
X199737295Y-157261000D02*
X199737295Y-157337190D01*
X199737295Y-157337190D02*
X199775390Y-157413381D01*
X199775390Y-157413381D02*
X199813485Y-157451476D01*
X199813485Y-157451476D02*
X199889676Y-157489571D01*
X199889676Y-157489571D02*
X200042057Y-157527666D01*
X200042057Y-157527666D02*
X200232533Y-157527666D01*
X200232533Y-157527666D02*
X200384914Y-157489571D01*
X200384914Y-157489571D02*
X200461104Y-157451476D01*
X200461104Y-157451476D02*
X200499200Y-157413381D01*
X200499200Y-157413381D02*
X200537295Y-157337190D01*
X200537295Y-157337190D02*
X200537295Y-157261000D01*
X200537295Y-157261000D02*
X200499200Y-157184809D01*
X200499200Y-157184809D02*
X200461104Y-157146714D01*
X200461104Y-157146714D02*
X200384914Y-157108619D01*
X200384914Y-157108619D02*
X200232533Y-157070523D01*
X200232533Y-157070523D02*
X200042057Y-157070523D01*
X200042057Y-157070523D02*
X199889676Y-157108619D01*
X199889676Y-157108619D02*
X199813485Y-157146714D01*
X199813485Y-157146714D02*
X199775390Y-157184809D01*
X199775390Y-157184809D02*
X199737295Y-157261000D01*
X204817295Y-144662809D02*
X204817295Y-144738999D01*
X204817295Y-144738999D02*
X204855390Y-144815190D01*
X204855390Y-144815190D02*
X204893485Y-144853285D01*
X204893485Y-144853285D02*
X204969676Y-144891380D01*
X204969676Y-144891380D02*
X205122057Y-144929475D01*
X205122057Y-144929475D02*
X205312533Y-144929475D01*
X205312533Y-144929475D02*
X205464914Y-144891380D01*
X205464914Y-144891380D02*
X205541104Y-144853285D01*
X205541104Y-144853285D02*
X205579200Y-144815190D01*
X205579200Y-144815190D02*
X205617295Y-144738999D01*
X205617295Y-144738999D02*
X205617295Y-144662809D01*
X205617295Y-144662809D02*
X205579200Y-144586618D01*
X205579200Y-144586618D02*
X205541104Y-144548523D01*
X205541104Y-144548523D02*
X205464914Y-144510428D01*
X205464914Y-144510428D02*
X205312533Y-144472332D01*
X205312533Y-144472332D02*
X205122057Y-144472332D01*
X205122057Y-144472332D02*
X204969676Y-144510428D01*
X204969676Y-144510428D02*
X204893485Y-144548523D01*
X204893485Y-144548523D02*
X204855390Y-144586618D01*
X204855390Y-144586618D02*
X204817295Y-144662809D01*
X204817295Y-145424714D02*
X204817295Y-145500904D01*
X204817295Y-145500904D02*
X204855390Y-145577095D01*
X204855390Y-145577095D02*
X204893485Y-145615190D01*
X204893485Y-145615190D02*
X204969676Y-145653285D01*
X204969676Y-145653285D02*
X205122057Y-145691380D01*
X205122057Y-145691380D02*
X205312533Y-145691380D01*
X205312533Y-145691380D02*
X205464914Y-145653285D01*
X205464914Y-145653285D02*
X205541104Y-145615190D01*
X205541104Y-145615190D02*
X205579200Y-145577095D01*
X205579200Y-145577095D02*
X205617295Y-145500904D01*
X205617295Y-145500904D02*
X205617295Y-145424714D01*
X205617295Y-145424714D02*
X205579200Y-145348523D01*
X205579200Y-145348523D02*
X205541104Y-145310428D01*
X205541104Y-145310428D02*
X205464914Y-145272333D01*
X205464914Y-145272333D02*
X205312533Y-145234237D01*
X205312533Y-145234237D02*
X205122057Y-145234237D01*
X205122057Y-145234237D02*
X204969676Y-145272333D01*
X204969676Y-145272333D02*
X204893485Y-145310428D01*
X204893485Y-145310428D02*
X204855390Y-145348523D01*
X204855390Y-145348523D02*
X204817295Y-145424714D01*
X204893485Y-145996142D02*
X204855390Y-146034238D01*
X204855390Y-146034238D02*
X204817295Y-146110428D01*
X204817295Y-146110428D02*
X204817295Y-146300904D01*
X204817295Y-146300904D02*
X204855390Y-146377095D01*
X204855390Y-146377095D02*
X204893485Y-146415190D01*
X204893485Y-146415190D02*
X204969676Y-146453285D01*
X204969676Y-146453285D02*
X205045866Y-146453285D01*
X205045866Y-146453285D02*
X205160152Y-146415190D01*
X205160152Y-146415190D02*
X205617295Y-145958047D01*
X205617295Y-145958047D02*
X205617295Y-146453285D01*
X212475390Y-155851476D02*
X212437295Y-155775286D01*
X212437295Y-155775286D02*
X212437295Y-155661000D01*
X212437295Y-155661000D02*
X212475390Y-155546714D01*
X212475390Y-155546714D02*
X212551580Y-155470524D01*
X212551580Y-155470524D02*
X212627771Y-155432429D01*
X212627771Y-155432429D02*
X212780152Y-155394333D01*
X212780152Y-155394333D02*
X212894438Y-155394333D01*
X212894438Y-155394333D02*
X213046819Y-155432429D01*
X213046819Y-155432429D02*
X213123009Y-155470524D01*
X213123009Y-155470524D02*
X213199200Y-155546714D01*
X213199200Y-155546714D02*
X213237295Y-155661000D01*
X213237295Y-155661000D02*
X213237295Y-155737191D01*
X213237295Y-155737191D02*
X213199200Y-155851476D01*
X213199200Y-155851476D02*
X213161104Y-155889572D01*
X213161104Y-155889572D02*
X212894438Y-155889572D01*
X212894438Y-155889572D02*
X212894438Y-155737191D01*
X213237295Y-156232429D02*
X212437295Y-156232429D01*
X212437295Y-156232429D02*
X213237295Y-156689572D01*
X213237295Y-156689572D02*
X212437295Y-156689572D01*
X213237295Y-157070524D02*
X212437295Y-157070524D01*
X212437295Y-157070524D02*
X212437295Y-157261000D01*
X212437295Y-157261000D02*
X212475390Y-157375286D01*
X212475390Y-157375286D02*
X212551580Y-157451476D01*
X212551580Y-157451476D02*
X212627771Y-157489571D01*
X212627771Y-157489571D02*
X212780152Y-157527667D01*
X212780152Y-157527667D02*
X212894438Y-157527667D01*
X212894438Y-157527667D02*
X213046819Y-157489571D01*
X213046819Y-157489571D02*
X213123009Y-157451476D01*
X213123009Y-157451476D02*
X213199200Y-157375286D01*
X213199200Y-157375286D02*
X213237295Y-157261000D01*
X213237295Y-157261000D02*
X213237295Y-157070524D01*
X207357295Y-144662809D02*
X207357295Y-144738999D01*
X207357295Y-144738999D02*
X207395390Y-144815190D01*
X207395390Y-144815190D02*
X207433485Y-144853285D01*
X207433485Y-144853285D02*
X207509676Y-144891380D01*
X207509676Y-144891380D02*
X207662057Y-144929475D01*
X207662057Y-144929475D02*
X207852533Y-144929475D01*
X207852533Y-144929475D02*
X208004914Y-144891380D01*
X208004914Y-144891380D02*
X208081104Y-144853285D01*
X208081104Y-144853285D02*
X208119200Y-144815190D01*
X208119200Y-144815190D02*
X208157295Y-144738999D01*
X208157295Y-144738999D02*
X208157295Y-144662809D01*
X208157295Y-144662809D02*
X208119200Y-144586618D01*
X208119200Y-144586618D02*
X208081104Y-144548523D01*
X208081104Y-144548523D02*
X208004914Y-144510428D01*
X208004914Y-144510428D02*
X207852533Y-144472332D01*
X207852533Y-144472332D02*
X207662057Y-144472332D01*
X207662057Y-144472332D02*
X207509676Y-144510428D01*
X207509676Y-144510428D02*
X207433485Y-144548523D01*
X207433485Y-144548523D02*
X207395390Y-144586618D01*
X207395390Y-144586618D02*
X207357295Y-144662809D01*
X207433485Y-145234237D02*
X207395390Y-145272333D01*
X207395390Y-145272333D02*
X207357295Y-145348523D01*
X207357295Y-145348523D02*
X207357295Y-145538999D01*
X207357295Y-145538999D02*
X207395390Y-145615190D01*
X207395390Y-145615190D02*
X207433485Y-145653285D01*
X207433485Y-145653285D02*
X207509676Y-145691380D01*
X207509676Y-145691380D02*
X207585866Y-145691380D01*
X207585866Y-145691380D02*
X207700152Y-145653285D01*
X207700152Y-145653285D02*
X208157295Y-145196142D01*
X208157295Y-145196142D02*
X208157295Y-145691380D01*
X208157295Y-146072333D02*
X208157295Y-146224714D01*
X208157295Y-146224714D02*
X208119200Y-146300904D01*
X208119200Y-146300904D02*
X208081104Y-146339000D01*
X208081104Y-146339000D02*
X207966819Y-146415190D01*
X207966819Y-146415190D02*
X207814438Y-146453285D01*
X207814438Y-146453285D02*
X207509676Y-146453285D01*
X207509676Y-146453285D02*
X207433485Y-146415190D01*
X207433485Y-146415190D02*
X207395390Y-146377095D01*
X207395390Y-146377095D02*
X207357295Y-146300904D01*
X207357295Y-146300904D02*
X207357295Y-146148523D01*
X207357295Y-146148523D02*
X207395390Y-146072333D01*
X207395390Y-146072333D02*
X207433485Y-146034238D01*
X207433485Y-146034238D02*
X207509676Y-145996142D01*
X207509676Y-145996142D02*
X207700152Y-145996142D01*
X207700152Y-145996142D02*
X207776342Y-146034238D01*
X207776342Y-146034238D02*
X207814438Y-146072333D01*
X207814438Y-146072333D02*
X207852533Y-146148523D01*
X207852533Y-146148523D02*
X207852533Y-146300904D01*
X207852533Y-146300904D02*
X207814438Y-146377095D01*
X207814438Y-146377095D02*
X207776342Y-146415190D01*
X207776342Y-146415190D02*
X207700152Y-146453285D01*
X220057295Y-155737190D02*
X220057295Y-155813380D01*
X220057295Y-155813380D02*
X220095390Y-155889571D01*
X220095390Y-155889571D02*
X220133485Y-155927666D01*
X220133485Y-155927666D02*
X220209676Y-155965761D01*
X220209676Y-155965761D02*
X220362057Y-156003856D01*
X220362057Y-156003856D02*
X220552533Y-156003856D01*
X220552533Y-156003856D02*
X220704914Y-155965761D01*
X220704914Y-155965761D02*
X220781104Y-155927666D01*
X220781104Y-155927666D02*
X220819200Y-155889571D01*
X220819200Y-155889571D02*
X220857295Y-155813380D01*
X220857295Y-155813380D02*
X220857295Y-155737190D01*
X220857295Y-155737190D02*
X220819200Y-155660999D01*
X220819200Y-155660999D02*
X220781104Y-155622904D01*
X220781104Y-155622904D02*
X220704914Y-155584809D01*
X220704914Y-155584809D02*
X220552533Y-155546713D01*
X220552533Y-155546713D02*
X220362057Y-155546713D01*
X220362057Y-155546713D02*
X220209676Y-155584809D01*
X220209676Y-155584809D02*
X220133485Y-155622904D01*
X220133485Y-155622904D02*
X220095390Y-155660999D01*
X220095390Y-155660999D02*
X220057295Y-155737190D01*
X220057295Y-156499095D02*
X220057295Y-156575285D01*
X220057295Y-156575285D02*
X220095390Y-156651476D01*
X220095390Y-156651476D02*
X220133485Y-156689571D01*
X220133485Y-156689571D02*
X220209676Y-156727666D01*
X220209676Y-156727666D02*
X220362057Y-156765761D01*
X220362057Y-156765761D02*
X220552533Y-156765761D01*
X220552533Y-156765761D02*
X220704914Y-156727666D01*
X220704914Y-156727666D02*
X220781104Y-156689571D01*
X220781104Y-156689571D02*
X220819200Y-156651476D01*
X220819200Y-156651476D02*
X220857295Y-156575285D01*
X220857295Y-156575285D02*
X220857295Y-156499095D01*
X220857295Y-156499095D02*
X220819200Y-156422904D01*
X220819200Y-156422904D02*
X220781104Y-156384809D01*
X220781104Y-156384809D02*
X220704914Y-156346714D01*
X220704914Y-156346714D02*
X220552533Y-156308618D01*
X220552533Y-156308618D02*
X220362057Y-156308618D01*
X220362057Y-156308618D02*
X220209676Y-156346714D01*
X220209676Y-156346714D02*
X220133485Y-156384809D01*
X220133485Y-156384809D02*
X220095390Y-156422904D01*
X220095390Y-156422904D02*
X220057295Y-156499095D01*
X220057295Y-157451476D02*
X220057295Y-157299095D01*
X220057295Y-157299095D02*
X220095390Y-157222904D01*
X220095390Y-157222904D02*
X220133485Y-157184809D01*
X220133485Y-157184809D02*
X220247771Y-157108619D01*
X220247771Y-157108619D02*
X220400152Y-157070523D01*
X220400152Y-157070523D02*
X220704914Y-157070523D01*
X220704914Y-157070523D02*
X220781104Y-157108619D01*
X220781104Y-157108619D02*
X220819200Y-157146714D01*
X220819200Y-157146714D02*
X220857295Y-157222904D01*
X220857295Y-157222904D02*
X220857295Y-157375285D01*
X220857295Y-157375285D02*
X220819200Y-157451476D01*
X220819200Y-157451476D02*
X220781104Y-157489571D01*
X220781104Y-157489571D02*
X220704914Y-157527666D01*
X220704914Y-157527666D02*
X220514438Y-157527666D01*
X220514438Y-157527666D02*
X220438247Y-157489571D01*
X220438247Y-157489571D02*
X220400152Y-157451476D01*
X220400152Y-157451476D02*
X220362057Y-157375285D01*
X220362057Y-157375285D02*
X220362057Y-157222904D01*
X220362057Y-157222904D02*
X220400152Y-157146714D01*
X220400152Y-157146714D02*
X220438247Y-157108619D01*
X220438247Y-157108619D02*
X220514438Y-157070523D01*
%TO.C,T1*%
X210700000Y-63150000D02*
X210700000Y-66000000D01*
X210700000Y-66000000D02*
X217300000Y-66000000D01*
X214000000Y-63150000D02*
X210700000Y-63150000D01*
X214000000Y-63150000D02*
X217300000Y-63150000D01*
X215950000Y-63150000D02*
X212050000Y-63150000D01*
X217300000Y-66000000D02*
X217300000Y-63150000D01*
D11*
%TO.C,D28*%
X203775000Y-108500000D02*
X204175000Y-108500000D01*
X204175000Y-108500000D02*
X204175000Y-107950000D01*
X204175000Y-108500000D02*
X204175000Y-109050000D01*
X204175000Y-108500000D02*
X204775000Y-108100000D01*
X204775000Y-108100000D02*
X204775000Y-108900000D01*
X204775000Y-108500000D02*
X205275000Y-108500000D01*
X204775000Y-108900000D02*
X204175000Y-108500000D01*
D10*
%TO.C,JST1*%
X142175000Y-100050000D02*
X142175000Y-100750000D01*
X142175000Y-100750000D02*
X143775000Y-100750000D01*
X142175000Y-105250000D02*
X142175000Y-105950000D01*
X142175000Y-105950000D02*
X149775000Y-105950000D01*
X143775000Y-100750000D02*
X143775000Y-105250000D01*
X143775000Y-105250000D02*
X142175000Y-105250000D01*
X145025000Y-104000000D02*
X145525000Y-104000000D01*
X145275000Y-104250000D02*
X145275000Y-103750000D01*
X149775000Y-100050000D02*
X142175000Y-100050000D01*
X149775000Y-105950000D02*
X149775000Y-100050000D01*
D11*
%TO.C,D15*%
X137250000Y-70500000D02*
X137650000Y-70500000D01*
X137650000Y-70500000D02*
X137650000Y-69950000D01*
X137650000Y-70500000D02*
X137650000Y-71050000D01*
X137650000Y-70500000D02*
X138250000Y-70100000D01*
X138250000Y-70100000D02*
X138250000Y-70900000D01*
X138250000Y-70500000D02*
X138750000Y-70500000D01*
X138250000Y-70900000D02*
X137650000Y-70500000D01*
D12*
%TO.C,B1*%
X197550000Y-64275000D02*
X197550000Y-63725000D01*
X198575000Y-62150000D02*
X197650000Y-62150000D01*
X202350000Y-62150000D02*
X201425000Y-62150000D01*
X202350000Y-65850000D02*
X197650000Y-65850000D01*
X202450000Y-64275000D02*
X202450000Y-63725000D01*
D11*
%TO.C,D24*%
X180012500Y-89500000D02*
X180412500Y-89500000D01*
X180412500Y-89500000D02*
X180412500Y-88950000D01*
X180412500Y-89500000D02*
X180412500Y-90050000D01*
X180412500Y-89500000D02*
X181012500Y-89100000D01*
X181012500Y-89100000D02*
X181012500Y-89900000D01*
X181012500Y-89500000D02*
X181512500Y-89500000D01*
X181012500Y-89900000D02*
X180412500Y-89500000D01*
%TO.C,D27*%
X213300000Y-127500000D02*
X213700000Y-127500000D01*
X213700000Y-127500000D02*
X213700000Y-126950000D01*
X213700000Y-127500000D02*
X213700000Y-128050000D01*
X213700000Y-127500000D02*
X214300000Y-127100000D01*
X214300000Y-127100000D02*
X214300000Y-127900000D01*
X214300000Y-127500000D02*
X214800000Y-127500000D01*
X214300000Y-127900000D02*
X213700000Y-127500000D01*
%TO.C,D29*%
X199012500Y-89500000D02*
X199412500Y-89500000D01*
X199412500Y-89500000D02*
X199412500Y-88950000D01*
X199412500Y-89500000D02*
X199412500Y-90050000D01*
X199412500Y-89500000D02*
X200012500Y-89100000D01*
X200012500Y-89100000D02*
X200012500Y-89900000D01*
X200012500Y-89500000D02*
X200512500Y-89500000D01*
X200012500Y-89900000D02*
X199412500Y-89500000D01*
%TO.C,D13*%
X146775000Y-108500000D02*
X147175000Y-108500000D01*
X147175000Y-108500000D02*
X147175000Y-107950000D01*
X147175000Y-108500000D02*
X147175000Y-109050000D01*
X147175000Y-108500000D02*
X147775000Y-108100000D01*
X147775000Y-108100000D02*
X147775000Y-108900000D01*
X147775000Y-108500000D02*
X148275000Y-108500000D01*
X147775000Y-108900000D02*
X147175000Y-108500000D01*
%TO.C,D23*%
X184775000Y-108500000D02*
X185175000Y-108500000D01*
X185175000Y-108500000D02*
X185175000Y-107950000D01*
X185175000Y-108500000D02*
X185175000Y-109050000D01*
X185175000Y-108500000D02*
X185775000Y-108100000D01*
X185775000Y-108100000D02*
X185775000Y-108900000D01*
X185775000Y-108500000D02*
X186275000Y-108500000D01*
X185775000Y-108900000D02*
X185175000Y-108500000D01*
%TO.C,D14*%
X142012500Y-89500000D02*
X142412500Y-89500000D01*
X142412500Y-89500000D02*
X142412500Y-88950000D01*
X142412500Y-89500000D02*
X142412500Y-90050000D01*
X142412500Y-89500000D02*
X143012500Y-89100000D01*
X143012500Y-89100000D02*
X143012500Y-89900000D01*
X143012500Y-89500000D02*
X143512500Y-89500000D01*
X143012500Y-89900000D02*
X142412500Y-89500000D01*
%TO.C,D31*%
X213250000Y-70500000D02*
X213650000Y-70500000D01*
X213650000Y-70500000D02*
X213650000Y-69950000D01*
X213650000Y-70500000D02*
X213650000Y-71050000D01*
X213650000Y-70500000D02*
X214250000Y-70100000D01*
X214250000Y-70100000D02*
X214250000Y-70900000D01*
X214250000Y-70500000D02*
X214750000Y-70500000D01*
X214250000Y-70900000D02*
X213650000Y-70500000D01*
%TO.C,D10*%
X118250000Y-70500000D02*
X118650000Y-70500000D01*
X118650000Y-70500000D02*
X118650000Y-69950000D01*
X118650000Y-70500000D02*
X118650000Y-71050000D01*
X118650000Y-70500000D02*
X119250000Y-70100000D01*
X119250000Y-70100000D02*
X119250000Y-70900000D01*
X119250000Y-70500000D02*
X119750000Y-70500000D01*
X119250000Y-70900000D02*
X118650000Y-70500000D01*
%TO.C,D30*%
X194250000Y-70500000D02*
X194650000Y-70500000D01*
X194650000Y-70500000D02*
X194650000Y-69950000D01*
X194650000Y-70500000D02*
X194650000Y-71050000D01*
X194650000Y-70500000D02*
X195250000Y-70100000D01*
X195250000Y-70100000D02*
X195250000Y-70900000D01*
X195250000Y-70500000D02*
X195750000Y-70500000D01*
X195250000Y-70900000D02*
X194650000Y-70500000D01*
%TO.C,D22*%
X194300000Y-127500000D02*
X194700000Y-127500000D01*
X194700000Y-127500000D02*
X194700000Y-126950000D01*
X194700000Y-127500000D02*
X194700000Y-128050000D01*
X194700000Y-127500000D02*
X195300000Y-127100000D01*
X195300000Y-127100000D02*
X195300000Y-127900000D01*
X195300000Y-127500000D02*
X195800000Y-127500000D01*
X195300000Y-127900000D02*
X194700000Y-127500000D01*
%TO.C,D3*%
X104012500Y-108500000D02*
X104412500Y-108500000D01*
X104412500Y-108500000D02*
X104412500Y-107950000D01*
X104412500Y-108500000D02*
X104412500Y-109050000D01*
X104412500Y-108500000D02*
X105012500Y-108100000D01*
X105012500Y-108100000D02*
X105012500Y-108900000D01*
X105012500Y-108500000D02*
X105512500Y-108500000D01*
X105012500Y-108900000D02*
X104412500Y-108500000D01*
%TO.C,D5*%
X99250000Y-70500000D02*
X99650000Y-70500000D01*
X99650000Y-70500000D02*
X99650000Y-69950000D01*
X99650000Y-70500000D02*
X99650000Y-71050000D01*
X99650000Y-70500000D02*
X100250000Y-70100000D01*
X100250000Y-70100000D02*
X100250000Y-70900000D01*
X100250000Y-70500000D02*
X100750000Y-70500000D01*
X100250000Y-70900000D02*
X99650000Y-70500000D01*
%TO.C,D2*%
X108775000Y-127500000D02*
X109175000Y-127500000D01*
X109175000Y-127500000D02*
X109175000Y-126950000D01*
X109175000Y-127500000D02*
X109175000Y-128050000D01*
X109175000Y-127500000D02*
X109775000Y-127100000D01*
X109775000Y-127100000D02*
X109775000Y-127900000D01*
X109775000Y-127500000D02*
X110275000Y-127500000D01*
X109775000Y-127900000D02*
X109175000Y-127500000D01*
%TO.C,D17*%
X175300000Y-127500000D02*
X175700000Y-127500000D01*
X175700000Y-127500000D02*
X175700000Y-126950000D01*
X175700000Y-127500000D02*
X175700000Y-128050000D01*
X175700000Y-127500000D02*
X176300000Y-127100000D01*
X176300000Y-127100000D02*
X176300000Y-127900000D01*
X176300000Y-127500000D02*
X176800000Y-127500000D01*
X176300000Y-127900000D02*
X175700000Y-127500000D01*
%TO.C,D11*%
X137250000Y-146500000D02*
X137650000Y-146500000D01*
X137650000Y-146500000D02*
X137650000Y-145950000D01*
X137650000Y-146500000D02*
X137650000Y-147050000D01*
X137650000Y-146500000D02*
X138250000Y-146100000D01*
X138250000Y-146100000D02*
X138250000Y-146900000D01*
X138250000Y-146500000D02*
X138750000Y-146500000D01*
X138250000Y-146900000D02*
X137650000Y-146500000D01*
%TO.C,D18*%
X165775000Y-108500000D02*
X166175000Y-108500000D01*
X166175000Y-108500000D02*
X166175000Y-107950000D01*
X166175000Y-108500000D02*
X166175000Y-109050000D01*
X166175000Y-108500000D02*
X166775000Y-108100000D01*
X166775000Y-108100000D02*
X166775000Y-108900000D01*
X166775000Y-108500000D02*
X167275000Y-108500000D01*
X166775000Y-108900000D02*
X166175000Y-108500000D01*
%TO.C,D12*%
X156300000Y-127500000D02*
X156700000Y-127500000D01*
X156700000Y-127500000D02*
X156700000Y-126950000D01*
X156700000Y-127500000D02*
X156700000Y-128050000D01*
X156700000Y-127500000D02*
X157300000Y-127100000D01*
X157300000Y-127100000D02*
X157300000Y-127900000D01*
X157300000Y-127500000D02*
X157800000Y-127500000D01*
X157300000Y-127900000D02*
X156700000Y-127500000D01*
%TO.C,D20*%
X156250000Y-70500000D02*
X156650000Y-70500000D01*
X156650000Y-70500000D02*
X156650000Y-69950000D01*
X156650000Y-70500000D02*
X156650000Y-71050000D01*
X156650000Y-70500000D02*
X157250000Y-70100000D01*
X157250000Y-70100000D02*
X157250000Y-70900000D01*
X157250000Y-70500000D02*
X157750000Y-70500000D01*
X157250000Y-70900000D02*
X156650000Y-70500000D01*
%TO.C,D16*%
X156250000Y-146500000D02*
X156650000Y-146500000D01*
X156650000Y-146500000D02*
X156650000Y-145950000D01*
X156650000Y-146500000D02*
X156650000Y-147050000D01*
X156650000Y-146500000D02*
X157250000Y-146100000D01*
X157250000Y-146100000D02*
X157250000Y-146900000D01*
X157250000Y-146500000D02*
X157750000Y-146500000D01*
X157250000Y-146900000D02*
X156650000Y-146500000D01*
%TO.C,D21*%
X175250000Y-146500000D02*
X175650000Y-146500000D01*
X175650000Y-146500000D02*
X175650000Y-145950000D01*
X175650000Y-146500000D02*
X175650000Y-147050000D01*
X175650000Y-146500000D02*
X176250000Y-146100000D01*
X176250000Y-146100000D02*
X176250000Y-146900000D01*
X176250000Y-146500000D02*
X176750000Y-146500000D01*
X176250000Y-146900000D02*
X175650000Y-146500000D01*
%TO.C,D8*%
X127775000Y-108500000D02*
X128175000Y-108500000D01*
X128175000Y-108500000D02*
X128175000Y-107950000D01*
X128175000Y-108500000D02*
X128175000Y-109050000D01*
X128175000Y-108500000D02*
X128775000Y-108100000D01*
X128775000Y-108100000D02*
X128775000Y-108900000D01*
X128775000Y-108500000D02*
X129275000Y-108500000D01*
X128775000Y-108900000D02*
X128175000Y-108500000D01*
%TO.C,D26*%
X203775000Y-146500000D02*
X204175000Y-146500000D01*
X204175000Y-146500000D02*
X204175000Y-145950000D01*
X204175000Y-146500000D02*
X204175000Y-147050000D01*
X204175000Y-146500000D02*
X204775000Y-146100000D01*
X204775000Y-146100000D02*
X204775000Y-146900000D01*
X204775000Y-146500000D02*
X205275000Y-146500000D01*
X204775000Y-146900000D02*
X204175000Y-146500000D01*
%TO.C,D7*%
X137300000Y-127500000D02*
X137700000Y-127500000D01*
X137700000Y-127500000D02*
X137700000Y-126950000D01*
X137700000Y-127500000D02*
X137700000Y-128050000D01*
X137700000Y-127500000D02*
X138300000Y-127100000D01*
X138300000Y-127100000D02*
X138300000Y-127900000D01*
X138300000Y-127500000D02*
X138800000Y-127500000D01*
X138300000Y-127900000D02*
X137700000Y-127500000D01*
%TO.C,D6*%
X118250000Y-146500000D02*
X118650000Y-146500000D01*
X118650000Y-146500000D02*
X118650000Y-145950000D01*
X118650000Y-146500000D02*
X118650000Y-147050000D01*
X118650000Y-146500000D02*
X119250000Y-146100000D01*
X119250000Y-146100000D02*
X119250000Y-146900000D01*
X119250000Y-146500000D02*
X119750000Y-146500000D01*
X119250000Y-146900000D02*
X118650000Y-146500000D01*
%TO.C,D19*%
X161012500Y-89500000D02*
X161412500Y-89500000D01*
X161412500Y-89500000D02*
X161412500Y-88950000D01*
X161412500Y-89500000D02*
X161412500Y-90050000D01*
X161412500Y-89500000D02*
X162012500Y-89100000D01*
X162012500Y-89100000D02*
X162012500Y-89900000D01*
X162012500Y-89500000D02*
X162512500Y-89500000D01*
X162012500Y-89900000D02*
X161412500Y-89500000D01*
%TO.C,D9*%
X123012500Y-89500000D02*
X123412500Y-89500000D01*
X123412500Y-89500000D02*
X123412500Y-88950000D01*
X123412500Y-89500000D02*
X123412500Y-90050000D01*
X123412500Y-89500000D02*
X124012500Y-89100000D01*
X124012500Y-89100000D02*
X124012500Y-89900000D01*
X124012500Y-89500000D02*
X124512500Y-89500000D01*
X124012500Y-89900000D02*
X123412500Y-89500000D01*
%TO.C,D1*%
X99250000Y-146500000D02*
X99650000Y-146500000D01*
X99650000Y-146500000D02*
X99650000Y-145950000D01*
X99650000Y-146500000D02*
X99650000Y-147050000D01*
X99650000Y-146500000D02*
X100250000Y-146100000D01*
X100250000Y-146100000D02*
X100250000Y-146900000D01*
X100250000Y-146500000D02*
X100750000Y-146500000D01*
X100250000Y-146900000D02*
X99650000Y-146500000D01*
%TO.C,D4*%
X101631250Y-89500000D02*
X102031250Y-89500000D01*
X102031250Y-89500000D02*
X102031250Y-88950000D01*
X102031250Y-89500000D02*
X102031250Y-90050000D01*
X102031250Y-89500000D02*
X102631250Y-89100000D01*
X102631250Y-89100000D02*
X102631250Y-89900000D01*
X102631250Y-89500000D02*
X103131250Y-89500000D01*
X102631250Y-89900000D02*
X102031250Y-89500000D01*
%TO.C,D25*%
X175250000Y-70500000D02*
X175650000Y-70500000D01*
X175650000Y-70500000D02*
X175650000Y-69950000D01*
X175650000Y-70500000D02*
X175650000Y-71050000D01*
X175650000Y-70500000D02*
X176250000Y-70100000D01*
X176250000Y-70100000D02*
X176250000Y-70900000D01*
X176250000Y-70500000D02*
X176750000Y-70500000D01*
X176250000Y-70900000D02*
X175650000Y-70500000D01*
D13*
%TO.C,MCU1*%
X191285000Y-142110000D02*
X191285000Y-159890000D01*
X191285000Y-159890000D02*
X224305000Y-159890000D01*
X224305000Y-142110000D02*
X191285000Y-142110000D01*
X224305000Y-159890000D02*
X224305000Y-142110000D01*
%TD*%
D14*
%TO.C,MCU1*%
X220495000Y-158620000D03*
X217955000Y-158620000D03*
X215415000Y-158620000D03*
X212875000Y-158620000D03*
X210335000Y-158620000D03*
X207795000Y-158620000D03*
X205255000Y-158620000D03*
X202715000Y-158620000D03*
X200175000Y-158620000D03*
X197635000Y-158620000D03*
X195095000Y-158620000D03*
X192555000Y-158620000D03*
X192555000Y-143380000D03*
X195095000Y-143380000D03*
X197635000Y-143380000D03*
X200175000Y-143380000D03*
X202715000Y-143380000D03*
X205255000Y-143380000D03*
X207795000Y-143380000D03*
X210335000Y-143380000D03*
X212875000Y-143380000D03*
X215415000Y-143380000D03*
X217955000Y-143380000D03*
X220495000Y-143380000D03*
%TD*%
M02*
