%TF.GenerationSoftware,KiCad,Pcbnew,9.0.7*%
%TF.CreationDate,2026-01-20T23:15:53-08:00*%
%TF.ProjectId,left,6c656674-2e6b-4696-9361-645f70636258,v1.0.0*%
%TF.SameCoordinates,Original*%
%TF.FileFunction,Legend,Top*%
%TF.FilePolarity,Positive*%
%FSLAX46Y46*%
G04 Gerber Fmt 4.6, Leading zero omitted, Abs format (unit mm)*
G04 Created by KiCad (PCBNEW 9.0.7) date 2026-01-20 23:15:53*
%MOMM*%
%LPD*%
G01*
G04 APERTURE LIST*
%ADD10C,0.150000*%
%ADD11C,0.300000*%
%ADD12C,0.100000*%
%ADD13C,0.381000*%
%ADD14C,1.752600*%
G04 APERTURE END LIST*
D10*
X217555390Y-146154856D02*
X217517295Y-146231046D01*
X217517295Y-146231046D02*
X217517295Y-146345332D01*
X217517295Y-146345332D02*
X217555390Y-146459618D01*
X217555390Y-146459618D02*
X217631580Y-146535808D01*
X217631580Y-146535808D02*
X217707771Y-146573903D01*
X217707771Y-146573903D02*
X217860152Y-146611999D01*
X217860152Y-146611999D02*
X217974438Y-146611999D01*
X217974438Y-146611999D02*
X218126819Y-146573903D01*
X218126819Y-146573903D02*
X218203009Y-146535808D01*
X218203009Y-146535808D02*
X218279200Y-146459618D01*
X218279200Y-146459618D02*
X218317295Y-146345332D01*
X218317295Y-146345332D02*
X218317295Y-146269141D01*
X218317295Y-146269141D02*
X218279200Y-146154856D01*
X218279200Y-146154856D02*
X218241104Y-146116760D01*
X218241104Y-146116760D02*
X217974438Y-146116760D01*
X217974438Y-146116760D02*
X217974438Y-146269141D01*
X218317295Y-145773903D02*
X217517295Y-145773903D01*
X217517295Y-145773903D02*
X218317295Y-145316760D01*
X218317295Y-145316760D02*
X217517295Y-145316760D01*
X218317295Y-144935808D02*
X217517295Y-144935808D01*
X217517295Y-144935808D02*
X217517295Y-144745332D01*
X217517295Y-144745332D02*
X217555390Y-144631046D01*
X217555390Y-144631046D02*
X217631580Y-144554856D01*
X217631580Y-144554856D02*
X217707771Y-144516761D01*
X217707771Y-144516761D02*
X217860152Y-144478665D01*
X217860152Y-144478665D02*
X217974438Y-144478665D01*
X217974438Y-144478665D02*
X218126819Y-144516761D01*
X218126819Y-144516761D02*
X218203009Y-144554856D01*
X218203009Y-144554856D02*
X218279200Y-144631046D01*
X218279200Y-144631046D02*
X218317295Y-144745332D01*
X218317295Y-144745332D02*
X218317295Y-144935808D01*
X212475390Y-157070523D02*
X212437295Y-157146713D01*
X212437295Y-157146713D02*
X212437295Y-157260999D01*
X212437295Y-157260999D02*
X212475390Y-157375285D01*
X212475390Y-157375285D02*
X212551580Y-157451475D01*
X212551580Y-157451475D02*
X212627771Y-157489570D01*
X212627771Y-157489570D02*
X212780152Y-157527666D01*
X212780152Y-157527666D02*
X212894438Y-157527666D01*
X212894438Y-157527666D02*
X213046819Y-157489570D01*
X213046819Y-157489570D02*
X213123009Y-157451475D01*
X213123009Y-157451475D02*
X213199200Y-157375285D01*
X213199200Y-157375285D02*
X213237295Y-157260999D01*
X213237295Y-157260999D02*
X213237295Y-157184808D01*
X213237295Y-157184808D02*
X213199200Y-157070523D01*
X213199200Y-157070523D02*
X213161104Y-157032427D01*
X213161104Y-157032427D02*
X212894438Y-157032427D01*
X212894438Y-157032427D02*
X212894438Y-157184808D01*
X213237295Y-156689570D02*
X212437295Y-156689570D01*
X212437295Y-156689570D02*
X213237295Y-156232427D01*
X213237295Y-156232427D02*
X212437295Y-156232427D01*
X213237295Y-155851475D02*
X212437295Y-155851475D01*
X212437295Y-155851475D02*
X212437295Y-155660999D01*
X212437295Y-155660999D02*
X212475390Y-155546713D01*
X212475390Y-155546713D02*
X212551580Y-155470523D01*
X212551580Y-155470523D02*
X212627771Y-155432428D01*
X212627771Y-155432428D02*
X212780152Y-155394332D01*
X212780152Y-155394332D02*
X212894438Y-155394332D01*
X212894438Y-155394332D02*
X213046819Y-155432428D01*
X213046819Y-155432428D02*
X213123009Y-155470523D01*
X213123009Y-155470523D02*
X213199200Y-155546713D01*
X213199200Y-155546713D02*
X213237295Y-155660999D01*
X213237295Y-155660999D02*
X213237295Y-155851475D01*
X220857295Y-146078665D02*
X220476342Y-146345332D01*
X220857295Y-146535808D02*
X220057295Y-146535808D01*
X220057295Y-146535808D02*
X220057295Y-146231046D01*
X220057295Y-146231046D02*
X220095390Y-146154856D01*
X220095390Y-146154856D02*
X220133485Y-146116761D01*
X220133485Y-146116761D02*
X220209676Y-146078665D01*
X220209676Y-146078665D02*
X220323961Y-146078665D01*
X220323961Y-146078665D02*
X220400152Y-146116761D01*
X220400152Y-146116761D02*
X220438247Y-146154856D01*
X220438247Y-146154856D02*
X220476342Y-146231046D01*
X220476342Y-146231046D02*
X220476342Y-146535808D01*
X220628723Y-145773904D02*
X220628723Y-145392951D01*
X220857295Y-145850094D02*
X220057295Y-145583427D01*
X220057295Y-145583427D02*
X220857295Y-145316761D01*
X220057295Y-145126285D02*
X220857295Y-144935809D01*
X220857295Y-144935809D02*
X220285866Y-144783428D01*
X220285866Y-144783428D02*
X220857295Y-144631047D01*
X220857295Y-144631047D02*
X220057295Y-144440571D01*
X207357295Y-146262808D02*
X207357295Y-146186618D01*
X207357295Y-146186618D02*
X207395390Y-146110427D01*
X207395390Y-146110427D02*
X207433485Y-146072332D01*
X207433485Y-146072332D02*
X207509676Y-146034237D01*
X207509676Y-146034237D02*
X207662057Y-145996142D01*
X207662057Y-145996142D02*
X207852533Y-145996142D01*
X207852533Y-145996142D02*
X208004914Y-146034237D01*
X208004914Y-146034237D02*
X208081104Y-146072332D01*
X208081104Y-146072332D02*
X208119200Y-146110427D01*
X208119200Y-146110427D02*
X208157295Y-146186618D01*
X208157295Y-146186618D02*
X208157295Y-146262808D01*
X208157295Y-146262808D02*
X208119200Y-146338999D01*
X208119200Y-146338999D02*
X208081104Y-146377094D01*
X208081104Y-146377094D02*
X208004914Y-146415189D01*
X208004914Y-146415189D02*
X207852533Y-146453285D01*
X207852533Y-146453285D02*
X207662057Y-146453285D01*
X207662057Y-146453285D02*
X207509676Y-146415189D01*
X207509676Y-146415189D02*
X207433485Y-146377094D01*
X207433485Y-146377094D02*
X207395390Y-146338999D01*
X207395390Y-146338999D02*
X207357295Y-146262808D01*
X207433485Y-145691380D02*
X207395390Y-145653284D01*
X207395390Y-145653284D02*
X207357295Y-145577094D01*
X207357295Y-145577094D02*
X207357295Y-145386618D01*
X207357295Y-145386618D02*
X207395390Y-145310427D01*
X207395390Y-145310427D02*
X207433485Y-145272332D01*
X207433485Y-145272332D02*
X207509676Y-145234237D01*
X207509676Y-145234237D02*
X207585866Y-145234237D01*
X207585866Y-145234237D02*
X207700152Y-145272332D01*
X207700152Y-145272332D02*
X208157295Y-145729475D01*
X208157295Y-145729475D02*
X208157295Y-145234237D01*
X208157295Y-144853284D02*
X208157295Y-144700903D01*
X208157295Y-144700903D02*
X208119200Y-144624713D01*
X208119200Y-144624713D02*
X208081104Y-144586617D01*
X208081104Y-144586617D02*
X207966819Y-144510427D01*
X207966819Y-144510427D02*
X207814438Y-144472332D01*
X207814438Y-144472332D02*
X207509676Y-144472332D01*
X207509676Y-144472332D02*
X207433485Y-144510427D01*
X207433485Y-144510427D02*
X207395390Y-144548522D01*
X207395390Y-144548522D02*
X207357295Y-144624713D01*
X207357295Y-144624713D02*
X207357295Y-144777094D01*
X207357295Y-144777094D02*
X207395390Y-144853284D01*
X207395390Y-144853284D02*
X207433485Y-144891379D01*
X207433485Y-144891379D02*
X207509676Y-144929475D01*
X207509676Y-144929475D02*
X207700152Y-144929475D01*
X207700152Y-144929475D02*
X207776342Y-144891379D01*
X207776342Y-144891379D02*
X207814438Y-144853284D01*
X207814438Y-144853284D02*
X207852533Y-144777094D01*
X207852533Y-144777094D02*
X207852533Y-144624713D01*
X207852533Y-144624713D02*
X207814438Y-144548522D01*
X207814438Y-144548522D02*
X207776342Y-144510427D01*
X207776342Y-144510427D02*
X207700152Y-144472332D01*
X204817295Y-146262808D02*
X204817295Y-146186618D01*
X204817295Y-146186618D02*
X204855390Y-146110427D01*
X204855390Y-146110427D02*
X204893485Y-146072332D01*
X204893485Y-146072332D02*
X204969676Y-146034237D01*
X204969676Y-146034237D02*
X205122057Y-145996142D01*
X205122057Y-145996142D02*
X205312533Y-145996142D01*
X205312533Y-145996142D02*
X205464914Y-146034237D01*
X205464914Y-146034237D02*
X205541104Y-146072332D01*
X205541104Y-146072332D02*
X205579200Y-146110427D01*
X205579200Y-146110427D02*
X205617295Y-146186618D01*
X205617295Y-146186618D02*
X205617295Y-146262808D01*
X205617295Y-146262808D02*
X205579200Y-146338999D01*
X205579200Y-146338999D02*
X205541104Y-146377094D01*
X205541104Y-146377094D02*
X205464914Y-146415189D01*
X205464914Y-146415189D02*
X205312533Y-146453285D01*
X205312533Y-146453285D02*
X205122057Y-146453285D01*
X205122057Y-146453285D02*
X204969676Y-146415189D01*
X204969676Y-146415189D02*
X204893485Y-146377094D01*
X204893485Y-146377094D02*
X204855390Y-146338999D01*
X204855390Y-146338999D02*
X204817295Y-146262808D01*
X204817295Y-145500903D02*
X204817295Y-145424713D01*
X204817295Y-145424713D02*
X204855390Y-145348522D01*
X204855390Y-145348522D02*
X204893485Y-145310427D01*
X204893485Y-145310427D02*
X204969676Y-145272332D01*
X204969676Y-145272332D02*
X205122057Y-145234237D01*
X205122057Y-145234237D02*
X205312533Y-145234237D01*
X205312533Y-145234237D02*
X205464914Y-145272332D01*
X205464914Y-145272332D02*
X205541104Y-145310427D01*
X205541104Y-145310427D02*
X205579200Y-145348522D01*
X205579200Y-145348522D02*
X205617295Y-145424713D01*
X205617295Y-145424713D02*
X205617295Y-145500903D01*
X205617295Y-145500903D02*
X205579200Y-145577094D01*
X205579200Y-145577094D02*
X205541104Y-145615189D01*
X205541104Y-145615189D02*
X205464914Y-145653284D01*
X205464914Y-145653284D02*
X205312533Y-145691380D01*
X205312533Y-145691380D02*
X205122057Y-145691380D01*
X205122057Y-145691380D02*
X204969676Y-145653284D01*
X204969676Y-145653284D02*
X204893485Y-145615189D01*
X204893485Y-145615189D02*
X204855390Y-145577094D01*
X204855390Y-145577094D02*
X204817295Y-145500903D01*
X204893485Y-144929475D02*
X204855390Y-144891379D01*
X204855390Y-144891379D02*
X204817295Y-144815189D01*
X204817295Y-144815189D02*
X204817295Y-144624713D01*
X204817295Y-144624713D02*
X204855390Y-144548522D01*
X204855390Y-144548522D02*
X204893485Y-144510427D01*
X204893485Y-144510427D02*
X204969676Y-144472332D01*
X204969676Y-144472332D02*
X205045866Y-144472332D01*
X205045866Y-144472332D02*
X205160152Y-144510427D01*
X205160152Y-144510427D02*
X205617295Y-144967570D01*
X205617295Y-144967570D02*
X205617295Y-144472332D01*
X197997295Y-145996142D02*
X197997295Y-146453285D01*
X197997295Y-146224713D02*
X197197295Y-146224713D01*
X197197295Y-146224713D02*
X197311580Y-146300904D01*
X197311580Y-146300904D02*
X197387771Y-146377094D01*
X197387771Y-146377094D02*
X197425866Y-146453285D01*
X197997295Y-145234237D02*
X197997295Y-145691380D01*
X197997295Y-145462808D02*
X197197295Y-145462808D01*
X197197295Y-145462808D02*
X197311580Y-145538999D01*
X197311580Y-145538999D02*
X197387771Y-145615189D01*
X197387771Y-145615189D02*
X197425866Y-145691380D01*
X197997295Y-144472332D02*
X197997295Y-144929475D01*
X197997295Y-144700903D02*
X197197295Y-144700903D01*
X197197295Y-144700903D02*
X197311580Y-144777094D01*
X197311580Y-144777094D02*
X197387771Y-144853284D01*
X197387771Y-144853284D02*
X197425866Y-144929475D01*
X212437295Y-146529475D02*
X213237295Y-146262808D01*
X213237295Y-146262808D02*
X212437295Y-145996142D01*
X213161104Y-145272332D02*
X213199200Y-145310428D01*
X213199200Y-145310428D02*
X213237295Y-145424713D01*
X213237295Y-145424713D02*
X213237295Y-145500904D01*
X213237295Y-145500904D02*
X213199200Y-145615190D01*
X213199200Y-145615190D02*
X213123009Y-145691380D01*
X213123009Y-145691380D02*
X213046819Y-145729475D01*
X213046819Y-145729475D02*
X212894438Y-145767571D01*
X212894438Y-145767571D02*
X212780152Y-145767571D01*
X212780152Y-145767571D02*
X212627771Y-145729475D01*
X212627771Y-145729475D02*
X212551580Y-145691380D01*
X212551580Y-145691380D02*
X212475390Y-145615190D01*
X212475390Y-145615190D02*
X212437295Y-145500904D01*
X212437295Y-145500904D02*
X212437295Y-145424713D01*
X212437295Y-145424713D02*
X212475390Y-145310428D01*
X212475390Y-145310428D02*
X212513485Y-145272332D01*
X213161104Y-144472332D02*
X213199200Y-144510428D01*
X213199200Y-144510428D02*
X213237295Y-144624713D01*
X213237295Y-144624713D02*
X213237295Y-144700904D01*
X213237295Y-144700904D02*
X213199200Y-144815190D01*
X213199200Y-144815190D02*
X213123009Y-144891380D01*
X213123009Y-144891380D02*
X213046819Y-144929475D01*
X213046819Y-144929475D02*
X212894438Y-144967571D01*
X212894438Y-144967571D02*
X212780152Y-144967571D01*
X212780152Y-144967571D02*
X212627771Y-144929475D01*
X212627771Y-144929475D02*
X212551580Y-144891380D01*
X212551580Y-144891380D02*
X212475390Y-144815190D01*
X212475390Y-144815190D02*
X212437295Y-144700904D01*
X212437295Y-144700904D02*
X212437295Y-144624713D01*
X212437295Y-144624713D02*
X212475390Y-144510428D01*
X212475390Y-144510428D02*
X212513485Y-144472332D01*
X195457295Y-157070523D02*
X195457295Y-157527666D01*
X195457295Y-157299094D02*
X194657295Y-157299094D01*
X194657295Y-157299094D02*
X194771580Y-157375285D01*
X194771580Y-157375285D02*
X194847771Y-157451475D01*
X194847771Y-157451475D02*
X194885866Y-157527666D01*
X194657295Y-156575284D02*
X194657295Y-156499094D01*
X194657295Y-156499094D02*
X194695390Y-156422903D01*
X194695390Y-156422903D02*
X194733485Y-156384808D01*
X194733485Y-156384808D02*
X194809676Y-156346713D01*
X194809676Y-156346713D02*
X194962057Y-156308618D01*
X194962057Y-156308618D02*
X195152533Y-156308618D01*
X195152533Y-156308618D02*
X195304914Y-156346713D01*
X195304914Y-156346713D02*
X195381104Y-156384808D01*
X195381104Y-156384808D02*
X195419200Y-156422903D01*
X195419200Y-156422903D02*
X195457295Y-156499094D01*
X195457295Y-156499094D02*
X195457295Y-156575284D01*
X195457295Y-156575284D02*
X195419200Y-156651475D01*
X195419200Y-156651475D02*
X195381104Y-156689570D01*
X195381104Y-156689570D02*
X195304914Y-156727665D01*
X195304914Y-156727665D02*
X195152533Y-156765761D01*
X195152533Y-156765761D02*
X194962057Y-156765761D01*
X194962057Y-156765761D02*
X194809676Y-156727665D01*
X194809676Y-156727665D02*
X194733485Y-156689570D01*
X194733485Y-156689570D02*
X194695390Y-156651475D01*
X194695390Y-156651475D02*
X194657295Y-156575284D01*
X194923961Y-155622903D02*
X195457295Y-155622903D01*
X194619200Y-155813379D02*
X195190628Y-156003856D01*
X195190628Y-156003856D02*
X195190628Y-155508617D01*
X200537295Y-145996142D02*
X200537295Y-146453285D01*
X200537295Y-146224713D02*
X199737295Y-146224713D01*
X199737295Y-146224713D02*
X199851580Y-146300904D01*
X199851580Y-146300904D02*
X199927771Y-146377094D01*
X199927771Y-146377094D02*
X199965866Y-146453285D01*
X200537295Y-145234237D02*
X200537295Y-145691380D01*
X200537295Y-145462808D02*
X199737295Y-145462808D01*
X199737295Y-145462808D02*
X199851580Y-145538999D01*
X199851580Y-145538999D02*
X199927771Y-145615189D01*
X199927771Y-145615189D02*
X199965866Y-145691380D01*
X199737295Y-144967570D02*
X199737295Y-144472332D01*
X199737295Y-144472332D02*
X200042057Y-144738998D01*
X200042057Y-144738998D02*
X200042057Y-144624713D01*
X200042057Y-144624713D02*
X200080152Y-144548522D01*
X200080152Y-144548522D02*
X200118247Y-144510427D01*
X200118247Y-144510427D02*
X200194438Y-144472332D01*
X200194438Y-144472332D02*
X200384914Y-144472332D01*
X200384914Y-144472332D02*
X200461104Y-144510427D01*
X200461104Y-144510427D02*
X200499200Y-144548522D01*
X200499200Y-144548522D02*
X200537295Y-144624713D01*
X200537295Y-144624713D02*
X200537295Y-144853284D01*
X200537295Y-144853284D02*
X200499200Y-144929475D01*
X200499200Y-144929475D02*
X200461104Y-144967570D01*
X194657295Y-146262808D02*
X194657295Y-146186618D01*
X194657295Y-146186618D02*
X194695390Y-146110427D01*
X194695390Y-146110427D02*
X194733485Y-146072332D01*
X194733485Y-146072332D02*
X194809676Y-146034237D01*
X194809676Y-146034237D02*
X194962057Y-145996142D01*
X194962057Y-145996142D02*
X195152533Y-145996142D01*
X195152533Y-145996142D02*
X195304914Y-146034237D01*
X195304914Y-146034237D02*
X195381104Y-146072332D01*
X195381104Y-146072332D02*
X195419200Y-146110427D01*
X195419200Y-146110427D02*
X195457295Y-146186618D01*
X195457295Y-146186618D02*
X195457295Y-146262808D01*
X195457295Y-146262808D02*
X195419200Y-146338999D01*
X195419200Y-146338999D02*
X195381104Y-146377094D01*
X195381104Y-146377094D02*
X195304914Y-146415189D01*
X195304914Y-146415189D02*
X195152533Y-146453285D01*
X195152533Y-146453285D02*
X194962057Y-146453285D01*
X194962057Y-146453285D02*
X194809676Y-146415189D01*
X194809676Y-146415189D02*
X194733485Y-146377094D01*
X194733485Y-146377094D02*
X194695390Y-146338999D01*
X194695390Y-146338999D02*
X194657295Y-146262808D01*
X195457295Y-145234237D02*
X195457295Y-145691380D01*
X195457295Y-145462808D02*
X194657295Y-145462808D01*
X194657295Y-145462808D02*
X194771580Y-145538999D01*
X194771580Y-145538999D02*
X194847771Y-145615189D01*
X194847771Y-145615189D02*
X194885866Y-145691380D01*
X194657295Y-144738998D02*
X194657295Y-144662808D01*
X194657295Y-144662808D02*
X194695390Y-144586617D01*
X194695390Y-144586617D02*
X194733485Y-144548522D01*
X194733485Y-144548522D02*
X194809676Y-144510427D01*
X194809676Y-144510427D02*
X194962057Y-144472332D01*
X194962057Y-144472332D02*
X195152533Y-144472332D01*
X195152533Y-144472332D02*
X195304914Y-144510427D01*
X195304914Y-144510427D02*
X195381104Y-144548522D01*
X195381104Y-144548522D02*
X195419200Y-144586617D01*
X195419200Y-144586617D02*
X195457295Y-144662808D01*
X195457295Y-144662808D02*
X195457295Y-144738998D01*
X195457295Y-144738998D02*
X195419200Y-144815189D01*
X195419200Y-144815189D02*
X195381104Y-144853284D01*
X195381104Y-144853284D02*
X195304914Y-144891379D01*
X195304914Y-144891379D02*
X195152533Y-144929475D01*
X195152533Y-144929475D02*
X194962057Y-144929475D01*
X194962057Y-144929475D02*
X194809676Y-144891379D01*
X194809676Y-144891379D02*
X194733485Y-144853284D01*
X194733485Y-144853284D02*
X194695390Y-144815189D01*
X194695390Y-144815189D02*
X194657295Y-144738998D01*
D11*
X192741328Y-155781714D02*
X193741328Y-155781714D01*
X192884185Y-155781714D02*
X192812757Y-155710285D01*
X192812757Y-155710285D02*
X192741328Y-155567428D01*
X192741328Y-155567428D02*
X192741328Y-155353142D01*
X192741328Y-155353142D02*
X192812757Y-155210285D01*
X192812757Y-155210285D02*
X192955614Y-155138857D01*
X192955614Y-155138857D02*
X193741328Y-155138857D01*
X193741328Y-154424571D02*
X192741328Y-154424571D01*
X192241328Y-154424571D02*
X192312757Y-154495999D01*
X192312757Y-154495999D02*
X192384185Y-154424571D01*
X192384185Y-154424571D02*
X192312757Y-154353142D01*
X192312757Y-154353142D02*
X192241328Y-154424571D01*
X192241328Y-154424571D02*
X192384185Y-154424571D01*
X193669900Y-153067428D02*
X193741328Y-153210285D01*
X193741328Y-153210285D02*
X193741328Y-153495999D01*
X193741328Y-153495999D02*
X193669900Y-153638856D01*
X193669900Y-153638856D02*
X193598471Y-153710285D01*
X193598471Y-153710285D02*
X193455614Y-153781713D01*
X193455614Y-153781713D02*
X193027042Y-153781713D01*
X193027042Y-153781713D02*
X192884185Y-153710285D01*
X192884185Y-153710285D02*
X192812757Y-153638856D01*
X192812757Y-153638856D02*
X192741328Y-153495999D01*
X192741328Y-153495999D02*
X192741328Y-153210285D01*
X192741328Y-153210285D02*
X192812757Y-153067428D01*
X193669900Y-151853142D02*
X193741328Y-151995999D01*
X193741328Y-151995999D02*
X193741328Y-152281714D01*
X193741328Y-152281714D02*
X193669900Y-152424571D01*
X193669900Y-152424571D02*
X193527042Y-152495999D01*
X193527042Y-152495999D02*
X192955614Y-152495999D01*
X192955614Y-152495999D02*
X192812757Y-152424571D01*
X192812757Y-152424571D02*
X192741328Y-152281714D01*
X192741328Y-152281714D02*
X192741328Y-151995999D01*
X192741328Y-151995999D02*
X192812757Y-151853142D01*
X192812757Y-151853142D02*
X192955614Y-151781714D01*
X192955614Y-151781714D02*
X193098471Y-151781714D01*
X193098471Y-151781714D02*
X193241328Y-152495999D01*
X193598471Y-151138857D02*
X193669900Y-151067428D01*
X193669900Y-151067428D02*
X193741328Y-151138857D01*
X193741328Y-151138857D02*
X193669900Y-151210285D01*
X193669900Y-151210285D02*
X193598471Y-151138857D01*
X193598471Y-151138857D02*
X193741328Y-151138857D01*
X193169900Y-151138857D02*
X192312757Y-151210285D01*
X192312757Y-151210285D02*
X192241328Y-151138857D01*
X192241328Y-151138857D02*
X192312757Y-151067428D01*
X192312757Y-151067428D02*
X193169900Y-151138857D01*
X193169900Y-151138857D02*
X192241328Y-151138857D01*
X192741328Y-150424571D02*
X193741328Y-150424571D01*
X192884185Y-150424571D02*
X192812757Y-150353142D01*
X192812757Y-150353142D02*
X192741328Y-150210285D01*
X192741328Y-150210285D02*
X192741328Y-149995999D01*
X192741328Y-149995999D02*
X192812757Y-149853142D01*
X192812757Y-149853142D02*
X192955614Y-149781714D01*
X192955614Y-149781714D02*
X193741328Y-149781714D01*
X193741328Y-148424571D02*
X192955614Y-148424571D01*
X192955614Y-148424571D02*
X192812757Y-148495999D01*
X192812757Y-148495999D02*
X192741328Y-148638856D01*
X192741328Y-148638856D02*
X192741328Y-148924571D01*
X192741328Y-148924571D02*
X192812757Y-149067428D01*
X193669900Y-148424571D02*
X193741328Y-148567428D01*
X193741328Y-148567428D02*
X193741328Y-148924571D01*
X193741328Y-148924571D02*
X193669900Y-149067428D01*
X193669900Y-149067428D02*
X193527042Y-149138856D01*
X193527042Y-149138856D02*
X193384185Y-149138856D01*
X193384185Y-149138856D02*
X193241328Y-149067428D01*
X193241328Y-149067428D02*
X193169900Y-148924571D01*
X193169900Y-148924571D02*
X193169900Y-148567428D01*
X193169900Y-148567428D02*
X193098471Y-148424571D01*
X192741328Y-147710285D02*
X193741328Y-147710285D01*
X192884185Y-147710285D02*
X192812757Y-147638856D01*
X192812757Y-147638856D02*
X192741328Y-147495999D01*
X192741328Y-147495999D02*
X192741328Y-147281713D01*
X192741328Y-147281713D02*
X192812757Y-147138856D01*
X192812757Y-147138856D02*
X192955614Y-147067428D01*
X192955614Y-147067428D02*
X193741328Y-147067428D01*
X193741328Y-146138856D02*
X193669900Y-146281713D01*
X193669900Y-146281713D02*
X193598471Y-146353142D01*
X193598471Y-146353142D02*
X193455614Y-146424570D01*
X193455614Y-146424570D02*
X193027042Y-146424570D01*
X193027042Y-146424570D02*
X192884185Y-146353142D01*
X192884185Y-146353142D02*
X192812757Y-146281713D01*
X192812757Y-146281713D02*
X192741328Y-146138856D01*
X192741328Y-146138856D02*
X192741328Y-145924570D01*
X192741328Y-145924570D02*
X192812757Y-145781713D01*
X192812757Y-145781713D02*
X192884185Y-145710285D01*
X192884185Y-145710285D02*
X193027042Y-145638856D01*
X193027042Y-145638856D02*
X193455614Y-145638856D01*
X193455614Y-145638856D02*
X193598471Y-145710285D01*
X193598471Y-145710285D02*
X193669900Y-145781713D01*
X193669900Y-145781713D02*
X193741328Y-145924570D01*
X193741328Y-145924570D02*
X193741328Y-146138856D01*
D10*
X202277295Y-157337189D02*
X202277295Y-157260999D01*
X202277295Y-157260999D02*
X202315390Y-157184808D01*
X202315390Y-157184808D02*
X202353485Y-157146713D01*
X202353485Y-157146713D02*
X202429676Y-157108618D01*
X202429676Y-157108618D02*
X202582057Y-157070523D01*
X202582057Y-157070523D02*
X202772533Y-157070523D01*
X202772533Y-157070523D02*
X202924914Y-157108618D01*
X202924914Y-157108618D02*
X203001104Y-157146713D01*
X203001104Y-157146713D02*
X203039200Y-157184808D01*
X203039200Y-157184808D02*
X203077295Y-157260999D01*
X203077295Y-157260999D02*
X203077295Y-157337189D01*
X203077295Y-157337189D02*
X203039200Y-157413380D01*
X203039200Y-157413380D02*
X203001104Y-157451475D01*
X203001104Y-157451475D02*
X202924914Y-157489570D01*
X202924914Y-157489570D02*
X202772533Y-157527666D01*
X202772533Y-157527666D02*
X202582057Y-157527666D01*
X202582057Y-157527666D02*
X202429676Y-157489570D01*
X202429676Y-157489570D02*
X202353485Y-157451475D01*
X202353485Y-157451475D02*
X202315390Y-157413380D01*
X202315390Y-157413380D02*
X202277295Y-157337189D01*
X202353485Y-156765761D02*
X202315390Y-156727665D01*
X202315390Y-156727665D02*
X202277295Y-156651475D01*
X202277295Y-156651475D02*
X202277295Y-156460999D01*
X202277295Y-156460999D02*
X202315390Y-156384808D01*
X202315390Y-156384808D02*
X202353485Y-156346713D01*
X202353485Y-156346713D02*
X202429676Y-156308618D01*
X202429676Y-156308618D02*
X202505866Y-156308618D01*
X202505866Y-156308618D02*
X202620152Y-156346713D01*
X202620152Y-156346713D02*
X203077295Y-156803856D01*
X203077295Y-156803856D02*
X203077295Y-156308618D01*
X202543961Y-155622903D02*
X203077295Y-155622903D01*
X202239200Y-155813379D02*
X202810628Y-156003856D01*
X202810628Y-156003856D02*
X202810628Y-155508617D01*
X200537295Y-157070523D02*
X200537295Y-157527666D01*
X200537295Y-157299094D02*
X199737295Y-157299094D01*
X199737295Y-157299094D02*
X199851580Y-157375285D01*
X199851580Y-157375285D02*
X199927771Y-157451475D01*
X199927771Y-157451475D02*
X199965866Y-157527666D01*
X199737295Y-156575284D02*
X199737295Y-156499094D01*
X199737295Y-156499094D02*
X199775390Y-156422903D01*
X199775390Y-156422903D02*
X199813485Y-156384808D01*
X199813485Y-156384808D02*
X199889676Y-156346713D01*
X199889676Y-156346713D02*
X200042057Y-156308618D01*
X200042057Y-156308618D02*
X200232533Y-156308618D01*
X200232533Y-156308618D02*
X200384914Y-156346713D01*
X200384914Y-156346713D02*
X200461104Y-156384808D01*
X200461104Y-156384808D02*
X200499200Y-156422903D01*
X200499200Y-156422903D02*
X200537295Y-156499094D01*
X200537295Y-156499094D02*
X200537295Y-156575284D01*
X200537295Y-156575284D02*
X200499200Y-156651475D01*
X200499200Y-156651475D02*
X200461104Y-156689570D01*
X200461104Y-156689570D02*
X200384914Y-156727665D01*
X200384914Y-156727665D02*
X200232533Y-156765761D01*
X200232533Y-156765761D02*
X200042057Y-156765761D01*
X200042057Y-156765761D02*
X199889676Y-156727665D01*
X199889676Y-156727665D02*
X199813485Y-156689570D01*
X199813485Y-156689570D02*
X199775390Y-156651475D01*
X199775390Y-156651475D02*
X199737295Y-156575284D01*
X199737295Y-155813379D02*
X199737295Y-155737189D01*
X199737295Y-155737189D02*
X199775390Y-155660998D01*
X199775390Y-155660998D02*
X199813485Y-155622903D01*
X199813485Y-155622903D02*
X199889676Y-155584808D01*
X199889676Y-155584808D02*
X200042057Y-155546713D01*
X200042057Y-155546713D02*
X200232533Y-155546713D01*
X200232533Y-155546713D02*
X200384914Y-155584808D01*
X200384914Y-155584808D02*
X200461104Y-155622903D01*
X200461104Y-155622903D02*
X200499200Y-155660998D01*
X200499200Y-155660998D02*
X200537295Y-155737189D01*
X200537295Y-155737189D02*
X200537295Y-155813379D01*
X200537295Y-155813379D02*
X200499200Y-155889570D01*
X200499200Y-155889570D02*
X200461104Y-155927665D01*
X200461104Y-155927665D02*
X200384914Y-155965760D01*
X200384914Y-155965760D02*
X200232533Y-156003856D01*
X200232533Y-156003856D02*
X200042057Y-156003856D01*
X200042057Y-156003856D02*
X199889676Y-155965760D01*
X199889676Y-155965760D02*
X199813485Y-155927665D01*
X199813485Y-155927665D02*
X199775390Y-155889570D01*
X199775390Y-155889570D02*
X199737295Y-155813379D01*
X217587295Y-157337189D02*
X217587295Y-157260999D01*
X217587295Y-157260999D02*
X217625390Y-157184808D01*
X217625390Y-157184808D02*
X217663485Y-157146713D01*
X217663485Y-157146713D02*
X217739676Y-157108618D01*
X217739676Y-157108618D02*
X217892057Y-157070523D01*
X217892057Y-157070523D02*
X218082533Y-157070523D01*
X218082533Y-157070523D02*
X218234914Y-157108618D01*
X218234914Y-157108618D02*
X218311104Y-157146713D01*
X218311104Y-157146713D02*
X218349200Y-157184808D01*
X218349200Y-157184808D02*
X218387295Y-157260999D01*
X218387295Y-157260999D02*
X218387295Y-157337189D01*
X218387295Y-157337189D02*
X218349200Y-157413380D01*
X218349200Y-157413380D02*
X218311104Y-157451475D01*
X218311104Y-157451475D02*
X218234914Y-157489570D01*
X218234914Y-157489570D02*
X218082533Y-157527666D01*
X218082533Y-157527666D02*
X217892057Y-157527666D01*
X217892057Y-157527666D02*
X217739676Y-157489570D01*
X217739676Y-157489570D02*
X217663485Y-157451475D01*
X217663485Y-157451475D02*
X217625390Y-157413380D01*
X217625390Y-157413380D02*
X217587295Y-157337189D01*
X217587295Y-156575284D02*
X217587295Y-156499094D01*
X217587295Y-156499094D02*
X217625390Y-156422903D01*
X217625390Y-156422903D02*
X217663485Y-156384808D01*
X217663485Y-156384808D02*
X217739676Y-156346713D01*
X217739676Y-156346713D02*
X217892057Y-156308618D01*
X217892057Y-156308618D02*
X218082533Y-156308618D01*
X218082533Y-156308618D02*
X218234914Y-156346713D01*
X218234914Y-156346713D02*
X218311104Y-156384808D01*
X218311104Y-156384808D02*
X218349200Y-156422903D01*
X218349200Y-156422903D02*
X218387295Y-156499094D01*
X218387295Y-156499094D02*
X218387295Y-156575284D01*
X218387295Y-156575284D02*
X218349200Y-156651475D01*
X218349200Y-156651475D02*
X218311104Y-156689570D01*
X218311104Y-156689570D02*
X218234914Y-156727665D01*
X218234914Y-156727665D02*
X218082533Y-156765761D01*
X218082533Y-156765761D02*
X217892057Y-156765761D01*
X217892057Y-156765761D02*
X217739676Y-156727665D01*
X217739676Y-156727665D02*
X217663485Y-156689570D01*
X217663485Y-156689570D02*
X217625390Y-156651475D01*
X217625390Y-156651475D02*
X217587295Y-156575284D01*
X217930152Y-155851475D02*
X217892057Y-155927665D01*
X217892057Y-155927665D02*
X217853961Y-155965760D01*
X217853961Y-155965760D02*
X217777771Y-156003856D01*
X217777771Y-156003856D02*
X217739676Y-156003856D01*
X217739676Y-156003856D02*
X217663485Y-155965760D01*
X217663485Y-155965760D02*
X217625390Y-155927665D01*
X217625390Y-155927665D02*
X217587295Y-155851475D01*
X217587295Y-155851475D02*
X217587295Y-155699094D01*
X217587295Y-155699094D02*
X217625390Y-155622903D01*
X217625390Y-155622903D02*
X217663485Y-155584808D01*
X217663485Y-155584808D02*
X217739676Y-155546713D01*
X217739676Y-155546713D02*
X217777771Y-155546713D01*
X217777771Y-155546713D02*
X217853961Y-155584808D01*
X217853961Y-155584808D02*
X217892057Y-155622903D01*
X217892057Y-155622903D02*
X217930152Y-155699094D01*
X217930152Y-155699094D02*
X217930152Y-155851475D01*
X217930152Y-155851475D02*
X217968247Y-155927665D01*
X217968247Y-155927665D02*
X218006342Y-155965760D01*
X218006342Y-155965760D02*
X218082533Y-156003856D01*
X218082533Y-156003856D02*
X218234914Y-156003856D01*
X218234914Y-156003856D02*
X218311104Y-155965760D01*
X218311104Y-155965760D02*
X218349200Y-155927665D01*
X218349200Y-155927665D02*
X218387295Y-155851475D01*
X218387295Y-155851475D02*
X218387295Y-155699094D01*
X218387295Y-155699094D02*
X218349200Y-155622903D01*
X218349200Y-155622903D02*
X218311104Y-155584808D01*
X218311104Y-155584808D02*
X218234914Y-155546713D01*
X218234914Y-155546713D02*
X218082533Y-155546713D01*
X218082533Y-155546713D02*
X218006342Y-155584808D01*
X218006342Y-155584808D02*
X217968247Y-155622903D01*
X217968247Y-155622903D02*
X217930152Y-155699094D01*
X215015390Y-157070523D02*
X214977295Y-157146713D01*
X214977295Y-157146713D02*
X214977295Y-157260999D01*
X214977295Y-157260999D02*
X215015390Y-157375285D01*
X215015390Y-157375285D02*
X215091580Y-157451475D01*
X215091580Y-157451475D02*
X215167771Y-157489570D01*
X215167771Y-157489570D02*
X215320152Y-157527666D01*
X215320152Y-157527666D02*
X215434438Y-157527666D01*
X215434438Y-157527666D02*
X215586819Y-157489570D01*
X215586819Y-157489570D02*
X215663009Y-157451475D01*
X215663009Y-157451475D02*
X215739200Y-157375285D01*
X215739200Y-157375285D02*
X215777295Y-157260999D01*
X215777295Y-157260999D02*
X215777295Y-157184808D01*
X215777295Y-157184808D02*
X215739200Y-157070523D01*
X215739200Y-157070523D02*
X215701104Y-157032427D01*
X215701104Y-157032427D02*
X215434438Y-157032427D01*
X215434438Y-157032427D02*
X215434438Y-157184808D01*
X215777295Y-156689570D02*
X214977295Y-156689570D01*
X214977295Y-156689570D02*
X215777295Y-156232427D01*
X215777295Y-156232427D02*
X214977295Y-156232427D01*
X215777295Y-155851475D02*
X214977295Y-155851475D01*
X214977295Y-155851475D02*
X214977295Y-155660999D01*
X214977295Y-155660999D02*
X215015390Y-155546713D01*
X215015390Y-155546713D02*
X215091580Y-155470523D01*
X215091580Y-155470523D02*
X215167771Y-155432428D01*
X215167771Y-155432428D02*
X215320152Y-155394332D01*
X215320152Y-155394332D02*
X215434438Y-155394332D01*
X215434438Y-155394332D02*
X215586819Y-155432428D01*
X215586819Y-155432428D02*
X215663009Y-155470523D01*
X215663009Y-155470523D02*
X215739200Y-155546713D01*
X215739200Y-155546713D02*
X215777295Y-155660999D01*
X215777295Y-155660999D02*
X215777295Y-155851475D01*
X209897295Y-146262808D02*
X209897295Y-146186618D01*
X209897295Y-146186618D02*
X209935390Y-146110427D01*
X209935390Y-146110427D02*
X209973485Y-146072332D01*
X209973485Y-146072332D02*
X210049676Y-146034237D01*
X210049676Y-146034237D02*
X210202057Y-145996142D01*
X210202057Y-145996142D02*
X210392533Y-145996142D01*
X210392533Y-145996142D02*
X210544914Y-146034237D01*
X210544914Y-146034237D02*
X210621104Y-146072332D01*
X210621104Y-146072332D02*
X210659200Y-146110427D01*
X210659200Y-146110427D02*
X210697295Y-146186618D01*
X210697295Y-146186618D02*
X210697295Y-146262808D01*
X210697295Y-146262808D02*
X210659200Y-146338999D01*
X210659200Y-146338999D02*
X210621104Y-146377094D01*
X210621104Y-146377094D02*
X210544914Y-146415189D01*
X210544914Y-146415189D02*
X210392533Y-146453285D01*
X210392533Y-146453285D02*
X210202057Y-146453285D01*
X210202057Y-146453285D02*
X210049676Y-146415189D01*
X210049676Y-146415189D02*
X209973485Y-146377094D01*
X209973485Y-146377094D02*
X209935390Y-146338999D01*
X209935390Y-146338999D02*
X209897295Y-146262808D01*
X209897295Y-145729475D02*
X209897295Y-145234237D01*
X209897295Y-145234237D02*
X210202057Y-145500903D01*
X210202057Y-145500903D02*
X210202057Y-145386618D01*
X210202057Y-145386618D02*
X210240152Y-145310427D01*
X210240152Y-145310427D02*
X210278247Y-145272332D01*
X210278247Y-145272332D02*
X210354438Y-145234237D01*
X210354438Y-145234237D02*
X210544914Y-145234237D01*
X210544914Y-145234237D02*
X210621104Y-145272332D01*
X210621104Y-145272332D02*
X210659200Y-145310427D01*
X210659200Y-145310427D02*
X210697295Y-145386618D01*
X210697295Y-145386618D02*
X210697295Y-145615189D01*
X210697295Y-145615189D02*
X210659200Y-145691380D01*
X210659200Y-145691380D02*
X210621104Y-145729475D01*
X210697295Y-144472332D02*
X210697295Y-144929475D01*
X210697295Y-144700903D02*
X209897295Y-144700903D01*
X209897295Y-144700903D02*
X210011580Y-144777094D01*
X210011580Y-144777094D02*
X210087771Y-144853284D01*
X210087771Y-144853284D02*
X210125866Y-144929475D01*
X215777295Y-145850094D02*
X215396342Y-146116761D01*
X215777295Y-146307237D02*
X214977295Y-146307237D01*
X214977295Y-146307237D02*
X214977295Y-146002475D01*
X214977295Y-146002475D02*
X215015390Y-145926285D01*
X215015390Y-145926285D02*
X215053485Y-145888190D01*
X215053485Y-145888190D02*
X215129676Y-145850094D01*
X215129676Y-145850094D02*
X215243961Y-145850094D01*
X215243961Y-145850094D02*
X215320152Y-145888190D01*
X215320152Y-145888190D02*
X215358247Y-145926285D01*
X215358247Y-145926285D02*
X215396342Y-146002475D01*
X215396342Y-146002475D02*
X215396342Y-146307237D01*
X215739200Y-145545333D02*
X215777295Y-145431047D01*
X215777295Y-145431047D02*
X215777295Y-145240571D01*
X215777295Y-145240571D02*
X215739200Y-145164380D01*
X215739200Y-145164380D02*
X215701104Y-145126285D01*
X215701104Y-145126285D02*
X215624914Y-145088190D01*
X215624914Y-145088190D02*
X215548723Y-145088190D01*
X215548723Y-145088190D02*
X215472533Y-145126285D01*
X215472533Y-145126285D02*
X215434438Y-145164380D01*
X215434438Y-145164380D02*
X215396342Y-145240571D01*
X215396342Y-145240571D02*
X215358247Y-145392952D01*
X215358247Y-145392952D02*
X215320152Y-145469142D01*
X215320152Y-145469142D02*
X215282057Y-145507237D01*
X215282057Y-145507237D02*
X215205866Y-145545333D01*
X215205866Y-145545333D02*
X215129676Y-145545333D01*
X215129676Y-145545333D02*
X215053485Y-145507237D01*
X215053485Y-145507237D02*
X215015390Y-145469142D01*
X215015390Y-145469142D02*
X214977295Y-145392952D01*
X214977295Y-145392952D02*
X214977295Y-145202475D01*
X214977295Y-145202475D02*
X215015390Y-145088190D01*
X214977295Y-144859618D02*
X214977295Y-144402475D01*
X215777295Y-144631047D02*
X214977295Y-144631047D01*
X220057295Y-157337189D02*
X220057295Y-157260999D01*
X220057295Y-157260999D02*
X220095390Y-157184808D01*
X220095390Y-157184808D02*
X220133485Y-157146713D01*
X220133485Y-157146713D02*
X220209676Y-157108618D01*
X220209676Y-157108618D02*
X220362057Y-157070523D01*
X220362057Y-157070523D02*
X220552533Y-157070523D01*
X220552533Y-157070523D02*
X220704914Y-157108618D01*
X220704914Y-157108618D02*
X220781104Y-157146713D01*
X220781104Y-157146713D02*
X220819200Y-157184808D01*
X220819200Y-157184808D02*
X220857295Y-157260999D01*
X220857295Y-157260999D02*
X220857295Y-157337189D01*
X220857295Y-157337189D02*
X220819200Y-157413380D01*
X220819200Y-157413380D02*
X220781104Y-157451475D01*
X220781104Y-157451475D02*
X220704914Y-157489570D01*
X220704914Y-157489570D02*
X220552533Y-157527666D01*
X220552533Y-157527666D02*
X220362057Y-157527666D01*
X220362057Y-157527666D02*
X220209676Y-157489570D01*
X220209676Y-157489570D02*
X220133485Y-157451475D01*
X220133485Y-157451475D02*
X220095390Y-157413380D01*
X220095390Y-157413380D02*
X220057295Y-157337189D01*
X220057295Y-156575284D02*
X220057295Y-156499094D01*
X220057295Y-156499094D02*
X220095390Y-156422903D01*
X220095390Y-156422903D02*
X220133485Y-156384808D01*
X220133485Y-156384808D02*
X220209676Y-156346713D01*
X220209676Y-156346713D02*
X220362057Y-156308618D01*
X220362057Y-156308618D02*
X220552533Y-156308618D01*
X220552533Y-156308618D02*
X220704914Y-156346713D01*
X220704914Y-156346713D02*
X220781104Y-156384808D01*
X220781104Y-156384808D02*
X220819200Y-156422903D01*
X220819200Y-156422903D02*
X220857295Y-156499094D01*
X220857295Y-156499094D02*
X220857295Y-156575284D01*
X220857295Y-156575284D02*
X220819200Y-156651475D01*
X220819200Y-156651475D02*
X220781104Y-156689570D01*
X220781104Y-156689570D02*
X220704914Y-156727665D01*
X220704914Y-156727665D02*
X220552533Y-156765761D01*
X220552533Y-156765761D02*
X220362057Y-156765761D01*
X220362057Y-156765761D02*
X220209676Y-156727665D01*
X220209676Y-156727665D02*
X220133485Y-156689570D01*
X220133485Y-156689570D02*
X220095390Y-156651475D01*
X220095390Y-156651475D02*
X220057295Y-156575284D01*
X220057295Y-155622903D02*
X220057295Y-155775284D01*
X220057295Y-155775284D02*
X220095390Y-155851475D01*
X220095390Y-155851475D02*
X220133485Y-155889570D01*
X220133485Y-155889570D02*
X220247771Y-155965760D01*
X220247771Y-155965760D02*
X220400152Y-156003856D01*
X220400152Y-156003856D02*
X220704914Y-156003856D01*
X220704914Y-156003856D02*
X220781104Y-155965760D01*
X220781104Y-155965760D02*
X220819200Y-155927665D01*
X220819200Y-155927665D02*
X220857295Y-155851475D01*
X220857295Y-155851475D02*
X220857295Y-155699094D01*
X220857295Y-155699094D02*
X220819200Y-155622903D01*
X220819200Y-155622903D02*
X220781104Y-155584808D01*
X220781104Y-155584808D02*
X220704914Y-155546713D01*
X220704914Y-155546713D02*
X220514438Y-155546713D01*
X220514438Y-155546713D02*
X220438247Y-155584808D01*
X220438247Y-155584808D02*
X220400152Y-155622903D01*
X220400152Y-155622903D02*
X220362057Y-155699094D01*
X220362057Y-155699094D02*
X220362057Y-155851475D01*
X220362057Y-155851475D02*
X220400152Y-155927665D01*
X220400152Y-155927665D02*
X220438247Y-155965760D01*
X220438247Y-155965760D02*
X220514438Y-156003856D01*
X209887295Y-157337189D02*
X209887295Y-157260999D01*
X209887295Y-157260999D02*
X209925390Y-157184808D01*
X209925390Y-157184808D02*
X209963485Y-157146713D01*
X209963485Y-157146713D02*
X210039676Y-157108618D01*
X210039676Y-157108618D02*
X210192057Y-157070523D01*
X210192057Y-157070523D02*
X210382533Y-157070523D01*
X210382533Y-157070523D02*
X210534914Y-157108618D01*
X210534914Y-157108618D02*
X210611104Y-157146713D01*
X210611104Y-157146713D02*
X210649200Y-157184808D01*
X210649200Y-157184808D02*
X210687295Y-157260999D01*
X210687295Y-157260999D02*
X210687295Y-157337189D01*
X210687295Y-157337189D02*
X210649200Y-157413380D01*
X210649200Y-157413380D02*
X210611104Y-157451475D01*
X210611104Y-157451475D02*
X210534914Y-157489570D01*
X210534914Y-157489570D02*
X210382533Y-157527666D01*
X210382533Y-157527666D02*
X210192057Y-157527666D01*
X210192057Y-157527666D02*
X210039676Y-157489570D01*
X210039676Y-157489570D02*
X209963485Y-157451475D01*
X209963485Y-157451475D02*
X209925390Y-157413380D01*
X209925390Y-157413380D02*
X209887295Y-157337189D01*
X210687295Y-156308618D02*
X210687295Y-156765761D01*
X210687295Y-156537189D02*
X209887295Y-156537189D01*
X209887295Y-156537189D02*
X210001580Y-156613380D01*
X210001580Y-156613380D02*
X210077771Y-156689570D01*
X210077771Y-156689570D02*
X210115866Y-156765761D01*
X209887295Y-156041951D02*
X209887295Y-155508617D01*
X209887295Y-155508617D02*
X210687295Y-155851475D01*
X204787295Y-157337189D02*
X204787295Y-157260999D01*
X204787295Y-157260999D02*
X204825390Y-157184808D01*
X204825390Y-157184808D02*
X204863485Y-157146713D01*
X204863485Y-157146713D02*
X204939676Y-157108618D01*
X204939676Y-157108618D02*
X205092057Y-157070523D01*
X205092057Y-157070523D02*
X205282533Y-157070523D01*
X205282533Y-157070523D02*
X205434914Y-157108618D01*
X205434914Y-157108618D02*
X205511104Y-157146713D01*
X205511104Y-157146713D02*
X205549200Y-157184808D01*
X205549200Y-157184808D02*
X205587295Y-157260999D01*
X205587295Y-157260999D02*
X205587295Y-157337189D01*
X205587295Y-157337189D02*
X205549200Y-157413380D01*
X205549200Y-157413380D02*
X205511104Y-157451475D01*
X205511104Y-157451475D02*
X205434914Y-157489570D01*
X205434914Y-157489570D02*
X205282533Y-157527666D01*
X205282533Y-157527666D02*
X205092057Y-157527666D01*
X205092057Y-157527666D02*
X204939676Y-157489570D01*
X204939676Y-157489570D02*
X204863485Y-157451475D01*
X204863485Y-157451475D02*
X204825390Y-157413380D01*
X204825390Y-157413380D02*
X204787295Y-157337189D01*
X204863485Y-156765761D02*
X204825390Y-156727665D01*
X204825390Y-156727665D02*
X204787295Y-156651475D01*
X204787295Y-156651475D02*
X204787295Y-156460999D01*
X204787295Y-156460999D02*
X204825390Y-156384808D01*
X204825390Y-156384808D02*
X204863485Y-156346713D01*
X204863485Y-156346713D02*
X204939676Y-156308618D01*
X204939676Y-156308618D02*
X205015866Y-156308618D01*
X205015866Y-156308618D02*
X205130152Y-156346713D01*
X205130152Y-156346713D02*
X205587295Y-156803856D01*
X205587295Y-156803856D02*
X205587295Y-156308618D01*
X204863485Y-156003856D02*
X204825390Y-155965760D01*
X204825390Y-155965760D02*
X204787295Y-155889570D01*
X204787295Y-155889570D02*
X204787295Y-155699094D01*
X204787295Y-155699094D02*
X204825390Y-155622903D01*
X204825390Y-155622903D02*
X204863485Y-155584808D01*
X204863485Y-155584808D02*
X204939676Y-155546713D01*
X204939676Y-155546713D02*
X205015866Y-155546713D01*
X205015866Y-155546713D02*
X205130152Y-155584808D01*
X205130152Y-155584808D02*
X205587295Y-156041951D01*
X205587295Y-156041951D02*
X205587295Y-155546713D01*
X203077295Y-145996142D02*
X203077295Y-146453285D01*
X203077295Y-146224713D02*
X202277295Y-146224713D01*
X202277295Y-146224713D02*
X202391580Y-146300904D01*
X202391580Y-146300904D02*
X202467771Y-146377094D01*
X202467771Y-146377094D02*
X202505866Y-146453285D01*
X203077295Y-145234237D02*
X203077295Y-145691380D01*
X203077295Y-145462808D02*
X202277295Y-145462808D01*
X202277295Y-145462808D02*
X202391580Y-145538999D01*
X202391580Y-145538999D02*
X202467771Y-145615189D01*
X202467771Y-145615189D02*
X202505866Y-145691380D01*
X202277295Y-144510427D02*
X202277295Y-144891379D01*
X202277295Y-144891379D02*
X202658247Y-144929475D01*
X202658247Y-144929475D02*
X202620152Y-144891379D01*
X202620152Y-144891379D02*
X202582057Y-144815189D01*
X202582057Y-144815189D02*
X202582057Y-144624713D01*
X202582057Y-144624713D02*
X202620152Y-144548522D01*
X202620152Y-144548522D02*
X202658247Y-144510427D01*
X202658247Y-144510427D02*
X202734438Y-144472332D01*
X202734438Y-144472332D02*
X202924914Y-144472332D01*
X202924914Y-144472332D02*
X203001104Y-144510427D01*
X203001104Y-144510427D02*
X203039200Y-144548522D01*
X203039200Y-144548522D02*
X203077295Y-144624713D01*
X203077295Y-144624713D02*
X203077295Y-144815189D01*
X203077295Y-144815189D02*
X203039200Y-144891379D01*
X203039200Y-144891379D02*
X203001104Y-144929475D01*
X207287295Y-157337189D02*
X207287295Y-157260999D01*
X207287295Y-157260999D02*
X207325390Y-157184808D01*
X207325390Y-157184808D02*
X207363485Y-157146713D01*
X207363485Y-157146713D02*
X207439676Y-157108618D01*
X207439676Y-157108618D02*
X207592057Y-157070523D01*
X207592057Y-157070523D02*
X207782533Y-157070523D01*
X207782533Y-157070523D02*
X207934914Y-157108618D01*
X207934914Y-157108618D02*
X208011104Y-157146713D01*
X208011104Y-157146713D02*
X208049200Y-157184808D01*
X208049200Y-157184808D02*
X208087295Y-157260999D01*
X208087295Y-157260999D02*
X208087295Y-157337189D01*
X208087295Y-157337189D02*
X208049200Y-157413380D01*
X208049200Y-157413380D02*
X208011104Y-157451475D01*
X208011104Y-157451475D02*
X207934914Y-157489570D01*
X207934914Y-157489570D02*
X207782533Y-157527666D01*
X207782533Y-157527666D02*
X207592057Y-157527666D01*
X207592057Y-157527666D02*
X207439676Y-157489570D01*
X207439676Y-157489570D02*
X207363485Y-157451475D01*
X207363485Y-157451475D02*
X207325390Y-157413380D01*
X207325390Y-157413380D02*
X207287295Y-157337189D01*
X207363485Y-156765761D02*
X207325390Y-156727665D01*
X207325390Y-156727665D02*
X207287295Y-156651475D01*
X207287295Y-156651475D02*
X207287295Y-156460999D01*
X207287295Y-156460999D02*
X207325390Y-156384808D01*
X207325390Y-156384808D02*
X207363485Y-156346713D01*
X207363485Y-156346713D02*
X207439676Y-156308618D01*
X207439676Y-156308618D02*
X207515866Y-156308618D01*
X207515866Y-156308618D02*
X207630152Y-156346713D01*
X207630152Y-156346713D02*
X208087295Y-156803856D01*
X208087295Y-156803856D02*
X208087295Y-156308618D01*
X207287295Y-155813379D02*
X207287295Y-155737189D01*
X207287295Y-155737189D02*
X207325390Y-155660998D01*
X207325390Y-155660998D02*
X207363485Y-155622903D01*
X207363485Y-155622903D02*
X207439676Y-155584808D01*
X207439676Y-155584808D02*
X207592057Y-155546713D01*
X207592057Y-155546713D02*
X207782533Y-155546713D01*
X207782533Y-155546713D02*
X207934914Y-155584808D01*
X207934914Y-155584808D02*
X208011104Y-155622903D01*
X208011104Y-155622903D02*
X208049200Y-155660998D01*
X208049200Y-155660998D02*
X208087295Y-155737189D01*
X208087295Y-155737189D02*
X208087295Y-155813379D01*
X208087295Y-155813379D02*
X208049200Y-155889570D01*
X208049200Y-155889570D02*
X208011104Y-155927665D01*
X208011104Y-155927665D02*
X207934914Y-155965760D01*
X207934914Y-155965760D02*
X207782533Y-156003856D01*
X207782533Y-156003856D02*
X207592057Y-156003856D01*
X207592057Y-156003856D02*
X207439676Y-155965760D01*
X207439676Y-155965760D02*
X207363485Y-155927665D01*
X207363485Y-155927665D02*
X207325390Y-155889570D01*
X207325390Y-155889570D02*
X207287295Y-155813379D01*
D12*
%TO.C,D28*%
X203775000Y-108500000D02*
X204175000Y-108500000D01*
X204175000Y-108500000D02*
X204175000Y-107950000D01*
X204175000Y-108500000D02*
X204175000Y-109050000D01*
X204175000Y-108500000D02*
X204775000Y-108100000D01*
X204775000Y-108100000D02*
X204775000Y-108900000D01*
X204775000Y-108500000D02*
X205275000Y-108500000D01*
X204775000Y-108900000D02*
X204175000Y-108500000D01*
%TO.C,D15*%
X137250000Y-70500000D02*
X137650000Y-70500000D01*
X137650000Y-70500000D02*
X137650000Y-69950000D01*
X137650000Y-70500000D02*
X137650000Y-71050000D01*
X137650000Y-70500000D02*
X138250000Y-70100000D01*
X138250000Y-70100000D02*
X138250000Y-70900000D01*
X138250000Y-70500000D02*
X138750000Y-70500000D01*
X138250000Y-70900000D02*
X137650000Y-70500000D01*
%TO.C,D24*%
X180012500Y-89500000D02*
X180412500Y-89500000D01*
X180412500Y-89500000D02*
X180412500Y-88950000D01*
X180412500Y-89500000D02*
X180412500Y-90050000D01*
X180412500Y-89500000D02*
X181012500Y-89100000D01*
X181012500Y-89100000D02*
X181012500Y-89900000D01*
X181012500Y-89500000D02*
X181512500Y-89500000D01*
X181012500Y-89900000D02*
X180412500Y-89500000D01*
%TO.C,D27*%
X213300000Y-127500000D02*
X213700000Y-127500000D01*
X213700000Y-127500000D02*
X213700000Y-126950000D01*
X213700000Y-127500000D02*
X213700000Y-128050000D01*
X213700000Y-127500000D02*
X214300000Y-127100000D01*
X214300000Y-127100000D02*
X214300000Y-127900000D01*
X214300000Y-127500000D02*
X214800000Y-127500000D01*
X214300000Y-127900000D02*
X213700000Y-127500000D01*
%TO.C,D29*%
X199012500Y-89500000D02*
X199412500Y-89500000D01*
X199412500Y-89500000D02*
X199412500Y-88950000D01*
X199412500Y-89500000D02*
X199412500Y-90050000D01*
X199412500Y-89500000D02*
X200012500Y-89100000D01*
X200012500Y-89100000D02*
X200012500Y-89900000D01*
X200012500Y-89500000D02*
X200512500Y-89500000D01*
X200012500Y-89900000D02*
X199412500Y-89500000D01*
%TO.C,D13*%
X146775000Y-108500000D02*
X147175000Y-108500000D01*
X147175000Y-108500000D02*
X147175000Y-107950000D01*
X147175000Y-108500000D02*
X147175000Y-109050000D01*
X147175000Y-108500000D02*
X147775000Y-108100000D01*
X147775000Y-108100000D02*
X147775000Y-108900000D01*
X147775000Y-108500000D02*
X148275000Y-108500000D01*
X147775000Y-108900000D02*
X147175000Y-108500000D01*
%TO.C,D23*%
X184775000Y-108500000D02*
X185175000Y-108500000D01*
X185175000Y-108500000D02*
X185175000Y-107950000D01*
X185175000Y-108500000D02*
X185175000Y-109050000D01*
X185175000Y-108500000D02*
X185775000Y-108100000D01*
X185775000Y-108100000D02*
X185775000Y-108900000D01*
X185775000Y-108500000D02*
X186275000Y-108500000D01*
X185775000Y-108900000D02*
X185175000Y-108500000D01*
%TO.C,D14*%
X142012500Y-89500000D02*
X142412500Y-89500000D01*
X142412500Y-89500000D02*
X142412500Y-88950000D01*
X142412500Y-89500000D02*
X142412500Y-90050000D01*
X142412500Y-89500000D02*
X143012500Y-89100000D01*
X143012500Y-89100000D02*
X143012500Y-89900000D01*
X143012500Y-89500000D02*
X143512500Y-89500000D01*
X143012500Y-89900000D02*
X142412500Y-89500000D01*
%TO.C,D31*%
X213250000Y-70500000D02*
X213650000Y-70500000D01*
X213650000Y-70500000D02*
X213650000Y-69950000D01*
X213650000Y-70500000D02*
X213650000Y-71050000D01*
X213650000Y-70500000D02*
X214250000Y-70100000D01*
X214250000Y-70100000D02*
X214250000Y-70900000D01*
X214250000Y-70500000D02*
X214750000Y-70500000D01*
X214250000Y-70900000D02*
X213650000Y-70500000D01*
%TO.C,D10*%
X118250000Y-70500000D02*
X118650000Y-70500000D01*
X118650000Y-70500000D02*
X118650000Y-69950000D01*
X118650000Y-70500000D02*
X118650000Y-71050000D01*
X118650000Y-70500000D02*
X119250000Y-70100000D01*
X119250000Y-70100000D02*
X119250000Y-70900000D01*
X119250000Y-70500000D02*
X119750000Y-70500000D01*
X119250000Y-70900000D02*
X118650000Y-70500000D01*
%TO.C,D30*%
X194250000Y-70500000D02*
X194650000Y-70500000D01*
X194650000Y-70500000D02*
X194650000Y-69950000D01*
X194650000Y-70500000D02*
X194650000Y-71050000D01*
X194650000Y-70500000D02*
X195250000Y-70100000D01*
X195250000Y-70100000D02*
X195250000Y-70900000D01*
X195250000Y-70500000D02*
X195750000Y-70500000D01*
X195250000Y-70900000D02*
X194650000Y-70500000D01*
%TO.C,D22*%
X194300000Y-127500000D02*
X194700000Y-127500000D01*
X194700000Y-127500000D02*
X194700000Y-126950000D01*
X194700000Y-127500000D02*
X194700000Y-128050000D01*
X194700000Y-127500000D02*
X195300000Y-127100000D01*
X195300000Y-127100000D02*
X195300000Y-127900000D01*
X195300000Y-127500000D02*
X195800000Y-127500000D01*
X195300000Y-127900000D02*
X194700000Y-127500000D01*
%TO.C,D3*%
X104012500Y-108500000D02*
X104412500Y-108500000D01*
X104412500Y-108500000D02*
X104412500Y-107950000D01*
X104412500Y-108500000D02*
X104412500Y-109050000D01*
X104412500Y-108500000D02*
X105012500Y-108100000D01*
X105012500Y-108100000D02*
X105012500Y-108900000D01*
X105012500Y-108500000D02*
X105512500Y-108500000D01*
X105012500Y-108900000D02*
X104412500Y-108500000D01*
%TO.C,D5*%
X99250000Y-70500000D02*
X99650000Y-70500000D01*
X99650000Y-70500000D02*
X99650000Y-69950000D01*
X99650000Y-70500000D02*
X99650000Y-71050000D01*
X99650000Y-70500000D02*
X100250000Y-70100000D01*
X100250000Y-70100000D02*
X100250000Y-70900000D01*
X100250000Y-70500000D02*
X100750000Y-70500000D01*
X100250000Y-70900000D02*
X99650000Y-70500000D01*
%TO.C,D2*%
X108775000Y-127500000D02*
X109175000Y-127500000D01*
X109175000Y-127500000D02*
X109175000Y-126950000D01*
X109175000Y-127500000D02*
X109175000Y-128050000D01*
X109175000Y-127500000D02*
X109775000Y-127100000D01*
X109775000Y-127100000D02*
X109775000Y-127900000D01*
X109775000Y-127500000D02*
X110275000Y-127500000D01*
X109775000Y-127900000D02*
X109175000Y-127500000D01*
%TO.C,D17*%
X175300000Y-127500000D02*
X175700000Y-127500000D01*
X175700000Y-127500000D02*
X175700000Y-126950000D01*
X175700000Y-127500000D02*
X175700000Y-128050000D01*
X175700000Y-127500000D02*
X176300000Y-127100000D01*
X176300000Y-127100000D02*
X176300000Y-127900000D01*
X176300000Y-127500000D02*
X176800000Y-127500000D01*
X176300000Y-127900000D02*
X175700000Y-127500000D01*
%TO.C,D11*%
X137250000Y-146500000D02*
X137650000Y-146500000D01*
X137650000Y-146500000D02*
X137650000Y-145950000D01*
X137650000Y-146500000D02*
X137650000Y-147050000D01*
X137650000Y-146500000D02*
X138250000Y-146100000D01*
X138250000Y-146100000D02*
X138250000Y-146900000D01*
X138250000Y-146500000D02*
X138750000Y-146500000D01*
X138250000Y-146900000D02*
X137650000Y-146500000D01*
%TO.C,D18*%
X165775000Y-108500000D02*
X166175000Y-108500000D01*
X166175000Y-108500000D02*
X166175000Y-107950000D01*
X166175000Y-108500000D02*
X166175000Y-109050000D01*
X166175000Y-108500000D02*
X166775000Y-108100000D01*
X166775000Y-108100000D02*
X166775000Y-108900000D01*
X166775000Y-108500000D02*
X167275000Y-108500000D01*
X166775000Y-108900000D02*
X166175000Y-108500000D01*
%TO.C,D12*%
X156300000Y-127500000D02*
X156700000Y-127500000D01*
X156700000Y-127500000D02*
X156700000Y-126950000D01*
X156700000Y-127500000D02*
X156700000Y-128050000D01*
X156700000Y-127500000D02*
X157300000Y-127100000D01*
X157300000Y-127100000D02*
X157300000Y-127900000D01*
X157300000Y-127500000D02*
X157800000Y-127500000D01*
X157300000Y-127900000D02*
X156700000Y-127500000D01*
%TO.C,D20*%
X156250000Y-70500000D02*
X156650000Y-70500000D01*
X156650000Y-70500000D02*
X156650000Y-69950000D01*
X156650000Y-70500000D02*
X156650000Y-71050000D01*
X156650000Y-70500000D02*
X157250000Y-70100000D01*
X157250000Y-70100000D02*
X157250000Y-70900000D01*
X157250000Y-70500000D02*
X157750000Y-70500000D01*
X157250000Y-70900000D02*
X156650000Y-70500000D01*
%TO.C,D16*%
X156250000Y-146500000D02*
X156650000Y-146500000D01*
X156650000Y-146500000D02*
X156650000Y-145950000D01*
X156650000Y-146500000D02*
X156650000Y-147050000D01*
X156650000Y-146500000D02*
X157250000Y-146100000D01*
X157250000Y-146100000D02*
X157250000Y-146900000D01*
X157250000Y-146500000D02*
X157750000Y-146500000D01*
X157250000Y-146900000D02*
X156650000Y-146500000D01*
%TO.C,D21*%
X175250000Y-146500000D02*
X175650000Y-146500000D01*
X175650000Y-146500000D02*
X175650000Y-145950000D01*
X175650000Y-146500000D02*
X175650000Y-147050000D01*
X175650000Y-146500000D02*
X176250000Y-146100000D01*
X176250000Y-146100000D02*
X176250000Y-146900000D01*
X176250000Y-146500000D02*
X176750000Y-146500000D01*
X176250000Y-146900000D02*
X175650000Y-146500000D01*
%TO.C,D8*%
X127775000Y-108500000D02*
X128175000Y-108500000D01*
X128175000Y-108500000D02*
X128175000Y-107950000D01*
X128175000Y-108500000D02*
X128175000Y-109050000D01*
X128175000Y-108500000D02*
X128775000Y-108100000D01*
X128775000Y-108100000D02*
X128775000Y-108900000D01*
X128775000Y-108500000D02*
X129275000Y-108500000D01*
X128775000Y-108900000D02*
X128175000Y-108500000D01*
%TO.C,D26*%
X203775000Y-146500000D02*
X204175000Y-146500000D01*
X204175000Y-146500000D02*
X204175000Y-145950000D01*
X204175000Y-146500000D02*
X204175000Y-147050000D01*
X204175000Y-146500000D02*
X204775000Y-146100000D01*
X204775000Y-146100000D02*
X204775000Y-146900000D01*
X204775000Y-146500000D02*
X205275000Y-146500000D01*
X204775000Y-146900000D02*
X204175000Y-146500000D01*
%TO.C,D7*%
X137300000Y-127500000D02*
X137700000Y-127500000D01*
X137700000Y-127500000D02*
X137700000Y-126950000D01*
X137700000Y-127500000D02*
X137700000Y-128050000D01*
X137700000Y-127500000D02*
X138300000Y-127100000D01*
X138300000Y-127100000D02*
X138300000Y-127900000D01*
X138300000Y-127500000D02*
X138800000Y-127500000D01*
X138300000Y-127900000D02*
X137700000Y-127500000D01*
%TO.C,D6*%
X118250000Y-146500000D02*
X118650000Y-146500000D01*
X118650000Y-146500000D02*
X118650000Y-145950000D01*
X118650000Y-146500000D02*
X118650000Y-147050000D01*
X118650000Y-146500000D02*
X119250000Y-146100000D01*
X119250000Y-146100000D02*
X119250000Y-146900000D01*
X119250000Y-146500000D02*
X119750000Y-146500000D01*
X119250000Y-146900000D02*
X118650000Y-146500000D01*
%TO.C,D19*%
X161012500Y-89500000D02*
X161412500Y-89500000D01*
X161412500Y-89500000D02*
X161412500Y-88950000D01*
X161412500Y-89500000D02*
X161412500Y-90050000D01*
X161412500Y-89500000D02*
X162012500Y-89100000D01*
X162012500Y-89100000D02*
X162012500Y-89900000D01*
X162012500Y-89500000D02*
X162512500Y-89500000D01*
X162012500Y-89900000D02*
X161412500Y-89500000D01*
%TO.C,D9*%
X123012500Y-89500000D02*
X123412500Y-89500000D01*
X123412500Y-89500000D02*
X123412500Y-88950000D01*
X123412500Y-89500000D02*
X123412500Y-90050000D01*
X123412500Y-89500000D02*
X124012500Y-89100000D01*
X124012500Y-89100000D02*
X124012500Y-89900000D01*
X124012500Y-89500000D02*
X124512500Y-89500000D01*
X124012500Y-89900000D02*
X123412500Y-89500000D01*
%TO.C,D1*%
X99250000Y-146500000D02*
X99650000Y-146500000D01*
X99650000Y-146500000D02*
X99650000Y-145950000D01*
X99650000Y-146500000D02*
X99650000Y-147050000D01*
X99650000Y-146500000D02*
X100250000Y-146100000D01*
X100250000Y-146100000D02*
X100250000Y-146900000D01*
X100250000Y-146500000D02*
X100750000Y-146500000D01*
X100250000Y-146900000D02*
X99650000Y-146500000D01*
%TO.C,D4*%
X101631250Y-89500000D02*
X102031250Y-89500000D01*
X102031250Y-89500000D02*
X102031250Y-88950000D01*
X102031250Y-89500000D02*
X102031250Y-90050000D01*
X102031250Y-89500000D02*
X102631250Y-89100000D01*
X102631250Y-89100000D02*
X102631250Y-89900000D01*
X102631250Y-89500000D02*
X103131250Y-89500000D01*
X102631250Y-89900000D02*
X102031250Y-89500000D01*
%TO.C,D25*%
X175250000Y-70500000D02*
X175650000Y-70500000D01*
X175650000Y-70500000D02*
X175650000Y-69950000D01*
X175650000Y-70500000D02*
X175650000Y-71050000D01*
X175650000Y-70500000D02*
X176250000Y-70100000D01*
X176250000Y-70100000D02*
X176250000Y-70900000D01*
X176250000Y-70500000D02*
X176750000Y-70500000D01*
X176250000Y-70900000D02*
X175650000Y-70500000D01*
D13*
%TO.C,MCU1*%
X191285000Y-142110000D02*
X191285000Y-159890000D01*
X191285000Y-159890000D02*
X224305000Y-159890000D01*
X224305000Y-142110000D02*
X191285000Y-142110000D01*
X224305000Y-159890000D02*
X224305000Y-142110000D01*
%TD*%
D14*
%TO.C,MCU1*%
X220495000Y-158620000D03*
X217955000Y-158620000D03*
X215415000Y-158620000D03*
X212875000Y-158620000D03*
X210335000Y-158620000D03*
X207795000Y-158620000D03*
X205255000Y-158620000D03*
X202715000Y-158620000D03*
X200175000Y-158620000D03*
X197635000Y-158620000D03*
X195095000Y-158620000D03*
X192555000Y-158620000D03*
X192555000Y-143380000D03*
X195095000Y-143380000D03*
X197635000Y-143380000D03*
X200175000Y-143380000D03*
X202715000Y-143380000D03*
X205255000Y-143380000D03*
X207795000Y-143380000D03*
X210335000Y-143380000D03*
X212875000Y-143380000D03*
X215415000Y-143380000D03*
X217955000Y-143380000D03*
X220495000Y-143380000D03*
%TD*%
M02*
