%TF.GenerationSoftware,KiCad,Pcbnew,9.0.7*%
%TF.CreationDate,2026-01-20T23:15:53-08:00*%
%TF.ProjectId,left,6c656674-2e6b-4696-9361-645f70636258,v1.0.0*%
%TF.SameCoordinates,Original*%
%TF.FileFunction,Soldermask,Top*%
%TF.FilePolarity,Negative*%
%FSLAX46Y46*%
G04 Gerber Fmt 4.6, Leading zero omitted, Abs format (unit mm)*
G04 Created by KiCad (PCBNEW 9.0.7) date 2026-01-20 23:15:53*
%MOMM*%
%LPD*%
G01*
G04 APERTURE LIST*
G04 Aperture macros list*
%AMRoundRect*
0 Rectangle with rounded corners*
0 $1 Rounding radius*
0 $2 $3 $4 $5 $6 $7 $8 $9 X,Y pos of 4 corners*
0 Add a 4 corners polygon primitive as box body*
4,1,4,$2,$3,$4,$5,$6,$7,$8,$9,$2,$3,0*
0 Add four circle primitives for the rounded corners*
1,1,$1+$1,$2,$3*
1,1,$1+$1,$4,$5*
1,1,$1+$1,$6,$7*
1,1,$1+$1,$8,$9*
0 Add four rect primitives between the rounded corners*
20,1,$1+$1,$2,$3,$4,$5,0*
20,1,$1+$1,$4,$5,$6,$7,0*
20,1,$1+$1,$6,$7,$8,$9,0*
20,1,$1+$1,$8,$9,$2,$3,0*%
G04 Aperture macros list end*
%ADD10C,1.100000*%
%ADD11C,1.801800*%
%ADD12C,3.100000*%
%ADD13C,4.087800*%
%ADD14RoundRect,0.050000X-0.889000X-0.889000X0.889000X-0.889000X0.889000X0.889000X-0.889000X0.889000X0*%
%ADD15RoundRect,0.050000X-0.450000X-0.600000X0.450000X-0.600000X0.450000X0.600000X-0.450000X0.600000X0*%
%ADD16C,2.005000*%
%ADD17C,3.900000*%
%ADD18RoundRect,0.050000X0.850000X-0.600000X0.850000X0.600000X-0.850000X0.600000X-0.850000X-0.600000X0*%
%ADD19O,1.800000X1.300000*%
%ADD20C,0.850000*%
%ADD21C,1.852600*%
G04 APERTURE END LIST*
D10*
%TO.C,T1*%
X212500000Y-64500000D03*
X215500000Y-64500000D03*
%TD*%
D11*
%TO.C,S5*%
X105080000Y-74000000D03*
D12*
X103810000Y-76540000D03*
D13*
X100000000Y-74000000D03*
D12*
X97460000Y-79080000D03*
D11*
X94920000Y-74000000D03*
%TD*%
D14*
%TO.C,D28*%
X200715000Y-108500000D03*
D15*
X202875000Y-108500000D03*
X206175000Y-108500000D03*
D16*
X208335000Y-108500000D03*
%TD*%
D17*
%TO.C,H4*%
X188050000Y-141000000D03*
%TD*%
D11*
%TO.C,S12*%
X162130000Y-131000000D03*
D12*
X160860000Y-133540000D03*
D13*
X157050000Y-131000000D03*
D12*
X154510000Y-136080000D03*
D11*
X151970000Y-131000000D03*
%TD*%
D18*
%TO.C,JST1*%
X143525000Y-104000000D03*
D19*
X143525000Y-102000000D03*
%TD*%
D14*
%TO.C,D15*%
X134190000Y-70500000D03*
D15*
X136350000Y-70500000D03*
X139650000Y-70500000D03*
D16*
X141810000Y-70500000D03*
%TD*%
D20*
%TO.C,B1*%
X200000000Y-62625000D03*
X200000000Y-65375000D03*
%TD*%
D14*
%TO.C,D24*%
X176952500Y-89500000D03*
D15*
X179112500Y-89500000D03*
X182412500Y-89500000D03*
D16*
X184572500Y-89500000D03*
%TD*%
D11*
%TO.C,S4*%
X107461250Y-93000000D03*
D12*
X106191250Y-95540000D03*
D13*
X102381250Y-93000000D03*
D12*
X99841250Y-98080000D03*
D11*
X97301250Y-93000000D03*
%TD*%
D14*
%TO.C,D27*%
X210240000Y-127500000D03*
D15*
X212400000Y-127500000D03*
X215700000Y-127500000D03*
D16*
X217860000Y-127500000D03*
%TD*%
D14*
%TO.C,D29*%
X195952500Y-89500000D03*
D15*
X198112500Y-89500000D03*
X201412500Y-89500000D03*
D16*
X203572500Y-89500000D03*
%TD*%
D14*
%TO.C,D13*%
X143715000Y-108500000D03*
D15*
X145875000Y-108500000D03*
X149175000Y-108500000D03*
D16*
X151335000Y-108500000D03*
%TD*%
D11*
%TO.C,S17*%
X181130000Y-131000000D03*
D12*
X179860000Y-133540000D03*
D13*
X176050000Y-131000000D03*
D12*
X173510000Y-136080000D03*
D11*
X170970000Y-131000000D03*
%TD*%
%TO.C,S14*%
X147842500Y-93000000D03*
D12*
X146572500Y-95540000D03*
D13*
X142762500Y-93000000D03*
D12*
X140222500Y-98080000D03*
D11*
X137682500Y-93000000D03*
%TD*%
%TO.C,S15*%
X143080000Y-74000000D03*
D12*
X141810000Y-76540000D03*
D13*
X138000000Y-74000000D03*
D12*
X135460000Y-79080000D03*
D11*
X132920000Y-74000000D03*
%TD*%
%TO.C,S26*%
X209605000Y-150000000D03*
D12*
X208335000Y-152540000D03*
D13*
X204525000Y-150000000D03*
D12*
X201985000Y-155080000D03*
D11*
X199445000Y-150000000D03*
%TD*%
%TO.C,S19*%
X166842500Y-93000000D03*
D12*
X165572500Y-95540000D03*
D13*
X161762500Y-93000000D03*
D12*
X159222500Y-98080000D03*
D11*
X156682500Y-93000000D03*
%TD*%
%TO.C,S23*%
X190605000Y-112000000D03*
D12*
X189335000Y-114540000D03*
D13*
X185525000Y-112000000D03*
D12*
X182985000Y-117080000D03*
D11*
X180445000Y-112000000D03*
%TD*%
%TO.C,S25*%
X181080000Y-74000000D03*
D12*
X179810000Y-76540000D03*
D13*
X176000000Y-74000000D03*
D12*
X173460000Y-79080000D03*
D11*
X170920000Y-74000000D03*
%TD*%
D14*
%TO.C,D23*%
X181715000Y-108500000D03*
D15*
X183875000Y-108500000D03*
X187175000Y-108500000D03*
D16*
X189335000Y-108500000D03*
%TD*%
D14*
%TO.C,D14*%
X138952500Y-89500000D03*
D15*
X141112500Y-89500000D03*
X144412500Y-89500000D03*
D16*
X146572500Y-89500000D03*
%TD*%
D17*
%TO.C,H3*%
X95000000Y-140000000D03*
%TD*%
D11*
%TO.C,S13*%
X152605000Y-112000000D03*
D12*
X151335000Y-114540000D03*
D13*
X147525000Y-112000000D03*
D12*
X144985000Y-117080000D03*
D11*
X142445000Y-112000000D03*
%TD*%
D14*
%TO.C,D31*%
X210190000Y-70500000D03*
D15*
X212350000Y-70500000D03*
X215650000Y-70500000D03*
D16*
X217810000Y-70500000D03*
%TD*%
D11*
%TO.C,S31*%
X219080000Y-74000000D03*
D12*
X217810000Y-76540000D03*
D13*
X214000000Y-74000000D03*
D12*
X211460000Y-79080000D03*
D11*
X208920000Y-74000000D03*
%TD*%
D14*
%TO.C,D10*%
X115190000Y-70500000D03*
D15*
X117350000Y-70500000D03*
X120650000Y-70500000D03*
D16*
X122810000Y-70500000D03*
%TD*%
D11*
%TO.C,S28*%
X209605000Y-112000000D03*
D12*
X208335000Y-114540000D03*
D13*
X204525000Y-112000000D03*
D12*
X201985000Y-117080000D03*
D11*
X199445000Y-112000000D03*
%TD*%
%TO.C,S27*%
X219130000Y-131000000D03*
D12*
X217860000Y-133540000D03*
D13*
X214050000Y-131000000D03*
D12*
X211510000Y-136080000D03*
D11*
X208970000Y-131000000D03*
%TD*%
%TO.C,S24*%
X185842500Y-93000000D03*
D12*
X184572500Y-95540000D03*
D13*
X180762500Y-93000000D03*
D12*
X178222500Y-98080000D03*
D11*
X175682500Y-93000000D03*
%TD*%
D17*
%TO.C,H2*%
X209000000Y-84000000D03*
%TD*%
D11*
%TO.C,S20*%
X162080000Y-74000000D03*
D12*
X160810000Y-76540000D03*
D13*
X157000000Y-74000000D03*
D12*
X154460000Y-79080000D03*
D11*
X151920000Y-74000000D03*
%TD*%
D14*
%TO.C,D30*%
X191190000Y-70500000D03*
D15*
X193350000Y-70500000D03*
X196650000Y-70500000D03*
D16*
X198810000Y-70500000D03*
%TD*%
D11*
%TO.C,S3*%
X109842500Y-112000000D03*
D12*
X108572500Y-114540000D03*
D13*
X104762500Y-112000000D03*
D12*
X102222500Y-117080000D03*
D11*
X99682500Y-112000000D03*
%TD*%
%TO.C,S30*%
X200080000Y-74000000D03*
D12*
X198810000Y-76540000D03*
D13*
X195000000Y-74000000D03*
D12*
X192460000Y-79080000D03*
D11*
X189920000Y-74000000D03*
%TD*%
%TO.C,S10*%
X124080000Y-74000000D03*
D12*
X122810000Y-76540000D03*
D13*
X119000000Y-74000000D03*
D12*
X116460000Y-79080000D03*
D11*
X113920000Y-74000000D03*
%TD*%
D14*
%TO.C,D22*%
X191240000Y-127500000D03*
D15*
X193400000Y-127500000D03*
X196700000Y-127500000D03*
D16*
X198860000Y-127500000D03*
%TD*%
D14*
%TO.C,D3*%
X100952500Y-108500000D03*
D15*
X103112500Y-108500000D03*
X106412500Y-108500000D03*
D16*
X108572500Y-108500000D03*
%TD*%
D14*
%TO.C,D5*%
X96190000Y-70500000D03*
D15*
X98350000Y-70500000D03*
X101650000Y-70500000D03*
D16*
X103810000Y-70500000D03*
%TD*%
D14*
%TO.C,D2*%
X105715000Y-127500000D03*
D15*
X107875000Y-127500000D03*
X111175000Y-127500000D03*
D16*
X113335000Y-127500000D03*
%TD*%
D14*
%TO.C,D17*%
X172240000Y-127500000D03*
D15*
X174400000Y-127500000D03*
X177700000Y-127500000D03*
D16*
X179860000Y-127500000D03*
%TD*%
D14*
%TO.C,D11*%
X134190000Y-146500000D03*
D15*
X136350000Y-146500000D03*
X139650000Y-146500000D03*
D16*
X141810000Y-146500000D03*
%TD*%
D14*
%TO.C,D18*%
X162715000Y-108500000D03*
D15*
X164875000Y-108500000D03*
X168175000Y-108500000D03*
D16*
X170335000Y-108500000D03*
%TD*%
D14*
%TO.C,D12*%
X153240000Y-127500000D03*
D15*
X155400000Y-127500000D03*
X158700000Y-127500000D03*
D16*
X160860000Y-127500000D03*
%TD*%
D14*
%TO.C,D20*%
X153190000Y-70500000D03*
D15*
X155350000Y-70500000D03*
X158650000Y-70500000D03*
D16*
X160810000Y-70500000D03*
%TD*%
D14*
%TO.C,D16*%
X153190000Y-146500000D03*
D15*
X155350000Y-146500000D03*
X158650000Y-146500000D03*
D16*
X160810000Y-146500000D03*
%TD*%
D14*
%TO.C,D21*%
X172190000Y-146500000D03*
D15*
X174350000Y-146500000D03*
X177650000Y-146500000D03*
D16*
X179810000Y-146500000D03*
%TD*%
D11*
%TO.C,S18*%
X171605000Y-112000000D03*
D12*
X170335000Y-114540000D03*
D13*
X166525000Y-112000000D03*
D12*
X163985000Y-117080000D03*
D11*
X161445000Y-112000000D03*
%TD*%
%TO.C,S11*%
X143080000Y-150000000D03*
D12*
X141810000Y-152540000D03*
D13*
X138000000Y-150000000D03*
D12*
X135460000Y-155080000D03*
D11*
X132920000Y-150000000D03*
%TD*%
D14*
%TO.C,D8*%
X124715000Y-108500000D03*
D15*
X126875000Y-108500000D03*
X130175000Y-108500000D03*
D16*
X132335000Y-108500000D03*
%TD*%
D14*
%TO.C,D26*%
X200715000Y-146500000D03*
D15*
X202875000Y-146500000D03*
X206175000Y-146500000D03*
D16*
X208335000Y-146500000D03*
%TD*%
D14*
%TO.C,D7*%
X134240000Y-127500000D03*
D15*
X136400000Y-127500000D03*
X139700000Y-127500000D03*
D16*
X141860000Y-127500000D03*
%TD*%
D11*
%TO.C,S6*%
X124080000Y-150000000D03*
D12*
X122810000Y-152540000D03*
D13*
X119000000Y-150000000D03*
D12*
X116460000Y-155080000D03*
D11*
X113920000Y-150000000D03*
%TD*%
D14*
%TO.C,D6*%
X115190000Y-146500000D03*
D15*
X117350000Y-146500000D03*
X120650000Y-146500000D03*
D16*
X122810000Y-146500000D03*
%TD*%
D11*
%TO.C,S9*%
X128842500Y-93000000D03*
D12*
X127572500Y-95540000D03*
D13*
X123762500Y-93000000D03*
D12*
X121222500Y-98080000D03*
D11*
X118682500Y-93000000D03*
%TD*%
%TO.C,S1*%
X105080000Y-150000000D03*
D12*
X103810000Y-152540000D03*
D13*
X100000000Y-150000000D03*
D12*
X97460000Y-155080000D03*
D11*
X94920000Y-150000000D03*
%TD*%
D14*
%TO.C,D19*%
X157952500Y-89500000D03*
D15*
X160112500Y-89500000D03*
X163412500Y-89500000D03*
D16*
X165572500Y-89500000D03*
%TD*%
D11*
%TO.C,S16*%
X162080000Y-150000000D03*
D12*
X160810000Y-152540000D03*
D13*
X157000000Y-150000000D03*
D12*
X154460000Y-155080000D03*
D11*
X151920000Y-150000000D03*
%TD*%
D14*
%TO.C,D9*%
X119952500Y-89500000D03*
D15*
X122112500Y-89500000D03*
X125412500Y-89500000D03*
D16*
X127572500Y-89500000D03*
%TD*%
D11*
%TO.C,S8*%
X133605000Y-112000000D03*
D12*
X132335000Y-114540000D03*
D13*
X128525000Y-112000000D03*
D12*
X125985000Y-117080000D03*
D11*
X123445000Y-112000000D03*
%TD*%
D14*
%TO.C,D1*%
X96190000Y-146500000D03*
D15*
X98350000Y-146500000D03*
X101650000Y-146500000D03*
D16*
X103810000Y-146500000D03*
%TD*%
D14*
%TO.C,D4*%
X98571250Y-89500000D03*
D15*
X100731250Y-89500000D03*
X104031250Y-89500000D03*
D16*
X106191250Y-89500000D03*
%TD*%
D17*
%TO.C,H1*%
X95000000Y-84000000D03*
%TD*%
D11*
%TO.C,S21*%
X181080000Y-150000000D03*
D12*
X179810000Y-152540000D03*
D13*
X176000000Y-150000000D03*
D12*
X173460000Y-155080000D03*
D11*
X170920000Y-150000000D03*
%TD*%
%TO.C,S29*%
X204842500Y-93000000D03*
D12*
X203572500Y-95540000D03*
D13*
X199762500Y-93000000D03*
D12*
X197222500Y-98080000D03*
D11*
X194682500Y-93000000D03*
%TD*%
%TO.C,S22*%
X200130000Y-131000000D03*
D12*
X198860000Y-133540000D03*
D13*
X195050000Y-131000000D03*
D12*
X192510000Y-136080000D03*
D11*
X189970000Y-131000000D03*
%TD*%
D14*
%TO.C,D25*%
X172190000Y-70500000D03*
D15*
X174350000Y-70500000D03*
X177650000Y-70500000D03*
D16*
X179810000Y-70500000D03*
%TD*%
D11*
%TO.C,S7*%
X143130000Y-131000000D03*
D12*
X141860000Y-133540000D03*
D13*
X138050000Y-131000000D03*
D12*
X135510000Y-136080000D03*
D11*
X132970000Y-131000000D03*
%TD*%
%TO.C,S2*%
X114605000Y-131000000D03*
D12*
X113335000Y-133540000D03*
D13*
X109525000Y-131000000D03*
D12*
X106985000Y-136080000D03*
D11*
X104445000Y-131000000D03*
%TD*%
D21*
%TO.C,MCU1*%
X220495000Y-158620000D03*
X217955000Y-158620000D03*
X215415000Y-158620000D03*
X212875000Y-158620000D03*
X210335000Y-158620000D03*
X207795000Y-158620000D03*
X205255000Y-158620000D03*
X202715000Y-158620000D03*
X200175000Y-158620000D03*
X197635000Y-158620000D03*
X195095000Y-158620000D03*
X192555000Y-158620000D03*
X192555000Y-143380000D03*
X195095000Y-143380000D03*
X197635000Y-143380000D03*
X200175000Y-143380000D03*
X202715000Y-143380000D03*
X205255000Y-143380000D03*
X207795000Y-143380000D03*
X210335000Y-143380000D03*
X212875000Y-143380000D03*
X215415000Y-143380000D03*
X217955000Y-143380000D03*
X220495000Y-143380000D03*
%TD*%
M02*
