%TF.GenerationSoftware,KiCad,Pcbnew,9.0.7*%
%TF.CreationDate,2026-01-20T23:15:53-08:00*%
%TF.ProjectId,left,6c656674-2e6b-4696-9361-645f70636258,v1.0.0*%
%TF.SameCoordinates,Original*%
%TF.FileFunction,Profile,NP*%
%FSLAX46Y46*%
G04 Gerber Fmt 4.6, Leading zero omitted, Abs format (unit mm)*
G04 Created by KiCad (PCBNEW 9.0.7) date 2026-01-20 23:15:53*
%MOMM*%
%LPD*%
G01*
G04 APERTURE LIST*
%TA.AperFunction,Profile*%
%ADD10C,0.150000*%
%TD*%
G04 APERTURE END LIST*
D10*
X185000000Y-62000000D02*
G75*
G02*
X185500000Y-62041957I0J-3000200D01*
G01*
X88025000Y-122000000D02*
X88025000Y-140000000D01*
X109500000Y-62041960D02*
G75*
G02*
X110000000Y-61999994I500000J-2957640D01*
G01*
X109500000Y-161958040D02*
G75*
G02*
X109000000Y-162000006I-500000J2957640D01*
G01*
X226025000Y-159000000D02*
G75*
G02*
X223025000Y-162000000I-3000000J0D01*
G01*
X148000000Y-162000000D02*
G75*
G02*
X147500000Y-161958043I0J3000200D01*
G01*
X225994590Y-140573927D02*
G75*
G02*
X226025000Y-141000000I-2969590J-426073D01*
G01*
X204500000Y-62041960D02*
G75*
G02*
X205000000Y-61999994I500000J-2957640D01*
G01*
X186025000Y-162000000D02*
G75*
G02*
X185512500Y-161955903I0J3000200D01*
G01*
X223000000Y-62000000D02*
G75*
G02*
X226000000Y-65000000I0J-3000000D01*
G01*
X166500000Y-161958040D02*
G75*
G02*
X166000000Y-162000006I-500000J2957640D01*
G01*
X88012500Y-103000000D02*
G75*
G02*
X88051396Y-102518487I2999900J0D01*
G01*
X167000000Y-162000000D02*
G75*
G02*
X166500000Y-161958043I0J3000200D01*
G01*
X223000000Y-62000000D02*
X205000000Y-62000000D01*
X223050000Y-119000000D02*
X218525000Y-119000000D01*
X88006250Y-84000000D02*
G75*
G02*
X88045141Y-83518487I3000250J0D01*
G01*
X226025000Y-159000000D02*
X226025000Y-141000000D01*
X129000000Y-162000000D02*
X147000000Y-162000000D01*
X167000000Y-162000000D02*
X185000000Y-162000000D01*
X88000000Y-65000000D02*
X88000000Y-83000000D01*
X109000000Y-62000000D02*
X91000000Y-62000000D01*
X226000000Y-83000000D02*
X226000000Y-65000000D01*
X88000000Y-141000000D02*
X88000000Y-159000000D01*
X88060948Y-121536973D02*
G75*
G02*
X88012494Y-121000000I2951152J536973D01*
G01*
X147000000Y-62000000D02*
X129000000Y-62000000D01*
X110000000Y-162000000D02*
X128000000Y-162000000D01*
X88051395Y-102518487D02*
G75*
G02*
X88006244Y-102000000I2954405J518487D01*
G01*
X166000000Y-62000000D02*
G75*
G02*
X166500000Y-62041957I0J-3000200D01*
G01*
X88000000Y-141000000D02*
G75*
G02*
X88055410Y-140426073I3000000J0D01*
G01*
X211762500Y-88000000D02*
G75*
G02*
X213762500Y-86000000I2000000J0D01*
G01*
X226000000Y-83000000D02*
G75*
G02*
X223000000Y-86000000I-3000000J0D01*
G01*
X88006250Y-84000000D02*
X88006250Y-102000000D01*
X88000000Y-65000000D02*
G75*
G02*
X91000000Y-62000000I3000000J0D01*
G01*
X147500000Y-62041960D02*
G75*
G02*
X148000000Y-61999994I500000J-2957640D01*
G01*
X204000000Y-62000000D02*
X186000000Y-62000000D01*
X128500000Y-62041960D02*
G75*
G02*
X129000000Y-61999994I500000J-2957640D01*
G01*
X166500000Y-62041960D02*
G75*
G02*
X167000000Y-61999994I500000J-2957640D01*
G01*
X216525000Y-117000000D02*
X216525000Y-103000000D01*
X88045144Y-83518487D02*
G75*
G02*
X87999995Y-83000000I2954556J518487D01*
G01*
X185000000Y-62000000D02*
X167000000Y-62000000D01*
X226050000Y-140000000D02*
X226050000Y-122000000D01*
X147500000Y-161958040D02*
G75*
G02*
X147000000Y-162000006I-500000J2957640D01*
G01*
X128000000Y-62000000D02*
X110000000Y-62000000D01*
X148000000Y-162000000D02*
X166000000Y-162000000D01*
X128500000Y-161958040D02*
G75*
G02*
X128000000Y-162000006I-500000J2957640D01*
G01*
X185500000Y-62041960D02*
G75*
G02*
X186000000Y-61999994I500000J-2957640D01*
G01*
X91000000Y-162000000D02*
X109000000Y-162000000D01*
X218525000Y-119000000D02*
G75*
G02*
X216525000Y-117000000I0J2000000D01*
G01*
X213762500Y-86000000D02*
X223000000Y-86000000D01*
X91000000Y-162000000D02*
G75*
G02*
X88000000Y-159000000I0J3000000D01*
G01*
X129000000Y-162000000D02*
G75*
G02*
X128500000Y-161958043I0J3000200D01*
G01*
X88012500Y-103000000D02*
X88012500Y-121000000D01*
X223050000Y-119000000D02*
G75*
G02*
X226050000Y-122000000I0J-3000000D01*
G01*
X186025000Y-162000000D02*
X223025000Y-162000000D01*
X147000000Y-62000000D02*
G75*
G02*
X147500000Y-62041957I0J-3000200D01*
G01*
X211762500Y-100000000D02*
X211762500Y-88000000D01*
X128000000Y-62000000D02*
G75*
G02*
X128500000Y-62041957I0J-3000200D01*
G01*
X185512500Y-161955900D02*
G75*
G02*
X185000000Y-162000005I-512500J2955600D01*
G01*
X166000000Y-62000000D02*
X148000000Y-62000000D01*
X109000000Y-62000000D02*
G75*
G02*
X109500000Y-62041957I0J-3000200D01*
G01*
X110000000Y-162000000D02*
G75*
G02*
X109500000Y-161958043I0J3000200D01*
G01*
X88055411Y-140426073D02*
G75*
G02*
X88024994Y-140000000I2968989J426073D01*
G01*
X204000000Y-62000000D02*
G75*
G02*
X204500000Y-62041957I0J-3000200D01*
G01*
X226050000Y-140000000D02*
G75*
G02*
X225994588Y-140573927I-2999900J0D01*
G01*
X213525000Y-100000000D02*
X211762500Y-100000000D01*
X88025000Y-122000000D02*
G75*
G02*
X88060947Y-121536973I3000100J0D01*
G01*
X213525000Y-100000000D02*
G75*
G02*
X216525000Y-103000000I0J-3000000D01*
G01*
M02*
