M48
; DRILL file {KiCad 9.0.7} date 2026-01-20T23:17:08-0800
; FORMAT={-:-/ absolute / metric / decimal}
; #@! TF.CreationDate,2026-01-20T23:17:08-08:00
; #@! TF.GenerationSoftware,Kicad,Pcbnew,9.0.7
; #@! TF.FileFunction,Plated,1,2,PTH
FMAT,2
METRIC
; #@! TA.AperFunction,Plated,PTH,ViaDrill
T1C0.300
; #@! TA.AperFunction,Plated,PTH,ComponentDrill
T2C0.750
; #@! TA.AperFunction,Plated,PTH,ComponentDrill
T3C0.991
; #@! TA.AperFunction,Plated,PTH,ComponentDrill
T4C1.092
; #@! TA.AperFunction,Plated,PTH,ComponentDrill
T5C2.200
%
G90
G05
T1
X264.4Y-67.4
X279.2Y-155.2
X292.4Y-68.4
X302.6Y-104.2
T2
X320.525Y-102.0
X320.525Y-104.0
T3
X250.952Y-89.5
X255.715Y-108.5
X258.572Y-89.5
X263.335Y-108.5
X265.19Y-70.5
X265.19Y-127.5
X269.952Y-89.5
X272.81Y-70.5
X272.81Y-127.5
X274.665Y-146.5
X274.715Y-108.5
X277.572Y-89.5
X282.285Y-146.5
X282.335Y-108.5
X284.19Y-70.5
X284.19Y-127.5
X288.952Y-89.5
X291.81Y-70.5
X291.81Y-127.5
X293.715Y-108.5
X296.572Y-89.5
X301.335Y-108.5
X303.19Y-70.5
X303.19Y-127.5
X303.19Y-146.5
X307.952Y-89.5
X310.81Y-70.5
X310.81Y-127.5
X310.81Y-146.5
X312.715Y-108.5
X315.572Y-89.5
X320.335Y-108.5
X322.19Y-70.5
X322.19Y-127.5
X322.19Y-146.5
X326.952Y-89.5
X329.81Y-70.5
X329.81Y-127.5
X329.81Y-146.5
X331.715Y-108.5
X334.572Y-89.5
X339.335Y-108.5
X341.19Y-70.5
X341.19Y-127.5
X341.19Y-146.5
X348.81Y-70.5
X348.81Y-127.5
X348.81Y-146.5
X353.096Y-89.5
X355.477Y-108.5
X360.19Y-70.5
X360.19Y-127.5
X360.19Y-146.5
X360.716Y-89.5
X363.097Y-108.5
X367.81Y-70.5
X367.81Y-127.5
X367.81Y-146.5
T4
X262.505Y-143.38
X262.505Y-158.62
X265.045Y-143.38
X265.045Y-158.62
X267.585Y-143.38
X267.585Y-158.62
X270.125Y-143.38
X270.125Y-158.62
X272.665Y-143.38
X272.665Y-158.62
X275.205Y-143.38
X275.205Y-158.62
X277.745Y-143.38
X277.745Y-158.62
X280.285Y-143.38
X280.285Y-158.62
X282.825Y-143.38
X282.825Y-158.62
X285.365Y-143.38
X285.365Y-158.62
X287.905Y-143.38
X287.905Y-158.62
X290.445Y-143.38
X290.445Y-158.62
T5
X264.0Y-84.0
X295.0Y-141.0
X369.0Y-84.0
X369.0Y-141.0
M30
