%TF.GenerationSoftware,KiCad,Pcbnew,9.0.7*%
%TF.CreationDate,2026-01-20T23:17:06-08:00*%
%TF.ProjectId,right,72696768-742e-46b6-9963-61645f706362,v1.0.0*%
%TF.SameCoordinates,Original*%
%TF.FileFunction,Legend,Bot*%
%TF.FilePolarity,Positive*%
%FSLAX46Y46*%
G04 Gerber Fmt 4.6, Leading zero omitted, Abs format (unit mm)*
G04 Created by KiCad (PCBNEW 9.0.7) date 2026-01-20 23:17:06*
%MOMM*%
%LPD*%
G01*
G04 APERTURE LIST*
%ADD10C,0.150000*%
%ADD11C,0.100000*%
%ADD12C,0.120000*%
%ADD13C,0.381000*%
%ADD14C,1.752600*%
G04 APERTURE END LIST*
D10*
X279847295Y-144662810D02*
X279847295Y-144739000D01*
X279847295Y-144739000D02*
X279885390Y-144815191D01*
X279885390Y-144815191D02*
X279923485Y-144853286D01*
X279923485Y-144853286D02*
X279999676Y-144891381D01*
X279999676Y-144891381D02*
X280152057Y-144929476D01*
X280152057Y-144929476D02*
X280342533Y-144929476D01*
X280342533Y-144929476D02*
X280494914Y-144891381D01*
X280494914Y-144891381D02*
X280571104Y-144853286D01*
X280571104Y-144853286D02*
X280609200Y-144815191D01*
X280609200Y-144815191D02*
X280647295Y-144739000D01*
X280647295Y-144739000D02*
X280647295Y-144662810D01*
X280647295Y-144662810D02*
X280609200Y-144586619D01*
X280609200Y-144586619D02*
X280571104Y-144548524D01*
X280571104Y-144548524D02*
X280494914Y-144510429D01*
X280494914Y-144510429D02*
X280342533Y-144472333D01*
X280342533Y-144472333D02*
X280152057Y-144472333D01*
X280152057Y-144472333D02*
X279999676Y-144510429D01*
X279999676Y-144510429D02*
X279923485Y-144548524D01*
X279923485Y-144548524D02*
X279885390Y-144586619D01*
X279885390Y-144586619D02*
X279847295Y-144662810D01*
X279923485Y-145234238D02*
X279885390Y-145272334D01*
X279885390Y-145272334D02*
X279847295Y-145348524D01*
X279847295Y-145348524D02*
X279847295Y-145539000D01*
X279847295Y-145539000D02*
X279885390Y-145615191D01*
X279885390Y-145615191D02*
X279923485Y-145653286D01*
X279923485Y-145653286D02*
X279999676Y-145691381D01*
X279999676Y-145691381D02*
X280075866Y-145691381D01*
X280075866Y-145691381D02*
X280190152Y-145653286D01*
X280190152Y-145653286D02*
X280647295Y-145196143D01*
X280647295Y-145196143D02*
X280647295Y-145691381D01*
X280113961Y-146377096D02*
X280647295Y-146377096D01*
X279809200Y-146186620D02*
X280380628Y-145996143D01*
X280380628Y-145996143D02*
X280380628Y-146491382D01*
X277307295Y-155737191D02*
X277307295Y-155813381D01*
X277307295Y-155813381D02*
X277345390Y-155889572D01*
X277345390Y-155889572D02*
X277383485Y-155927667D01*
X277383485Y-155927667D02*
X277459676Y-155965762D01*
X277459676Y-155965762D02*
X277612057Y-156003857D01*
X277612057Y-156003857D02*
X277802533Y-156003857D01*
X277802533Y-156003857D02*
X277954914Y-155965762D01*
X277954914Y-155965762D02*
X278031104Y-155927667D01*
X278031104Y-155927667D02*
X278069200Y-155889572D01*
X278069200Y-155889572D02*
X278107295Y-155813381D01*
X278107295Y-155813381D02*
X278107295Y-155737191D01*
X278107295Y-155737191D02*
X278069200Y-155661000D01*
X278069200Y-155661000D02*
X278031104Y-155622905D01*
X278031104Y-155622905D02*
X277954914Y-155584810D01*
X277954914Y-155584810D02*
X277802533Y-155546714D01*
X277802533Y-155546714D02*
X277612057Y-155546714D01*
X277612057Y-155546714D02*
X277459676Y-155584810D01*
X277459676Y-155584810D02*
X277383485Y-155622905D01*
X277383485Y-155622905D02*
X277345390Y-155661000D01*
X277345390Y-155661000D02*
X277307295Y-155737191D01*
X277307295Y-156499096D02*
X277307295Y-156575286D01*
X277307295Y-156575286D02*
X277345390Y-156651477D01*
X277345390Y-156651477D02*
X277383485Y-156689572D01*
X277383485Y-156689572D02*
X277459676Y-156727667D01*
X277459676Y-156727667D02*
X277612057Y-156765762D01*
X277612057Y-156765762D02*
X277802533Y-156765762D01*
X277802533Y-156765762D02*
X277954914Y-156727667D01*
X277954914Y-156727667D02*
X278031104Y-156689572D01*
X278031104Y-156689572D02*
X278069200Y-156651477D01*
X278069200Y-156651477D02*
X278107295Y-156575286D01*
X278107295Y-156575286D02*
X278107295Y-156499096D01*
X278107295Y-156499096D02*
X278069200Y-156422905D01*
X278069200Y-156422905D02*
X278031104Y-156384810D01*
X278031104Y-156384810D02*
X277954914Y-156346715D01*
X277954914Y-156346715D02*
X277802533Y-156308619D01*
X277802533Y-156308619D02*
X277612057Y-156308619D01*
X277612057Y-156308619D02*
X277459676Y-156346715D01*
X277459676Y-156346715D02*
X277383485Y-156384810D01*
X277383485Y-156384810D02*
X277345390Y-156422905D01*
X277345390Y-156422905D02*
X277307295Y-156499096D01*
X277383485Y-157070524D02*
X277345390Y-157108620D01*
X277345390Y-157108620D02*
X277307295Y-157184810D01*
X277307295Y-157184810D02*
X277307295Y-157375286D01*
X277307295Y-157375286D02*
X277345390Y-157451477D01*
X277345390Y-157451477D02*
X277383485Y-157489572D01*
X277383485Y-157489572D02*
X277459676Y-157527667D01*
X277459676Y-157527667D02*
X277535866Y-157527667D01*
X277535866Y-157527667D02*
X277650152Y-157489572D01*
X277650152Y-157489572D02*
X278107295Y-157032429D01*
X278107295Y-157032429D02*
X278107295Y-157527667D01*
X283187295Y-144929476D02*
X283187295Y-144472333D01*
X283187295Y-144700905D02*
X282387295Y-144700905D01*
X282387295Y-144700905D02*
X282501580Y-144624714D01*
X282501580Y-144624714D02*
X282577771Y-144548524D01*
X282577771Y-144548524D02*
X282615866Y-144472333D01*
X282387295Y-145424715D02*
X282387295Y-145500905D01*
X282387295Y-145500905D02*
X282425390Y-145577096D01*
X282425390Y-145577096D02*
X282463485Y-145615191D01*
X282463485Y-145615191D02*
X282539676Y-145653286D01*
X282539676Y-145653286D02*
X282692057Y-145691381D01*
X282692057Y-145691381D02*
X282882533Y-145691381D01*
X282882533Y-145691381D02*
X283034914Y-145653286D01*
X283034914Y-145653286D02*
X283111104Y-145615191D01*
X283111104Y-145615191D02*
X283149200Y-145577096D01*
X283149200Y-145577096D02*
X283187295Y-145500905D01*
X283187295Y-145500905D02*
X283187295Y-145424715D01*
X283187295Y-145424715D02*
X283149200Y-145348524D01*
X283149200Y-145348524D02*
X283111104Y-145310429D01*
X283111104Y-145310429D02*
X283034914Y-145272334D01*
X283034914Y-145272334D02*
X282882533Y-145234238D01*
X282882533Y-145234238D02*
X282692057Y-145234238D01*
X282692057Y-145234238D02*
X282539676Y-145272334D01*
X282539676Y-145272334D02*
X282463485Y-145310429D01*
X282463485Y-145310429D02*
X282425390Y-145348524D01*
X282425390Y-145348524D02*
X282387295Y-145424715D01*
X282387295Y-146186620D02*
X282387295Y-146262810D01*
X282387295Y-146262810D02*
X282425390Y-146339001D01*
X282425390Y-146339001D02*
X282463485Y-146377096D01*
X282463485Y-146377096D02*
X282539676Y-146415191D01*
X282539676Y-146415191D02*
X282692057Y-146453286D01*
X282692057Y-146453286D02*
X282882533Y-146453286D01*
X282882533Y-146453286D02*
X283034914Y-146415191D01*
X283034914Y-146415191D02*
X283111104Y-146377096D01*
X283111104Y-146377096D02*
X283149200Y-146339001D01*
X283149200Y-146339001D02*
X283187295Y-146262810D01*
X283187295Y-146262810D02*
X283187295Y-146186620D01*
X283187295Y-146186620D02*
X283149200Y-146110429D01*
X283149200Y-146110429D02*
X283111104Y-146072334D01*
X283111104Y-146072334D02*
X283034914Y-146034239D01*
X283034914Y-146034239D02*
X282882533Y-145996143D01*
X282882533Y-145996143D02*
X282692057Y-145996143D01*
X282692057Y-145996143D02*
X282539676Y-146034239D01*
X282539676Y-146034239D02*
X282463485Y-146072334D01*
X282463485Y-146072334D02*
X282425390Y-146110429D01*
X282425390Y-146110429D02*
X282387295Y-146186620D01*
X274767295Y-155737191D02*
X274767295Y-155813381D01*
X274767295Y-155813381D02*
X274805390Y-155889572D01*
X274805390Y-155889572D02*
X274843485Y-155927667D01*
X274843485Y-155927667D02*
X274919676Y-155965762D01*
X274919676Y-155965762D02*
X275072057Y-156003857D01*
X275072057Y-156003857D02*
X275262533Y-156003857D01*
X275262533Y-156003857D02*
X275414914Y-155965762D01*
X275414914Y-155965762D02*
X275491104Y-155927667D01*
X275491104Y-155927667D02*
X275529200Y-155889572D01*
X275529200Y-155889572D02*
X275567295Y-155813381D01*
X275567295Y-155813381D02*
X275567295Y-155737191D01*
X275567295Y-155737191D02*
X275529200Y-155661000D01*
X275529200Y-155661000D02*
X275491104Y-155622905D01*
X275491104Y-155622905D02*
X275414914Y-155584810D01*
X275414914Y-155584810D02*
X275262533Y-155546714D01*
X275262533Y-155546714D02*
X275072057Y-155546714D01*
X275072057Y-155546714D02*
X274919676Y-155584810D01*
X274919676Y-155584810D02*
X274843485Y-155622905D01*
X274843485Y-155622905D02*
X274805390Y-155661000D01*
X274805390Y-155661000D02*
X274767295Y-155737191D01*
X274843485Y-156308619D02*
X274805390Y-156346715D01*
X274805390Y-156346715D02*
X274767295Y-156422905D01*
X274767295Y-156422905D02*
X274767295Y-156613381D01*
X274767295Y-156613381D02*
X274805390Y-156689572D01*
X274805390Y-156689572D02*
X274843485Y-156727667D01*
X274843485Y-156727667D02*
X274919676Y-156765762D01*
X274919676Y-156765762D02*
X274995866Y-156765762D01*
X274995866Y-156765762D02*
X275110152Y-156727667D01*
X275110152Y-156727667D02*
X275567295Y-156270524D01*
X275567295Y-156270524D02*
X275567295Y-156765762D01*
X275567295Y-157146715D02*
X275567295Y-157299096D01*
X275567295Y-157299096D02*
X275529200Y-157375286D01*
X275529200Y-157375286D02*
X275491104Y-157413382D01*
X275491104Y-157413382D02*
X275376819Y-157489572D01*
X275376819Y-157489572D02*
X275224438Y-157527667D01*
X275224438Y-157527667D02*
X274919676Y-157527667D01*
X274919676Y-157527667D02*
X274843485Y-157489572D01*
X274843485Y-157489572D02*
X274805390Y-157451477D01*
X274805390Y-157451477D02*
X274767295Y-157375286D01*
X274767295Y-157375286D02*
X274767295Y-157222905D01*
X274767295Y-157222905D02*
X274805390Y-157146715D01*
X274805390Y-157146715D02*
X274843485Y-157108620D01*
X274843485Y-157108620D02*
X274919676Y-157070524D01*
X274919676Y-157070524D02*
X275110152Y-157070524D01*
X275110152Y-157070524D02*
X275186342Y-157108620D01*
X275186342Y-157108620D02*
X275224438Y-157146715D01*
X275224438Y-157146715D02*
X275262533Y-157222905D01*
X275262533Y-157222905D02*
X275262533Y-157375286D01*
X275262533Y-157375286D02*
X275224438Y-157451477D01*
X275224438Y-157451477D02*
X275186342Y-157489572D01*
X275186342Y-157489572D02*
X275110152Y-157527667D01*
X288267295Y-144929476D02*
X288267295Y-144472333D01*
X288267295Y-144700905D02*
X287467295Y-144700905D01*
X287467295Y-144700905D02*
X287581580Y-144624714D01*
X287581580Y-144624714D02*
X287657771Y-144548524D01*
X287657771Y-144548524D02*
X287695866Y-144472333D01*
X287467295Y-145424715D02*
X287467295Y-145500905D01*
X287467295Y-145500905D02*
X287505390Y-145577096D01*
X287505390Y-145577096D02*
X287543485Y-145615191D01*
X287543485Y-145615191D02*
X287619676Y-145653286D01*
X287619676Y-145653286D02*
X287772057Y-145691381D01*
X287772057Y-145691381D02*
X287962533Y-145691381D01*
X287962533Y-145691381D02*
X288114914Y-145653286D01*
X288114914Y-145653286D02*
X288191104Y-145615191D01*
X288191104Y-145615191D02*
X288229200Y-145577096D01*
X288229200Y-145577096D02*
X288267295Y-145500905D01*
X288267295Y-145500905D02*
X288267295Y-145424715D01*
X288267295Y-145424715D02*
X288229200Y-145348524D01*
X288229200Y-145348524D02*
X288191104Y-145310429D01*
X288191104Y-145310429D02*
X288114914Y-145272334D01*
X288114914Y-145272334D02*
X287962533Y-145234238D01*
X287962533Y-145234238D02*
X287772057Y-145234238D01*
X287772057Y-145234238D02*
X287619676Y-145272334D01*
X287619676Y-145272334D02*
X287543485Y-145310429D01*
X287543485Y-145310429D02*
X287505390Y-145348524D01*
X287505390Y-145348524D02*
X287467295Y-145424715D01*
X287733961Y-146377096D02*
X288267295Y-146377096D01*
X287429200Y-146186620D02*
X288000628Y-145996143D01*
X288000628Y-145996143D02*
X288000628Y-146491382D01*
X274837295Y-144662810D02*
X274837295Y-144739000D01*
X274837295Y-144739000D02*
X274875390Y-144815191D01*
X274875390Y-144815191D02*
X274913485Y-144853286D01*
X274913485Y-144853286D02*
X274989676Y-144891381D01*
X274989676Y-144891381D02*
X275142057Y-144929476D01*
X275142057Y-144929476D02*
X275332533Y-144929476D01*
X275332533Y-144929476D02*
X275484914Y-144891381D01*
X275484914Y-144891381D02*
X275561104Y-144853286D01*
X275561104Y-144853286D02*
X275599200Y-144815191D01*
X275599200Y-144815191D02*
X275637295Y-144739000D01*
X275637295Y-144739000D02*
X275637295Y-144662810D01*
X275637295Y-144662810D02*
X275599200Y-144586619D01*
X275599200Y-144586619D02*
X275561104Y-144548524D01*
X275561104Y-144548524D02*
X275484914Y-144510429D01*
X275484914Y-144510429D02*
X275332533Y-144472333D01*
X275332533Y-144472333D02*
X275142057Y-144472333D01*
X275142057Y-144472333D02*
X274989676Y-144510429D01*
X274989676Y-144510429D02*
X274913485Y-144548524D01*
X274913485Y-144548524D02*
X274875390Y-144586619D01*
X274875390Y-144586619D02*
X274837295Y-144662810D01*
X274913485Y-145234238D02*
X274875390Y-145272334D01*
X274875390Y-145272334D02*
X274837295Y-145348524D01*
X274837295Y-145348524D02*
X274837295Y-145539000D01*
X274837295Y-145539000D02*
X274875390Y-145615191D01*
X274875390Y-145615191D02*
X274913485Y-145653286D01*
X274913485Y-145653286D02*
X274989676Y-145691381D01*
X274989676Y-145691381D02*
X275065866Y-145691381D01*
X275065866Y-145691381D02*
X275180152Y-145653286D01*
X275180152Y-145653286D02*
X275637295Y-145196143D01*
X275637295Y-145196143D02*
X275637295Y-145691381D01*
X274837295Y-146186620D02*
X274837295Y-146262810D01*
X274837295Y-146262810D02*
X274875390Y-146339001D01*
X274875390Y-146339001D02*
X274913485Y-146377096D01*
X274913485Y-146377096D02*
X274989676Y-146415191D01*
X274989676Y-146415191D02*
X275142057Y-146453286D01*
X275142057Y-146453286D02*
X275332533Y-146453286D01*
X275332533Y-146453286D02*
X275484914Y-146415191D01*
X275484914Y-146415191D02*
X275561104Y-146377096D01*
X275561104Y-146377096D02*
X275599200Y-146339001D01*
X275599200Y-146339001D02*
X275637295Y-146262810D01*
X275637295Y-146262810D02*
X275637295Y-146186620D01*
X275637295Y-146186620D02*
X275599200Y-146110429D01*
X275599200Y-146110429D02*
X275561104Y-146072334D01*
X275561104Y-146072334D02*
X275484914Y-146034239D01*
X275484914Y-146034239D02*
X275332533Y-145996143D01*
X275332533Y-145996143D02*
X275142057Y-145996143D01*
X275142057Y-145996143D02*
X274989676Y-146034239D01*
X274989676Y-146034239D02*
X274913485Y-146072334D01*
X274913485Y-146072334D02*
X274875390Y-146110429D01*
X274875390Y-146110429D02*
X274837295Y-146186620D01*
X269687295Y-155470524D02*
X270487295Y-155737191D01*
X270487295Y-155737191D02*
X269687295Y-156003857D01*
X270411104Y-156727667D02*
X270449200Y-156689571D01*
X270449200Y-156689571D02*
X270487295Y-156575286D01*
X270487295Y-156575286D02*
X270487295Y-156499095D01*
X270487295Y-156499095D02*
X270449200Y-156384809D01*
X270449200Y-156384809D02*
X270373009Y-156308619D01*
X270373009Y-156308619D02*
X270296819Y-156270524D01*
X270296819Y-156270524D02*
X270144438Y-156232428D01*
X270144438Y-156232428D02*
X270030152Y-156232428D01*
X270030152Y-156232428D02*
X269877771Y-156270524D01*
X269877771Y-156270524D02*
X269801580Y-156308619D01*
X269801580Y-156308619D02*
X269725390Y-156384809D01*
X269725390Y-156384809D02*
X269687295Y-156499095D01*
X269687295Y-156499095D02*
X269687295Y-156575286D01*
X269687295Y-156575286D02*
X269725390Y-156689571D01*
X269725390Y-156689571D02*
X269763485Y-156727667D01*
X270411104Y-157527667D02*
X270449200Y-157489571D01*
X270449200Y-157489571D02*
X270487295Y-157375286D01*
X270487295Y-157375286D02*
X270487295Y-157299095D01*
X270487295Y-157299095D02*
X270449200Y-157184809D01*
X270449200Y-157184809D02*
X270373009Y-157108619D01*
X270373009Y-157108619D02*
X270296819Y-157070524D01*
X270296819Y-157070524D02*
X270144438Y-157032428D01*
X270144438Y-157032428D02*
X270030152Y-157032428D01*
X270030152Y-157032428D02*
X269877771Y-157070524D01*
X269877771Y-157070524D02*
X269801580Y-157108619D01*
X269801580Y-157108619D02*
X269725390Y-157184809D01*
X269725390Y-157184809D02*
X269687295Y-157299095D01*
X269687295Y-157299095D02*
X269687295Y-157375286D01*
X269687295Y-157375286D02*
X269725390Y-157489571D01*
X269725390Y-157489571D02*
X269763485Y-157527667D01*
X262067295Y-144662810D02*
X262067295Y-144739000D01*
X262067295Y-144739000D02*
X262105390Y-144815191D01*
X262105390Y-144815191D02*
X262143485Y-144853286D01*
X262143485Y-144853286D02*
X262219676Y-144891381D01*
X262219676Y-144891381D02*
X262372057Y-144929476D01*
X262372057Y-144929476D02*
X262562533Y-144929476D01*
X262562533Y-144929476D02*
X262714914Y-144891381D01*
X262714914Y-144891381D02*
X262791104Y-144853286D01*
X262791104Y-144853286D02*
X262829200Y-144815191D01*
X262829200Y-144815191D02*
X262867295Y-144739000D01*
X262867295Y-144739000D02*
X262867295Y-144662810D01*
X262867295Y-144662810D02*
X262829200Y-144586619D01*
X262829200Y-144586619D02*
X262791104Y-144548524D01*
X262791104Y-144548524D02*
X262714914Y-144510429D01*
X262714914Y-144510429D02*
X262562533Y-144472333D01*
X262562533Y-144472333D02*
X262372057Y-144472333D01*
X262372057Y-144472333D02*
X262219676Y-144510429D01*
X262219676Y-144510429D02*
X262143485Y-144548524D01*
X262143485Y-144548524D02*
X262105390Y-144586619D01*
X262105390Y-144586619D02*
X262067295Y-144662810D01*
X262067295Y-145424715D02*
X262067295Y-145500905D01*
X262067295Y-145500905D02*
X262105390Y-145577096D01*
X262105390Y-145577096D02*
X262143485Y-145615191D01*
X262143485Y-145615191D02*
X262219676Y-145653286D01*
X262219676Y-145653286D02*
X262372057Y-145691381D01*
X262372057Y-145691381D02*
X262562533Y-145691381D01*
X262562533Y-145691381D02*
X262714914Y-145653286D01*
X262714914Y-145653286D02*
X262791104Y-145615191D01*
X262791104Y-145615191D02*
X262829200Y-145577096D01*
X262829200Y-145577096D02*
X262867295Y-145500905D01*
X262867295Y-145500905D02*
X262867295Y-145424715D01*
X262867295Y-145424715D02*
X262829200Y-145348524D01*
X262829200Y-145348524D02*
X262791104Y-145310429D01*
X262791104Y-145310429D02*
X262714914Y-145272334D01*
X262714914Y-145272334D02*
X262562533Y-145234238D01*
X262562533Y-145234238D02*
X262372057Y-145234238D01*
X262372057Y-145234238D02*
X262219676Y-145272334D01*
X262219676Y-145272334D02*
X262143485Y-145310429D01*
X262143485Y-145310429D02*
X262105390Y-145348524D01*
X262105390Y-145348524D02*
X262067295Y-145424715D01*
X262067295Y-146377096D02*
X262067295Y-146224715D01*
X262067295Y-146224715D02*
X262105390Y-146148524D01*
X262105390Y-146148524D02*
X262143485Y-146110429D01*
X262143485Y-146110429D02*
X262257771Y-146034239D01*
X262257771Y-146034239D02*
X262410152Y-145996143D01*
X262410152Y-145996143D02*
X262714914Y-145996143D01*
X262714914Y-145996143D02*
X262791104Y-146034239D01*
X262791104Y-146034239D02*
X262829200Y-146072334D01*
X262829200Y-146072334D02*
X262867295Y-146148524D01*
X262867295Y-146148524D02*
X262867295Y-146300905D01*
X262867295Y-146300905D02*
X262829200Y-146377096D01*
X262829200Y-146377096D02*
X262791104Y-146415191D01*
X262791104Y-146415191D02*
X262714914Y-146453286D01*
X262714914Y-146453286D02*
X262524438Y-146453286D01*
X262524438Y-146453286D02*
X262448247Y-146415191D01*
X262448247Y-146415191D02*
X262410152Y-146377096D01*
X262410152Y-146377096D02*
X262372057Y-146300905D01*
X262372057Y-146300905D02*
X262372057Y-146148524D01*
X262372057Y-146148524D02*
X262410152Y-146072334D01*
X262410152Y-146072334D02*
X262448247Y-146034239D01*
X262448247Y-146034239D02*
X262524438Y-145996143D01*
X262867295Y-155921334D02*
X262486342Y-155654667D01*
X262867295Y-155464191D02*
X262067295Y-155464191D01*
X262067295Y-155464191D02*
X262067295Y-155768953D01*
X262067295Y-155768953D02*
X262105390Y-155845143D01*
X262105390Y-155845143D02*
X262143485Y-155883238D01*
X262143485Y-155883238D02*
X262219676Y-155921334D01*
X262219676Y-155921334D02*
X262333961Y-155921334D01*
X262333961Y-155921334D02*
X262410152Y-155883238D01*
X262410152Y-155883238D02*
X262448247Y-155845143D01*
X262448247Y-155845143D02*
X262486342Y-155768953D01*
X262486342Y-155768953D02*
X262486342Y-155464191D01*
X262638723Y-156226095D02*
X262638723Y-156607048D01*
X262867295Y-156149905D02*
X262067295Y-156416572D01*
X262067295Y-156416572D02*
X262867295Y-156683238D01*
X262067295Y-156873714D02*
X262867295Y-157064190D01*
X262867295Y-157064190D02*
X262295866Y-157216571D01*
X262295866Y-157216571D02*
X262867295Y-157368952D01*
X262867295Y-157368952D02*
X262067295Y-157559429D01*
X264537295Y-144662810D02*
X264537295Y-144739000D01*
X264537295Y-144739000D02*
X264575390Y-144815191D01*
X264575390Y-144815191D02*
X264613485Y-144853286D01*
X264613485Y-144853286D02*
X264689676Y-144891381D01*
X264689676Y-144891381D02*
X264842057Y-144929476D01*
X264842057Y-144929476D02*
X265032533Y-144929476D01*
X265032533Y-144929476D02*
X265184914Y-144891381D01*
X265184914Y-144891381D02*
X265261104Y-144853286D01*
X265261104Y-144853286D02*
X265299200Y-144815191D01*
X265299200Y-144815191D02*
X265337295Y-144739000D01*
X265337295Y-144739000D02*
X265337295Y-144662810D01*
X265337295Y-144662810D02*
X265299200Y-144586619D01*
X265299200Y-144586619D02*
X265261104Y-144548524D01*
X265261104Y-144548524D02*
X265184914Y-144510429D01*
X265184914Y-144510429D02*
X265032533Y-144472333D01*
X265032533Y-144472333D02*
X264842057Y-144472333D01*
X264842057Y-144472333D02*
X264689676Y-144510429D01*
X264689676Y-144510429D02*
X264613485Y-144548524D01*
X264613485Y-144548524D02*
X264575390Y-144586619D01*
X264575390Y-144586619D02*
X264537295Y-144662810D01*
X264537295Y-145424715D02*
X264537295Y-145500905D01*
X264537295Y-145500905D02*
X264575390Y-145577096D01*
X264575390Y-145577096D02*
X264613485Y-145615191D01*
X264613485Y-145615191D02*
X264689676Y-145653286D01*
X264689676Y-145653286D02*
X264842057Y-145691381D01*
X264842057Y-145691381D02*
X265032533Y-145691381D01*
X265032533Y-145691381D02*
X265184914Y-145653286D01*
X265184914Y-145653286D02*
X265261104Y-145615191D01*
X265261104Y-145615191D02*
X265299200Y-145577096D01*
X265299200Y-145577096D02*
X265337295Y-145500905D01*
X265337295Y-145500905D02*
X265337295Y-145424715D01*
X265337295Y-145424715D02*
X265299200Y-145348524D01*
X265299200Y-145348524D02*
X265261104Y-145310429D01*
X265261104Y-145310429D02*
X265184914Y-145272334D01*
X265184914Y-145272334D02*
X265032533Y-145234238D01*
X265032533Y-145234238D02*
X264842057Y-145234238D01*
X264842057Y-145234238D02*
X264689676Y-145272334D01*
X264689676Y-145272334D02*
X264613485Y-145310429D01*
X264613485Y-145310429D02*
X264575390Y-145348524D01*
X264575390Y-145348524D02*
X264537295Y-145424715D01*
X264880152Y-146148524D02*
X264842057Y-146072334D01*
X264842057Y-146072334D02*
X264803961Y-146034239D01*
X264803961Y-146034239D02*
X264727771Y-145996143D01*
X264727771Y-145996143D02*
X264689676Y-145996143D01*
X264689676Y-145996143D02*
X264613485Y-146034239D01*
X264613485Y-146034239D02*
X264575390Y-146072334D01*
X264575390Y-146072334D02*
X264537295Y-146148524D01*
X264537295Y-146148524D02*
X264537295Y-146300905D01*
X264537295Y-146300905D02*
X264575390Y-146377096D01*
X264575390Y-146377096D02*
X264613485Y-146415191D01*
X264613485Y-146415191D02*
X264689676Y-146453286D01*
X264689676Y-146453286D02*
X264727771Y-146453286D01*
X264727771Y-146453286D02*
X264803961Y-146415191D01*
X264803961Y-146415191D02*
X264842057Y-146377096D01*
X264842057Y-146377096D02*
X264880152Y-146300905D01*
X264880152Y-146300905D02*
X264880152Y-146148524D01*
X264880152Y-146148524D02*
X264918247Y-146072334D01*
X264918247Y-146072334D02*
X264956342Y-146034239D01*
X264956342Y-146034239D02*
X265032533Y-145996143D01*
X265032533Y-145996143D02*
X265184914Y-145996143D01*
X265184914Y-145996143D02*
X265261104Y-146034239D01*
X265261104Y-146034239D02*
X265299200Y-146072334D01*
X265299200Y-146072334D02*
X265337295Y-146148524D01*
X265337295Y-146148524D02*
X265337295Y-146300905D01*
X265337295Y-146300905D02*
X265299200Y-146377096D01*
X265299200Y-146377096D02*
X265261104Y-146415191D01*
X265261104Y-146415191D02*
X265184914Y-146453286D01*
X265184914Y-146453286D02*
X265032533Y-146453286D01*
X265032533Y-146453286D02*
X264956342Y-146415191D01*
X264956342Y-146415191D02*
X264918247Y-146377096D01*
X264918247Y-146377096D02*
X264880152Y-146300905D01*
X277337295Y-144662810D02*
X277337295Y-144739000D01*
X277337295Y-144739000D02*
X277375390Y-144815191D01*
X277375390Y-144815191D02*
X277413485Y-144853286D01*
X277413485Y-144853286D02*
X277489676Y-144891381D01*
X277489676Y-144891381D02*
X277642057Y-144929476D01*
X277642057Y-144929476D02*
X277832533Y-144929476D01*
X277832533Y-144929476D02*
X277984914Y-144891381D01*
X277984914Y-144891381D02*
X278061104Y-144853286D01*
X278061104Y-144853286D02*
X278099200Y-144815191D01*
X278099200Y-144815191D02*
X278137295Y-144739000D01*
X278137295Y-144739000D02*
X278137295Y-144662810D01*
X278137295Y-144662810D02*
X278099200Y-144586619D01*
X278099200Y-144586619D02*
X278061104Y-144548524D01*
X278061104Y-144548524D02*
X277984914Y-144510429D01*
X277984914Y-144510429D02*
X277832533Y-144472333D01*
X277832533Y-144472333D02*
X277642057Y-144472333D01*
X277642057Y-144472333D02*
X277489676Y-144510429D01*
X277489676Y-144510429D02*
X277413485Y-144548524D01*
X277413485Y-144548524D02*
X277375390Y-144586619D01*
X277375390Y-144586619D02*
X277337295Y-144662810D01*
X277413485Y-145234238D02*
X277375390Y-145272334D01*
X277375390Y-145272334D02*
X277337295Y-145348524D01*
X277337295Y-145348524D02*
X277337295Y-145539000D01*
X277337295Y-145539000D02*
X277375390Y-145615191D01*
X277375390Y-145615191D02*
X277413485Y-145653286D01*
X277413485Y-145653286D02*
X277489676Y-145691381D01*
X277489676Y-145691381D02*
X277565866Y-145691381D01*
X277565866Y-145691381D02*
X277680152Y-145653286D01*
X277680152Y-145653286D02*
X278137295Y-145196143D01*
X278137295Y-145196143D02*
X278137295Y-145691381D01*
X277413485Y-145996143D02*
X277375390Y-146034239D01*
X277375390Y-146034239D02*
X277337295Y-146110429D01*
X277337295Y-146110429D02*
X277337295Y-146300905D01*
X277337295Y-146300905D02*
X277375390Y-146377096D01*
X277375390Y-146377096D02*
X277413485Y-146415191D01*
X277413485Y-146415191D02*
X277489676Y-146453286D01*
X277489676Y-146453286D02*
X277565866Y-146453286D01*
X277565866Y-146453286D02*
X277680152Y-146415191D01*
X277680152Y-146415191D02*
X278137295Y-145958048D01*
X278137295Y-145958048D02*
X278137295Y-146453286D01*
X267947295Y-156149905D02*
X267566342Y-155883238D01*
X267947295Y-155692762D02*
X267147295Y-155692762D01*
X267147295Y-155692762D02*
X267147295Y-155997524D01*
X267147295Y-155997524D02*
X267185390Y-156073714D01*
X267185390Y-156073714D02*
X267223485Y-156111809D01*
X267223485Y-156111809D02*
X267299676Y-156149905D01*
X267299676Y-156149905D02*
X267413961Y-156149905D01*
X267413961Y-156149905D02*
X267490152Y-156111809D01*
X267490152Y-156111809D02*
X267528247Y-156073714D01*
X267528247Y-156073714D02*
X267566342Y-155997524D01*
X267566342Y-155997524D02*
X267566342Y-155692762D01*
X267909200Y-156454666D02*
X267947295Y-156568952D01*
X267947295Y-156568952D02*
X267947295Y-156759428D01*
X267947295Y-156759428D02*
X267909200Y-156835619D01*
X267909200Y-156835619D02*
X267871104Y-156873714D01*
X267871104Y-156873714D02*
X267794914Y-156911809D01*
X267794914Y-156911809D02*
X267718723Y-156911809D01*
X267718723Y-156911809D02*
X267642533Y-156873714D01*
X267642533Y-156873714D02*
X267604438Y-156835619D01*
X267604438Y-156835619D02*
X267566342Y-156759428D01*
X267566342Y-156759428D02*
X267528247Y-156607047D01*
X267528247Y-156607047D02*
X267490152Y-156530857D01*
X267490152Y-156530857D02*
X267452057Y-156492762D01*
X267452057Y-156492762D02*
X267375866Y-156454666D01*
X267375866Y-156454666D02*
X267299676Y-156454666D01*
X267299676Y-156454666D02*
X267223485Y-156492762D01*
X267223485Y-156492762D02*
X267185390Y-156530857D01*
X267185390Y-156530857D02*
X267147295Y-156607047D01*
X267147295Y-156607047D02*
X267147295Y-156797524D01*
X267147295Y-156797524D02*
X267185390Y-156911809D01*
X267147295Y-157140381D02*
X267147295Y-157597524D01*
X267947295Y-157368952D02*
X267147295Y-157368952D01*
X283187295Y-156003857D02*
X283187295Y-155546714D01*
X283187295Y-155775286D02*
X282387295Y-155775286D01*
X282387295Y-155775286D02*
X282501580Y-155699095D01*
X282501580Y-155699095D02*
X282577771Y-155622905D01*
X282577771Y-155622905D02*
X282615866Y-155546714D01*
X283187295Y-156765762D02*
X283187295Y-156308619D01*
X283187295Y-156537191D02*
X282387295Y-156537191D01*
X282387295Y-156537191D02*
X282501580Y-156461000D01*
X282501580Y-156461000D02*
X282577771Y-156384810D01*
X282577771Y-156384810D02*
X282615866Y-156308619D01*
X282387295Y-157032429D02*
X282387295Y-157527667D01*
X282387295Y-157527667D02*
X282692057Y-157261001D01*
X282692057Y-157261001D02*
X282692057Y-157375286D01*
X282692057Y-157375286D02*
X282730152Y-157451477D01*
X282730152Y-157451477D02*
X282768247Y-157489572D01*
X282768247Y-157489572D02*
X282844438Y-157527667D01*
X282844438Y-157527667D02*
X283034914Y-157527667D01*
X283034914Y-157527667D02*
X283111104Y-157489572D01*
X283111104Y-157489572D02*
X283149200Y-157451477D01*
X283149200Y-157451477D02*
X283187295Y-157375286D01*
X283187295Y-157375286D02*
X283187295Y-157146715D01*
X283187295Y-157146715D02*
X283149200Y-157070524D01*
X283149200Y-157070524D02*
X283111104Y-157032429D01*
X267185390Y-144929476D02*
X267147295Y-144853286D01*
X267147295Y-144853286D02*
X267147295Y-144739000D01*
X267147295Y-144739000D02*
X267185390Y-144624714D01*
X267185390Y-144624714D02*
X267261580Y-144548524D01*
X267261580Y-144548524D02*
X267337771Y-144510429D01*
X267337771Y-144510429D02*
X267490152Y-144472333D01*
X267490152Y-144472333D02*
X267604438Y-144472333D01*
X267604438Y-144472333D02*
X267756819Y-144510429D01*
X267756819Y-144510429D02*
X267833009Y-144548524D01*
X267833009Y-144548524D02*
X267909200Y-144624714D01*
X267909200Y-144624714D02*
X267947295Y-144739000D01*
X267947295Y-144739000D02*
X267947295Y-144815191D01*
X267947295Y-144815191D02*
X267909200Y-144929476D01*
X267909200Y-144929476D02*
X267871104Y-144967572D01*
X267871104Y-144967572D02*
X267604438Y-144967572D01*
X267604438Y-144967572D02*
X267604438Y-144815191D01*
X267947295Y-145310429D02*
X267147295Y-145310429D01*
X267147295Y-145310429D02*
X267947295Y-145767572D01*
X267947295Y-145767572D02*
X267147295Y-145767572D01*
X267947295Y-146148524D02*
X267147295Y-146148524D01*
X267147295Y-146148524D02*
X267147295Y-146339000D01*
X267147295Y-146339000D02*
X267185390Y-146453286D01*
X267185390Y-146453286D02*
X267261580Y-146529476D01*
X267261580Y-146529476D02*
X267337771Y-146567571D01*
X267337771Y-146567571D02*
X267490152Y-146605667D01*
X267490152Y-146605667D02*
X267604438Y-146605667D01*
X267604438Y-146605667D02*
X267756819Y-146567571D01*
X267756819Y-146567571D02*
X267833009Y-146529476D01*
X267833009Y-146529476D02*
X267909200Y-146453286D01*
X267909200Y-146453286D02*
X267947295Y-146339000D01*
X267947295Y-146339000D02*
X267947295Y-146148524D01*
X287467295Y-155737191D02*
X287467295Y-155813381D01*
X287467295Y-155813381D02*
X287505390Y-155889572D01*
X287505390Y-155889572D02*
X287543485Y-155927667D01*
X287543485Y-155927667D02*
X287619676Y-155965762D01*
X287619676Y-155965762D02*
X287772057Y-156003857D01*
X287772057Y-156003857D02*
X287962533Y-156003857D01*
X287962533Y-156003857D02*
X288114914Y-155965762D01*
X288114914Y-155965762D02*
X288191104Y-155927667D01*
X288191104Y-155927667D02*
X288229200Y-155889572D01*
X288229200Y-155889572D02*
X288267295Y-155813381D01*
X288267295Y-155813381D02*
X288267295Y-155737191D01*
X288267295Y-155737191D02*
X288229200Y-155661000D01*
X288229200Y-155661000D02*
X288191104Y-155622905D01*
X288191104Y-155622905D02*
X288114914Y-155584810D01*
X288114914Y-155584810D02*
X287962533Y-155546714D01*
X287962533Y-155546714D02*
X287772057Y-155546714D01*
X287772057Y-155546714D02*
X287619676Y-155584810D01*
X287619676Y-155584810D02*
X287543485Y-155622905D01*
X287543485Y-155622905D02*
X287505390Y-155661000D01*
X287505390Y-155661000D02*
X287467295Y-155737191D01*
X288267295Y-156765762D02*
X288267295Y-156308619D01*
X288267295Y-156537191D02*
X287467295Y-156537191D01*
X287467295Y-156537191D02*
X287581580Y-156461000D01*
X287581580Y-156461000D02*
X287657771Y-156384810D01*
X287657771Y-156384810D02*
X287695866Y-156308619D01*
X287467295Y-157261001D02*
X287467295Y-157337191D01*
X287467295Y-157337191D02*
X287505390Y-157413382D01*
X287505390Y-157413382D02*
X287543485Y-157451477D01*
X287543485Y-157451477D02*
X287619676Y-157489572D01*
X287619676Y-157489572D02*
X287772057Y-157527667D01*
X287772057Y-157527667D02*
X287962533Y-157527667D01*
X287962533Y-157527667D02*
X288114914Y-157489572D01*
X288114914Y-157489572D02*
X288191104Y-157451477D01*
X288191104Y-157451477D02*
X288229200Y-157413382D01*
X288229200Y-157413382D02*
X288267295Y-157337191D01*
X288267295Y-157337191D02*
X288267295Y-157261001D01*
X288267295Y-157261001D02*
X288229200Y-157184810D01*
X288229200Y-157184810D02*
X288191104Y-157146715D01*
X288191104Y-157146715D02*
X288114914Y-157108620D01*
X288114914Y-157108620D02*
X287962533Y-157070524D01*
X287962533Y-157070524D02*
X287772057Y-157070524D01*
X287772057Y-157070524D02*
X287619676Y-157108620D01*
X287619676Y-157108620D02*
X287543485Y-157146715D01*
X287543485Y-157146715D02*
X287505390Y-157184810D01*
X287505390Y-157184810D02*
X287467295Y-157261001D01*
X280647295Y-156003857D02*
X280647295Y-155546714D01*
X280647295Y-155775286D02*
X279847295Y-155775286D01*
X279847295Y-155775286D02*
X279961580Y-155699095D01*
X279961580Y-155699095D02*
X280037771Y-155622905D01*
X280037771Y-155622905D02*
X280075866Y-155546714D01*
X280647295Y-156765762D02*
X280647295Y-156308619D01*
X280647295Y-156537191D02*
X279847295Y-156537191D01*
X279847295Y-156537191D02*
X279961580Y-156461000D01*
X279961580Y-156461000D02*
X280037771Y-156384810D01*
X280037771Y-156384810D02*
X280075866Y-156308619D01*
X279847295Y-157489572D02*
X279847295Y-157108620D01*
X279847295Y-157108620D02*
X280228247Y-157070524D01*
X280228247Y-157070524D02*
X280190152Y-157108620D01*
X280190152Y-157108620D02*
X280152057Y-157184810D01*
X280152057Y-157184810D02*
X280152057Y-157375286D01*
X280152057Y-157375286D02*
X280190152Y-157451477D01*
X280190152Y-157451477D02*
X280228247Y-157489572D01*
X280228247Y-157489572D02*
X280304438Y-157527667D01*
X280304438Y-157527667D02*
X280494914Y-157527667D01*
X280494914Y-157527667D02*
X280571104Y-157489572D01*
X280571104Y-157489572D02*
X280609200Y-157451477D01*
X280609200Y-157451477D02*
X280647295Y-157375286D01*
X280647295Y-157375286D02*
X280647295Y-157184810D01*
X280647295Y-157184810D02*
X280609200Y-157108620D01*
X280609200Y-157108620D02*
X280571104Y-157070524D01*
X272237295Y-144662810D02*
X272237295Y-144739000D01*
X272237295Y-144739000D02*
X272275390Y-144815191D01*
X272275390Y-144815191D02*
X272313485Y-144853286D01*
X272313485Y-144853286D02*
X272389676Y-144891381D01*
X272389676Y-144891381D02*
X272542057Y-144929476D01*
X272542057Y-144929476D02*
X272732533Y-144929476D01*
X272732533Y-144929476D02*
X272884914Y-144891381D01*
X272884914Y-144891381D02*
X272961104Y-144853286D01*
X272961104Y-144853286D02*
X272999200Y-144815191D01*
X272999200Y-144815191D02*
X273037295Y-144739000D01*
X273037295Y-144739000D02*
X273037295Y-144662810D01*
X273037295Y-144662810D02*
X272999200Y-144586619D01*
X272999200Y-144586619D02*
X272961104Y-144548524D01*
X272961104Y-144548524D02*
X272884914Y-144510429D01*
X272884914Y-144510429D02*
X272732533Y-144472333D01*
X272732533Y-144472333D02*
X272542057Y-144472333D01*
X272542057Y-144472333D02*
X272389676Y-144510429D01*
X272389676Y-144510429D02*
X272313485Y-144548524D01*
X272313485Y-144548524D02*
X272275390Y-144586619D01*
X272275390Y-144586619D02*
X272237295Y-144662810D01*
X273037295Y-145691381D02*
X273037295Y-145234238D01*
X273037295Y-145462810D02*
X272237295Y-145462810D01*
X272237295Y-145462810D02*
X272351580Y-145386619D01*
X272351580Y-145386619D02*
X272427771Y-145310429D01*
X272427771Y-145310429D02*
X272465866Y-145234238D01*
X272237295Y-145958048D02*
X272237295Y-146491382D01*
X272237295Y-146491382D02*
X273037295Y-146148524D01*
X269725390Y-144929476D02*
X269687295Y-144853286D01*
X269687295Y-144853286D02*
X269687295Y-144739000D01*
X269687295Y-144739000D02*
X269725390Y-144624714D01*
X269725390Y-144624714D02*
X269801580Y-144548524D01*
X269801580Y-144548524D02*
X269877771Y-144510429D01*
X269877771Y-144510429D02*
X270030152Y-144472333D01*
X270030152Y-144472333D02*
X270144438Y-144472333D01*
X270144438Y-144472333D02*
X270296819Y-144510429D01*
X270296819Y-144510429D02*
X270373009Y-144548524D01*
X270373009Y-144548524D02*
X270449200Y-144624714D01*
X270449200Y-144624714D02*
X270487295Y-144739000D01*
X270487295Y-144739000D02*
X270487295Y-144815191D01*
X270487295Y-144815191D02*
X270449200Y-144929476D01*
X270449200Y-144929476D02*
X270411104Y-144967572D01*
X270411104Y-144967572D02*
X270144438Y-144967572D01*
X270144438Y-144967572D02*
X270144438Y-144815191D01*
X270487295Y-145310429D02*
X269687295Y-145310429D01*
X269687295Y-145310429D02*
X270487295Y-145767572D01*
X270487295Y-145767572D02*
X269687295Y-145767572D01*
X270487295Y-146148524D02*
X269687295Y-146148524D01*
X269687295Y-146148524D02*
X269687295Y-146339000D01*
X269687295Y-146339000D02*
X269725390Y-146453286D01*
X269725390Y-146453286D02*
X269801580Y-146529476D01*
X269801580Y-146529476D02*
X269877771Y-146567571D01*
X269877771Y-146567571D02*
X270030152Y-146605667D01*
X270030152Y-146605667D02*
X270144438Y-146605667D01*
X270144438Y-146605667D02*
X270296819Y-146567571D01*
X270296819Y-146567571D02*
X270373009Y-146529476D01*
X270373009Y-146529476D02*
X270449200Y-146453286D01*
X270449200Y-146453286D02*
X270487295Y-146339000D01*
X270487295Y-146339000D02*
X270487295Y-146148524D01*
X272227295Y-155737191D02*
X272227295Y-155813381D01*
X272227295Y-155813381D02*
X272265390Y-155889572D01*
X272265390Y-155889572D02*
X272303485Y-155927667D01*
X272303485Y-155927667D02*
X272379676Y-155965762D01*
X272379676Y-155965762D02*
X272532057Y-156003857D01*
X272532057Y-156003857D02*
X272722533Y-156003857D01*
X272722533Y-156003857D02*
X272874914Y-155965762D01*
X272874914Y-155965762D02*
X272951104Y-155927667D01*
X272951104Y-155927667D02*
X272989200Y-155889572D01*
X272989200Y-155889572D02*
X273027295Y-155813381D01*
X273027295Y-155813381D02*
X273027295Y-155737191D01*
X273027295Y-155737191D02*
X272989200Y-155661000D01*
X272989200Y-155661000D02*
X272951104Y-155622905D01*
X272951104Y-155622905D02*
X272874914Y-155584810D01*
X272874914Y-155584810D02*
X272722533Y-155546714D01*
X272722533Y-155546714D02*
X272532057Y-155546714D01*
X272532057Y-155546714D02*
X272379676Y-155584810D01*
X272379676Y-155584810D02*
X272303485Y-155622905D01*
X272303485Y-155622905D02*
X272265390Y-155661000D01*
X272265390Y-155661000D02*
X272227295Y-155737191D01*
X272227295Y-156270524D02*
X272227295Y-156765762D01*
X272227295Y-156765762D02*
X272532057Y-156499096D01*
X272532057Y-156499096D02*
X272532057Y-156613381D01*
X272532057Y-156613381D02*
X272570152Y-156689572D01*
X272570152Y-156689572D02*
X272608247Y-156727667D01*
X272608247Y-156727667D02*
X272684438Y-156765762D01*
X272684438Y-156765762D02*
X272874914Y-156765762D01*
X272874914Y-156765762D02*
X272951104Y-156727667D01*
X272951104Y-156727667D02*
X272989200Y-156689572D01*
X272989200Y-156689572D02*
X273027295Y-156613381D01*
X273027295Y-156613381D02*
X273027295Y-156384810D01*
X273027295Y-156384810D02*
X272989200Y-156308619D01*
X272989200Y-156308619D02*
X272951104Y-156270524D01*
X273027295Y-157527667D02*
X273027295Y-157070524D01*
X273027295Y-157299096D02*
X272227295Y-157299096D01*
X272227295Y-157299096D02*
X272341580Y-157222905D01*
X272341580Y-157222905D02*
X272417771Y-157146715D01*
X272417771Y-157146715D02*
X272455866Y-157070524D01*
X285727295Y-156003857D02*
X285727295Y-155546714D01*
X285727295Y-155775286D02*
X284927295Y-155775286D01*
X284927295Y-155775286D02*
X285041580Y-155699095D01*
X285041580Y-155699095D02*
X285117771Y-155622905D01*
X285117771Y-155622905D02*
X285155866Y-155546714D01*
X285727295Y-156765762D02*
X285727295Y-156308619D01*
X285727295Y-156537191D02*
X284927295Y-156537191D01*
X284927295Y-156537191D02*
X285041580Y-156461000D01*
X285041580Y-156461000D02*
X285117771Y-156384810D01*
X285117771Y-156384810D02*
X285155866Y-156308619D01*
X285727295Y-157527667D02*
X285727295Y-157070524D01*
X285727295Y-157299096D02*
X284927295Y-157299096D01*
X284927295Y-157299096D02*
X285041580Y-157222905D01*
X285041580Y-157222905D02*
X285117771Y-157146715D01*
X285117771Y-157146715D02*
X285155866Y-157070524D01*
X264645390Y-155845143D02*
X264607295Y-155768953D01*
X264607295Y-155768953D02*
X264607295Y-155654667D01*
X264607295Y-155654667D02*
X264645390Y-155540381D01*
X264645390Y-155540381D02*
X264721580Y-155464191D01*
X264721580Y-155464191D02*
X264797771Y-155426096D01*
X264797771Y-155426096D02*
X264950152Y-155388000D01*
X264950152Y-155388000D02*
X265064438Y-155388000D01*
X265064438Y-155388000D02*
X265216819Y-155426096D01*
X265216819Y-155426096D02*
X265293009Y-155464191D01*
X265293009Y-155464191D02*
X265369200Y-155540381D01*
X265369200Y-155540381D02*
X265407295Y-155654667D01*
X265407295Y-155654667D02*
X265407295Y-155730858D01*
X265407295Y-155730858D02*
X265369200Y-155845143D01*
X265369200Y-155845143D02*
X265331104Y-155883239D01*
X265331104Y-155883239D02*
X265064438Y-155883239D01*
X265064438Y-155883239D02*
X265064438Y-155730858D01*
X265407295Y-156226096D02*
X264607295Y-156226096D01*
X264607295Y-156226096D02*
X265407295Y-156683239D01*
X265407295Y-156683239D02*
X264607295Y-156683239D01*
X265407295Y-157064191D02*
X264607295Y-157064191D01*
X264607295Y-157064191D02*
X264607295Y-157254667D01*
X264607295Y-157254667D02*
X264645390Y-157368953D01*
X264645390Y-157368953D02*
X264721580Y-157445143D01*
X264721580Y-157445143D02*
X264797771Y-157483238D01*
X264797771Y-157483238D02*
X264950152Y-157521334D01*
X264950152Y-157521334D02*
X265064438Y-157521334D01*
X265064438Y-157521334D02*
X265216819Y-157483238D01*
X265216819Y-157483238D02*
X265293009Y-157445143D01*
X265293009Y-157445143D02*
X265369200Y-157368953D01*
X265369200Y-157368953D02*
X265407295Y-157254667D01*
X265407295Y-157254667D02*
X265407295Y-157064191D01*
%TO.C,T1*%
X265700000Y-63150000D02*
X265700000Y-66000000D01*
X265700000Y-66000000D02*
X272300000Y-66000000D01*
X269000000Y-63150000D02*
X265700000Y-63150000D01*
X269000000Y-63150000D02*
X272300000Y-63150000D01*
X270950000Y-63150000D02*
X267050000Y-63150000D01*
X272300000Y-66000000D02*
X272300000Y-63150000D01*
D11*
%TO.C,D21*%
X325250000Y-70500000D02*
X325650000Y-70500000D01*
X325650000Y-70500000D02*
X325650000Y-69950000D01*
X325650000Y-70500000D02*
X325650000Y-71050000D01*
X325650000Y-70500000D02*
X326250000Y-70100000D01*
X326250000Y-70100000D02*
X326250000Y-70900000D01*
X326250000Y-70500000D02*
X326750000Y-70500000D01*
X326250000Y-70900000D02*
X325650000Y-70500000D01*
%TO.C,D27*%
X363250000Y-146500000D02*
X363650000Y-146500000D01*
X363650000Y-146500000D02*
X363650000Y-145950000D01*
X363650000Y-146500000D02*
X363650000Y-147050000D01*
X363650000Y-146500000D02*
X364250000Y-146100000D01*
X364250000Y-146100000D02*
X364250000Y-146900000D01*
X364250000Y-146500000D02*
X364750000Y-146500000D01*
X364250000Y-146900000D02*
X363650000Y-146500000D01*
%TO.C,D17*%
X325250000Y-146500000D02*
X325650000Y-146500000D01*
X325650000Y-146500000D02*
X325650000Y-145950000D01*
X325650000Y-146500000D02*
X325650000Y-147050000D01*
X325650000Y-146500000D02*
X326250000Y-146100000D01*
X326250000Y-146100000D02*
X326250000Y-146900000D01*
X326250000Y-146500000D02*
X326750000Y-146500000D01*
X326250000Y-146900000D02*
X325650000Y-146500000D01*
%TO.C,D16*%
X306250000Y-70500000D02*
X306650000Y-70500000D01*
X306650000Y-70500000D02*
X306650000Y-69950000D01*
X306650000Y-70500000D02*
X306650000Y-71050000D01*
X306650000Y-70500000D02*
X307250000Y-70100000D01*
X307250000Y-70100000D02*
X307250000Y-70900000D01*
X307250000Y-70500000D02*
X307750000Y-70500000D01*
X307250000Y-70900000D02*
X306650000Y-70500000D01*
%TO.C,D7*%
X277725000Y-146500000D02*
X278125000Y-146500000D01*
X278125000Y-146500000D02*
X278125000Y-145950000D01*
X278125000Y-146500000D02*
X278125000Y-147050000D01*
X278125000Y-146500000D02*
X278725000Y-146100000D01*
X278725000Y-146100000D02*
X278725000Y-146900000D01*
X278725000Y-146500000D02*
X279225000Y-146500000D01*
X278725000Y-146900000D02*
X278125000Y-146500000D01*
%TO.C,D1*%
X258775000Y-108500000D02*
X259175000Y-108500000D01*
X259175000Y-108500000D02*
X259175000Y-107950000D01*
X259175000Y-108500000D02*
X259175000Y-109050000D01*
X259175000Y-108500000D02*
X259775000Y-108100000D01*
X259775000Y-108100000D02*
X259775000Y-108900000D01*
X259775000Y-108500000D02*
X260275000Y-108500000D01*
X259775000Y-108900000D02*
X259175000Y-108500000D01*
%TO.C,D4*%
X277775000Y-108500000D02*
X278175000Y-108500000D01*
X278175000Y-108500000D02*
X278175000Y-107950000D01*
X278175000Y-108500000D02*
X278175000Y-109050000D01*
X278175000Y-108500000D02*
X278775000Y-108100000D01*
X278775000Y-108100000D02*
X278775000Y-108900000D01*
X278775000Y-108500000D02*
X279275000Y-108500000D01*
X278775000Y-108900000D02*
X278175000Y-108500000D01*
%TO.C,D2*%
X254012500Y-89500000D02*
X254412500Y-89500000D01*
X254412500Y-89500000D02*
X254412500Y-88950000D01*
X254412500Y-89500000D02*
X254412500Y-90050000D01*
X254412500Y-89500000D02*
X255012500Y-89100000D01*
X255012500Y-89100000D02*
X255012500Y-89900000D01*
X255012500Y-89500000D02*
X255512500Y-89500000D01*
X255012500Y-89900000D02*
X254412500Y-89500000D01*
D12*
%TO.C,B1*%
X280550000Y-64275000D02*
X280550000Y-63725000D01*
X281575000Y-62150000D02*
X280650000Y-62150000D01*
X285350000Y-62150000D02*
X284425000Y-62150000D01*
X285350000Y-65850000D02*
X280650000Y-65850000D01*
X285450000Y-64275000D02*
X285450000Y-63725000D01*
D11*
%TO.C,D18*%
X325250000Y-127500000D02*
X325650000Y-127500000D01*
X325650000Y-127500000D02*
X325650000Y-126950000D01*
X325650000Y-127500000D02*
X325650000Y-128050000D01*
X325650000Y-127500000D02*
X326250000Y-127100000D01*
X326250000Y-127100000D02*
X326250000Y-127900000D01*
X326250000Y-127500000D02*
X326750000Y-127500000D01*
X326250000Y-127900000D02*
X325650000Y-127500000D01*
%TO.C,D14*%
X315775000Y-108500000D02*
X316175000Y-108500000D01*
X316175000Y-108500000D02*
X316175000Y-107950000D01*
X316175000Y-108500000D02*
X316175000Y-109050000D01*
X316175000Y-108500000D02*
X316775000Y-108100000D01*
X316775000Y-108100000D02*
X316775000Y-108900000D01*
X316775000Y-108500000D02*
X317275000Y-108500000D01*
X316775000Y-108900000D02*
X316175000Y-108500000D01*
D10*
%TO.C,JST1*%
X314275000Y-100050000D02*
X314275000Y-105950000D01*
X314275000Y-105950000D02*
X321875000Y-105950000D01*
X318775000Y-101750000D02*
X318775000Y-102250000D01*
X319025000Y-102000000D02*
X318525000Y-102000000D01*
X320275000Y-100750000D02*
X321875000Y-100750000D01*
X320275000Y-105250000D02*
X320275000Y-100750000D01*
X321875000Y-100050000D02*
X314275000Y-100050000D01*
X321875000Y-100750000D02*
X321875000Y-100050000D01*
X321875000Y-105250000D02*
X320275000Y-105250000D01*
X321875000Y-105950000D02*
X321875000Y-105250000D01*
D11*
%TO.C,D25*%
X356156250Y-89500000D02*
X356556250Y-89500000D01*
X356556250Y-89500000D02*
X356556250Y-88950000D01*
X356556250Y-89500000D02*
X356556250Y-90050000D01*
X356556250Y-89500000D02*
X357156250Y-89100000D01*
X357156250Y-89100000D02*
X357156250Y-89900000D01*
X357156250Y-89500000D02*
X357656250Y-89500000D01*
X357156250Y-89900000D02*
X356556250Y-89500000D01*
%TO.C,D12*%
X306250000Y-146500000D02*
X306650000Y-146500000D01*
X306650000Y-146500000D02*
X306650000Y-145950000D01*
X306650000Y-146500000D02*
X306650000Y-147050000D01*
X306650000Y-146500000D02*
X307250000Y-146100000D01*
X307250000Y-146100000D02*
X307250000Y-146900000D01*
X307250000Y-146500000D02*
X307750000Y-146500000D01*
X307250000Y-146900000D02*
X306650000Y-146500000D01*
%TO.C,D13*%
X306250000Y-127500000D02*
X306650000Y-127500000D01*
X306650000Y-127500000D02*
X306650000Y-126950000D01*
X306650000Y-127500000D02*
X306650000Y-128050000D01*
X306650000Y-127500000D02*
X307250000Y-127100000D01*
X307250000Y-127100000D02*
X307250000Y-127900000D01*
X307250000Y-127500000D02*
X307750000Y-127500000D01*
X307250000Y-127900000D02*
X306650000Y-127500000D01*
%TO.C,D8*%
X287250000Y-127500000D02*
X287650000Y-127500000D01*
X287650000Y-127500000D02*
X287650000Y-126950000D01*
X287650000Y-127500000D02*
X287650000Y-128050000D01*
X287650000Y-127500000D02*
X288250000Y-127100000D01*
X288250000Y-127100000D02*
X288250000Y-127900000D01*
X288250000Y-127500000D02*
X288750000Y-127500000D01*
X288250000Y-127900000D02*
X287650000Y-127500000D01*
%TO.C,D5*%
X273012500Y-89500000D02*
X273412500Y-89500000D01*
X273412500Y-89500000D02*
X273412500Y-88950000D01*
X273412500Y-89500000D02*
X273412500Y-90050000D01*
X273412500Y-89500000D02*
X274012500Y-89100000D01*
X274012500Y-89100000D02*
X274012500Y-89900000D01*
X274012500Y-89500000D02*
X274512500Y-89500000D01*
X274012500Y-89900000D02*
X273412500Y-89500000D01*
D13*
%TO.C,MCU1*%
X258695000Y-142110000D02*
X258695000Y-159890000D01*
X258695000Y-159890000D02*
X291715000Y-159890000D01*
X291715000Y-142110000D02*
X258695000Y-142110000D01*
X291715000Y-159890000D02*
X291715000Y-142110000D01*
D11*
%TO.C,D6*%
X268250000Y-70500000D02*
X268650000Y-70500000D01*
X268650000Y-70500000D02*
X268650000Y-69950000D01*
X268650000Y-70500000D02*
X268650000Y-71050000D01*
X268650000Y-70500000D02*
X269250000Y-70100000D01*
X269250000Y-70100000D02*
X269250000Y-70900000D01*
X269250000Y-70500000D02*
X269750000Y-70500000D01*
X269250000Y-70900000D02*
X268650000Y-70500000D01*
%TO.C,D11*%
X287250000Y-70500000D02*
X287650000Y-70500000D01*
X287650000Y-70500000D02*
X287650000Y-69950000D01*
X287650000Y-70500000D02*
X287650000Y-71050000D01*
X287650000Y-70500000D02*
X288250000Y-70100000D01*
X288250000Y-70100000D02*
X288250000Y-70900000D01*
X288250000Y-70500000D02*
X288750000Y-70500000D01*
X288250000Y-70900000D02*
X287650000Y-70500000D01*
%TO.C,D22*%
X344250000Y-146500000D02*
X344650000Y-146500000D01*
X344650000Y-146500000D02*
X344650000Y-145950000D01*
X344650000Y-146500000D02*
X344650000Y-147050000D01*
X344650000Y-146500000D02*
X345250000Y-146100000D01*
X345250000Y-146100000D02*
X345250000Y-146900000D01*
X345250000Y-146500000D02*
X345750000Y-146500000D01*
X345250000Y-146900000D02*
X344650000Y-146500000D01*
%TO.C,D19*%
X334775000Y-108500000D02*
X335175000Y-108500000D01*
X335175000Y-108500000D02*
X335175000Y-107950000D01*
X335175000Y-108500000D02*
X335175000Y-109050000D01*
X335175000Y-108500000D02*
X335775000Y-108100000D01*
X335775000Y-108100000D02*
X335775000Y-108900000D01*
X335775000Y-108500000D02*
X336275000Y-108500000D01*
X335775000Y-108900000D02*
X335175000Y-108500000D01*
%TO.C,D23*%
X344250000Y-127500000D02*
X344650000Y-127500000D01*
X344650000Y-127500000D02*
X344650000Y-126950000D01*
X344650000Y-127500000D02*
X344650000Y-128050000D01*
X344650000Y-127500000D02*
X345250000Y-127100000D01*
X345250000Y-127100000D02*
X345250000Y-127900000D01*
X345250000Y-127500000D02*
X345750000Y-127500000D01*
X345250000Y-127900000D02*
X344650000Y-127500000D01*
%TO.C,D3*%
X268250000Y-127500000D02*
X268650000Y-127500000D01*
X268650000Y-127500000D02*
X268650000Y-126950000D01*
X268650000Y-127500000D02*
X268650000Y-128050000D01*
X268650000Y-127500000D02*
X269250000Y-127100000D01*
X269250000Y-127100000D02*
X269250000Y-127900000D01*
X269250000Y-127500000D02*
X269750000Y-127500000D01*
X269250000Y-127900000D02*
X268650000Y-127500000D01*
%TO.C,D29*%
X363250000Y-70500000D02*
X363650000Y-70500000D01*
X363650000Y-70500000D02*
X363650000Y-69950000D01*
X363650000Y-70500000D02*
X363650000Y-71050000D01*
X363650000Y-70500000D02*
X364250000Y-70100000D01*
X364250000Y-70100000D02*
X364250000Y-70900000D01*
X364250000Y-70500000D02*
X364750000Y-70500000D01*
X364250000Y-70900000D02*
X363650000Y-70500000D01*
%TO.C,D26*%
X344250000Y-70500000D02*
X344650000Y-70500000D01*
X344650000Y-70500000D02*
X344650000Y-69950000D01*
X344650000Y-70500000D02*
X344650000Y-71050000D01*
X344650000Y-70500000D02*
X345250000Y-70100000D01*
X345250000Y-70100000D02*
X345250000Y-70900000D01*
X345250000Y-70500000D02*
X345750000Y-70500000D01*
X345250000Y-70900000D02*
X344650000Y-70500000D01*
%TO.C,D15*%
X311012500Y-89500000D02*
X311412500Y-89500000D01*
X311412500Y-89500000D02*
X311412500Y-88950000D01*
X311412500Y-89500000D02*
X311412500Y-90050000D01*
X311412500Y-89500000D02*
X312012500Y-89100000D01*
X312012500Y-89100000D02*
X312012500Y-89900000D01*
X312012500Y-89500000D02*
X312512500Y-89500000D01*
X312012500Y-89900000D02*
X311412500Y-89500000D01*
%TO.C,D10*%
X292012500Y-89500000D02*
X292412500Y-89500000D01*
X292412500Y-89500000D02*
X292412500Y-88950000D01*
X292412500Y-89500000D02*
X292412500Y-90050000D01*
X292412500Y-89500000D02*
X293012500Y-89100000D01*
X293012500Y-89100000D02*
X293012500Y-89900000D01*
X293012500Y-89500000D02*
X293512500Y-89500000D01*
X293012500Y-89900000D02*
X292412500Y-89500000D01*
%TO.C,D20*%
X330012500Y-89500000D02*
X330412500Y-89500000D01*
X330412500Y-89500000D02*
X330412500Y-88950000D01*
X330412500Y-89500000D02*
X330412500Y-90050000D01*
X330412500Y-89500000D02*
X331012500Y-89100000D01*
X331012500Y-89100000D02*
X331012500Y-89900000D01*
X331012500Y-89500000D02*
X331512500Y-89500000D01*
X331012500Y-89900000D02*
X330412500Y-89500000D01*
%TO.C,D24*%
X358537500Y-108500000D02*
X358937500Y-108500000D01*
X358937500Y-108500000D02*
X358937500Y-107950000D01*
X358937500Y-108500000D02*
X358937500Y-109050000D01*
X358937500Y-108500000D02*
X359537500Y-108100000D01*
X359537500Y-108100000D02*
X359537500Y-108900000D01*
X359537500Y-108500000D02*
X360037500Y-108500000D01*
X359537500Y-108900000D02*
X358937500Y-108500000D01*
%TO.C,D9*%
X296775000Y-108500000D02*
X297175000Y-108500000D01*
X297175000Y-108500000D02*
X297175000Y-107950000D01*
X297175000Y-108500000D02*
X297175000Y-109050000D01*
X297175000Y-108500000D02*
X297775000Y-108100000D01*
X297775000Y-108100000D02*
X297775000Y-108900000D01*
X297775000Y-108500000D02*
X298275000Y-108500000D01*
X297775000Y-108900000D02*
X297175000Y-108500000D01*
%TO.C,D28*%
X363250000Y-127500000D02*
X363650000Y-127500000D01*
X363650000Y-127500000D02*
X363650000Y-126950000D01*
X363650000Y-127500000D02*
X363650000Y-128050000D01*
X363650000Y-127500000D02*
X364250000Y-127100000D01*
X364250000Y-127100000D02*
X364250000Y-127900000D01*
X364250000Y-127500000D02*
X364750000Y-127500000D01*
X364250000Y-127900000D02*
X363650000Y-127500000D01*
%TD*%
D14*
%TO.C,MCU1*%
X262505000Y-143380000D03*
X265045000Y-143380000D03*
X267585000Y-143380000D03*
X270125000Y-143380000D03*
X272665000Y-143380000D03*
X275205000Y-143380000D03*
X277745000Y-143380000D03*
X280285000Y-143380000D03*
X282825000Y-143380000D03*
X285365000Y-143380000D03*
X287905000Y-143380000D03*
X290445000Y-143380000D03*
X290445000Y-158620000D03*
X287905000Y-158620000D03*
X285365000Y-158620000D03*
X282825000Y-158620000D03*
X280285000Y-158620000D03*
X277745000Y-158620000D03*
X275205000Y-158620000D03*
X272665000Y-158620000D03*
X270125000Y-158620000D03*
X267585000Y-158620000D03*
X265045000Y-158620000D03*
X262505000Y-158620000D03*
%TD*%
M02*
