%TF.GenerationSoftware,KiCad,Pcbnew,9.0.7*%
%TF.CreationDate,2026-01-20T23:17:06-08:00*%
%TF.ProjectId,right,72696768-742e-46b6-9963-61645f706362,v1.0.0*%
%TF.SameCoordinates,Original*%
%TF.FileFunction,Profile,NP*%
%FSLAX46Y46*%
G04 Gerber Fmt 4.6, Leading zero omitted, Abs format (unit mm)*
G04 Created by KiCad (PCBNEW 9.0.7) date 2026-01-20 23:17:06*
%MOMM*%
%LPD*%
G01*
G04 APERTURE LIST*
%TA.AperFunction,Profile*%
%ADD10C,0.150000*%
%TD*%
G04 APERTURE END LIST*
D10*
X316500000Y-161958040D02*
G75*
G02*
X316000000Y-162000006I-500000J2957640D01*
G01*
X297000000Y-62000000D02*
X279000000Y-62000000D01*
X335500000Y-62041960D02*
G75*
G02*
X336000000Y-61999994I500000J-2957640D01*
G01*
X375972180Y-83407608D02*
G75*
G02*
X376031251Y-84000000I-2940880J-592392D01*
G01*
X297487500Y-161955900D02*
G75*
G02*
X296975000Y-162000005I-512500J2955600D01*
G01*
X242762500Y-84000000D02*
G75*
G02*
X245762500Y-81000000I3000000J0D01*
G01*
X355000000Y-162000000D02*
G75*
G02*
X354500000Y-161958043I0J3000200D01*
G01*
X376031250Y-102000000D02*
G75*
G02*
X375992359Y-102481513I-3000250J0D01*
G01*
X257000000Y-126000000D02*
X257000000Y-140000000D01*
X355000000Y-162000000D02*
X373000000Y-162000000D01*
X354500000Y-161958040D02*
G75*
G02*
X354000000Y-162000006I-500000J2957640D01*
G01*
X373000000Y-62000000D02*
G75*
G02*
X376000000Y-65000000I0J-3000000D01*
G01*
X317000000Y-162000000D02*
X335000000Y-162000000D01*
X257000000Y-65000000D02*
X257000000Y-79000000D01*
X376037500Y-121000000D02*
G75*
G02*
X375974653Y-121610846I-3000000J0D01*
G01*
X259975000Y-162000000D02*
X296975000Y-162000000D01*
X278000000Y-62000000D02*
X260000000Y-62000000D01*
X257030411Y-140426073D02*
G75*
G02*
X256999994Y-140000000I2968989J426073D01*
G01*
X336000000Y-162000000D02*
X354000000Y-162000000D01*
X317000000Y-162000000D02*
G75*
G02*
X316500000Y-161958043I0J3000200D01*
G01*
X278500000Y-62041960D02*
G75*
G02*
X279000000Y-61999994I500000J-2957640D01*
G01*
X335000000Y-62000000D02*
X317000000Y-62000000D01*
X250525000Y-124000000D02*
G75*
G02*
X247525000Y-121000000I0J3000000D01*
G01*
X247525000Y-105000000D02*
X247525000Y-121000000D01*
X259975000Y-162000000D02*
G75*
G02*
X256975000Y-159000000I0J3000000D01*
G01*
X376000000Y-159000000D02*
X376000000Y-141000000D01*
X242762500Y-84000000D02*
X242762500Y-102000000D01*
X245762500Y-105000000D02*
G75*
G02*
X242762500Y-102000000I0J3000000D01*
G01*
X376000000Y-159000000D02*
G75*
G02*
X373000000Y-162000000I-3000000J0D01*
G01*
X375974653Y-121610846D02*
G75*
G02*
X376000006Y-122000000I-2973953J-389154D01*
G01*
X316000000Y-62000000D02*
X298000000Y-62000000D01*
X354500000Y-62041960D02*
G75*
G02*
X355000000Y-61999994I500000J-2957640D01*
G01*
X354000000Y-62000000D02*
X336000000Y-62000000D01*
X298000000Y-162000000D02*
G75*
G02*
X297487500Y-161955903I0J3000200D01*
G01*
X297000000Y-62000000D02*
G75*
G02*
X297500000Y-62041957I0J-3000200D01*
G01*
X297500000Y-62041960D02*
G75*
G02*
X298000000Y-61999994I500000J-2957640D01*
G01*
X298000000Y-162000000D02*
X316000000Y-162000000D01*
X278000000Y-62000000D02*
G75*
G02*
X278500000Y-62041957I0J-3000200D01*
G01*
X256975000Y-141000000D02*
X256975000Y-159000000D01*
X245762500Y-105000000D02*
X247525000Y-105000000D01*
X257000000Y-79000000D02*
G75*
G02*
X255000000Y-81000000I-2000000J0D01*
G01*
X316500000Y-62041960D02*
G75*
G02*
X317000000Y-61999994I500000J-2957640D01*
G01*
X373000000Y-62000000D02*
X355000000Y-62000000D01*
X376000000Y-83000000D02*
X376000000Y-65000000D01*
X336000000Y-162000000D02*
G75*
G02*
X335500000Y-161958043I0J3000200D01*
G01*
X376000000Y-83000000D02*
G75*
G02*
X375972179Y-83407608I-2999900J0D01*
G01*
X257000000Y-65000000D02*
G75*
G02*
X260000000Y-62000000I3000000J0D01*
G01*
X375992356Y-102481513D02*
G75*
G02*
X376037500Y-103000000I-2954856J-518487D01*
G01*
X335000000Y-62000000D02*
G75*
G02*
X335500000Y-62041957I0J-3000200D01*
G01*
X316000000Y-62000000D02*
G75*
G02*
X316500000Y-62041957I0J-3000200D01*
G01*
X376037500Y-121000000D02*
X376037500Y-103000000D01*
X354000000Y-62000000D02*
G75*
G02*
X354500000Y-62041957I0J-3000200D01*
G01*
X250525000Y-124000000D02*
X255000000Y-124000000D01*
X255000000Y-124000000D02*
G75*
G02*
X257000000Y-126000000I0J-2000000D01*
G01*
X375958040Y-140500000D02*
G75*
G02*
X376000006Y-141000000I-2957640J-500000D01*
G01*
X376000000Y-140000000D02*
X376000000Y-122000000D01*
X256975000Y-141000000D02*
G75*
G02*
X257030410Y-140426073I3000000J0D01*
G01*
X255000000Y-81000000D02*
X245762500Y-81000000D01*
X376000000Y-140000000D02*
G75*
G02*
X375958043Y-140500000I-3000200J0D01*
G01*
X376031250Y-102000000D02*
X376031250Y-84000000D01*
X335500000Y-161958040D02*
G75*
G02*
X335000000Y-162000006I-500000J2957640D01*
G01*
M02*
