%TF.GenerationSoftware,KiCad,Pcbnew,9.0.7*%
%TF.CreationDate,2026-01-20T23:17:06-08:00*%
%TF.ProjectId,right,72696768-742e-46b6-9963-61645f706362,v1.0.0*%
%TF.SameCoordinates,Original*%
%TF.FileFunction,Copper,L1,Top*%
%TF.FilePolarity,Positive*%
%FSLAX46Y46*%
G04 Gerber Fmt 4.6, Leading zero omitted, Abs format (unit mm)*
G04 Created by KiCad (PCBNEW 9.0.7) date 2026-01-20 23:17:06*
%MOMM*%
%LPD*%
G01*
G04 APERTURE LIST*
%TA.AperFunction,WasherPad*%
%ADD10C,1.000000*%
%TD*%
%TA.AperFunction,ComponentPad*%
%ADD11R,1.778000X1.778000*%
%TD*%
%TA.AperFunction,SMDPad,CuDef*%
%ADD12R,0.900000X1.200000*%
%TD*%
%TA.AperFunction,ComponentPad*%
%ADD13C,1.905000*%
%TD*%
%TA.AperFunction,ComponentPad*%
%ADD14C,3.800000*%
%TD*%
%TA.AperFunction,ComponentPad*%
%ADD15R,1.700000X1.200000*%
%TD*%
%TA.AperFunction,ComponentPad*%
%ADD16O,1.700000X1.200000*%
%TD*%
%TA.AperFunction,ComponentPad*%
%ADD17C,1.752600*%
%TD*%
%TA.AperFunction,ViaPad*%
%ADD18C,0.600000*%
%TD*%
%TA.AperFunction,Conductor*%
%ADD19C,0.200000*%
%TD*%
G04 APERTURE END LIST*
D10*
%TO.P,T1,*%
%TO.N,*%
X267500000Y-64500000D03*
X270500000Y-64500000D03*
%TD*%
D11*
%TO.P,D21,1*%
%TO.N,P029*%
X322190000Y-70500000D03*
D12*
X324350000Y-70500000D03*
%TO.P,D21,2*%
%TO.N,c5_num*%
X327650000Y-70500000D03*
D13*
X329810000Y-70500000D03*
%TD*%
D11*
%TO.P,D27,1*%
%TO.N,P011*%
X360190000Y-146500000D03*
D12*
X362350000Y-146500000D03*
%TO.P,D27,2*%
%TO.N,c7_mod*%
X365650000Y-146500000D03*
D13*
X367810000Y-146500000D03*
%TD*%
D11*
%TO.P,D17,1*%
%TO.N,P011*%
X322190000Y-146500000D03*
D12*
X324350000Y-146500000D03*
%TO.P,D17,2*%
%TO.N,c5_mod*%
X327650000Y-146500000D03*
D13*
X329810000Y-146500000D03*
%TD*%
D11*
%TO.P,D16,1*%
%TO.N,P029*%
X303190000Y-70500000D03*
D12*
X305350000Y-70500000D03*
%TO.P,D16,2*%
%TO.N,c4_num*%
X308650000Y-70500000D03*
D13*
X310810000Y-70500000D03*
%TD*%
D11*
%TO.P,D7,1*%
%TO.N,P011*%
X274665000Y-146500000D03*
D12*
X276825000Y-146500000D03*
%TO.P,D7,2*%
%TO.N,c3_mod*%
X280125000Y-146500000D03*
D13*
X282285000Y-146500000D03*
%TD*%
D11*
%TO.P,D1,1*%
%TO.N,P106*%
X255715000Y-108500000D03*
D12*
X257875000Y-108500000D03*
%TO.P,D1,2*%
%TO.N,c1_home*%
X261175000Y-108500000D03*
D13*
X263335000Y-108500000D03*
%TD*%
D11*
%TO.P,D4,1*%
%TO.N,P106*%
X274715000Y-108500000D03*
D12*
X276875000Y-108500000D03*
%TO.P,D4,2*%
%TO.N,c2_home*%
X280175000Y-108500000D03*
D13*
X282335000Y-108500000D03*
%TD*%
D11*
%TO.P,D2,1*%
%TO.N,P031*%
X250952500Y-89500000D03*
D12*
X253112500Y-89500000D03*
%TO.P,D2,2*%
%TO.N,c1_top*%
X256412500Y-89500000D03*
D13*
X258572500Y-89500000D03*
%TD*%
D11*
%TO.P,D18,1*%
%TO.N,P104*%
X322190000Y-127500000D03*
D12*
X324350000Y-127500000D03*
%TO.P,D18,2*%
%TO.N,c5_bottom*%
X327650000Y-127500000D03*
D13*
X329810000Y-127500000D03*
%TD*%
D11*
%TO.P,D14,1*%
%TO.N,P106*%
X312715000Y-108500000D03*
D12*
X314875000Y-108500000D03*
%TO.P,D14,2*%
%TO.N,c4_home*%
X318175000Y-108500000D03*
D13*
X320335000Y-108500000D03*
%TD*%
D14*
%TO.P,H1,*%
%TO.N,*%
X264000000Y-84000000D03*
%TD*%
D15*
%TO.P,JST1,1*%
%TO.N,pos*%
X320525000Y-102000000D03*
D16*
%TO.P,JST1,2*%
%TO.N,GND*%
X320525000Y-104000000D03*
%TD*%
D11*
%TO.P,D25,1*%
%TO.N,P031*%
X353096250Y-89500000D03*
D12*
X355256250Y-89500000D03*
%TO.P,D25,2*%
%TO.N,c6_top*%
X358556250Y-89500000D03*
D13*
X360716250Y-89500000D03*
%TD*%
D11*
%TO.P,D12,1*%
%TO.N,P011*%
X303190000Y-146500000D03*
D12*
X305350000Y-146500000D03*
%TO.P,D12,2*%
%TO.N,c4_mod*%
X308650000Y-146500000D03*
D13*
X310810000Y-146500000D03*
%TD*%
D11*
%TO.P,D13,1*%
%TO.N,P104*%
X303190000Y-127500000D03*
D12*
X305350000Y-127500000D03*
%TO.P,D13,2*%
%TO.N,c4_bottom*%
X308650000Y-127500000D03*
D13*
X310810000Y-127500000D03*
%TD*%
D11*
%TO.P,D8,1*%
%TO.N,P104*%
X284190000Y-127500000D03*
D12*
X286350000Y-127500000D03*
%TO.P,D8,2*%
%TO.N,c3_bottom*%
X289650000Y-127500000D03*
D13*
X291810000Y-127500000D03*
%TD*%
D11*
%TO.P,D5,1*%
%TO.N,P031*%
X269952500Y-89500000D03*
D12*
X272112500Y-89500000D03*
%TO.P,D5,2*%
%TO.N,c2_top*%
X275412500Y-89500000D03*
D13*
X277572500Y-89500000D03*
%TD*%
D17*
%TO.P,MCU1,1*%
%TO.N,P006*%
X262505000Y-143380000D03*
%TO.P,MCU1,2*%
%TO.N,P008*%
X265045000Y-143380000D03*
%TO.P,MCU1,3*%
%TO.N,GND*%
X267585000Y-143380000D03*
%TO.P,MCU1,4*%
X270125000Y-143380000D03*
%TO.P,MCU1,5*%
%TO.N,P017*%
X272665000Y-143380000D03*
%TO.P,MCU1,6*%
%TO.N,P020*%
X275205000Y-143380000D03*
%TO.P,MCU1,7*%
%TO.N,P022*%
X277745000Y-143380000D03*
%TO.P,MCU1,8*%
%TO.N,P024*%
X280285000Y-143380000D03*
%TO.P,MCU1,9*%
%TO.N,P100*%
X282825000Y-143380000D03*
%TO.P,MCU1,10*%
%TO.N,P011*%
X285365000Y-143380000D03*
%TO.P,MCU1,11*%
%TO.N,P104*%
X287905000Y-143380000D03*
%TO.P,MCU1,12*%
%TO.N,P106*%
X290445000Y-143380000D03*
%TO.P,MCU1,13*%
%TO.N,P009*%
X290445000Y-158620000D03*
%TO.P,MCU1,14*%
%TO.N,P010*%
X287905000Y-158620000D03*
%TO.P,MCU1,15*%
%TO.N,P111*%
X285365000Y-158620000D03*
%TO.P,MCU1,16*%
%TO.N,P113*%
X282825000Y-158620000D03*
%TO.P,MCU1,17*%
%TO.N,P115*%
X280285000Y-158620000D03*
%TO.P,MCU1,18*%
%TO.N,P002*%
X277745000Y-158620000D03*
%TO.P,MCU1,19*%
%TO.N,P029*%
X275205000Y-158620000D03*
%TO.P,MCU1,20*%
%TO.N,P031*%
X272665000Y-158620000D03*
%TO.P,MCU1,21*%
%TO.N,VCC*%
X270125000Y-158620000D03*
%TO.P,MCU1,22*%
%TO.N,RST*%
X267585000Y-158620000D03*
%TO.P,MCU1,23*%
%TO.N,GND*%
X265045000Y-158620000D03*
%TO.P,MCU1,24*%
%TO.N,RAW*%
X262505000Y-158620000D03*
%TD*%
D11*
%TO.P,D6,1*%
%TO.N,P029*%
X265190000Y-70500000D03*
D12*
X267350000Y-70500000D03*
%TO.P,D6,2*%
%TO.N,c2_num*%
X270650000Y-70500000D03*
D13*
X272810000Y-70500000D03*
%TD*%
D11*
%TO.P,D11,1*%
%TO.N,P029*%
X284190000Y-70500000D03*
D12*
X286350000Y-70500000D03*
%TO.P,D11,2*%
%TO.N,c3_num*%
X289650000Y-70500000D03*
D13*
X291810000Y-70500000D03*
%TD*%
D11*
%TO.P,D22,1*%
%TO.N,P011*%
X341190000Y-146500000D03*
D12*
X343350000Y-146500000D03*
%TO.P,D22,2*%
%TO.N,c6_mod*%
X346650000Y-146500000D03*
D13*
X348810000Y-146500000D03*
%TD*%
D11*
%TO.P,D19,1*%
%TO.N,P106*%
X331715000Y-108500000D03*
D12*
X333875000Y-108500000D03*
%TO.P,D19,2*%
%TO.N,c5_home*%
X337175000Y-108500000D03*
D13*
X339335000Y-108500000D03*
%TD*%
D11*
%TO.P,D23,1*%
%TO.N,P104*%
X341190000Y-127500000D03*
D12*
X343350000Y-127500000D03*
%TO.P,D23,2*%
%TO.N,c6_bottom*%
X346650000Y-127500000D03*
D13*
X348810000Y-127500000D03*
%TD*%
D11*
%TO.P,D3,1*%
%TO.N,P104*%
X265190000Y-127500000D03*
D12*
X267350000Y-127500000D03*
%TO.P,D3,2*%
%TO.N,c2_bottom*%
X270650000Y-127500000D03*
D13*
X272810000Y-127500000D03*
%TD*%
D11*
%TO.P,D29,1*%
%TO.N,P029*%
X360190000Y-70500000D03*
D12*
X362350000Y-70500000D03*
%TO.P,D29,2*%
%TO.N,c7_num*%
X365650000Y-70500000D03*
D13*
X367810000Y-70500000D03*
%TD*%
D11*
%TO.P,D26,1*%
%TO.N,P029*%
X341190000Y-70500000D03*
D12*
X343350000Y-70500000D03*
%TO.P,D26,2*%
%TO.N,c6_num*%
X346650000Y-70500000D03*
D13*
X348810000Y-70500000D03*
%TD*%
D11*
%TO.P,D15,1*%
%TO.N,P031*%
X307952500Y-89500000D03*
D12*
X310112500Y-89500000D03*
%TO.P,D15,2*%
%TO.N,c4_top*%
X313412500Y-89500000D03*
D13*
X315572500Y-89500000D03*
%TD*%
D11*
%TO.P,D10,1*%
%TO.N,P031*%
X288952500Y-89500000D03*
D12*
X291112500Y-89500000D03*
%TO.P,D10,2*%
%TO.N,c3_top*%
X294412500Y-89500000D03*
D13*
X296572500Y-89500000D03*
%TD*%
D11*
%TO.P,D20,1*%
%TO.N,P031*%
X326952500Y-89500000D03*
D12*
X329112500Y-89500000D03*
%TO.P,D20,2*%
%TO.N,c5_top*%
X332412500Y-89500000D03*
D13*
X334572500Y-89500000D03*
%TD*%
D14*
%TO.P,H3,*%
%TO.N,*%
X295000000Y-141000000D03*
%TD*%
%TO.P,H4,*%
%TO.N,*%
X369000000Y-141000000D03*
%TD*%
D11*
%TO.P,D24,1*%
%TO.N,P106*%
X355477500Y-108500000D03*
D12*
X357637500Y-108500000D03*
%TO.P,D24,2*%
%TO.N,c6_home*%
X360937500Y-108500000D03*
D13*
X363097500Y-108500000D03*
%TD*%
D11*
%TO.P,D9,1*%
%TO.N,P106*%
X293715000Y-108500000D03*
D12*
X295875000Y-108500000D03*
%TO.P,D9,2*%
%TO.N,c3_home*%
X299175000Y-108500000D03*
D13*
X301335000Y-108500000D03*
%TD*%
D14*
%TO.P,H2,*%
%TO.N,*%
X369000000Y-84000000D03*
%TD*%
D11*
%TO.P,D28,1*%
%TO.N,P104*%
X360190000Y-127500000D03*
D12*
X362350000Y-127500000D03*
%TO.P,D28,2*%
%TO.N,c7_bottom*%
X365650000Y-127500000D03*
D13*
X367810000Y-127500000D03*
%TD*%
D18*
%TO.N,P024*%
X279200000Y-155200000D03*
%TO.N,GND*%
X302600000Y-104200000D03*
X292400000Y-68400000D03*
%TO.N,pos*%
X264400000Y-67400000D03*
%TD*%
D19*
%TO.N,c1_home*%
X261175000Y-108500000D02*
X263335000Y-108500000D01*
%TO.N,c1_top*%
X256412500Y-89500000D02*
X258572500Y-89500000D01*
%TO.N,c2_bottom*%
X270650000Y-127500000D02*
X272810000Y-127500000D01*
%TO.N,c2_home*%
X280175000Y-108500000D02*
X282335000Y-108500000D01*
%TO.N,c2_top*%
X275412500Y-89500000D02*
X277572500Y-89500000D01*
%TO.N,c2_num*%
X270650000Y-70500000D02*
X272810000Y-70500000D01*
%TO.N,c3_mod*%
X280125000Y-146500000D02*
X282285000Y-146500000D01*
%TO.N,c3_bottom*%
X289650000Y-127500000D02*
X291810000Y-127500000D01*
%TO.N,c3_home*%
X299175000Y-108500000D02*
X301335000Y-108500000D01*
%TO.N,c3_top*%
X294412500Y-89500000D02*
X296572500Y-89500000D01*
%TO.N,c3_num*%
X289650000Y-70500000D02*
X291810000Y-70500000D01*
%TO.N,c4_mod*%
X310810000Y-146500000D02*
X308650000Y-146500000D01*
%TO.N,c4_bottom*%
X308650000Y-127500000D02*
X310810000Y-127500000D01*
%TO.N,c4_home*%
X318175000Y-108500000D02*
X320335000Y-108500000D01*
%TO.N,c4_top*%
X313412500Y-89500000D02*
X315572500Y-89500000D01*
%TO.N,c4_num*%
X308650000Y-70500000D02*
X310810000Y-70500000D01*
%TO.N,c5_mod*%
X329810000Y-146500000D02*
X327650000Y-146500000D01*
%TO.N,c5_bottom*%
X327650000Y-127500000D02*
X329810000Y-127500000D01*
%TO.N,c5_home*%
X337175000Y-108500000D02*
X339335000Y-108500000D01*
%TO.N,c5_top*%
X332412500Y-89500000D02*
X334572500Y-89500000D01*
%TO.N,c5_num*%
X329810000Y-70500000D02*
X327650000Y-70500000D01*
%TO.N,P024*%
X273475000Y-148380257D02*
X273475000Y-145325000D01*
X274242700Y-144557300D02*
X279107700Y-144557300D01*
X273475000Y-145325000D02*
X274242700Y-144557300D01*
X279107700Y-144557300D02*
X280285000Y-143380000D01*
X279200000Y-154105257D02*
X273475000Y-148380257D01*
X279200000Y-155200000D02*
X279200000Y-154105257D01*
%TO.N,c6_mod*%
X346650000Y-146500000D02*
X348810000Y-146500000D01*
%TO.N,c6_bottom*%
X348810000Y-127500000D02*
X346650000Y-127500000D01*
%TO.N,c6_home*%
X360937500Y-108500000D02*
X363097500Y-108500000D01*
%TO.N,c6_top*%
X360716250Y-89500000D02*
X358556250Y-89500000D01*
%TO.N,c6_num*%
X346650000Y-70500000D02*
X348810000Y-70500000D01*
%TO.N,c7_mod*%
X365650000Y-146500000D02*
X367810000Y-146500000D01*
%TO.N,c7_bottom*%
X367810000Y-127500000D02*
X365650000Y-127500000D01*
%TO.N,c7_num*%
X365650000Y-70500000D02*
X367810000Y-70500000D01*
%TO.N,GND*%
X319000000Y-104000000D02*
X320525000Y-104000000D01*
X249762500Y-88310000D02*
X249762500Y-91316189D01*
X317200000Y-102200000D02*
X319000000Y-104000000D01*
X302800000Y-104000000D02*
X320525000Y-104000000D01*
X284000000Y-68400000D02*
X264554500Y-87845500D01*
X264554500Y-87845500D02*
X250227000Y-87845500D01*
X250227000Y-87845500D02*
X249762500Y-88310000D01*
X302600000Y-104200000D02*
X302800000Y-104000000D01*
X292400000Y-68400000D02*
X284000000Y-68400000D01*
X267585000Y-156080000D02*
X265045000Y-158620000D01*
X249762500Y-91316189D02*
X260646311Y-102200000D01*
X267585000Y-143380000D02*
X270125000Y-143380000D01*
X260646311Y-102200000D02*
X317200000Y-102200000D01*
X267585000Y-143380000D02*
X267585000Y-156080000D01*
%TO.N,P031*%
X292366000Y-88246500D02*
X306699000Y-88246500D01*
X325652500Y-88200000D02*
X326952500Y-89500000D01*
X250952500Y-89500000D02*
X253112500Y-89500000D01*
X326952500Y-89500000D02*
X329112500Y-89500000D01*
X273366000Y-88246500D02*
X287699000Y-88246500D01*
X311412500Y-88200000D02*
X325652500Y-88200000D01*
X355256250Y-89500000D02*
X353096250Y-89500000D01*
X310112500Y-89500000D02*
X311412500Y-88200000D01*
X269952500Y-89500000D02*
X272112500Y-89500000D01*
X330412500Y-88200000D02*
X351796250Y-88200000D01*
X291112500Y-89500000D02*
X292366000Y-88246500D01*
X307952500Y-89500000D02*
X310112500Y-89500000D01*
X268699000Y-88246500D02*
X269952500Y-89500000D01*
X254366000Y-88246500D02*
X268699000Y-88246500D01*
X351796250Y-88200000D02*
X353096250Y-89500000D01*
X253112500Y-89500000D02*
X254366000Y-88246500D01*
X287699000Y-88246500D02*
X288952500Y-89500000D01*
X272112500Y-89500000D02*
X273366000Y-88246500D01*
X329112500Y-89500000D02*
X330412500Y-88200000D01*
X306699000Y-88246500D02*
X307952500Y-89500000D01*
X288952500Y-89500000D02*
X291112500Y-89500000D01*
%TO.N,P029*%
X360190000Y-70500000D02*
X362350000Y-70500000D01*
X324350000Y-70500000D02*
X322190000Y-70500000D01*
X284190000Y-70500000D02*
X286350000Y-70500000D01*
X341190000Y-70500000D02*
X343350000Y-70500000D01*
X303190000Y-70500000D02*
X305350000Y-70500000D01*
X265190000Y-70500000D02*
X267350000Y-70500000D01*
%TO.N,P011*%
X325603500Y-145246500D02*
X339936500Y-145246500D01*
X358936500Y-145246500D02*
X360190000Y-146500000D01*
X344603500Y-145246500D02*
X358936500Y-145246500D01*
X324350000Y-146500000D02*
X322190000Y-146500000D01*
X288485000Y-146500000D02*
X303190000Y-146500000D01*
X324350000Y-146500000D02*
X325603500Y-145246500D01*
X283498500Y-145246500D02*
X285365000Y-143380000D01*
X341190000Y-146500000D02*
X343350000Y-146500000D01*
X305350000Y-146500000D02*
X303190000Y-146500000D01*
X343350000Y-146500000D02*
X344603500Y-145246500D01*
X305350000Y-146500000D02*
X306603500Y-145246500D01*
X276825000Y-146500000D02*
X278078500Y-145246500D01*
X320936500Y-145246500D02*
X322190000Y-146500000D01*
X285365000Y-143380000D02*
X288485000Y-146500000D01*
X274665000Y-146500000D02*
X276825000Y-146500000D01*
X306603500Y-145246500D02*
X320936500Y-145246500D01*
X278078500Y-145246500D02*
X283498500Y-145246500D01*
X362350000Y-146500000D02*
X360190000Y-146500000D01*
X339936500Y-145246500D02*
X341190000Y-146500000D01*
%TO.N,P104*%
X320936500Y-126246500D02*
X322190000Y-127500000D01*
X284190000Y-127500000D02*
X286350000Y-127500000D01*
X291622300Y-143867654D02*
X290932654Y-144557300D01*
X339936500Y-126246500D02*
X341190000Y-127500000D01*
X305350000Y-127500000D02*
X306603500Y-126246500D01*
X343350000Y-127500000D02*
X344603500Y-126246500D01*
X306603500Y-126246500D02*
X320936500Y-126246500D01*
X291622300Y-139624591D02*
X291622300Y-143867654D01*
X285655100Y-133657391D02*
X291622300Y-139624591D01*
X344603500Y-126246500D02*
X358936500Y-126246500D01*
X267350000Y-127500000D02*
X268603500Y-126246500D01*
X285655100Y-128194900D02*
X285655100Y-133657391D01*
X287603500Y-126246500D02*
X301936500Y-126246500D01*
X324350000Y-127500000D02*
X325603500Y-126246500D01*
X290932654Y-144557300D02*
X289082300Y-144557300D01*
X343350000Y-127500000D02*
X341190000Y-127500000D01*
X286350000Y-127500000D02*
X285655100Y-128194900D01*
X268603500Y-126246500D02*
X282936500Y-126246500D01*
X286350000Y-127500000D02*
X287603500Y-126246500D01*
X325603500Y-126246500D02*
X339936500Y-126246500D01*
X301936500Y-126246500D02*
X303190000Y-127500000D01*
X289082300Y-144557300D02*
X287905000Y-143380000D01*
X303190000Y-127500000D02*
X305350000Y-127500000D01*
X322190000Y-127500000D02*
X324350000Y-127500000D01*
X358936500Y-126246500D02*
X360190000Y-127500000D01*
X265190000Y-127500000D02*
X267350000Y-127500000D01*
X362350000Y-127500000D02*
X360190000Y-127500000D01*
X282936500Y-126246500D02*
X284190000Y-127500000D01*
%TO.N,P106*%
X354224000Y-107246500D02*
X355477500Y-108500000D01*
X259175000Y-107200000D02*
X273415000Y-107200000D01*
X314875000Y-108500000D02*
X316175000Y-107200000D01*
X316175000Y-107200000D02*
X330415000Y-107200000D01*
X290142291Y-143380000D02*
X290445000Y-143380000D01*
X355477500Y-108500000D02*
X357637500Y-108500000D01*
X335128500Y-107246500D02*
X354224000Y-107246500D01*
X264000000Y-128690000D02*
X266310000Y-128690000D01*
X266599000Y-128401000D02*
X271938283Y-128401000D01*
X266310000Y-128690000D02*
X266599000Y-128401000D01*
X312715000Y-108500000D02*
X314875000Y-108500000D01*
X293715000Y-108500000D02*
X278200000Y-124015000D01*
X271938283Y-128401000D02*
X273335383Y-129798100D01*
X293715000Y-108500000D02*
X295875000Y-108500000D01*
X330415000Y-107200000D02*
X331715000Y-108500000D01*
X278128500Y-107246500D02*
X292461500Y-107246500D01*
X276560391Y-129798100D02*
X290142291Y-143380000D01*
X333875000Y-108500000D02*
X335128500Y-107246500D01*
X274715000Y-108500000D02*
X276875000Y-108500000D01*
X257875000Y-108500000D02*
X259175000Y-107200000D01*
X264000000Y-126310000D02*
X264000000Y-128690000D01*
X292461500Y-107246500D02*
X293715000Y-108500000D01*
X273415000Y-107200000D02*
X274715000Y-108500000D01*
X311415000Y-107200000D02*
X312715000Y-108500000D01*
X297175000Y-107200000D02*
X311415000Y-107200000D01*
X255715000Y-108500000D02*
X257875000Y-108500000D01*
X266295000Y-124015000D02*
X264000000Y-126310000D01*
X278200000Y-124015000D02*
X266295000Y-124015000D01*
X276875000Y-108500000D02*
X278128500Y-107246500D01*
X331715000Y-108500000D02*
X333875000Y-108500000D01*
X273335383Y-129798100D02*
X276560391Y-129798100D01*
X295875000Y-108500000D02*
X297175000Y-107200000D01*
%TO.N,pos*%
X323342609Y-76344900D02*
X332600000Y-85602291D01*
X310800000Y-68000000D02*
X319144900Y-76344900D01*
X264400000Y-67400000D02*
X265000000Y-68000000D01*
X283832900Y-68000000D02*
X283833900Y-67999000D01*
X283833900Y-67999000D02*
X291951057Y-67999000D01*
X265000000Y-68000000D02*
X283832900Y-68000000D01*
X336388689Y-90690000D02*
X331733789Y-95344900D01*
X292648943Y-67799000D02*
X292849943Y-68000000D01*
X356007250Y-88599000D02*
X356007250Y-90401000D01*
X355718250Y-90690000D02*
X336388689Y-90690000D01*
X327180100Y-95344900D02*
X320525000Y-102000000D01*
X319144900Y-76344900D02*
X323342609Y-76344900D01*
X356007250Y-90401000D02*
X355718250Y-90690000D01*
X291951057Y-67999000D02*
X292151057Y-67799000D01*
X292849943Y-68000000D02*
X310800000Y-68000000D01*
X353010541Y-85602291D02*
X356007250Y-88599000D01*
X331733789Y-95344900D02*
X327180100Y-95344900D01*
X292151057Y-67799000D02*
X292648943Y-67799000D01*
X332600000Y-85602291D02*
X353010541Y-85602291D01*
%TD*%
M02*
