M48
; DRILL file {KiCad 9.0.7} date 2026-01-20T23:17:08-0800
; FORMAT={-:-/ absolute / metric / decimal}
; #@! TF.CreationDate,2026-01-20T23:17:08-08:00
; #@! TF.GenerationSoftware,Kicad,Pcbnew,9.0.7
; #@! TF.FileFunction,NonPlated,1,2,NPTH
FMAT,2
METRIC
; #@! TA.AperFunction,NonPlated,NPTH,ComponentDrill
T1C0.750
; #@! TA.AperFunction,NonPlated,NPTH,ComponentDrill
T2C0.900
; #@! TA.AperFunction,NonPlated,NPTH,ComponentDrill
T3C1.702
; #@! TA.AperFunction,NonPlated,NPTH,ComponentDrill
T4C3.000
; #@! TA.AperFunction,NonPlated,NPTH,ComponentDrill
T5C3.988
%
G90
G05
T1
X283.0Y-62.625
X283.0Y-65.375
T2
X267.5Y-64.5
X270.5Y-64.5
T3
X249.682Y-93.0
X254.445Y-112.0
X259.842Y-93.0
X263.92Y-74.0
X263.92Y-131.0
X264.605Y-112.0
X268.683Y-93.0
X273.395Y-150.0
X273.445Y-112.0
X274.08Y-74.0
X274.08Y-131.0
X278.842Y-93.0
X282.92Y-74.0
X282.92Y-131.0
X283.555Y-150.0
X283.605Y-112.0
X287.683Y-93.0
X292.445Y-112.0
X293.08Y-74.0
X293.08Y-131.0
X297.842Y-93.0
X301.92Y-74.0
X301.92Y-131.0
X301.92Y-150.0
X302.605Y-112.0
X306.683Y-93.0
X311.445Y-112.0
X312.08Y-74.0
X312.08Y-131.0
X312.08Y-150.0
X316.842Y-93.0
X320.92Y-74.0
X320.92Y-131.0
X320.92Y-150.0
X321.605Y-112.0
X325.683Y-93.0
X330.445Y-112.0
X331.08Y-74.0
X331.08Y-131.0
X331.08Y-150.0
X335.842Y-93.0
X339.92Y-74.0
X339.92Y-131.0
X339.92Y-150.0
X340.605Y-112.0
X350.08Y-74.0
X350.08Y-131.0
X350.08Y-150.0
X351.826Y-93.0
X354.207Y-112.0
X358.92Y-74.0
X358.92Y-131.0
X358.92Y-150.0
X361.986Y-93.0
X364.368Y-112.0
X369.08Y-74.0
X369.08Y-131.0
X369.08Y-150.0
T4
X252.222Y-98.08
X256.985Y-117.08
X258.572Y-95.54
X263.335Y-114.54
X266.46Y-79.08
X266.46Y-136.08
X271.222Y-98.08
X272.81Y-76.54
X272.81Y-133.54
X275.935Y-155.08
X275.985Y-117.08
X277.572Y-95.54
X282.285Y-152.54
X282.335Y-114.54
X285.46Y-79.08
X285.46Y-136.08
X290.222Y-98.08
X291.81Y-76.54
X291.81Y-133.54
X294.985Y-117.08
X296.572Y-95.54
X301.335Y-114.54
X304.46Y-79.08
X304.46Y-136.08
X304.46Y-155.08
X309.222Y-98.08
X310.81Y-76.54
X310.81Y-133.54
X310.81Y-152.54
X313.985Y-117.08
X315.572Y-95.54
X320.335Y-114.54
X323.46Y-79.08
X323.46Y-136.08
X323.46Y-155.08
X328.222Y-98.08
X329.81Y-76.54
X329.81Y-133.54
X329.81Y-152.54
X332.985Y-117.08
X334.572Y-95.54
X339.335Y-114.54
X342.46Y-79.08
X342.46Y-136.08
X342.46Y-155.08
X348.81Y-76.54
X348.81Y-133.54
X348.81Y-152.54
X354.366Y-98.08
X356.748Y-117.08
X360.716Y-95.54
X361.46Y-79.08
X361.46Y-136.08
X361.46Y-155.08
X363.097Y-114.54
X367.81Y-76.54
X367.81Y-133.54
X367.81Y-152.54
T5
X254.762Y-93.0
X259.525Y-112.0
X269.0Y-74.0
X269.0Y-131.0
X273.762Y-93.0
X278.475Y-150.0
X278.525Y-112.0
X288.0Y-74.0
X288.0Y-131.0
X292.762Y-93.0
X297.525Y-112.0
X307.0Y-74.0
X307.0Y-131.0
X307.0Y-150.0
X311.762Y-93.0
X316.525Y-112.0
X326.0Y-74.0
X326.0Y-131.0
X326.0Y-150.0
X330.762Y-93.0
X335.525Y-112.0
X345.0Y-74.0
X345.0Y-131.0
X345.0Y-150.0
X356.906Y-93.0
X359.287Y-112.0
X364.0Y-74.0
X364.0Y-131.0
X364.0Y-150.0
M30
