%TF.GenerationSoftware,KiCad,Pcbnew,9.0.7*%
%TF.CreationDate,2026-01-20T23:17:06-08:00*%
%TF.ProjectId,right,72696768-742e-46b6-9963-61645f706362,v1.0.0*%
%TF.SameCoordinates,Original*%
%TF.FileFunction,Legend,Top*%
%TF.FilePolarity,Positive*%
%FSLAX46Y46*%
G04 Gerber Fmt 4.6, Leading zero omitted, Abs format (unit mm)*
G04 Created by KiCad (PCBNEW 9.0.7) date 2026-01-20 23:17:06*
%MOMM*%
%LPD*%
G01*
G04 APERTURE LIST*
%ADD10C,0.150000*%
%ADD11C,0.300000*%
%ADD12C,0.100000*%
%ADD13C,0.381000*%
%ADD14C,1.752600*%
G04 APERTURE END LIST*
D10*
X269725390Y-146148523D02*
X269687295Y-146224713D01*
X269687295Y-146224713D02*
X269687295Y-146338999D01*
X269687295Y-146338999D02*
X269725390Y-146453285D01*
X269725390Y-146453285D02*
X269801580Y-146529475D01*
X269801580Y-146529475D02*
X269877771Y-146567570D01*
X269877771Y-146567570D02*
X270030152Y-146605666D01*
X270030152Y-146605666D02*
X270144438Y-146605666D01*
X270144438Y-146605666D02*
X270296819Y-146567570D01*
X270296819Y-146567570D02*
X270373009Y-146529475D01*
X270373009Y-146529475D02*
X270449200Y-146453285D01*
X270449200Y-146453285D02*
X270487295Y-146338999D01*
X270487295Y-146338999D02*
X270487295Y-146262808D01*
X270487295Y-146262808D02*
X270449200Y-146148523D01*
X270449200Y-146148523D02*
X270411104Y-146110427D01*
X270411104Y-146110427D02*
X270144438Y-146110427D01*
X270144438Y-146110427D02*
X270144438Y-146262808D01*
X270487295Y-145767570D02*
X269687295Y-145767570D01*
X269687295Y-145767570D02*
X270487295Y-145310427D01*
X270487295Y-145310427D02*
X269687295Y-145310427D01*
X270487295Y-144929475D02*
X269687295Y-144929475D01*
X269687295Y-144929475D02*
X269687295Y-144738999D01*
X269687295Y-144738999D02*
X269725390Y-144624713D01*
X269725390Y-144624713D02*
X269801580Y-144548523D01*
X269801580Y-144548523D02*
X269877771Y-144510428D01*
X269877771Y-144510428D02*
X270030152Y-144472332D01*
X270030152Y-144472332D02*
X270144438Y-144472332D01*
X270144438Y-144472332D02*
X270296819Y-144510428D01*
X270296819Y-144510428D02*
X270373009Y-144548523D01*
X270373009Y-144548523D02*
X270449200Y-144624713D01*
X270449200Y-144624713D02*
X270487295Y-144738999D01*
X270487295Y-144738999D02*
X270487295Y-144929475D01*
X272227295Y-157337190D02*
X272227295Y-157261000D01*
X272227295Y-157261000D02*
X272265390Y-157184809D01*
X272265390Y-157184809D02*
X272303485Y-157146714D01*
X272303485Y-157146714D02*
X272379676Y-157108619D01*
X272379676Y-157108619D02*
X272532057Y-157070524D01*
X272532057Y-157070524D02*
X272722533Y-157070524D01*
X272722533Y-157070524D02*
X272874914Y-157108619D01*
X272874914Y-157108619D02*
X272951104Y-157146714D01*
X272951104Y-157146714D02*
X272989200Y-157184809D01*
X272989200Y-157184809D02*
X273027295Y-157261000D01*
X273027295Y-157261000D02*
X273027295Y-157337190D01*
X273027295Y-157337190D02*
X272989200Y-157413381D01*
X272989200Y-157413381D02*
X272951104Y-157451476D01*
X272951104Y-157451476D02*
X272874914Y-157489571D01*
X272874914Y-157489571D02*
X272722533Y-157527667D01*
X272722533Y-157527667D02*
X272532057Y-157527667D01*
X272532057Y-157527667D02*
X272379676Y-157489571D01*
X272379676Y-157489571D02*
X272303485Y-157451476D01*
X272303485Y-157451476D02*
X272265390Y-157413381D01*
X272265390Y-157413381D02*
X272227295Y-157337190D01*
X272227295Y-156803857D02*
X272227295Y-156308619D01*
X272227295Y-156308619D02*
X272532057Y-156575285D01*
X272532057Y-156575285D02*
X272532057Y-156461000D01*
X272532057Y-156461000D02*
X272570152Y-156384809D01*
X272570152Y-156384809D02*
X272608247Y-156346714D01*
X272608247Y-156346714D02*
X272684438Y-156308619D01*
X272684438Y-156308619D02*
X272874914Y-156308619D01*
X272874914Y-156308619D02*
X272951104Y-156346714D01*
X272951104Y-156346714D02*
X272989200Y-156384809D01*
X272989200Y-156384809D02*
X273027295Y-156461000D01*
X273027295Y-156461000D02*
X273027295Y-156689571D01*
X273027295Y-156689571D02*
X272989200Y-156765762D01*
X272989200Y-156765762D02*
X272951104Y-156803857D01*
X273027295Y-155546714D02*
X273027295Y-156003857D01*
X273027295Y-155775285D02*
X272227295Y-155775285D01*
X272227295Y-155775285D02*
X272341580Y-155851476D01*
X272341580Y-155851476D02*
X272417771Y-155927666D01*
X272417771Y-155927666D02*
X272455866Y-156003857D01*
X272237295Y-146262809D02*
X272237295Y-146186619D01*
X272237295Y-146186619D02*
X272275390Y-146110428D01*
X272275390Y-146110428D02*
X272313485Y-146072333D01*
X272313485Y-146072333D02*
X272389676Y-146034238D01*
X272389676Y-146034238D02*
X272542057Y-145996143D01*
X272542057Y-145996143D02*
X272732533Y-145996143D01*
X272732533Y-145996143D02*
X272884914Y-146034238D01*
X272884914Y-146034238D02*
X272961104Y-146072333D01*
X272961104Y-146072333D02*
X272999200Y-146110428D01*
X272999200Y-146110428D02*
X273037295Y-146186619D01*
X273037295Y-146186619D02*
X273037295Y-146262809D01*
X273037295Y-146262809D02*
X272999200Y-146339000D01*
X272999200Y-146339000D02*
X272961104Y-146377095D01*
X272961104Y-146377095D02*
X272884914Y-146415190D01*
X272884914Y-146415190D02*
X272732533Y-146453286D01*
X272732533Y-146453286D02*
X272542057Y-146453286D01*
X272542057Y-146453286D02*
X272389676Y-146415190D01*
X272389676Y-146415190D02*
X272313485Y-146377095D01*
X272313485Y-146377095D02*
X272275390Y-146339000D01*
X272275390Y-146339000D02*
X272237295Y-146262809D01*
X273037295Y-145234238D02*
X273037295Y-145691381D01*
X273037295Y-145462809D02*
X272237295Y-145462809D01*
X272237295Y-145462809D02*
X272351580Y-145539000D01*
X272351580Y-145539000D02*
X272427771Y-145615190D01*
X272427771Y-145615190D02*
X272465866Y-145691381D01*
X272237295Y-144967571D02*
X272237295Y-144434237D01*
X272237295Y-144434237D02*
X273037295Y-144777095D01*
X269687295Y-157603857D02*
X270487295Y-157337190D01*
X270487295Y-157337190D02*
X269687295Y-157070524D01*
X270411104Y-156346714D02*
X270449200Y-156384810D01*
X270449200Y-156384810D02*
X270487295Y-156499095D01*
X270487295Y-156499095D02*
X270487295Y-156575286D01*
X270487295Y-156575286D02*
X270449200Y-156689572D01*
X270449200Y-156689572D02*
X270373009Y-156765762D01*
X270373009Y-156765762D02*
X270296819Y-156803857D01*
X270296819Y-156803857D02*
X270144438Y-156841953D01*
X270144438Y-156841953D02*
X270030152Y-156841953D01*
X270030152Y-156841953D02*
X269877771Y-156803857D01*
X269877771Y-156803857D02*
X269801580Y-156765762D01*
X269801580Y-156765762D02*
X269725390Y-156689572D01*
X269725390Y-156689572D02*
X269687295Y-156575286D01*
X269687295Y-156575286D02*
X269687295Y-156499095D01*
X269687295Y-156499095D02*
X269725390Y-156384810D01*
X269725390Y-156384810D02*
X269763485Y-156346714D01*
X270411104Y-155546714D02*
X270449200Y-155584810D01*
X270449200Y-155584810D02*
X270487295Y-155699095D01*
X270487295Y-155699095D02*
X270487295Y-155775286D01*
X270487295Y-155775286D02*
X270449200Y-155889572D01*
X270449200Y-155889572D02*
X270373009Y-155965762D01*
X270373009Y-155965762D02*
X270296819Y-156003857D01*
X270296819Y-156003857D02*
X270144438Y-156041953D01*
X270144438Y-156041953D02*
X270030152Y-156041953D01*
X270030152Y-156041953D02*
X269877771Y-156003857D01*
X269877771Y-156003857D02*
X269801580Y-155965762D01*
X269801580Y-155965762D02*
X269725390Y-155889572D01*
X269725390Y-155889572D02*
X269687295Y-155775286D01*
X269687295Y-155775286D02*
X269687295Y-155699095D01*
X269687295Y-155699095D02*
X269725390Y-155584810D01*
X269725390Y-155584810D02*
X269763485Y-155546714D01*
X274837295Y-146262809D02*
X274837295Y-146186619D01*
X274837295Y-146186619D02*
X274875390Y-146110428D01*
X274875390Y-146110428D02*
X274913485Y-146072333D01*
X274913485Y-146072333D02*
X274989676Y-146034238D01*
X274989676Y-146034238D02*
X275142057Y-145996143D01*
X275142057Y-145996143D02*
X275332533Y-145996143D01*
X275332533Y-145996143D02*
X275484914Y-146034238D01*
X275484914Y-146034238D02*
X275561104Y-146072333D01*
X275561104Y-146072333D02*
X275599200Y-146110428D01*
X275599200Y-146110428D02*
X275637295Y-146186619D01*
X275637295Y-146186619D02*
X275637295Y-146262809D01*
X275637295Y-146262809D02*
X275599200Y-146339000D01*
X275599200Y-146339000D02*
X275561104Y-146377095D01*
X275561104Y-146377095D02*
X275484914Y-146415190D01*
X275484914Y-146415190D02*
X275332533Y-146453286D01*
X275332533Y-146453286D02*
X275142057Y-146453286D01*
X275142057Y-146453286D02*
X274989676Y-146415190D01*
X274989676Y-146415190D02*
X274913485Y-146377095D01*
X274913485Y-146377095D02*
X274875390Y-146339000D01*
X274875390Y-146339000D02*
X274837295Y-146262809D01*
X274913485Y-145691381D02*
X274875390Y-145653285D01*
X274875390Y-145653285D02*
X274837295Y-145577095D01*
X274837295Y-145577095D02*
X274837295Y-145386619D01*
X274837295Y-145386619D02*
X274875390Y-145310428D01*
X274875390Y-145310428D02*
X274913485Y-145272333D01*
X274913485Y-145272333D02*
X274989676Y-145234238D01*
X274989676Y-145234238D02*
X275065866Y-145234238D01*
X275065866Y-145234238D02*
X275180152Y-145272333D01*
X275180152Y-145272333D02*
X275637295Y-145729476D01*
X275637295Y-145729476D02*
X275637295Y-145234238D01*
X274837295Y-144738999D02*
X274837295Y-144662809D01*
X274837295Y-144662809D02*
X274875390Y-144586618D01*
X274875390Y-144586618D02*
X274913485Y-144548523D01*
X274913485Y-144548523D02*
X274989676Y-144510428D01*
X274989676Y-144510428D02*
X275142057Y-144472333D01*
X275142057Y-144472333D02*
X275332533Y-144472333D01*
X275332533Y-144472333D02*
X275484914Y-144510428D01*
X275484914Y-144510428D02*
X275561104Y-144548523D01*
X275561104Y-144548523D02*
X275599200Y-144586618D01*
X275599200Y-144586618D02*
X275637295Y-144662809D01*
X275637295Y-144662809D02*
X275637295Y-144738999D01*
X275637295Y-144738999D02*
X275599200Y-144815190D01*
X275599200Y-144815190D02*
X275561104Y-144853285D01*
X275561104Y-144853285D02*
X275484914Y-144891380D01*
X275484914Y-144891380D02*
X275332533Y-144929476D01*
X275332533Y-144929476D02*
X275142057Y-144929476D01*
X275142057Y-144929476D02*
X274989676Y-144891380D01*
X274989676Y-144891380D02*
X274913485Y-144853285D01*
X274913485Y-144853285D02*
X274875390Y-144815190D01*
X274875390Y-144815190D02*
X274837295Y-144738999D01*
X280647295Y-157070524D02*
X280647295Y-157527667D01*
X280647295Y-157299095D02*
X279847295Y-157299095D01*
X279847295Y-157299095D02*
X279961580Y-157375286D01*
X279961580Y-157375286D02*
X280037771Y-157451476D01*
X280037771Y-157451476D02*
X280075866Y-157527667D01*
X280647295Y-156308619D02*
X280647295Y-156765762D01*
X280647295Y-156537190D02*
X279847295Y-156537190D01*
X279847295Y-156537190D02*
X279961580Y-156613381D01*
X279961580Y-156613381D02*
X280037771Y-156689571D01*
X280037771Y-156689571D02*
X280075866Y-156765762D01*
X279847295Y-155584809D02*
X279847295Y-155965761D01*
X279847295Y-155965761D02*
X280228247Y-156003857D01*
X280228247Y-156003857D02*
X280190152Y-155965761D01*
X280190152Y-155965761D02*
X280152057Y-155889571D01*
X280152057Y-155889571D02*
X280152057Y-155699095D01*
X280152057Y-155699095D02*
X280190152Y-155622904D01*
X280190152Y-155622904D02*
X280228247Y-155584809D01*
X280228247Y-155584809D02*
X280304438Y-155546714D01*
X280304438Y-155546714D02*
X280494914Y-155546714D01*
X280494914Y-155546714D02*
X280571104Y-155584809D01*
X280571104Y-155584809D02*
X280609200Y-155622904D01*
X280609200Y-155622904D02*
X280647295Y-155699095D01*
X280647295Y-155699095D02*
X280647295Y-155889571D01*
X280647295Y-155889571D02*
X280609200Y-155965761D01*
X280609200Y-155965761D02*
X280571104Y-156003857D01*
X277337295Y-146262809D02*
X277337295Y-146186619D01*
X277337295Y-146186619D02*
X277375390Y-146110428D01*
X277375390Y-146110428D02*
X277413485Y-146072333D01*
X277413485Y-146072333D02*
X277489676Y-146034238D01*
X277489676Y-146034238D02*
X277642057Y-145996143D01*
X277642057Y-145996143D02*
X277832533Y-145996143D01*
X277832533Y-145996143D02*
X277984914Y-146034238D01*
X277984914Y-146034238D02*
X278061104Y-146072333D01*
X278061104Y-146072333D02*
X278099200Y-146110428D01*
X278099200Y-146110428D02*
X278137295Y-146186619D01*
X278137295Y-146186619D02*
X278137295Y-146262809D01*
X278137295Y-146262809D02*
X278099200Y-146339000D01*
X278099200Y-146339000D02*
X278061104Y-146377095D01*
X278061104Y-146377095D02*
X277984914Y-146415190D01*
X277984914Y-146415190D02*
X277832533Y-146453286D01*
X277832533Y-146453286D02*
X277642057Y-146453286D01*
X277642057Y-146453286D02*
X277489676Y-146415190D01*
X277489676Y-146415190D02*
X277413485Y-146377095D01*
X277413485Y-146377095D02*
X277375390Y-146339000D01*
X277375390Y-146339000D02*
X277337295Y-146262809D01*
X277413485Y-145691381D02*
X277375390Y-145653285D01*
X277375390Y-145653285D02*
X277337295Y-145577095D01*
X277337295Y-145577095D02*
X277337295Y-145386619D01*
X277337295Y-145386619D02*
X277375390Y-145310428D01*
X277375390Y-145310428D02*
X277413485Y-145272333D01*
X277413485Y-145272333D02*
X277489676Y-145234238D01*
X277489676Y-145234238D02*
X277565866Y-145234238D01*
X277565866Y-145234238D02*
X277680152Y-145272333D01*
X277680152Y-145272333D02*
X278137295Y-145729476D01*
X278137295Y-145729476D02*
X278137295Y-145234238D01*
X277413485Y-144929476D02*
X277375390Y-144891380D01*
X277375390Y-144891380D02*
X277337295Y-144815190D01*
X277337295Y-144815190D02*
X277337295Y-144624714D01*
X277337295Y-144624714D02*
X277375390Y-144548523D01*
X277375390Y-144548523D02*
X277413485Y-144510428D01*
X277413485Y-144510428D02*
X277489676Y-144472333D01*
X277489676Y-144472333D02*
X277565866Y-144472333D01*
X277565866Y-144472333D02*
X277680152Y-144510428D01*
X277680152Y-144510428D02*
X278137295Y-144967571D01*
X278137295Y-144967571D02*
X278137295Y-144472333D01*
X274767295Y-157337190D02*
X274767295Y-157261000D01*
X274767295Y-157261000D02*
X274805390Y-157184809D01*
X274805390Y-157184809D02*
X274843485Y-157146714D01*
X274843485Y-157146714D02*
X274919676Y-157108619D01*
X274919676Y-157108619D02*
X275072057Y-157070524D01*
X275072057Y-157070524D02*
X275262533Y-157070524D01*
X275262533Y-157070524D02*
X275414914Y-157108619D01*
X275414914Y-157108619D02*
X275491104Y-157146714D01*
X275491104Y-157146714D02*
X275529200Y-157184809D01*
X275529200Y-157184809D02*
X275567295Y-157261000D01*
X275567295Y-157261000D02*
X275567295Y-157337190D01*
X275567295Y-157337190D02*
X275529200Y-157413381D01*
X275529200Y-157413381D02*
X275491104Y-157451476D01*
X275491104Y-157451476D02*
X275414914Y-157489571D01*
X275414914Y-157489571D02*
X275262533Y-157527667D01*
X275262533Y-157527667D02*
X275072057Y-157527667D01*
X275072057Y-157527667D02*
X274919676Y-157489571D01*
X274919676Y-157489571D02*
X274843485Y-157451476D01*
X274843485Y-157451476D02*
X274805390Y-157413381D01*
X274805390Y-157413381D02*
X274767295Y-157337190D01*
X274843485Y-156765762D02*
X274805390Y-156727666D01*
X274805390Y-156727666D02*
X274767295Y-156651476D01*
X274767295Y-156651476D02*
X274767295Y-156461000D01*
X274767295Y-156461000D02*
X274805390Y-156384809D01*
X274805390Y-156384809D02*
X274843485Y-156346714D01*
X274843485Y-156346714D02*
X274919676Y-156308619D01*
X274919676Y-156308619D02*
X274995866Y-156308619D01*
X274995866Y-156308619D02*
X275110152Y-156346714D01*
X275110152Y-156346714D02*
X275567295Y-156803857D01*
X275567295Y-156803857D02*
X275567295Y-156308619D01*
X275567295Y-155927666D02*
X275567295Y-155775285D01*
X275567295Y-155775285D02*
X275529200Y-155699095D01*
X275529200Y-155699095D02*
X275491104Y-155660999D01*
X275491104Y-155660999D02*
X275376819Y-155584809D01*
X275376819Y-155584809D02*
X275224438Y-155546714D01*
X275224438Y-155546714D02*
X274919676Y-155546714D01*
X274919676Y-155546714D02*
X274843485Y-155584809D01*
X274843485Y-155584809D02*
X274805390Y-155622904D01*
X274805390Y-155622904D02*
X274767295Y-155699095D01*
X274767295Y-155699095D02*
X274767295Y-155851476D01*
X274767295Y-155851476D02*
X274805390Y-155927666D01*
X274805390Y-155927666D02*
X274843485Y-155965761D01*
X274843485Y-155965761D02*
X274919676Y-156003857D01*
X274919676Y-156003857D02*
X275110152Y-156003857D01*
X275110152Y-156003857D02*
X275186342Y-155965761D01*
X275186342Y-155965761D02*
X275224438Y-155927666D01*
X275224438Y-155927666D02*
X275262533Y-155851476D01*
X275262533Y-155851476D02*
X275262533Y-155699095D01*
X275262533Y-155699095D02*
X275224438Y-155622904D01*
X275224438Y-155622904D02*
X275186342Y-155584809D01*
X275186342Y-155584809D02*
X275110152Y-155546714D01*
X264537295Y-146262809D02*
X264537295Y-146186619D01*
X264537295Y-146186619D02*
X264575390Y-146110428D01*
X264575390Y-146110428D02*
X264613485Y-146072333D01*
X264613485Y-146072333D02*
X264689676Y-146034238D01*
X264689676Y-146034238D02*
X264842057Y-145996143D01*
X264842057Y-145996143D02*
X265032533Y-145996143D01*
X265032533Y-145996143D02*
X265184914Y-146034238D01*
X265184914Y-146034238D02*
X265261104Y-146072333D01*
X265261104Y-146072333D02*
X265299200Y-146110428D01*
X265299200Y-146110428D02*
X265337295Y-146186619D01*
X265337295Y-146186619D02*
X265337295Y-146262809D01*
X265337295Y-146262809D02*
X265299200Y-146339000D01*
X265299200Y-146339000D02*
X265261104Y-146377095D01*
X265261104Y-146377095D02*
X265184914Y-146415190D01*
X265184914Y-146415190D02*
X265032533Y-146453286D01*
X265032533Y-146453286D02*
X264842057Y-146453286D01*
X264842057Y-146453286D02*
X264689676Y-146415190D01*
X264689676Y-146415190D02*
X264613485Y-146377095D01*
X264613485Y-146377095D02*
X264575390Y-146339000D01*
X264575390Y-146339000D02*
X264537295Y-146262809D01*
X264537295Y-145500904D02*
X264537295Y-145424714D01*
X264537295Y-145424714D02*
X264575390Y-145348523D01*
X264575390Y-145348523D02*
X264613485Y-145310428D01*
X264613485Y-145310428D02*
X264689676Y-145272333D01*
X264689676Y-145272333D02*
X264842057Y-145234238D01*
X264842057Y-145234238D02*
X265032533Y-145234238D01*
X265032533Y-145234238D02*
X265184914Y-145272333D01*
X265184914Y-145272333D02*
X265261104Y-145310428D01*
X265261104Y-145310428D02*
X265299200Y-145348523D01*
X265299200Y-145348523D02*
X265337295Y-145424714D01*
X265337295Y-145424714D02*
X265337295Y-145500904D01*
X265337295Y-145500904D02*
X265299200Y-145577095D01*
X265299200Y-145577095D02*
X265261104Y-145615190D01*
X265261104Y-145615190D02*
X265184914Y-145653285D01*
X265184914Y-145653285D02*
X265032533Y-145691381D01*
X265032533Y-145691381D02*
X264842057Y-145691381D01*
X264842057Y-145691381D02*
X264689676Y-145653285D01*
X264689676Y-145653285D02*
X264613485Y-145615190D01*
X264613485Y-145615190D02*
X264575390Y-145577095D01*
X264575390Y-145577095D02*
X264537295Y-145500904D01*
X264880152Y-144777095D02*
X264842057Y-144853285D01*
X264842057Y-144853285D02*
X264803961Y-144891380D01*
X264803961Y-144891380D02*
X264727771Y-144929476D01*
X264727771Y-144929476D02*
X264689676Y-144929476D01*
X264689676Y-144929476D02*
X264613485Y-144891380D01*
X264613485Y-144891380D02*
X264575390Y-144853285D01*
X264575390Y-144853285D02*
X264537295Y-144777095D01*
X264537295Y-144777095D02*
X264537295Y-144624714D01*
X264537295Y-144624714D02*
X264575390Y-144548523D01*
X264575390Y-144548523D02*
X264613485Y-144510428D01*
X264613485Y-144510428D02*
X264689676Y-144472333D01*
X264689676Y-144472333D02*
X264727771Y-144472333D01*
X264727771Y-144472333D02*
X264803961Y-144510428D01*
X264803961Y-144510428D02*
X264842057Y-144548523D01*
X264842057Y-144548523D02*
X264880152Y-144624714D01*
X264880152Y-144624714D02*
X264880152Y-144777095D01*
X264880152Y-144777095D02*
X264918247Y-144853285D01*
X264918247Y-144853285D02*
X264956342Y-144891380D01*
X264956342Y-144891380D02*
X265032533Y-144929476D01*
X265032533Y-144929476D02*
X265184914Y-144929476D01*
X265184914Y-144929476D02*
X265261104Y-144891380D01*
X265261104Y-144891380D02*
X265299200Y-144853285D01*
X265299200Y-144853285D02*
X265337295Y-144777095D01*
X265337295Y-144777095D02*
X265337295Y-144624714D01*
X265337295Y-144624714D02*
X265299200Y-144548523D01*
X265299200Y-144548523D02*
X265261104Y-144510428D01*
X265261104Y-144510428D02*
X265184914Y-144472333D01*
X265184914Y-144472333D02*
X265032533Y-144472333D01*
X265032533Y-144472333D02*
X264956342Y-144510428D01*
X264956342Y-144510428D02*
X264918247Y-144548523D01*
X264918247Y-144548523D02*
X264880152Y-144624714D01*
X262867295Y-157026095D02*
X262486342Y-157292762D01*
X262867295Y-157483238D02*
X262067295Y-157483238D01*
X262067295Y-157483238D02*
X262067295Y-157178476D01*
X262067295Y-157178476D02*
X262105390Y-157102286D01*
X262105390Y-157102286D02*
X262143485Y-157064191D01*
X262143485Y-157064191D02*
X262219676Y-157026095D01*
X262219676Y-157026095D02*
X262333961Y-157026095D01*
X262333961Y-157026095D02*
X262410152Y-157064191D01*
X262410152Y-157064191D02*
X262448247Y-157102286D01*
X262448247Y-157102286D02*
X262486342Y-157178476D01*
X262486342Y-157178476D02*
X262486342Y-157483238D01*
X262638723Y-156721334D02*
X262638723Y-156340381D01*
X262867295Y-156797524D02*
X262067295Y-156530857D01*
X262067295Y-156530857D02*
X262867295Y-156264191D01*
X262067295Y-156073715D02*
X262867295Y-155883239D01*
X262867295Y-155883239D02*
X262295866Y-155730858D01*
X262295866Y-155730858D02*
X262867295Y-155578477D01*
X262867295Y-155578477D02*
X262067295Y-155388001D01*
X279847295Y-146262809D02*
X279847295Y-146186619D01*
X279847295Y-146186619D02*
X279885390Y-146110428D01*
X279885390Y-146110428D02*
X279923485Y-146072333D01*
X279923485Y-146072333D02*
X279999676Y-146034238D01*
X279999676Y-146034238D02*
X280152057Y-145996143D01*
X280152057Y-145996143D02*
X280342533Y-145996143D01*
X280342533Y-145996143D02*
X280494914Y-146034238D01*
X280494914Y-146034238D02*
X280571104Y-146072333D01*
X280571104Y-146072333D02*
X280609200Y-146110428D01*
X280609200Y-146110428D02*
X280647295Y-146186619D01*
X280647295Y-146186619D02*
X280647295Y-146262809D01*
X280647295Y-146262809D02*
X280609200Y-146339000D01*
X280609200Y-146339000D02*
X280571104Y-146377095D01*
X280571104Y-146377095D02*
X280494914Y-146415190D01*
X280494914Y-146415190D02*
X280342533Y-146453286D01*
X280342533Y-146453286D02*
X280152057Y-146453286D01*
X280152057Y-146453286D02*
X279999676Y-146415190D01*
X279999676Y-146415190D02*
X279923485Y-146377095D01*
X279923485Y-146377095D02*
X279885390Y-146339000D01*
X279885390Y-146339000D02*
X279847295Y-146262809D01*
X279923485Y-145691381D02*
X279885390Y-145653285D01*
X279885390Y-145653285D02*
X279847295Y-145577095D01*
X279847295Y-145577095D02*
X279847295Y-145386619D01*
X279847295Y-145386619D02*
X279885390Y-145310428D01*
X279885390Y-145310428D02*
X279923485Y-145272333D01*
X279923485Y-145272333D02*
X279999676Y-145234238D01*
X279999676Y-145234238D02*
X280075866Y-145234238D01*
X280075866Y-145234238D02*
X280190152Y-145272333D01*
X280190152Y-145272333D02*
X280647295Y-145729476D01*
X280647295Y-145729476D02*
X280647295Y-145234238D01*
X280113961Y-144548523D02*
X280647295Y-144548523D01*
X279809200Y-144738999D02*
X280380628Y-144929476D01*
X280380628Y-144929476D02*
X280380628Y-144434237D01*
X287467295Y-157337190D02*
X287467295Y-157261000D01*
X287467295Y-157261000D02*
X287505390Y-157184809D01*
X287505390Y-157184809D02*
X287543485Y-157146714D01*
X287543485Y-157146714D02*
X287619676Y-157108619D01*
X287619676Y-157108619D02*
X287772057Y-157070524D01*
X287772057Y-157070524D02*
X287962533Y-157070524D01*
X287962533Y-157070524D02*
X288114914Y-157108619D01*
X288114914Y-157108619D02*
X288191104Y-157146714D01*
X288191104Y-157146714D02*
X288229200Y-157184809D01*
X288229200Y-157184809D02*
X288267295Y-157261000D01*
X288267295Y-157261000D02*
X288267295Y-157337190D01*
X288267295Y-157337190D02*
X288229200Y-157413381D01*
X288229200Y-157413381D02*
X288191104Y-157451476D01*
X288191104Y-157451476D02*
X288114914Y-157489571D01*
X288114914Y-157489571D02*
X287962533Y-157527667D01*
X287962533Y-157527667D02*
X287772057Y-157527667D01*
X287772057Y-157527667D02*
X287619676Y-157489571D01*
X287619676Y-157489571D02*
X287543485Y-157451476D01*
X287543485Y-157451476D02*
X287505390Y-157413381D01*
X287505390Y-157413381D02*
X287467295Y-157337190D01*
X288267295Y-156308619D02*
X288267295Y-156765762D01*
X288267295Y-156537190D02*
X287467295Y-156537190D01*
X287467295Y-156537190D02*
X287581580Y-156613381D01*
X287581580Y-156613381D02*
X287657771Y-156689571D01*
X287657771Y-156689571D02*
X287695866Y-156765762D01*
X287467295Y-155813380D02*
X287467295Y-155737190D01*
X287467295Y-155737190D02*
X287505390Y-155660999D01*
X287505390Y-155660999D02*
X287543485Y-155622904D01*
X287543485Y-155622904D02*
X287619676Y-155584809D01*
X287619676Y-155584809D02*
X287772057Y-155546714D01*
X287772057Y-155546714D02*
X287962533Y-155546714D01*
X287962533Y-155546714D02*
X288114914Y-155584809D01*
X288114914Y-155584809D02*
X288191104Y-155622904D01*
X288191104Y-155622904D02*
X288229200Y-155660999D01*
X288229200Y-155660999D02*
X288267295Y-155737190D01*
X288267295Y-155737190D02*
X288267295Y-155813380D01*
X288267295Y-155813380D02*
X288229200Y-155889571D01*
X288229200Y-155889571D02*
X288191104Y-155927666D01*
X288191104Y-155927666D02*
X288114914Y-155965761D01*
X288114914Y-155965761D02*
X287962533Y-156003857D01*
X287962533Y-156003857D02*
X287772057Y-156003857D01*
X287772057Y-156003857D02*
X287619676Y-155965761D01*
X287619676Y-155965761D02*
X287543485Y-155927666D01*
X287543485Y-155927666D02*
X287505390Y-155889571D01*
X287505390Y-155889571D02*
X287467295Y-155813380D01*
X283187295Y-145996143D02*
X283187295Y-146453286D01*
X283187295Y-146224714D02*
X282387295Y-146224714D01*
X282387295Y-146224714D02*
X282501580Y-146300905D01*
X282501580Y-146300905D02*
X282577771Y-146377095D01*
X282577771Y-146377095D02*
X282615866Y-146453286D01*
X282387295Y-145500904D02*
X282387295Y-145424714D01*
X282387295Y-145424714D02*
X282425390Y-145348523D01*
X282425390Y-145348523D02*
X282463485Y-145310428D01*
X282463485Y-145310428D02*
X282539676Y-145272333D01*
X282539676Y-145272333D02*
X282692057Y-145234238D01*
X282692057Y-145234238D02*
X282882533Y-145234238D01*
X282882533Y-145234238D02*
X283034914Y-145272333D01*
X283034914Y-145272333D02*
X283111104Y-145310428D01*
X283111104Y-145310428D02*
X283149200Y-145348523D01*
X283149200Y-145348523D02*
X283187295Y-145424714D01*
X283187295Y-145424714D02*
X283187295Y-145500904D01*
X283187295Y-145500904D02*
X283149200Y-145577095D01*
X283149200Y-145577095D02*
X283111104Y-145615190D01*
X283111104Y-145615190D02*
X283034914Y-145653285D01*
X283034914Y-145653285D02*
X282882533Y-145691381D01*
X282882533Y-145691381D02*
X282692057Y-145691381D01*
X282692057Y-145691381D02*
X282539676Y-145653285D01*
X282539676Y-145653285D02*
X282463485Y-145615190D01*
X282463485Y-145615190D02*
X282425390Y-145577095D01*
X282425390Y-145577095D02*
X282387295Y-145500904D01*
X282387295Y-144738999D02*
X282387295Y-144662809D01*
X282387295Y-144662809D02*
X282425390Y-144586618D01*
X282425390Y-144586618D02*
X282463485Y-144548523D01*
X282463485Y-144548523D02*
X282539676Y-144510428D01*
X282539676Y-144510428D02*
X282692057Y-144472333D01*
X282692057Y-144472333D02*
X282882533Y-144472333D01*
X282882533Y-144472333D02*
X283034914Y-144510428D01*
X283034914Y-144510428D02*
X283111104Y-144548523D01*
X283111104Y-144548523D02*
X283149200Y-144586618D01*
X283149200Y-144586618D02*
X283187295Y-144662809D01*
X283187295Y-144662809D02*
X283187295Y-144738999D01*
X283187295Y-144738999D02*
X283149200Y-144815190D01*
X283149200Y-144815190D02*
X283111104Y-144853285D01*
X283111104Y-144853285D02*
X283034914Y-144891380D01*
X283034914Y-144891380D02*
X282882533Y-144929476D01*
X282882533Y-144929476D02*
X282692057Y-144929476D01*
X282692057Y-144929476D02*
X282539676Y-144891380D01*
X282539676Y-144891380D02*
X282463485Y-144853285D01*
X282463485Y-144853285D02*
X282425390Y-144815190D01*
X282425390Y-144815190D02*
X282387295Y-144738999D01*
X283187295Y-157070524D02*
X283187295Y-157527667D01*
X283187295Y-157299095D02*
X282387295Y-157299095D01*
X282387295Y-157299095D02*
X282501580Y-157375286D01*
X282501580Y-157375286D02*
X282577771Y-157451476D01*
X282577771Y-157451476D02*
X282615866Y-157527667D01*
X283187295Y-156308619D02*
X283187295Y-156765762D01*
X283187295Y-156537190D02*
X282387295Y-156537190D01*
X282387295Y-156537190D02*
X282501580Y-156613381D01*
X282501580Y-156613381D02*
X282577771Y-156689571D01*
X282577771Y-156689571D02*
X282615866Y-156765762D01*
X282387295Y-156041952D02*
X282387295Y-155546714D01*
X282387295Y-155546714D02*
X282692057Y-155813380D01*
X282692057Y-155813380D02*
X282692057Y-155699095D01*
X282692057Y-155699095D02*
X282730152Y-155622904D01*
X282730152Y-155622904D02*
X282768247Y-155584809D01*
X282768247Y-155584809D02*
X282844438Y-155546714D01*
X282844438Y-155546714D02*
X283034914Y-155546714D01*
X283034914Y-155546714D02*
X283111104Y-155584809D01*
X283111104Y-155584809D02*
X283149200Y-155622904D01*
X283149200Y-155622904D02*
X283187295Y-155699095D01*
X283187295Y-155699095D02*
X283187295Y-155927666D01*
X283187295Y-155927666D02*
X283149200Y-156003857D01*
X283149200Y-156003857D02*
X283111104Y-156041952D01*
X277307295Y-157337190D02*
X277307295Y-157261000D01*
X277307295Y-157261000D02*
X277345390Y-157184809D01*
X277345390Y-157184809D02*
X277383485Y-157146714D01*
X277383485Y-157146714D02*
X277459676Y-157108619D01*
X277459676Y-157108619D02*
X277612057Y-157070524D01*
X277612057Y-157070524D02*
X277802533Y-157070524D01*
X277802533Y-157070524D02*
X277954914Y-157108619D01*
X277954914Y-157108619D02*
X278031104Y-157146714D01*
X278031104Y-157146714D02*
X278069200Y-157184809D01*
X278069200Y-157184809D02*
X278107295Y-157261000D01*
X278107295Y-157261000D02*
X278107295Y-157337190D01*
X278107295Y-157337190D02*
X278069200Y-157413381D01*
X278069200Y-157413381D02*
X278031104Y-157451476D01*
X278031104Y-157451476D02*
X277954914Y-157489571D01*
X277954914Y-157489571D02*
X277802533Y-157527667D01*
X277802533Y-157527667D02*
X277612057Y-157527667D01*
X277612057Y-157527667D02*
X277459676Y-157489571D01*
X277459676Y-157489571D02*
X277383485Y-157451476D01*
X277383485Y-157451476D02*
X277345390Y-157413381D01*
X277345390Y-157413381D02*
X277307295Y-157337190D01*
X277307295Y-156575285D02*
X277307295Y-156499095D01*
X277307295Y-156499095D02*
X277345390Y-156422904D01*
X277345390Y-156422904D02*
X277383485Y-156384809D01*
X277383485Y-156384809D02*
X277459676Y-156346714D01*
X277459676Y-156346714D02*
X277612057Y-156308619D01*
X277612057Y-156308619D02*
X277802533Y-156308619D01*
X277802533Y-156308619D02*
X277954914Y-156346714D01*
X277954914Y-156346714D02*
X278031104Y-156384809D01*
X278031104Y-156384809D02*
X278069200Y-156422904D01*
X278069200Y-156422904D02*
X278107295Y-156499095D01*
X278107295Y-156499095D02*
X278107295Y-156575285D01*
X278107295Y-156575285D02*
X278069200Y-156651476D01*
X278069200Y-156651476D02*
X278031104Y-156689571D01*
X278031104Y-156689571D02*
X277954914Y-156727666D01*
X277954914Y-156727666D02*
X277802533Y-156765762D01*
X277802533Y-156765762D02*
X277612057Y-156765762D01*
X277612057Y-156765762D02*
X277459676Y-156727666D01*
X277459676Y-156727666D02*
X277383485Y-156689571D01*
X277383485Y-156689571D02*
X277345390Y-156651476D01*
X277345390Y-156651476D02*
X277307295Y-156575285D01*
X277383485Y-156003857D02*
X277345390Y-155965761D01*
X277345390Y-155965761D02*
X277307295Y-155889571D01*
X277307295Y-155889571D02*
X277307295Y-155699095D01*
X277307295Y-155699095D02*
X277345390Y-155622904D01*
X277345390Y-155622904D02*
X277383485Y-155584809D01*
X277383485Y-155584809D02*
X277459676Y-155546714D01*
X277459676Y-155546714D02*
X277535866Y-155546714D01*
X277535866Y-155546714D02*
X277650152Y-155584809D01*
X277650152Y-155584809D02*
X278107295Y-156041952D01*
X278107295Y-156041952D02*
X278107295Y-155546714D01*
X267947295Y-157026094D02*
X267566342Y-157292761D01*
X267947295Y-157483237D02*
X267147295Y-157483237D01*
X267147295Y-157483237D02*
X267147295Y-157178475D01*
X267147295Y-157178475D02*
X267185390Y-157102285D01*
X267185390Y-157102285D02*
X267223485Y-157064190D01*
X267223485Y-157064190D02*
X267299676Y-157026094D01*
X267299676Y-157026094D02*
X267413961Y-157026094D01*
X267413961Y-157026094D02*
X267490152Y-157064190D01*
X267490152Y-157064190D02*
X267528247Y-157102285D01*
X267528247Y-157102285D02*
X267566342Y-157178475D01*
X267566342Y-157178475D02*
X267566342Y-157483237D01*
X267909200Y-156721333D02*
X267947295Y-156607047D01*
X267947295Y-156607047D02*
X267947295Y-156416571D01*
X267947295Y-156416571D02*
X267909200Y-156340380D01*
X267909200Y-156340380D02*
X267871104Y-156302285D01*
X267871104Y-156302285D02*
X267794914Y-156264190D01*
X267794914Y-156264190D02*
X267718723Y-156264190D01*
X267718723Y-156264190D02*
X267642533Y-156302285D01*
X267642533Y-156302285D02*
X267604438Y-156340380D01*
X267604438Y-156340380D02*
X267566342Y-156416571D01*
X267566342Y-156416571D02*
X267528247Y-156568952D01*
X267528247Y-156568952D02*
X267490152Y-156645142D01*
X267490152Y-156645142D02*
X267452057Y-156683237D01*
X267452057Y-156683237D02*
X267375866Y-156721333D01*
X267375866Y-156721333D02*
X267299676Y-156721333D01*
X267299676Y-156721333D02*
X267223485Y-156683237D01*
X267223485Y-156683237D02*
X267185390Y-156645142D01*
X267185390Y-156645142D02*
X267147295Y-156568952D01*
X267147295Y-156568952D02*
X267147295Y-156378475D01*
X267147295Y-156378475D02*
X267185390Y-156264190D01*
X267147295Y-156035618D02*
X267147295Y-155578475D01*
X267947295Y-155807047D02*
X267147295Y-155807047D01*
X285727295Y-157070524D02*
X285727295Y-157527667D01*
X285727295Y-157299095D02*
X284927295Y-157299095D01*
X284927295Y-157299095D02*
X285041580Y-157375286D01*
X285041580Y-157375286D02*
X285117771Y-157451476D01*
X285117771Y-157451476D02*
X285155866Y-157527667D01*
X285727295Y-156308619D02*
X285727295Y-156765762D01*
X285727295Y-156537190D02*
X284927295Y-156537190D01*
X284927295Y-156537190D02*
X285041580Y-156613381D01*
X285041580Y-156613381D02*
X285117771Y-156689571D01*
X285117771Y-156689571D02*
X285155866Y-156765762D01*
X285727295Y-155546714D02*
X285727295Y-156003857D01*
X285727295Y-155775285D02*
X284927295Y-155775285D01*
X284927295Y-155775285D02*
X285041580Y-155851476D01*
X285041580Y-155851476D02*
X285117771Y-155927666D01*
X285117771Y-155927666D02*
X285155866Y-156003857D01*
D11*
X289615328Y-156289714D02*
X290615328Y-156289714D01*
X289758185Y-156289714D02*
X289686757Y-156218285D01*
X289686757Y-156218285D02*
X289615328Y-156075428D01*
X289615328Y-156075428D02*
X289615328Y-155861142D01*
X289615328Y-155861142D02*
X289686757Y-155718285D01*
X289686757Y-155718285D02*
X289829614Y-155646857D01*
X289829614Y-155646857D02*
X290615328Y-155646857D01*
X290615328Y-154932571D02*
X289615328Y-154932571D01*
X289115328Y-154932571D02*
X289186757Y-155003999D01*
X289186757Y-155003999D02*
X289258185Y-154932571D01*
X289258185Y-154932571D02*
X289186757Y-154861142D01*
X289186757Y-154861142D02*
X289115328Y-154932571D01*
X289115328Y-154932571D02*
X289258185Y-154932571D01*
X290543900Y-153575428D02*
X290615328Y-153718285D01*
X290615328Y-153718285D02*
X290615328Y-154003999D01*
X290615328Y-154003999D02*
X290543900Y-154146856D01*
X290543900Y-154146856D02*
X290472471Y-154218285D01*
X290472471Y-154218285D02*
X290329614Y-154289713D01*
X290329614Y-154289713D02*
X289901042Y-154289713D01*
X289901042Y-154289713D02*
X289758185Y-154218285D01*
X289758185Y-154218285D02*
X289686757Y-154146856D01*
X289686757Y-154146856D02*
X289615328Y-154003999D01*
X289615328Y-154003999D02*
X289615328Y-153718285D01*
X289615328Y-153718285D02*
X289686757Y-153575428D01*
X290543900Y-152361142D02*
X290615328Y-152503999D01*
X290615328Y-152503999D02*
X290615328Y-152789714D01*
X290615328Y-152789714D02*
X290543900Y-152932571D01*
X290543900Y-152932571D02*
X290401042Y-153003999D01*
X290401042Y-153003999D02*
X289829614Y-153003999D01*
X289829614Y-153003999D02*
X289686757Y-152932571D01*
X289686757Y-152932571D02*
X289615328Y-152789714D01*
X289615328Y-152789714D02*
X289615328Y-152503999D01*
X289615328Y-152503999D02*
X289686757Y-152361142D01*
X289686757Y-152361142D02*
X289829614Y-152289714D01*
X289829614Y-152289714D02*
X289972471Y-152289714D01*
X289972471Y-152289714D02*
X290115328Y-153003999D01*
X290472471Y-151646857D02*
X290543900Y-151575428D01*
X290543900Y-151575428D02*
X290615328Y-151646857D01*
X290615328Y-151646857D02*
X290543900Y-151718285D01*
X290543900Y-151718285D02*
X290472471Y-151646857D01*
X290472471Y-151646857D02*
X290615328Y-151646857D01*
X290043900Y-151646857D02*
X289186757Y-151718285D01*
X289186757Y-151718285D02*
X289115328Y-151646857D01*
X289115328Y-151646857D02*
X289186757Y-151575428D01*
X289186757Y-151575428D02*
X290043900Y-151646857D01*
X290043900Y-151646857D02*
X289115328Y-151646857D01*
X289615328Y-150932571D02*
X290615328Y-150932571D01*
X289758185Y-150932571D02*
X289686757Y-150861142D01*
X289686757Y-150861142D02*
X289615328Y-150718285D01*
X289615328Y-150718285D02*
X289615328Y-150503999D01*
X289615328Y-150503999D02*
X289686757Y-150361142D01*
X289686757Y-150361142D02*
X289829614Y-150289714D01*
X289829614Y-150289714D02*
X290615328Y-150289714D01*
X290615328Y-148932571D02*
X289829614Y-148932571D01*
X289829614Y-148932571D02*
X289686757Y-149003999D01*
X289686757Y-149003999D02*
X289615328Y-149146856D01*
X289615328Y-149146856D02*
X289615328Y-149432571D01*
X289615328Y-149432571D02*
X289686757Y-149575428D01*
X290543900Y-148932571D02*
X290615328Y-149075428D01*
X290615328Y-149075428D02*
X290615328Y-149432571D01*
X290615328Y-149432571D02*
X290543900Y-149575428D01*
X290543900Y-149575428D02*
X290401042Y-149646856D01*
X290401042Y-149646856D02*
X290258185Y-149646856D01*
X290258185Y-149646856D02*
X290115328Y-149575428D01*
X290115328Y-149575428D02*
X290043900Y-149432571D01*
X290043900Y-149432571D02*
X290043900Y-149075428D01*
X290043900Y-149075428D02*
X289972471Y-148932571D01*
X289615328Y-148218285D02*
X290615328Y-148218285D01*
X289758185Y-148218285D02*
X289686757Y-148146856D01*
X289686757Y-148146856D02*
X289615328Y-148003999D01*
X289615328Y-148003999D02*
X289615328Y-147789713D01*
X289615328Y-147789713D02*
X289686757Y-147646856D01*
X289686757Y-147646856D02*
X289829614Y-147575428D01*
X289829614Y-147575428D02*
X290615328Y-147575428D01*
X290615328Y-146646856D02*
X290543900Y-146789713D01*
X290543900Y-146789713D02*
X290472471Y-146861142D01*
X290472471Y-146861142D02*
X290329614Y-146932570D01*
X290329614Y-146932570D02*
X289901042Y-146932570D01*
X289901042Y-146932570D02*
X289758185Y-146861142D01*
X289758185Y-146861142D02*
X289686757Y-146789713D01*
X289686757Y-146789713D02*
X289615328Y-146646856D01*
X289615328Y-146646856D02*
X289615328Y-146432570D01*
X289615328Y-146432570D02*
X289686757Y-146289713D01*
X289686757Y-146289713D02*
X289758185Y-146218285D01*
X289758185Y-146218285D02*
X289901042Y-146146856D01*
X289901042Y-146146856D02*
X290329614Y-146146856D01*
X290329614Y-146146856D02*
X290472471Y-146218285D01*
X290472471Y-146218285D02*
X290543900Y-146289713D01*
X290543900Y-146289713D02*
X290615328Y-146432570D01*
X290615328Y-146432570D02*
X290615328Y-146646856D01*
D10*
X288267295Y-145996143D02*
X288267295Y-146453286D01*
X288267295Y-146224714D02*
X287467295Y-146224714D01*
X287467295Y-146224714D02*
X287581580Y-146300905D01*
X287581580Y-146300905D02*
X287657771Y-146377095D01*
X287657771Y-146377095D02*
X287695866Y-146453286D01*
X287467295Y-145500904D02*
X287467295Y-145424714D01*
X287467295Y-145424714D02*
X287505390Y-145348523D01*
X287505390Y-145348523D02*
X287543485Y-145310428D01*
X287543485Y-145310428D02*
X287619676Y-145272333D01*
X287619676Y-145272333D02*
X287772057Y-145234238D01*
X287772057Y-145234238D02*
X287962533Y-145234238D01*
X287962533Y-145234238D02*
X288114914Y-145272333D01*
X288114914Y-145272333D02*
X288191104Y-145310428D01*
X288191104Y-145310428D02*
X288229200Y-145348523D01*
X288229200Y-145348523D02*
X288267295Y-145424714D01*
X288267295Y-145424714D02*
X288267295Y-145500904D01*
X288267295Y-145500904D02*
X288229200Y-145577095D01*
X288229200Y-145577095D02*
X288191104Y-145615190D01*
X288191104Y-145615190D02*
X288114914Y-145653285D01*
X288114914Y-145653285D02*
X287962533Y-145691381D01*
X287962533Y-145691381D02*
X287772057Y-145691381D01*
X287772057Y-145691381D02*
X287619676Y-145653285D01*
X287619676Y-145653285D02*
X287543485Y-145615190D01*
X287543485Y-145615190D02*
X287505390Y-145577095D01*
X287505390Y-145577095D02*
X287467295Y-145500904D01*
X287733961Y-144548523D02*
X288267295Y-144548523D01*
X287429200Y-144738999D02*
X288000628Y-144929476D01*
X288000628Y-144929476D02*
X288000628Y-144434237D01*
X262067295Y-146262809D02*
X262067295Y-146186619D01*
X262067295Y-146186619D02*
X262105390Y-146110428D01*
X262105390Y-146110428D02*
X262143485Y-146072333D01*
X262143485Y-146072333D02*
X262219676Y-146034238D01*
X262219676Y-146034238D02*
X262372057Y-145996143D01*
X262372057Y-145996143D02*
X262562533Y-145996143D01*
X262562533Y-145996143D02*
X262714914Y-146034238D01*
X262714914Y-146034238D02*
X262791104Y-146072333D01*
X262791104Y-146072333D02*
X262829200Y-146110428D01*
X262829200Y-146110428D02*
X262867295Y-146186619D01*
X262867295Y-146186619D02*
X262867295Y-146262809D01*
X262867295Y-146262809D02*
X262829200Y-146339000D01*
X262829200Y-146339000D02*
X262791104Y-146377095D01*
X262791104Y-146377095D02*
X262714914Y-146415190D01*
X262714914Y-146415190D02*
X262562533Y-146453286D01*
X262562533Y-146453286D02*
X262372057Y-146453286D01*
X262372057Y-146453286D02*
X262219676Y-146415190D01*
X262219676Y-146415190D02*
X262143485Y-146377095D01*
X262143485Y-146377095D02*
X262105390Y-146339000D01*
X262105390Y-146339000D02*
X262067295Y-146262809D01*
X262067295Y-145500904D02*
X262067295Y-145424714D01*
X262067295Y-145424714D02*
X262105390Y-145348523D01*
X262105390Y-145348523D02*
X262143485Y-145310428D01*
X262143485Y-145310428D02*
X262219676Y-145272333D01*
X262219676Y-145272333D02*
X262372057Y-145234238D01*
X262372057Y-145234238D02*
X262562533Y-145234238D01*
X262562533Y-145234238D02*
X262714914Y-145272333D01*
X262714914Y-145272333D02*
X262791104Y-145310428D01*
X262791104Y-145310428D02*
X262829200Y-145348523D01*
X262829200Y-145348523D02*
X262867295Y-145424714D01*
X262867295Y-145424714D02*
X262867295Y-145500904D01*
X262867295Y-145500904D02*
X262829200Y-145577095D01*
X262829200Y-145577095D02*
X262791104Y-145615190D01*
X262791104Y-145615190D02*
X262714914Y-145653285D01*
X262714914Y-145653285D02*
X262562533Y-145691381D01*
X262562533Y-145691381D02*
X262372057Y-145691381D01*
X262372057Y-145691381D02*
X262219676Y-145653285D01*
X262219676Y-145653285D02*
X262143485Y-145615190D01*
X262143485Y-145615190D02*
X262105390Y-145577095D01*
X262105390Y-145577095D02*
X262067295Y-145500904D01*
X262067295Y-144548523D02*
X262067295Y-144700904D01*
X262067295Y-144700904D02*
X262105390Y-144777095D01*
X262105390Y-144777095D02*
X262143485Y-144815190D01*
X262143485Y-144815190D02*
X262257771Y-144891380D01*
X262257771Y-144891380D02*
X262410152Y-144929476D01*
X262410152Y-144929476D02*
X262714914Y-144929476D01*
X262714914Y-144929476D02*
X262791104Y-144891380D01*
X262791104Y-144891380D02*
X262829200Y-144853285D01*
X262829200Y-144853285D02*
X262867295Y-144777095D01*
X262867295Y-144777095D02*
X262867295Y-144624714D01*
X262867295Y-144624714D02*
X262829200Y-144548523D01*
X262829200Y-144548523D02*
X262791104Y-144510428D01*
X262791104Y-144510428D02*
X262714914Y-144472333D01*
X262714914Y-144472333D02*
X262524438Y-144472333D01*
X262524438Y-144472333D02*
X262448247Y-144510428D01*
X262448247Y-144510428D02*
X262410152Y-144548523D01*
X262410152Y-144548523D02*
X262372057Y-144624714D01*
X262372057Y-144624714D02*
X262372057Y-144777095D01*
X262372057Y-144777095D02*
X262410152Y-144853285D01*
X262410152Y-144853285D02*
X262448247Y-144891380D01*
X262448247Y-144891380D02*
X262524438Y-144929476D01*
X267185390Y-146148523D02*
X267147295Y-146224713D01*
X267147295Y-146224713D02*
X267147295Y-146338999D01*
X267147295Y-146338999D02*
X267185390Y-146453285D01*
X267185390Y-146453285D02*
X267261580Y-146529475D01*
X267261580Y-146529475D02*
X267337771Y-146567570D01*
X267337771Y-146567570D02*
X267490152Y-146605666D01*
X267490152Y-146605666D02*
X267604438Y-146605666D01*
X267604438Y-146605666D02*
X267756819Y-146567570D01*
X267756819Y-146567570D02*
X267833009Y-146529475D01*
X267833009Y-146529475D02*
X267909200Y-146453285D01*
X267909200Y-146453285D02*
X267947295Y-146338999D01*
X267947295Y-146338999D02*
X267947295Y-146262808D01*
X267947295Y-146262808D02*
X267909200Y-146148523D01*
X267909200Y-146148523D02*
X267871104Y-146110427D01*
X267871104Y-146110427D02*
X267604438Y-146110427D01*
X267604438Y-146110427D02*
X267604438Y-146262808D01*
X267947295Y-145767570D02*
X267147295Y-145767570D01*
X267147295Y-145767570D02*
X267947295Y-145310427D01*
X267947295Y-145310427D02*
X267147295Y-145310427D01*
X267947295Y-144929475D02*
X267147295Y-144929475D01*
X267147295Y-144929475D02*
X267147295Y-144738999D01*
X267147295Y-144738999D02*
X267185390Y-144624713D01*
X267185390Y-144624713D02*
X267261580Y-144548523D01*
X267261580Y-144548523D02*
X267337771Y-144510428D01*
X267337771Y-144510428D02*
X267490152Y-144472332D01*
X267490152Y-144472332D02*
X267604438Y-144472332D01*
X267604438Y-144472332D02*
X267756819Y-144510428D01*
X267756819Y-144510428D02*
X267833009Y-144548523D01*
X267833009Y-144548523D02*
X267909200Y-144624713D01*
X267909200Y-144624713D02*
X267947295Y-144738999D01*
X267947295Y-144738999D02*
X267947295Y-144929475D01*
X264645390Y-157064190D02*
X264607295Y-157140380D01*
X264607295Y-157140380D02*
X264607295Y-157254666D01*
X264607295Y-157254666D02*
X264645390Y-157368952D01*
X264645390Y-157368952D02*
X264721580Y-157445142D01*
X264721580Y-157445142D02*
X264797771Y-157483237D01*
X264797771Y-157483237D02*
X264950152Y-157521333D01*
X264950152Y-157521333D02*
X265064438Y-157521333D01*
X265064438Y-157521333D02*
X265216819Y-157483237D01*
X265216819Y-157483237D02*
X265293009Y-157445142D01*
X265293009Y-157445142D02*
X265369200Y-157368952D01*
X265369200Y-157368952D02*
X265407295Y-157254666D01*
X265407295Y-157254666D02*
X265407295Y-157178475D01*
X265407295Y-157178475D02*
X265369200Y-157064190D01*
X265369200Y-157064190D02*
X265331104Y-157026094D01*
X265331104Y-157026094D02*
X265064438Y-157026094D01*
X265064438Y-157026094D02*
X265064438Y-157178475D01*
X265407295Y-156683237D02*
X264607295Y-156683237D01*
X264607295Y-156683237D02*
X265407295Y-156226094D01*
X265407295Y-156226094D02*
X264607295Y-156226094D01*
X265407295Y-155845142D02*
X264607295Y-155845142D01*
X264607295Y-155845142D02*
X264607295Y-155654666D01*
X264607295Y-155654666D02*
X264645390Y-155540380D01*
X264645390Y-155540380D02*
X264721580Y-155464190D01*
X264721580Y-155464190D02*
X264797771Y-155426095D01*
X264797771Y-155426095D02*
X264950152Y-155387999D01*
X264950152Y-155387999D02*
X265064438Y-155387999D01*
X265064438Y-155387999D02*
X265216819Y-155426095D01*
X265216819Y-155426095D02*
X265293009Y-155464190D01*
X265293009Y-155464190D02*
X265369200Y-155540380D01*
X265369200Y-155540380D02*
X265407295Y-155654666D01*
X265407295Y-155654666D02*
X265407295Y-155845142D01*
D12*
%TO.C,D21*%
X325250000Y-70500000D02*
X325650000Y-70500000D01*
X325650000Y-70500000D02*
X325650000Y-69950000D01*
X325650000Y-70500000D02*
X325650000Y-71050000D01*
X325650000Y-70500000D02*
X326250000Y-70100000D01*
X326250000Y-70100000D02*
X326250000Y-70900000D01*
X326250000Y-70500000D02*
X326750000Y-70500000D01*
X326250000Y-70900000D02*
X325650000Y-70500000D01*
%TO.C,D27*%
X363250000Y-146500000D02*
X363650000Y-146500000D01*
X363650000Y-146500000D02*
X363650000Y-145950000D01*
X363650000Y-146500000D02*
X363650000Y-147050000D01*
X363650000Y-146500000D02*
X364250000Y-146100000D01*
X364250000Y-146100000D02*
X364250000Y-146900000D01*
X364250000Y-146500000D02*
X364750000Y-146500000D01*
X364250000Y-146900000D02*
X363650000Y-146500000D01*
%TO.C,D17*%
X325250000Y-146500000D02*
X325650000Y-146500000D01*
X325650000Y-146500000D02*
X325650000Y-145950000D01*
X325650000Y-146500000D02*
X325650000Y-147050000D01*
X325650000Y-146500000D02*
X326250000Y-146100000D01*
X326250000Y-146100000D02*
X326250000Y-146900000D01*
X326250000Y-146500000D02*
X326750000Y-146500000D01*
X326250000Y-146900000D02*
X325650000Y-146500000D01*
%TO.C,D16*%
X306250000Y-70500000D02*
X306650000Y-70500000D01*
X306650000Y-70500000D02*
X306650000Y-69950000D01*
X306650000Y-70500000D02*
X306650000Y-71050000D01*
X306650000Y-70500000D02*
X307250000Y-70100000D01*
X307250000Y-70100000D02*
X307250000Y-70900000D01*
X307250000Y-70500000D02*
X307750000Y-70500000D01*
X307250000Y-70900000D02*
X306650000Y-70500000D01*
%TO.C,D7*%
X277725000Y-146500000D02*
X278125000Y-146500000D01*
X278125000Y-146500000D02*
X278125000Y-145950000D01*
X278125000Y-146500000D02*
X278125000Y-147050000D01*
X278125000Y-146500000D02*
X278725000Y-146100000D01*
X278725000Y-146100000D02*
X278725000Y-146900000D01*
X278725000Y-146500000D02*
X279225000Y-146500000D01*
X278725000Y-146900000D02*
X278125000Y-146500000D01*
%TO.C,D1*%
X258775000Y-108500000D02*
X259175000Y-108500000D01*
X259175000Y-108500000D02*
X259175000Y-107950000D01*
X259175000Y-108500000D02*
X259175000Y-109050000D01*
X259175000Y-108500000D02*
X259775000Y-108100000D01*
X259775000Y-108100000D02*
X259775000Y-108900000D01*
X259775000Y-108500000D02*
X260275000Y-108500000D01*
X259775000Y-108900000D02*
X259175000Y-108500000D01*
%TO.C,D4*%
X277775000Y-108500000D02*
X278175000Y-108500000D01*
X278175000Y-108500000D02*
X278175000Y-107950000D01*
X278175000Y-108500000D02*
X278175000Y-109050000D01*
X278175000Y-108500000D02*
X278775000Y-108100000D01*
X278775000Y-108100000D02*
X278775000Y-108900000D01*
X278775000Y-108500000D02*
X279275000Y-108500000D01*
X278775000Y-108900000D02*
X278175000Y-108500000D01*
%TO.C,D2*%
X254012500Y-89500000D02*
X254412500Y-89500000D01*
X254412500Y-89500000D02*
X254412500Y-88950000D01*
X254412500Y-89500000D02*
X254412500Y-90050000D01*
X254412500Y-89500000D02*
X255012500Y-89100000D01*
X255012500Y-89100000D02*
X255012500Y-89900000D01*
X255012500Y-89500000D02*
X255512500Y-89500000D01*
X255012500Y-89900000D02*
X254412500Y-89500000D01*
%TO.C,D18*%
X325250000Y-127500000D02*
X325650000Y-127500000D01*
X325650000Y-127500000D02*
X325650000Y-126950000D01*
X325650000Y-127500000D02*
X325650000Y-128050000D01*
X325650000Y-127500000D02*
X326250000Y-127100000D01*
X326250000Y-127100000D02*
X326250000Y-127900000D01*
X326250000Y-127500000D02*
X326750000Y-127500000D01*
X326250000Y-127900000D02*
X325650000Y-127500000D01*
%TO.C,D14*%
X315775000Y-108500000D02*
X316175000Y-108500000D01*
X316175000Y-108500000D02*
X316175000Y-107950000D01*
X316175000Y-108500000D02*
X316175000Y-109050000D01*
X316175000Y-108500000D02*
X316775000Y-108100000D01*
X316775000Y-108100000D02*
X316775000Y-108900000D01*
X316775000Y-108500000D02*
X317275000Y-108500000D01*
X316775000Y-108900000D02*
X316175000Y-108500000D01*
%TO.C,D25*%
X356156250Y-89500000D02*
X356556250Y-89500000D01*
X356556250Y-89500000D02*
X356556250Y-88950000D01*
X356556250Y-89500000D02*
X356556250Y-90050000D01*
X356556250Y-89500000D02*
X357156250Y-89100000D01*
X357156250Y-89100000D02*
X357156250Y-89900000D01*
X357156250Y-89500000D02*
X357656250Y-89500000D01*
X357156250Y-89900000D02*
X356556250Y-89500000D01*
%TO.C,D12*%
X306250000Y-146500000D02*
X306650000Y-146500000D01*
X306650000Y-146500000D02*
X306650000Y-145950000D01*
X306650000Y-146500000D02*
X306650000Y-147050000D01*
X306650000Y-146500000D02*
X307250000Y-146100000D01*
X307250000Y-146100000D02*
X307250000Y-146900000D01*
X307250000Y-146500000D02*
X307750000Y-146500000D01*
X307250000Y-146900000D02*
X306650000Y-146500000D01*
%TO.C,D13*%
X306250000Y-127500000D02*
X306650000Y-127500000D01*
X306650000Y-127500000D02*
X306650000Y-126950000D01*
X306650000Y-127500000D02*
X306650000Y-128050000D01*
X306650000Y-127500000D02*
X307250000Y-127100000D01*
X307250000Y-127100000D02*
X307250000Y-127900000D01*
X307250000Y-127500000D02*
X307750000Y-127500000D01*
X307250000Y-127900000D02*
X306650000Y-127500000D01*
%TO.C,D8*%
X287250000Y-127500000D02*
X287650000Y-127500000D01*
X287650000Y-127500000D02*
X287650000Y-126950000D01*
X287650000Y-127500000D02*
X287650000Y-128050000D01*
X287650000Y-127500000D02*
X288250000Y-127100000D01*
X288250000Y-127100000D02*
X288250000Y-127900000D01*
X288250000Y-127500000D02*
X288750000Y-127500000D01*
X288250000Y-127900000D02*
X287650000Y-127500000D01*
%TO.C,D5*%
X273012500Y-89500000D02*
X273412500Y-89500000D01*
X273412500Y-89500000D02*
X273412500Y-88950000D01*
X273412500Y-89500000D02*
X273412500Y-90050000D01*
X273412500Y-89500000D02*
X274012500Y-89100000D01*
X274012500Y-89100000D02*
X274012500Y-89900000D01*
X274012500Y-89500000D02*
X274512500Y-89500000D01*
X274012500Y-89900000D02*
X273412500Y-89500000D01*
D13*
%TO.C,MCU1*%
X258695000Y-142110000D02*
X258695000Y-159890000D01*
X258695000Y-159890000D02*
X291715000Y-159890000D01*
X291715000Y-142110000D02*
X258695000Y-142110000D01*
X291715000Y-159890000D02*
X291715000Y-142110000D01*
D12*
%TO.C,D6*%
X268250000Y-70500000D02*
X268650000Y-70500000D01*
X268650000Y-70500000D02*
X268650000Y-69950000D01*
X268650000Y-70500000D02*
X268650000Y-71050000D01*
X268650000Y-70500000D02*
X269250000Y-70100000D01*
X269250000Y-70100000D02*
X269250000Y-70900000D01*
X269250000Y-70500000D02*
X269750000Y-70500000D01*
X269250000Y-70900000D02*
X268650000Y-70500000D01*
%TO.C,D11*%
X287250000Y-70500000D02*
X287650000Y-70500000D01*
X287650000Y-70500000D02*
X287650000Y-69950000D01*
X287650000Y-70500000D02*
X287650000Y-71050000D01*
X287650000Y-70500000D02*
X288250000Y-70100000D01*
X288250000Y-70100000D02*
X288250000Y-70900000D01*
X288250000Y-70500000D02*
X288750000Y-70500000D01*
X288250000Y-70900000D02*
X287650000Y-70500000D01*
%TO.C,D22*%
X344250000Y-146500000D02*
X344650000Y-146500000D01*
X344650000Y-146500000D02*
X344650000Y-145950000D01*
X344650000Y-146500000D02*
X344650000Y-147050000D01*
X344650000Y-146500000D02*
X345250000Y-146100000D01*
X345250000Y-146100000D02*
X345250000Y-146900000D01*
X345250000Y-146500000D02*
X345750000Y-146500000D01*
X345250000Y-146900000D02*
X344650000Y-146500000D01*
%TO.C,D19*%
X334775000Y-108500000D02*
X335175000Y-108500000D01*
X335175000Y-108500000D02*
X335175000Y-107950000D01*
X335175000Y-108500000D02*
X335175000Y-109050000D01*
X335175000Y-108500000D02*
X335775000Y-108100000D01*
X335775000Y-108100000D02*
X335775000Y-108900000D01*
X335775000Y-108500000D02*
X336275000Y-108500000D01*
X335775000Y-108900000D02*
X335175000Y-108500000D01*
%TO.C,D23*%
X344250000Y-127500000D02*
X344650000Y-127500000D01*
X344650000Y-127500000D02*
X344650000Y-126950000D01*
X344650000Y-127500000D02*
X344650000Y-128050000D01*
X344650000Y-127500000D02*
X345250000Y-127100000D01*
X345250000Y-127100000D02*
X345250000Y-127900000D01*
X345250000Y-127500000D02*
X345750000Y-127500000D01*
X345250000Y-127900000D02*
X344650000Y-127500000D01*
%TO.C,D3*%
X268250000Y-127500000D02*
X268650000Y-127500000D01*
X268650000Y-127500000D02*
X268650000Y-126950000D01*
X268650000Y-127500000D02*
X268650000Y-128050000D01*
X268650000Y-127500000D02*
X269250000Y-127100000D01*
X269250000Y-127100000D02*
X269250000Y-127900000D01*
X269250000Y-127500000D02*
X269750000Y-127500000D01*
X269250000Y-127900000D02*
X268650000Y-127500000D01*
%TO.C,D29*%
X363250000Y-70500000D02*
X363650000Y-70500000D01*
X363650000Y-70500000D02*
X363650000Y-69950000D01*
X363650000Y-70500000D02*
X363650000Y-71050000D01*
X363650000Y-70500000D02*
X364250000Y-70100000D01*
X364250000Y-70100000D02*
X364250000Y-70900000D01*
X364250000Y-70500000D02*
X364750000Y-70500000D01*
X364250000Y-70900000D02*
X363650000Y-70500000D01*
%TO.C,D26*%
X344250000Y-70500000D02*
X344650000Y-70500000D01*
X344650000Y-70500000D02*
X344650000Y-69950000D01*
X344650000Y-70500000D02*
X344650000Y-71050000D01*
X344650000Y-70500000D02*
X345250000Y-70100000D01*
X345250000Y-70100000D02*
X345250000Y-70900000D01*
X345250000Y-70500000D02*
X345750000Y-70500000D01*
X345250000Y-70900000D02*
X344650000Y-70500000D01*
%TO.C,D15*%
X311012500Y-89500000D02*
X311412500Y-89500000D01*
X311412500Y-89500000D02*
X311412500Y-88950000D01*
X311412500Y-89500000D02*
X311412500Y-90050000D01*
X311412500Y-89500000D02*
X312012500Y-89100000D01*
X312012500Y-89100000D02*
X312012500Y-89900000D01*
X312012500Y-89500000D02*
X312512500Y-89500000D01*
X312012500Y-89900000D02*
X311412500Y-89500000D01*
%TO.C,D10*%
X292012500Y-89500000D02*
X292412500Y-89500000D01*
X292412500Y-89500000D02*
X292412500Y-88950000D01*
X292412500Y-89500000D02*
X292412500Y-90050000D01*
X292412500Y-89500000D02*
X293012500Y-89100000D01*
X293012500Y-89100000D02*
X293012500Y-89900000D01*
X293012500Y-89500000D02*
X293512500Y-89500000D01*
X293012500Y-89900000D02*
X292412500Y-89500000D01*
%TO.C,D20*%
X330012500Y-89500000D02*
X330412500Y-89500000D01*
X330412500Y-89500000D02*
X330412500Y-88950000D01*
X330412500Y-89500000D02*
X330412500Y-90050000D01*
X330412500Y-89500000D02*
X331012500Y-89100000D01*
X331012500Y-89100000D02*
X331012500Y-89900000D01*
X331012500Y-89500000D02*
X331512500Y-89500000D01*
X331012500Y-89900000D02*
X330412500Y-89500000D01*
%TO.C,D24*%
X358537500Y-108500000D02*
X358937500Y-108500000D01*
X358937500Y-108500000D02*
X358937500Y-107950000D01*
X358937500Y-108500000D02*
X358937500Y-109050000D01*
X358937500Y-108500000D02*
X359537500Y-108100000D01*
X359537500Y-108100000D02*
X359537500Y-108900000D01*
X359537500Y-108500000D02*
X360037500Y-108500000D01*
X359537500Y-108900000D02*
X358937500Y-108500000D01*
%TO.C,D9*%
X296775000Y-108500000D02*
X297175000Y-108500000D01*
X297175000Y-108500000D02*
X297175000Y-107950000D01*
X297175000Y-108500000D02*
X297175000Y-109050000D01*
X297175000Y-108500000D02*
X297775000Y-108100000D01*
X297775000Y-108100000D02*
X297775000Y-108900000D01*
X297775000Y-108500000D02*
X298275000Y-108500000D01*
X297775000Y-108900000D02*
X297175000Y-108500000D01*
%TO.C,D28*%
X363250000Y-127500000D02*
X363650000Y-127500000D01*
X363650000Y-127500000D02*
X363650000Y-126950000D01*
X363650000Y-127500000D02*
X363650000Y-128050000D01*
X363650000Y-127500000D02*
X364250000Y-127100000D01*
X364250000Y-127100000D02*
X364250000Y-127900000D01*
X364250000Y-127500000D02*
X364750000Y-127500000D01*
X364250000Y-127900000D02*
X363650000Y-127500000D01*
%TD*%
D14*
%TO.C,MCU1*%
X262505000Y-143380000D03*
X265045000Y-143380000D03*
X267585000Y-143380000D03*
X270125000Y-143380000D03*
X272665000Y-143380000D03*
X275205000Y-143380000D03*
X277745000Y-143380000D03*
X280285000Y-143380000D03*
X282825000Y-143380000D03*
X285365000Y-143380000D03*
X287905000Y-143380000D03*
X290445000Y-143380000D03*
X290445000Y-158620000D03*
X287905000Y-158620000D03*
X285365000Y-158620000D03*
X282825000Y-158620000D03*
X280285000Y-158620000D03*
X277745000Y-158620000D03*
X275205000Y-158620000D03*
X272665000Y-158620000D03*
X270125000Y-158620000D03*
X267585000Y-158620000D03*
X265045000Y-158620000D03*
X262505000Y-158620000D03*
%TD*%
M02*
