0
SECTION
2
HEADER
9
$INSUNITS
70
4
0
ENDSEC
0
SECTION
2
TABLES
0
TABLE
2
LTYPE
0
LTYPE
72
65
70
0
2
CONTINUOUS
3
______
73
0
40
0
0
LTYPE
72
65
70
0
2
DASHED
3
_ _ _ 
73
2
40
7.5
49
5
49
-2.5
0
LTYPE
72
65
70
0
2
DOTTED
3
. . . 
73
2
40
1.5
49
0.5
49
-1
0
ENDTAB
0
TABLE
2
LAYER
0
ENDTAB
0
ENDSEC
0
SECTION
2
ENTITIES
0
LINE
8
0
6
CONTINUOUS
10
250.525
20
-124
11
255
21
-124
0
LINE
8
0
6
CONTINUOUS
10
257
20
-126
11
257
21
-140
0
ARC
8
0
6
CONTINUOUS
10
260
20
-140
40
3
50
180
51
188.1649989
0
ARC
8
0
6
CONTINUOUS
10
259.975
20
-141
40
3
50
168.9708083
51
180
0
LINE
8
0
6
CONTINUOUS
10
256.975
20
-141
11
256.975
21
-159
0
ARC
8
0
6
CONTINUOUS
10
259.975
20
-159
40
3
50
180
51
270
0
LINE
8
0
6
CONTINUOUS
10
259.975
20
-162
11
296.975
21
-162
0
ARC
8
0
6
CONTINUOUS
10
296.975
20
-159
40
3
50
270
51
279.8362744
0
ARC
8
0
6
CONTINUOUS
10
298
20
-159
40
3
50
260.1637256
51
270
0
LINE
8
0
6
CONTINUOUS
10
298
20
-162
11
316
21
-162
0
ARC
8
0
6
CONTINUOUS
10
316
20
-159
40
3
50
270
51
279.5940682
0
ARC
8
0
6
CONTINUOUS
10
317
20
-159
40
3
50
260.4059318
51
270
0
LINE
8
0
6
CONTINUOUS
10
317
20
-162
11
335
21
-162
0
ARC
8
0
6
CONTINUOUS
10
335
20
-159
40
3
50
270
51
279.5940682
0
ARC
8
0
6
CONTINUOUS
10
336
20
-159
40
3
50
260.4059318
51
270
0
LINE
8
0
6
CONTINUOUS
10
336
20
-162
11
354
21
-162
0
ARC
8
0
6
CONTINUOUS
10
354
20
-159
40
3
50
270
51
279.5940682
0
ARC
8
0
6
CONTINUOUS
10
355
20
-159
40
3
50
260.4059318
51
270
0
LINE
8
0
6
CONTINUOUS
10
355
20
-162
11
373
21
-162
0
ARC
8
0
6
CONTINUOUS
10
373
20
-159
40
3
50
270
51
360
0
LINE
8
0
6
CONTINUOUS
10
376
20
-159
11
376
21
-141
0
ARC
8
0
6
CONTINUOUS
10
373
20
-141
40
3
50
0
51
9.5940682
0
ARC
8
0
6
CONTINUOUS
10
373
20
-140
40
3
50
350.4059318
51
360
0
LINE
8
0
6
CONTINUOUS
10
376
20
-140
11
376
21
-122
0
ARC
8
0
6
CONTINUOUS
10
373
20
-122
40
3
50
0
51
7.4532912
0
ARC
8
0
6
CONTINUOUS
10
373.0375
20
-121
40
3
50
348.2515381
51
360
0
LINE
8
0
6
CONTINUOUS
10
376.0375
20
-121
11
376.0375
21
-103
0
ARC
8
0
6
CONTINUOUS
10
373.0375
20
-103
40
3
50
360
51
369.9523517
0
ARC
8
0
6
CONTINUOUS
10
373.03125
20
-102
40
3
50
350.7638371
51
360
0
LINE
8
0
6
CONTINUOUS
10
376.03125
20
-102
11
376.03125
21
-84
0
ARC
8
0
6
CONTINUOUS
10
373.03125
20
-84
40
3
50
360
51
371.3887076
0
ARC
8
0
6
CONTINUOUS
10
373
20
-83
40
3
50
352.1911135
51
360
0
LINE
8
0
6
CONTINUOUS
10
376
20
-83
11
376
21
-65
0
ARC
8
0
6
CONTINUOUS
10
373
20
-65
40
3
50
0
51
90
0
LINE
8
0
6
CONTINUOUS
10
373
20
-62
11
355
21
-62
0
ARC
8
0
6
CONTINUOUS
10
355
20
-65
40
3
50
90
51
99.5940682
0
ARC
8
0
6
CONTINUOUS
10
354
20
-65
40
3
50
80.4059318
51
90
0
LINE
8
0
6
CONTINUOUS
10
354
20
-62
11
336
21
-62
0
ARC
8
0
6
CONTINUOUS
10
336
20
-65
40
3
50
90
51
99.5940682
0
ARC
8
0
6
CONTINUOUS
10
335
20
-65
40
3
50
80.4059318
51
90
0
LINE
8
0
6
CONTINUOUS
10
335
20
-62
11
317
21
-62
0
ARC
8
0
6
CONTINUOUS
10
317
20
-65
40
3
50
90
51
99.5940682
0
ARC
8
0
6
CONTINUOUS
10
316
20
-65
40
3
50
80.4059318
51
90
0
LINE
8
0
6
CONTINUOUS
10
316
20
-62
11
298
21
-62
0
ARC
8
0
6
CONTINUOUS
10
298
20
-65
40
3
50
90
51
99.5940682
0
ARC
8
0
6
CONTINUOUS
10
297
20
-65
40
3
50
80.4059318
51
90
0
LINE
8
0
6
CONTINUOUS
10
297
20
-62
11
279
21
-62
0
ARC
8
0
6
CONTINUOUS
10
279
20
-65
40
3
50
90
51
99.5940682
0
ARC
8
0
6
CONTINUOUS
10
278
20
-65
40
3
50
80.4059318
51
90
0
LINE
8
0
6
CONTINUOUS
10
278
20
-62
11
260
21
-62
0
ARC
8
0
6
CONTINUOUS
10
260
20
-65
40
3
50
90
51
180
0
LINE
8
0
6
CONTINUOUS
10
257
20
-65
11
257
21
-79
0
LINE
8
0
6
CONTINUOUS
10
255
20
-81
11
245.7625
21
-81
0
ARC
8
0
6
CONTINUOUS
10
245.7625
20
-84
40
3
50
90
51
180
0
LINE
8
0
6
CONTINUOUS
10
242.7625
20
-84
11
242.7625
21
-102
0
ARC
8
0
6
CONTINUOUS
10
245.7625
20
-102
40
3
50
180
51
270
0
LINE
8
0
6
CONTINUOUS
10
245.7625
20
-105
11
247.525
21
-105
0
LINE
8
0
6
CONTINUOUS
10
247.525
20
-105
11
247.525
21
-121
0
ARC
8
0
6
CONTINUOUS
10
250.525
20
-121
40
3
50
180
51
270
0
ARC
8
0
6
CONTINUOUS
10
255
20
-126
40
2
50
0
51
90
0
ARC
8
0
6
CONTINUOUS
10
255
20
-79
40
2
50
270
51
0
0
ENDSEC
0
EOF