0
SECTION
2
HEADER
9
$INSUNITS
70
4
0
ENDSEC
0
SECTION
2
TABLES
0
TABLE
2
LTYPE
0
LTYPE
72
65
70
0
2
CONTINUOUS
3
______
73
0
40
0
0
LTYPE
72
65
70
0
2
DASHED
3
_ _ _ 
73
2
40
7.5
49
5
49
-2.5
0
LTYPE
72
65
70
0
2
DOTTED
3
. . . 
73
2
40
1.5
49
0.5
49
-1
0
ENDTAB
0
TABLE
2
LAYER
0
ENDTAB
0
ENDSEC
0
SECTION
2
ENTITIES
0
LINE
8
0
6
CONTINUOUS
10
91
20
-162
11
109
21
-162
0
ARC
8
0
6
CONTINUOUS
10
109
20
-159
40
3
50
270
51
279.5940682
0
ARC
8
0
6
CONTINUOUS
10
110
20
-159
40
3
50
260.4059318
51
270
0
LINE
8
0
6
CONTINUOUS
10
110
20
-162
11
128
21
-162
0
ARC
8
0
6
CONTINUOUS
10
128
20
-159
40
3
50
270
51
279.5940682
0
ARC
8
0
6
CONTINUOUS
10
129
20
-159
40
3
50
260.4059318
51
270
0
LINE
8
0
6
CONTINUOUS
10
129
20
-162
11
147
21
-162
0
ARC
8
0
6
CONTINUOUS
10
147
20
-159
40
3
50
270
51
279.5940682
0
ARC
8
0
6
CONTINUOUS
10
148
20
-159
40
3
50
260.4059318
51
270
0
LINE
8
0
6
CONTINUOUS
10
148
20
-162
11
166
21
-162
0
ARC
8
0
6
CONTINUOUS
10
166
20
-159
40
3
50
270
51
279.5940682
0
ARC
8
0
6
CONTINUOUS
10
167
20
-159
40
3
50
260.4059318
51
270
0
LINE
8
0
6
CONTINUOUS
10
167
20
-162
11
185
21
-162
0
ARC
8
0
6
CONTINUOUS
10
185
20
-159
40
3
50
270
51
279.8362744
0
ARC
8
0
6
CONTINUOUS
10
186.025
20
-159
40
3
50
260.1637256
51
270
0
LINE
8
0
6
CONTINUOUS
10
186.025
20
-162
11
223.025
21
-162
0
ARC
8
0
6
CONTINUOUS
10
223.025
20
-159
40
3
50
270
51
360
0
LINE
8
0
6
CONTINUOUS
10
226.025
20
-159
11
226.025
21
-141
0
ARC
8
0
6
CONTINUOUS
10
223.025
20
-141
40
3
50
360
51
368.1649989
0
ARC
8
0
6
CONTINUOUS
10
223.05
20
-140
40
3
50
348.9708083
51
360
0
LINE
8
0
6
CONTINUOUS
10
226.05
20
-140
11
226.05
21
-122
0
ARC
8
0
6
CONTINUOUS
10
223.05
20
-122
40
3
50
0
51
90
0
LINE
8
0
6
CONTINUOUS
10
223.05
20
-119
11
218.525
21
-119
0
LINE
8
0
6
CONTINUOUS
10
216.525
20
-117
11
216.525
21
-103
0
ARC
8
0
6
CONTINUOUS
10
213.525
20
-103
40
3
50
0
51
90
0
LINE
8
0
6
CONTINUOUS
10
213.525
20
-100
11
211.7625
21
-100
0
LINE
8
0
6
CONTINUOUS
10
211.7625
20
-100
11
211.7625
21
-88
0
LINE
8
0
6
CONTINUOUS
10
213.7625
20
-86
11
223
21
-86
0
ARC
8
0
6
CONTINUOUS
10
223
20
-83
40
3
50
270
51
360
0
LINE
8
0
6
CONTINUOUS
10
226
20
-83
11
226
21
-65
0
ARC
8
0
6
CONTINUOUS
10
223
20
-65
40
3
50
0
51
90
0
LINE
8
0
6
CONTINUOUS
10
223
20
-62
11
205
21
-62
0
ARC
8
0
6
CONTINUOUS
10
205
20
-65
40
3
50
90
51
99.5940682
0
ARC
8
0
6
CONTINUOUS
10
204
20
-65
40
3
50
80.4059318
51
90
0
LINE
8
0
6
CONTINUOUS
10
204
20
-62
11
186
21
-62
0
ARC
8
0
6
CONTINUOUS
10
186
20
-65
40
3
50
90
51
99.5940682
0
ARC
8
0
6
CONTINUOUS
10
185
20
-65
40
3
50
80.4059318
51
90
0
LINE
8
0
6
CONTINUOUS
10
185
20
-62
11
167
21
-62
0
ARC
8
0
6
CONTINUOUS
10
167
20
-65
40
3
50
90
51
99.5940682
0
ARC
8
0
6
CONTINUOUS
10
166
20
-65
40
3
50
80.4059318
51
90
0
LINE
8
0
6
CONTINUOUS
10
166
20
-62
11
148
21
-62
0
ARC
8
0
6
CONTINUOUS
10
148
20
-65
40
3
50
90
51
99.5940682
0
ARC
8
0
6
CONTINUOUS
10
147
20
-65
40
3
50
80.4059318
51
90
0
LINE
8
0
6
CONTINUOUS
10
147
20
-62
11
129
21
-62
0
ARC
8
0
6
CONTINUOUS
10
129
20
-65
40
3
50
90
51
99.5940682
0
ARC
8
0
6
CONTINUOUS
10
128
20
-65
40
3
50
80.4059318
51
90
0
LINE
8
0
6
CONTINUOUS
10
128
20
-62
11
110
21
-62
0
ARC
8
0
6
CONTINUOUS
10
110
20
-65
40
3
50
90
51
99.5940682
0
ARC
8
0
6
CONTINUOUS
10
109
20
-65
40
3
50
80.4059318
51
90
0
LINE
8
0
6
CONTINUOUS
10
109
20
-62
11
91
21
-62
0
ARC
8
0
6
CONTINUOUS
10
91
20
-65
40
3
50
90
51
180
0
LINE
8
0
6
CONTINUOUS
10
88
20
-65
11
88
21
-83
0
ARC
8
0
6
CONTINUOUS
10
91
20
-83
40
3
50
180
51
189.9523517
0
ARC
8
0
6
CONTINUOUS
10
91.00625
20
-84
40
3
50
170.7638371
51
180
0
LINE
8
0
6
CONTINUOUS
10
88.00625
20
-84
11
88.00625
21
-102
0
ARC
8
0
6
CONTINUOUS
10
91.00625
20
-102
40
3
50
180
51
189.9523517
0
ARC
8
0
6
CONTINUOUS
10
91.0125
20
-103
40
3
50
170.7638371
51
180
0
LINE
8
0
6
CONTINUOUS
10
88.0125
20
-103
11
88.0125
21
-121
0
ARC
8
0
6
CONTINUOUS
10
91.0125
20
-121
40
3
50
180
51
190.3109843
0
ARC
8
0
6
CONTINUOUS
10
91.025
20
-122
40
3
50
171.1213345
51
180
0
LINE
8
0
6
CONTINUOUS
10
88.025
20
-122
11
88.025
21
-140
0
ARC
8
0
6
CONTINUOUS
10
91.025
20
-140
40
3
50
180
51
188.1649989
0
ARC
8
0
6
CONTINUOUS
10
91
20
-141
40
3
50
168.9708083
51
180
0
LINE
8
0
6
CONTINUOUS
10
88
20
-141
11
88
21
-159
0
ARC
8
0
6
CONTINUOUS
10
91
20
-159
40
3
50
180
51
270
0
ARC
8
0
6
CONTINUOUS
10
218.525
20
-117
40
2
50
180
51
270
0
ARC
8
0
6
CONTINUOUS
10
213.7625
20
-88
40
2
50
90
51
180
0
ENDSEC
0
EOF