0
SECTION
2
HEADER
9
$INSUNITS
70
4
0
ENDSEC
0
SECTION
2
TABLES
0
TABLE
2
LTYPE
0
LTYPE
72
65
70
0
2
CONTINUOUS
3
______
73
0
40
0
0
LTYPE
72
65
70
0
2
DASHED
3
_ _ _ 
73
2
40
7.5
49
5
49
-2.5
0
LTYPE
72
65
70
0
2
DOTTED
3
. . . 
73
2
40
1.5
49
0.5
49
-1
0
ENDTAB
0
TABLE
2
LAYER
0
ENDTAB
0
ENDSEC
0
SECTION
2
ENTITIES
0
LINE
8
0
6
CONTINUOUS
10
91
20
-159
11
109
21
-159
0
LINE
8
0
6
CONTINUOUS
10
109
20
-159
11
109
21
-141
0
LINE
8
0
6
CONTINUOUS
10
109
20
-141
11
91
21
-141
0
LINE
8
0
6
CONTINUOUS
10
91
20
-141
11
91
21
-159
0
LINE
8
0
6
CONTINUOUS
10
91.025
20
-140
11
128.025
21
-140
0
LINE
8
0
6
CONTINUOUS
10
91.025
20
-122
11
128.025
21
-122
0
LINE
8
0
6
CONTINUOUS
10
91.0125
20
-121
11
118.5125
21
-121
0
LINE
8
0
6
CONTINUOUS
10
91.0125
20
-103
11
118.5125
21
-103
0
LINE
8
0
6
CONTINUOUS
10
91.00625
20
-102
11
113.75625
21
-102
0
LINE
8
0
6
CONTINUOUS
10
91.00625
20
-84
11
113.75625
21
-84
0
LINE
8
0
6
CONTINUOUS
10
91
20
-83
11
109
21
-83
0
LINE
8
0
6
CONTINUOUS
10
109
20
-83
11
109
21
-65
0
LINE
8
0
6
CONTINUOUS
10
109
20
-65
11
91
21
-65
0
LINE
8
0
6
CONTINUOUS
10
91
20
-65
11
91
21
-83
0
LINE
8
0
6
CONTINUOUS
10
110
20
-159
11
128
21
-159
0
LINE
8
0
6
CONTINUOUS
10
128
20
-159
11
128
21
-141
0
LINE
8
0
6
CONTINUOUS
10
128
20
-141
11
110
21
-141
0
LINE
8
0
6
CONTINUOUS
10
110
20
-141
11
110
21
-159
0
LINE
8
0
6
CONTINUOUS
10
129.05
20
-140
11
147.05
21
-140
0
LINE
8
0
6
CONTINUOUS
10
147.05
20
-140
11
147.05
21
-122
0
LINE
8
0
6
CONTINUOUS
10
147.05
20
-122
11
129.05
21
-122
0
LINE
8
0
6
CONTINUOUS
10
129.05
20
-122
11
129.05
21
-140
0
LINE
8
0
6
CONTINUOUS
10
119.525
20
-121
11
137.525
21
-121
0
LINE
8
0
6
CONTINUOUS
10
137.525
20
-121
11
137.525
21
-103
0
LINE
8
0
6
CONTINUOUS
10
137.525
20
-103
11
119.525
21
-103
0
LINE
8
0
6
CONTINUOUS
10
119.525
20
-103
11
119.525
21
-121
0
LINE
8
0
6
CONTINUOUS
10
114.7625
20
-102
11
132.7625
21
-102
0
LINE
8
0
6
CONTINUOUS
10
132.7625
20
-102
11
132.7625
21
-84
0
LINE
8
0
6
CONTINUOUS
10
132.7625
20
-84
11
114.7625
21
-84
0
LINE
8
0
6
CONTINUOUS
10
114.7625
20
-84
11
114.7625
21
-102
0
LINE
8
0
6
CONTINUOUS
10
110
20
-83
11
128
21
-83
0
LINE
8
0
6
CONTINUOUS
10
128
20
-83
11
128
21
-65
0
LINE
8
0
6
CONTINUOUS
10
128
20
-65
11
110
21
-65
0
LINE
8
0
6
CONTINUOUS
10
110
20
-65
11
110
21
-83
0
LINE
8
0
6
CONTINUOUS
10
129
20
-159
11
147
21
-159
0
LINE
8
0
6
CONTINUOUS
10
147
20
-159
11
147
21
-141
0
LINE
8
0
6
CONTINUOUS
10
147
20
-141
11
129
21
-141
0
LINE
8
0
6
CONTINUOUS
10
129
20
-141
11
129
21
-159
0
LINE
8
0
6
CONTINUOUS
10
148.05
20
-140
11
166.05
21
-140
0
LINE
8
0
6
CONTINUOUS
10
166.05
20
-140
11
166.05
21
-122
0
LINE
8
0
6
CONTINUOUS
10
166.05
20
-122
11
148.05
21
-122
0
LINE
8
0
6
CONTINUOUS
10
148.05
20
-122
11
148.05
21
-140
0
LINE
8
0
6
CONTINUOUS
10
138.525
20
-121
11
156.525
21
-121
0
LINE
8
0
6
CONTINUOUS
10
156.525
20
-121
11
156.525
21
-103
0
LINE
8
0
6
CONTINUOUS
10
156.525
20
-103
11
138.525
21
-103
0
LINE
8
0
6
CONTINUOUS
10
138.525
20
-103
11
138.525
21
-121
0
LINE
8
0
6
CONTINUOUS
10
133.7625
20
-102
11
151.7625
21
-102
0
LINE
8
0
6
CONTINUOUS
10
151.7625
20
-102
11
151.7625
21
-84
0
LINE
8
0
6
CONTINUOUS
10
151.7625
20
-84
11
133.7625
21
-84
0
LINE
8
0
6
CONTINUOUS
10
133.7625
20
-84
11
133.7625
21
-102
0
LINE
8
0
6
CONTINUOUS
10
129
20
-83
11
147
21
-83
0
LINE
8
0
6
CONTINUOUS
10
147
20
-83
11
147
21
-65
0
LINE
8
0
6
CONTINUOUS
10
147
20
-65
11
129
21
-65
0
LINE
8
0
6
CONTINUOUS
10
129
20
-65
11
129
21
-83
0
LINE
8
0
6
CONTINUOUS
10
148
20
-159
11
166
21
-159
0
LINE
8
0
6
CONTINUOUS
10
166
20
-159
11
166
21
-141
0
LINE
8
0
6
CONTINUOUS
10
166
20
-141
11
148
21
-141
0
LINE
8
0
6
CONTINUOUS
10
148
20
-141
11
148
21
-159
0
LINE
8
0
6
CONTINUOUS
10
167.05
20
-140
11
185.05
21
-140
0
LINE
8
0
6
CONTINUOUS
10
185.05
20
-140
11
185.05
21
-122
0
LINE
8
0
6
CONTINUOUS
10
185.05
20
-122
11
167.05
21
-122
0
LINE
8
0
6
CONTINUOUS
10
167.05
20
-122
11
167.05
21
-140
0
LINE
8
0
6
CONTINUOUS
10
157.525
20
-121
11
175.525
21
-121
0
LINE
8
0
6
CONTINUOUS
10
175.525
20
-121
11
175.525
21
-103
0
LINE
8
0
6
CONTINUOUS
10
175.525
20
-103
11
157.525
21
-103
0
LINE
8
0
6
CONTINUOUS
10
157.525
20
-103
11
157.525
21
-121
0
LINE
8
0
6
CONTINUOUS
10
152.7625
20
-102
11
170.7625
21
-102
0
LINE
8
0
6
CONTINUOUS
10
170.7625
20
-102
11
170.7625
21
-84
0
LINE
8
0
6
CONTINUOUS
10
170.7625
20
-84
11
152.7625
21
-84
0
LINE
8
0
6
CONTINUOUS
10
152.7625
20
-84
11
152.7625
21
-102
0
LINE
8
0
6
CONTINUOUS
10
148
20
-83
11
166
21
-83
0
LINE
8
0
6
CONTINUOUS
10
166
20
-83
11
166
21
-65
0
LINE
8
0
6
CONTINUOUS
10
166
20
-65
11
148
21
-65
0
LINE
8
0
6
CONTINUOUS
10
148
20
-65
11
148
21
-83
0
LINE
8
0
6
CONTINUOUS
10
167
20
-159
11
185
21
-159
0
LINE
8
0
6
CONTINUOUS
10
185
20
-159
11
185
21
-141
0
LINE
8
0
6
CONTINUOUS
10
185
20
-141
11
167
21
-141
0
LINE
8
0
6
CONTINUOUS
10
167
20
-141
11
167
21
-159
0
LINE
8
0
6
CONTINUOUS
10
186.05
20
-140
11
204.05
21
-140
0
LINE
8
0
6
CONTINUOUS
10
204.05
20
-140
11
204.05
21
-122
0
LINE
8
0
6
CONTINUOUS
10
204.05
20
-122
11
186.05
21
-122
0
LINE
8
0
6
CONTINUOUS
10
186.05
20
-122
11
186.05
21
-140
0
LINE
8
0
6
CONTINUOUS
10
176.525
20
-121
11
194.525
21
-121
0
LINE
8
0
6
CONTINUOUS
10
194.525
20
-121
11
194.525
21
-103
0
LINE
8
0
6
CONTINUOUS
10
194.525
20
-103
11
176.525
21
-103
0
LINE
8
0
6
CONTINUOUS
10
176.525
20
-103
11
176.525
21
-121
0
LINE
8
0
6
CONTINUOUS
10
171.7625
20
-102
11
189.7625
21
-102
0
LINE
8
0
6
CONTINUOUS
10
189.7625
20
-102
11
189.7625
21
-84
0
LINE
8
0
6
CONTINUOUS
10
189.7625
20
-84
11
171.7625
21
-84
0
LINE
8
0
6
CONTINUOUS
10
171.7625
20
-84
11
171.7625
21
-102
0
LINE
8
0
6
CONTINUOUS
10
167
20
-83
11
185
21
-83
0
LINE
8
0
6
CONTINUOUS
10
185
20
-83
11
185
21
-65
0
LINE
8
0
6
CONTINUOUS
10
185
20
-65
11
167
21
-65
0
LINE
8
0
6
CONTINUOUS
10
167
20
-65
11
167
21
-83
0
LINE
8
0
6
CONTINUOUS
10
186.025
20
-159
11
223.025
21
-159
0
LINE
8
0
6
CONTINUOUS
10
186.025
20
-141
11
223.025
21
-141
0
LINE
8
0
6
CONTINUOUS
10
205.05
20
-140
11
223.05
21
-140
0
LINE
8
0
6
CONTINUOUS
10
223.05
20
-140
11
223.05
21
-122
0
LINE
8
0
6
CONTINUOUS
10
223.05
20
-122
11
205.05
21
-122
0
LINE
8
0
6
CONTINUOUS
10
205.05
20
-122
11
205.05
21
-140
0
LINE
8
0
6
CONTINUOUS
10
195.525
20
-121
11
213.525
21
-121
0
LINE
8
0
6
CONTINUOUS
10
213.525
20
-121
11
213.525
21
-103
0
LINE
8
0
6
CONTINUOUS
10
213.525
20
-103
11
195.525
21
-103
0
LINE
8
0
6
CONTINUOUS
10
195.525
20
-103
11
195.525
21
-121
0
LINE
8
0
6
CONTINUOUS
10
190.7625
20
-102
11
208.7625
21
-102
0
LINE
8
0
6
CONTINUOUS
10
208.7625
20
-102
11
208.7625
21
-84
0
LINE
8
0
6
CONTINUOUS
10
208.7625
20
-84
11
190.7625
21
-84
0
LINE
8
0
6
CONTINUOUS
10
190.7625
20
-84
11
190.7625
21
-102
0
LINE
8
0
6
CONTINUOUS
10
186
20
-83
11
204
21
-83
0
LINE
8
0
6
CONTINUOUS
10
204
20
-83
11
204
21
-65
0
LINE
8
0
6
CONTINUOUS
10
204
20
-65
11
186
21
-65
0
LINE
8
0
6
CONTINUOUS
10
186
20
-65
11
186
21
-83
0
LINE
8
0
6
CONTINUOUS
10
205
20
-83
11
223
21
-83
0
LINE
8
0
6
CONTINUOUS
10
223
20
-83
11
223
21
-65
0
LINE
8
0
6
CONTINUOUS
10
223
20
-65
11
205
21
-65
0
LINE
8
0
6
CONTINUOUS
10
205
20
-65
11
205
21
-83
0
LINE
8
0
6
CONTINUOUS
10
128.025
20
-140
11
128.025
21
-122
0
LINE
8
0
6
CONTINUOUS
10
91.025
20
-122
11
91.025
21
-140
0
LINE
8
0
6
CONTINUOUS
10
223.025
20
-159
11
223.025
21
-141
0
LINE
8
0
6
CONTINUOUS
10
186.025
20
-141
11
186.025
21
-159
0
LINE
8
0
6
CONTINUOUS
10
118.5125
20
-121
11
118.5125
21
-103
0
LINE
8
0
6
CONTINUOUS
10
91.0125
20
-103
11
91.0125
21
-121
0
LINE
8
0
6
CONTINUOUS
10
113.75625
20
-102
11
113.75625
21
-84
0
LINE
8
0
6
CONTINUOUS
10
91.00625
20
-84
11
91.00625
21
-102
0
ENDSEC
0
EOF