0
SECTION
2
HEADER
9
$INSUNITS
70
4
0
ENDSEC
0
SECTION
2
TABLES
0
TABLE
2
LTYPE
0
LTYPE
72
65
70
0
2
CONTINUOUS
3
______
73
0
40
0
0
LTYPE
72
65
70
0
2
DASHED
3
_ _ _ 
73
2
40
7.5
49
5
49
-2.5
0
LTYPE
72
65
70
0
2
DOTTED
3
. . . 
73
2
40
1.5
49
0.5
49
-1
0
ENDTAB
0
TABLE
2
LAYER
0
ENDTAB
0
ENDSEC
0
SECTION
2
ENTITIES
0
LINE
8
0
6
CONTINUOUS
10
250.525
20
-121
11
268.525
21
-121
0
LINE
8
0
6
CONTINUOUS
10
268.525
20
-121
11
268.525
21
-103
0
LINE
8
0
6
CONTINUOUS
10
268.525
20
-103
11
250.525
21
-103
0
LINE
8
0
6
CONTINUOUS
10
250.525
20
-103
11
250.525
21
-121
0
LINE
8
0
6
CONTINUOUS
10
245.7625
20
-102
11
263.7625
21
-102
0
LINE
8
0
6
CONTINUOUS
10
263.7625
20
-102
11
263.7625
21
-84
0
LINE
8
0
6
CONTINUOUS
10
263.7625
20
-84
11
245.7625
21
-84
0
LINE
8
0
6
CONTINUOUS
10
245.7625
20
-84
11
245.7625
21
-102
0
LINE
8
0
6
CONTINUOUS
10
260
20
-140
11
278
21
-140
0
LINE
8
0
6
CONTINUOUS
10
278
20
-140
11
278
21
-122
0
LINE
8
0
6
CONTINUOUS
10
278
20
-122
11
260
21
-122
0
LINE
8
0
6
CONTINUOUS
10
260
20
-122
11
260
21
-140
0
LINE
8
0
6
CONTINUOUS
10
269.525
20
-121
11
287.525
21
-121
0
LINE
8
0
6
CONTINUOUS
10
287.525
20
-121
11
287.525
21
-103
0
LINE
8
0
6
CONTINUOUS
10
287.525
20
-103
11
269.525
21
-103
0
LINE
8
0
6
CONTINUOUS
10
269.525
20
-103
11
269.525
21
-121
0
LINE
8
0
6
CONTINUOUS
10
264.7625
20
-102
11
282.7625
21
-102
0
LINE
8
0
6
CONTINUOUS
10
282.7625
20
-102
11
282.7625
21
-84
0
LINE
8
0
6
CONTINUOUS
10
282.7625
20
-84
11
264.7625
21
-84
0
LINE
8
0
6
CONTINUOUS
10
264.7625
20
-84
11
264.7625
21
-102
0
LINE
8
0
6
CONTINUOUS
10
260
20
-83
11
278
21
-83
0
LINE
8
0
6
CONTINUOUS
10
278
20
-83
11
278
21
-65
0
LINE
8
0
6
CONTINUOUS
10
278
20
-65
11
260
21
-65
0
LINE
8
0
6
CONTINUOUS
10
260
20
-65
11
260
21
-83
0
LINE
8
0
6
CONTINUOUS
10
259.975
20
-159
11
296.975
21
-159
0
LINE
8
0
6
CONTINUOUS
10
259.975
20
-141
11
296.975
21
-141
0
LINE
8
0
6
CONTINUOUS
10
279
20
-140
11
297
21
-140
0
LINE
8
0
6
CONTINUOUS
10
297
20
-140
11
297
21
-122
0
LINE
8
0
6
CONTINUOUS
10
297
20
-122
11
279
21
-122
0
LINE
8
0
6
CONTINUOUS
10
279
20
-122
11
279
21
-140
0
LINE
8
0
6
CONTINUOUS
10
288.525
20
-121
11
306.525
21
-121
0
LINE
8
0
6
CONTINUOUS
10
306.525
20
-121
11
306.525
21
-103
0
LINE
8
0
6
CONTINUOUS
10
306.525
20
-103
11
288.525
21
-103
0
LINE
8
0
6
CONTINUOUS
10
288.525
20
-103
11
288.525
21
-121
0
LINE
8
0
6
CONTINUOUS
10
283.7625
20
-102
11
301.7625
21
-102
0
LINE
8
0
6
CONTINUOUS
10
301.7625
20
-102
11
301.7625
21
-84
0
LINE
8
0
6
CONTINUOUS
10
301.7625
20
-84
11
283.7625
21
-84
0
LINE
8
0
6
CONTINUOUS
10
283.7625
20
-84
11
283.7625
21
-102
0
LINE
8
0
6
CONTINUOUS
10
279
20
-83
11
297
21
-83
0
LINE
8
0
6
CONTINUOUS
10
297
20
-83
11
297
21
-65
0
LINE
8
0
6
CONTINUOUS
10
297
20
-65
11
279
21
-65
0
LINE
8
0
6
CONTINUOUS
10
279
20
-65
11
279
21
-83
0
LINE
8
0
6
CONTINUOUS
10
298
20
-159
11
316
21
-159
0
LINE
8
0
6
CONTINUOUS
10
316
20
-159
11
316
21
-141
0
LINE
8
0
6
CONTINUOUS
10
316
20
-141
11
298
21
-141
0
LINE
8
0
6
CONTINUOUS
10
298
20
-141
11
298
21
-159
0
LINE
8
0
6
CONTINUOUS
10
298
20
-140
11
316
21
-140
0
LINE
8
0
6
CONTINUOUS
10
316
20
-140
11
316
21
-122
0
LINE
8
0
6
CONTINUOUS
10
316
20
-122
11
298
21
-122
0
LINE
8
0
6
CONTINUOUS
10
298
20
-122
11
298
21
-140
0
LINE
8
0
6
CONTINUOUS
10
307.525
20
-121
11
325.525
21
-121
0
LINE
8
0
6
CONTINUOUS
10
325.525
20
-121
11
325.525
21
-103
0
LINE
8
0
6
CONTINUOUS
10
325.525
20
-103
11
307.525
21
-103
0
LINE
8
0
6
CONTINUOUS
10
307.525
20
-103
11
307.525
21
-121
0
LINE
8
0
6
CONTINUOUS
10
302.7625
20
-102
11
320.7625
21
-102
0
LINE
8
0
6
CONTINUOUS
10
320.7625
20
-102
11
320.7625
21
-84
0
LINE
8
0
6
CONTINUOUS
10
320.7625
20
-84
11
302.7625
21
-84
0
LINE
8
0
6
CONTINUOUS
10
302.7625
20
-84
11
302.7625
21
-102
0
LINE
8
0
6
CONTINUOUS
10
298
20
-83
11
316
21
-83
0
LINE
8
0
6
CONTINUOUS
10
316
20
-83
11
316
21
-65
0
LINE
8
0
6
CONTINUOUS
10
316
20
-65
11
298
21
-65
0
LINE
8
0
6
CONTINUOUS
10
298
20
-65
11
298
21
-83
0
LINE
8
0
6
CONTINUOUS
10
317
20
-159
11
335
21
-159
0
LINE
8
0
6
CONTINUOUS
10
335
20
-159
11
335
21
-141
0
LINE
8
0
6
CONTINUOUS
10
335
20
-141
11
317
21
-141
0
LINE
8
0
6
CONTINUOUS
10
317
20
-141
11
317
21
-159
0
LINE
8
0
6
CONTINUOUS
10
317
20
-140
11
335
21
-140
0
LINE
8
0
6
CONTINUOUS
10
335
20
-140
11
335
21
-122
0
LINE
8
0
6
CONTINUOUS
10
335
20
-122
11
317
21
-122
0
LINE
8
0
6
CONTINUOUS
10
317
20
-122
11
317
21
-140
0
LINE
8
0
6
CONTINUOUS
10
326.525
20
-121
11
344.525
21
-121
0
LINE
8
0
6
CONTINUOUS
10
344.525
20
-121
11
344.525
21
-103
0
LINE
8
0
6
CONTINUOUS
10
344.525
20
-103
11
326.525
21
-103
0
LINE
8
0
6
CONTINUOUS
10
326.525
20
-103
11
326.525
21
-121
0
LINE
8
0
6
CONTINUOUS
10
321.7625
20
-102
11
339.7625
21
-102
0
LINE
8
0
6
CONTINUOUS
10
339.7625
20
-102
11
339.7625
21
-84
0
LINE
8
0
6
CONTINUOUS
10
339.7625
20
-84
11
321.7625
21
-84
0
LINE
8
0
6
CONTINUOUS
10
321.7625
20
-84
11
321.7625
21
-102
0
LINE
8
0
6
CONTINUOUS
10
317
20
-83
11
335
21
-83
0
LINE
8
0
6
CONTINUOUS
10
335
20
-83
11
335
21
-65
0
LINE
8
0
6
CONTINUOUS
10
335
20
-65
11
317
21
-65
0
LINE
8
0
6
CONTINUOUS
10
317
20
-65
11
317
21
-83
0
LINE
8
0
6
CONTINUOUS
10
336
20
-159
11
354
21
-159
0
LINE
8
0
6
CONTINUOUS
10
354
20
-159
11
354
21
-141
0
LINE
8
0
6
CONTINUOUS
10
354
20
-141
11
336
21
-141
0
LINE
8
0
6
CONTINUOUS
10
336
20
-141
11
336
21
-159
0
LINE
8
0
6
CONTINUOUS
10
336
20
-140
11
354
21
-140
0
LINE
8
0
6
CONTINUOUS
10
354
20
-140
11
354
21
-122
0
LINE
8
0
6
CONTINUOUS
10
354
20
-122
11
336
21
-122
0
LINE
8
0
6
CONTINUOUS
10
336
20
-122
11
336
21
-140
0
LINE
8
0
6
CONTINUOUS
10
345.5375
20
-121
11
373.0375
21
-121
0
LINE
8
0
6
CONTINUOUS
10
345.5375
20
-103
11
373.0375
21
-103
0
LINE
8
0
6
CONTINUOUS
10
340.78125
20
-102
11
373.03125
21
-102
0
LINE
8
0
6
CONTINUOUS
10
340.78125
20
-84
11
373.03125
21
-84
0
LINE
8
0
6
CONTINUOUS
10
336
20
-83
11
354
21
-83
0
LINE
8
0
6
CONTINUOUS
10
354
20
-83
11
354
21
-65
0
LINE
8
0
6
CONTINUOUS
10
354
20
-65
11
336
21
-65
0
LINE
8
0
6
CONTINUOUS
10
336
20
-65
11
336
21
-83
0
LINE
8
0
6
CONTINUOUS
10
355
20
-159
11
373
21
-159
0
LINE
8
0
6
CONTINUOUS
10
373
20
-159
11
373
21
-141
0
LINE
8
0
6
CONTINUOUS
10
373
20
-141
11
355
21
-141
0
LINE
8
0
6
CONTINUOUS
10
355
20
-141
11
355
21
-159
0
LINE
8
0
6
CONTINUOUS
10
355
20
-140
11
373
21
-140
0
LINE
8
0
6
CONTINUOUS
10
373
20
-140
11
373
21
-122
0
LINE
8
0
6
CONTINUOUS
10
373
20
-122
11
355
21
-122
0
LINE
8
0
6
CONTINUOUS
10
355
20
-122
11
355
21
-140
0
LINE
8
0
6
CONTINUOUS
10
355
20
-83
11
373
21
-83
0
LINE
8
0
6
CONTINUOUS
10
373
20
-83
11
373
21
-65
0
LINE
8
0
6
CONTINUOUS
10
373
20
-65
11
355
21
-65
0
LINE
8
0
6
CONTINUOUS
10
355
20
-65
11
355
21
-83
0
LINE
8
0
6
CONTINUOUS
10
296.975
20
-159
11
296.975
21
-141
0
LINE
8
0
6
CONTINUOUS
10
259.975
20
-141
11
259.975
21
-159
0
LINE
8
0
6
CONTINUOUS
10
373.0375
20
-121
11
373.0375
21
-103
0
LINE
8
0
6
CONTINUOUS
10
345.5375
20
-103
11
345.5375
21
-121
0
LINE
8
0
6
CONTINUOUS
10
373.03125
20
-102
11
373.03125
21
-84
0
LINE
8
0
6
CONTINUOUS
10
340.78125
20
-84
11
340.78125
21
-102
0
ENDSEC
0
EOF